<svg width="239" height="51" viewBox="0 0 239 51" fill="none" xmlns="http://www.w3.org/2000/svg">
<g clip-path="url(#clip0_5_7474)">
<path d="M56.212 27.9091C55.8773 29.2294 55.1003 30.3951 54.0103 31.2118C52.9203 32.0285 51.5833 32.447 50.2222 32.3973C49.6253 32.374 49.0419 32.2124 48.5181 31.9251C47.9943 31.6378 47.5443 31.2328 47.2037 30.742C46.8631 30.2512 46.6412 29.688 46.5554 29.0968C46.4696 28.5056 46.5223 27.9025 46.7094 27.3351C47.0343 26.0179 47.8024 24.8526 48.8849 24.0347C49.9674 23.2169 51.2983 22.7964 52.6541 22.8438C53.2606 22.8455 53.8578 22.9927 54.3956 23.2732C54.9334 23.5536 55.396 23.959 55.7446 24.4553C56.0932 24.9516 56.3176 25.5243 56.3989 26.1253C56.4802 26.7263 56.4161 27.3381 56.212 27.9091ZM58.6731 18.5838L58.1296 20.5357C57.6976 19.5967 56.9917 18.8105 56.1045 18.2802C55.2173 17.75 54.1905 17.5007 53.1589 17.565C50.3751 17.4823 47.6487 18.3668 45.4436 20.0679C43.2385 21.769 41.6909 24.1816 41.0643 26.8951C39.6949 32.2491 41.9732 37.1798 47.9815 37.6C49.1269 37.7228 50.2851 37.5814 51.3672 37.1867C52.4493 36.792 53.4265 36.1543 54.2237 35.3229L53.722 37.323L59.3253 37.7148L64.1816 19.0368L58.6684 18.6513L58.6731 18.5838ZM67.4477 19.2199L72.7359 19.5897L72.2374 21.5448C72.8736 20.718 73.7166 20.0736 74.6813 19.6766C75.646 19.2795 76.6984 19.1439 77.7323 19.2833L76.299 24.9042C73.6436 24.7185 71.7575 25.1746 70.9469 28.035L68.2847 38.2961L62.5914 37.898L67.4477 19.2199Z" fill="#363333"/>
<path d="M82.0089 12.7755L75.2831 38.7852L80.9764 39.1833L83.303 30.1651L83.393 30.1713L86.3996 39.5625L92.813 40.011L88.605 29.0433L97.8493 21.3455L91.1659 20.8782L84.1376 27.2837L84.0476 27.2774L87.7022 13.1737L82.0089 12.7755Z" fill="#363333"/>
<path d="M100.688 28.9387C101.165 28.0006 101.909 27.2248 102.826 26.7094C103.744 26.194 104.793 25.9621 105.843 26.0429C106.305 26.0212 106.767 26.0972 107.198 26.266C107.629 26.4348 108.02 26.6926 108.344 27.0226C108.669 27.3526 108.921 27.7473 109.082 28.181C109.244 28.6148 109.313 29.0778 109.284 29.5398L100.688 28.9387ZM106.986 21.3289C104.154 21.2824 101.388 22.1803 99.1233 23.881C96.8587 25.5817 95.225 27.9883 94.4802 30.7207C94.0993 31.9177 94.0005 33.1867 94.1914 34.4282C94.3824 35.6698 94.8581 36.8503 95.5811 37.8776C96.3042 38.9048 97.2551 39.7508 98.3594 40.3494C99.4638 40.948 100.692 41.2831 101.947 41.3283C103.97 41.4544 105.987 40.9991 107.76 40.0162C109.792 38.9438 111.537 37.3983 112.846 35.51L107.063 35.1056C106.559 35.6282 105.946 36.0328 105.267 36.2903C104.588 36.5478 103.861 36.6518 103.137 36.5949C102.641 36.6178 102.147 36.5312 101.688 36.3414C101.229 36.1516 100.818 35.8632 100.483 35.4967C100.148 35.1302 99.8984 34.6945 99.7509 34.2205C99.6034 33.7465 99.5619 33.2459 99.6295 32.7542L113.829 33.7471C114.054 33.2824 114.224 32.7936 114.338 32.2902C115.83 26.4699 112.77 21.7333 106.986 21.3289Z" fill="#363333"/>
<path d="M34.7075 9.46819L23.6666 23.7791L23.5766 23.7728L24.6261 8.76324L19.788 8.42492L0.235417 33.5376L7.09885 34.0175L18.0948 19.7035L18.1848 19.7098L17.1352 34.7193L22.0184 35.0608L33.0143 20.7468L33.1043 20.7531L32.0547 35.7626L37.748 36.1607L39.5907 9.80966L34.7075 9.46819ZM129.399 23.552L125.821 23.3018L127.248 17.7709L122.274 17.4231L121.712 19.6451C121.525 20.6192 120.976 21.4863 120.176 22.0722C119.376 22.6581 118.383 22.9193 117.398 22.8033L116.25 26.929L119.063 27.1257L115.316 41.5848L120.964 41.9798L124.712 27.5207L128.335 27.774L129.399 23.552Z" fill="#363333"/>
<path d="M222.899 22.6501L228.547 23.0451L226.181 32.3093C226.828 31.4657 227.69 30.8114 228.676 30.415C229.662 30.0185 230.737 29.8944 231.788 30.0556C232.701 30.0696 233.597 30.2989 234.404 30.7247C235.211 31.1505 235.907 31.7608 236.433 32.5061C237.52 34.4363 237.266 36.1146 236.4 39.446L233.726 49.8871L228.077 49.4921L230.688 39.3179C230.931 38.4304 231.687 35.3852 228.716 35.1775C227.716 35.1162 226.729 35.4334 225.952 36.0661C225.174 36.6988 224.663 37.6006 224.52 38.5927L221.823 49.0322L216.265 48.6435L222.899 22.6501ZM198.573 28.3888L195.085 28.1449L196.444 22.6093L191.471 22.2615L190.825 24.3872C190.638 25.3612 190.089 26.2284 189.289 26.8143C188.489 27.4002 187.496 27.6614 186.511 27.5454L185.447 31.7674L188.238 31.9626L184.513 46.4232L190.161 46.8182L193.886 32.3575L197.509 32.6109L198.573 28.3888ZM170.321 40.7951C171.7 40.8717 173.063 40.4667 174.176 39.6494C175.289 38.8321 176.083 37.6533 176.423 36.3148C176.627 35.7437 176.692 35.132 176.61 34.5309C176.529 33.9299 176.304 33.3572 175.956 32.8609C175.607 32.3646 175.145 31.9592 174.607 31.6788C174.069 31.3984 173.472 31.2512 172.865 31.2494C171.51 31.202 170.179 31.6226 169.096 32.4404C168.014 33.2582 167.246 34.4236 166.921 35.7408C166.734 36.3082 166.681 36.9112 166.767 37.5024C166.853 38.0937 167.074 38.6569 167.415 39.1477C167.756 39.6385 168.206 40.0435 168.729 40.3308C169.253 40.618 169.837 40.7797 170.434 40.803M179.66 45.9708L173.944 45.5711L174.446 43.571C173.649 44.4356 172.66 45.1014 171.559 45.5153C170.458 45.9291 169.275 46.0795 168.106 45.9543C162.098 45.5342 159.797 40.6019 161.189 35.2495C161.823 32.5484 163.371 30.1491 165.57 28.4571C167.769 26.765 170.484 25.884 173.258 25.9628C174.278 25.9208 175.288 26.185 176.157 26.7212C177.026 27.2575 177.715 28.0414 178.135 28.9722L178.679 27.0203L184.282 27.4121L179.66 45.9708ZM171.096 12.2438L159.598 18.2237L162.726 18.4424L151.686 32.7308L152.734 17.7437L147.761 17.396L136.722 31.6843L137.77 16.6973L131.987 16.2929L130.146 42.6215L135.074 42.9661L146.119 28.5877L145.065 43.6648L149.948 44.0062L169.544 18.9192L172.335 19.1143L171.096 12.2438ZM216.227 41.4273C215.12 43.6212 213.407 45.452 211.292 46.7027C209.176 47.9535 206.747 48.5718 204.291 48.4846C203.003 48.466 201.737 48.1428 200.597 47.5413C199.458 46.9399 198.477 46.0774 197.734 45.0242C196.992 43.971 196.509 42.7572 196.326 41.4818C196.143 40.2064 196.264 38.9057 196.679 37.686C197.434 34.9459 199.096 32.5433 201.394 30.8717C203.693 29.2001 206.491 28.3587 209.33 28.4852C210.426 28.4909 211.509 28.7208 212.513 29.1608C213.517 29.6008 214.42 30.2415 215.166 31.0437C215.913 31.8458 216.488 32.7922 216.855 33.8248C217.222 34.8574 217.374 35.9542 217.302 37.0477L211.563 36.6464C211.457 35.8184 211.046 35.0596 210.411 34.5178C209.776 33.976 208.962 33.6899 208.128 33.7152C206.804 33.6438 205.499 34.0507 204.45 34.8615C203.401 35.6724 202.679 36.8332 202.414 38.1323C202.185 38.6826 202.092 39.2805 202.145 39.8745C202.198 40.4685 202.395 41.0406 202.718 41.5417C203.041 42.0428 203.481 42.4578 204.001 42.7508C204.52 43.0438 205.103 43.2062 205.699 43.2238C206.601 43.2754 207.501 43.1006 208.318 42.7154C209.135 42.3302 209.842 41.7467 210.376 41.0182L216.159 41.4226L216.227 41.4273Z" fill="#4DB84D"/>
</g>
<defs>
<clipPath id="clip0_5_7474">
<rect width="236.769" height="34" fill="white" transform="translate(2.54919 0.44873) rotate(4)"/>
</clipPath>
</defs>
</svg>
