<svg width="1583" height="509" viewBox="0 0 1583 509" fill="none" xmlns="http://www.w3.org/2000/svg">
<path d="M1451 127.648C1357.83 243.482 1121.5 459 662 320.648C372.514 233.487 111 437 8 495" stroke="url(#paint0_linear_9_614)" stroke-width="30"/>
<path d="M1442.96 178.622C1432.07 189.272 1360.81 220.422 1360.81 220.422C1360.81 220.422 1393.55 149.88 1404.43 139.246C1406.98 136.524 1410.05 134.346 1413.45 132.844C1416.86 131.342 1420.54 130.546 1424.27 130.506C1427.99 130.465 1431.69 131.18 1435.13 132.607C1438.57 134.035 1441.68 136.145 1444.28 138.81C1446.89 141.476 1448.92 144.641 1450.27 148.115C1451.61 151.589 1452.24 155.3 1452.11 159.022C1451.97 162.745 1451.09 166.403 1449.51 169.774C1447.92 173.146 1445.67 176.161 1442.89 178.638L1442.96 178.622Z" fill="url(#paint1_linear_9_614)"/>
<path d="M1436.27 166.9C1430.63 172.418 1393.7 188.553 1393.7 188.553C1393.7 188.553 1410.67 151.986 1416.32 146.485C1417.65 145.103 1419.24 144.001 1421 143.245C1422.75 142.489 1424.65 142.094 1426.56 142.085C1428.48 142.076 1430.37 142.451 1432.14 143.19C1433.91 143.929 1435.51 145.015 1436.85 146.385C1438.18 147.754 1439.23 149.379 1439.93 151.162C1440.63 152.945 1440.96 154.851 1440.91 156.765C1440.85 158.679 1440.41 160.562 1439.62 162.304C1438.82 164.045 1437.68 165.608 1436.27 166.9Z" fill="url(#paint2_linear_9_614)"/>
<path d="M1567.24 0.234717L1579.29 0.000637168C1579.77 -0.00832904 1580.23 0.077414 1580.67 0.252793C1581.11 0.428173 1581.51 0.689619 1581.84 1.02167C1582.18 1.35373 1582.44 1.74965 1582.62 2.18599C1582.8 2.62233 1582.89 3.09024 1582.89 3.56203L1582.7 15.6339C1582.45 31.7372 1575.95 47.111 1564.56 58.5043L1555.17 67.9009L1515.17 27.9065L1524.7 18.376C1536.01 7.07251 1551.25 0.573336 1567.24 0.234717Z" fill="url(#paint3_linear_9_614)"/>
<path d="M1430.18 123.295C1414.25 112.46 1396.48 108.865 1377.57 109.919C1372.92 110.198 1368.27 109.443 1363.96 107.708C1359.64 105.973 1355.76 103.302 1352.6 99.8866L1352 99.2345L1383.77 67.4663C1392.43 58.7886 1404.95 54.5919 1418.88 55.6619L1496.03 61.631L1430.18 123.295Z" fill="url(#paint4_linear_9_614)"/>
<path d="M1462.12 153.007C1472.95 168.941 1476.55 186.714 1475.5 205.625C1475.22 210.269 1475.97 214.917 1477.71 219.234C1479.44 223.551 1482.11 227.429 1485.53 230.588L1486.18 231.19L1517.95 199.422C1526.61 190.761 1530.82 178.237 1529.74 164.31L1523.83 87.1797L1462.12 153.007Z" fill="url(#paint5_linear_9_614)"/>
<path d="M1523.98 19.0851L1409.25 133.814L1449.24 173.799L1563.97 59.0701L1523.98 19.0851Z" fill="url(#paint6_linear_9_614)"/>
<path d="M1416.38 120.917L1404.14 133.165L1449.88 178.908L1462.13 166.659L1416.38 120.917Z" fill="url(#paint7_linear_9_614)"/>
<path d="M1519.76 23.3187L1559.74 63.3037L1566.9 56.1509L1526.91 16.1659L1519.76 23.3187Z" fill="url(#paint8_linear_9_614)"/>
<path d="M1522.09 50.0937C1524.98 50.0937 1527.74 51.2387 1529.78 53.2769C1531.82 55.3151 1532.96 58.0794 1532.96 60.9618C1532.96 63.8442 1531.82 66.6085 1529.78 68.6467C1527.74 70.6848 1524.98 71.8299 1522.09 71.8299C1519.21 71.8299 1516.45 70.6848 1514.41 68.6467C1512.37 66.6085 1511.23 63.8442 1511.23 60.9618C1511.23 58.0794 1512.37 55.3151 1514.41 53.2769C1516.45 51.2387 1519.21 50.0937 1522.09 50.0937ZM1522.09 45.9304C1518.61 45.9312 1515.24 47.1395 1512.55 49.3492C1509.86 51.559 1508.02 54.6335 1507.34 58.0488C1506.66 61.4641 1507.19 65.0088 1508.83 68.0788C1510.47 71.1487 1513.13 73.5539 1516.35 74.8845C1519.56 76.2151 1523.14 76.3887 1526.48 75.3757C1529.81 74.3626 1532.68 72.2257 1534.62 69.3291C1536.55 66.4325 1537.42 62.9555 1537.07 59.4906C1536.73 56.0258 1535.19 52.7876 1532.73 50.3278C1529.91 47.5111 1526.08 45.9295 1522.09 45.9304Z" fill="url(#paint9_linear_9_614)"/>
<path style="mix-blend-mode:overlay" opacity="0.33" d="M1518.54 24.5316L1558.53 64.5166L1559.73 63.3107L1519.75 23.3256L1518.54 24.5316Z" fill="url(#paint10_linear_9_614)"/>
<path d="M1457.72 129.684C1484.08 103.33 1503.75 80.2782 1501.67 78.1953C1499.59 76.1123 1476.53 95.7875 1450.18 122.141C1423.83 148.494 1404.15 171.547 1406.24 173.63C1408.32 175.713 1431.37 156.037 1457.72 129.684Z" fill="url(#paint11_linear_9_614)"/>
<defs>
<linearGradient id="paint0_linear_9_614" x1="1451" y1="94.1501" x2="47.9994" y2="396.65" gradientUnits="userSpaceOnUse">
<stop stop-color="#590E4C" stop-opacity="0.7"/>
<stop offset="1" stop-color="#590E4C" stop-opacity="0"/>
</linearGradient>
<linearGradient id="paint1_linear_9_614" x1="1447.11" y1="135.571" x2="1374.65" y2="208.033" gradientUnits="userSpaceOnUse">
<stop stop-color="#FFDE55"/>
<stop offset="0.37" stop-color="#FFE061" stop-opacity="0.62"/>
<stop offset="1" stop-color="#FFE474" stop-opacity="0"/>
</linearGradient>
<linearGradient id="paint2_linear_9_614" x1="1437.5" y1="145.466" x2="1406.93" y2="176.04" gradientUnits="userSpaceOnUse">
<stop stop-color="#FF4E00"/>
<stop offset="1" stop-color="#FF621D" stop-opacity="0"/>
</linearGradient>
<linearGradient id="paint3_linear_9_614" x1="1594.24" y1="49.4252" x2="1526.52" y2="9.79862" gradientUnits="userSpaceOnUse">
<stop stop-color="#9133FF"/>
<stop offset="1" stop-color="#001780"/>
</linearGradient>
<linearGradient id="paint4_linear_9_614" x1="1499.5" y1="96.1045" x2="1352.74" y2="115.248" gradientUnits="userSpaceOnUse">
<stop stop-color="#7C1A8F"/>
<stop offset="1" stop-color="#F5415F"/>
</linearGradient>
<linearGradient id="paint5_linear_9_614" x1="1489.03" y1="83.4294" x2="1469.89" y2="230.193" gradientUnits="userSpaceOnUse">
<stop stop-color="#7C1A8F"/>
<stop offset="1" stop-color="#F5415F"/>
</linearGradient>
<linearGradient id="paint6_linear_9_614" x1="1506.59" y1="116.447" x2="1466.6" y2="76.4498" gradientUnits="userSpaceOnUse">
<stop stop-color="white"/>
<stop offset="1" stop-color="#4769FF"/>
</linearGradient>
<linearGradient id="paint7_linear_9_614" x1="1455.99" y1="172.795" x2="1410.25" y2="127.053" gradientUnits="userSpaceOnUse">
<stop stop-color="#7539FF"/>
<stop offset="1" stop-color="#12007A"/>
</linearGradient>
<linearGradient id="paint8_linear_9_614" x1="1563.3" y1="59.745" x2="1523.31" y2="19.7482" gradientUnits="userSpaceOnUse">
<stop stop-color="#9133FF"/>
<stop offset="1" stop-color="#001780"/>
</linearGradient>
<linearGradient id="paint9_linear_9_614" x1="1532.73" y1="71.579" x2="1511.46" y2="50.3278" gradientUnits="userSpaceOnUse">
<stop stop-color="#7539FF"/>
<stop offset="1" stop-color="#12007A"/>
</linearGradient>
<linearGradient id="paint10_linear_9_614" x1="1537.07" y1="45.6355" x2="1540.32" y2="42.928" gradientUnits="userSpaceOnUse">
<stop stop-color="#6A39FF"/>
<stop offset="1" stop-color="#050036"/>
</linearGradient>
<linearGradient id="paint11_linear_9_614" x1="1504.06" y1="75.8209" x2="1405.26" y2="174.62" gradientUnits="userSpaceOnUse">
<stop stop-color="#7C1A8F"/>
<stop offset="1" stop-color="#F5415F"/>
</linearGradient>
</defs>
</svg>
