<svg width="113" height="90" viewBox="0 0 113 90" fill="none" xmlns="http://www.w3.org/2000/svg">
<path fill-rule="evenodd" clip-rule="evenodd" d="M108.572 35.7775C108.623 35.7814 108.672 35.7853 108.719 35.7853C108.719 35.467 108.484 35.4621 108.187 35.456C108.051 35.4533 107.902 35.4501 107.756 35.4164L107.15 34.3097C107.661 34.0241 107.899 33.5956 107.447 33.1198L106.782 33.0126V31.8227L105.985 31.1564V30.371L105.189 30.1449V29.4308C104.476 28.9203 104.113 28.2292 103.753 27.5453C103.501 27.0656 103.25 26.5895 102.883 26.1823L102.3 26.0275V25.266C101.881 25.0436 101.639 24.6957 101.393 24.3437C101.179 24.0363 100.962 23.7257 100.624 23.4928C100.624 22.9816 100.24 22.8554 99.8513 22.7279C99.7066 22.6803 99.5614 22.6327 99.4355 22.5649C99.3761 22.4577 99.3761 22.3388 99.3761 22.0888L98.1874 21.2558V20.4943C97.9371 20.2028 97.6241 19.9635 97.307 19.7211C96.7959 19.3305 96.2744 18.9318 95.9883 18.2929C95.826 18.1962 95.6751 18.0544 95.5128 17.9018C95.2352 17.6405 94.9244 17.3483 94.4667 17.1982C93.9356 16.5348 93.3062 15.9569 92.6005 15.4845C92.2361 15.2116 91.9459 14.8515 91.7564 14.4374H91.2097C91.1818 14.2419 91.0187 14.1364 90.8575 14.0321C90.7441 13.9589 90.6316 13.8861 90.5677 13.7829H89.7357L88.8442 13.0688C88.7299 13.0475 88.6096 13.058 88.4896 13.0685C88.2728 13.0878 88.0573 13.1066 87.8813 12.9379L87.7624 12.1169L86.645 11.9623L86.5143 11.4386L85.7535 11.2245V10.7961C85.5127 10.7499 85.2776 10.6781 85.0522 10.5819C84.7911 10.4035 84.5446 10.2045 84.3151 9.98697L83.8753 10.3083C83.7182 10.1984 83.5711 10.0749 83.4355 9.93937C83.3685 9.86222 83.3222 9.76798 83.276 9.67399C83.1583 9.43424 83.0406 9.19449 82.5797 9.23722C82.5132 9.15836 82.4294 9.08365 82.3459 9.00943C82.1903 8.87101 82.0359 8.73331 81.9972 8.57071C81.9378 8.32096 81.6287 8.11857 81.4385 7.89249L80.9749 8.24942H80.1666L79.7386 7.9401L79.1205 8.41617V9.10636L79.5603 9.5109L79.394 9.99869L78.9065 9.6298H77.7178L77.0997 9.0944L77.6228 8.61832H78.8115C78.5388 8.27726 78.7364 8.1193 78.9402 7.9567C79.0208 7.89249 79.1023 7.82731 79.1562 7.74967C79.1324 7.65836 79.1404 7.56315 79.1483 7.46793C79.1641 7.27775 79.18 7.08732 78.9422 6.92862L78.5499 7.63077L77.5396 6.77408C77.5639 6.68644 77.6459 6.62858 77.7295 6.56974C77.8501 6.48478 77.9739 6.39762 77.9318 6.21476C77.8853 6.0131 77.7225 5.89225 77.5621 5.77311C77.4766 5.70963 77.3918 5.64664 77.3256 5.57218H76.3628L76.1012 4.90568H75.4236C75.3761 5.00089 75.3642 5.19132 75.2691 5.19132C74.96 5.32218 74.6272 5.41739 74.2943 5.52457C74.1898 5.21354 74.0121 4.93229 73.7763 4.7045C73.5405 4.47672 73.2534 4.309 72.9393 4.21549C72.9749 4.42985 72.8204 4.5607 72.6064 4.5607L72.1071 4.70353V5.44132L72.9393 5.76261C72.6302 6.04801 72.2736 5.92911 71.9526 5.92911H70.9779C70.7348 5.56412 70.3755 5.40568 70.027 5.25187C69.796 5.15006 69.5697 5.05045 69.385 4.89396H67.6019C67.59 4.70353 67.4236 4.58439 67.2097 4.58439C67.1381 4.58024 67.0658 4.57902 66.9939 4.57779C66.6596 4.57218 66.3333 4.56656 66.1279 4.2631C66.0307 4.29557 65.9486 4.35831 65.8663 4.42154C65.7069 4.54361 65.5463 4.66666 65.2721 4.57267L64.8204 4.22745H64.024L63.5485 3.87052H62.7758L62.2646 3.51359H61.0759L60.3152 2.88273L59.3286 2.81144L59.59 1.89518L58.4846 1.75235L58.3181 1.18107C57.9616 1.14078 57.6022 1.14225 57.2428 1.14371C56.8593 1.14542 56.4757 1.14689 56.0952 1.09781C55.9292 0.904943 55.698 0.780187 55.4458 0.747472C55.1936 0.714513 54.9382 0.775548 54.7283 0.919347L55.5841 2.27604L54.7758 2.79947L54.5974 1.89518L53.4801 1.74039C53.4323 1.60148 53.4384 1.47037 53.4441 1.3461C53.4526 1.16178 53.4604 0.992589 53.2899 0.836095L52.648 1.15738L51.067 0.455236C50.9901 0.471349 50.8965 0.461339 50.7953 0.450597C50.5996 0.429601 50.3755 0.405431 50.1874 0.562414L49.8783 1.30021L49.1413 0.431554H48.2023L47.9169 1.05021H47.5128C47.3121 0.833165 47.1168 0.773595 46.8244 0.684484C46.6838 0.641759 46.5209 0.591955 46.3241 0.514806C46.1699 0.454259 46.0242 0.380529 45.8809 0.308019C45.4606 0.0958608 45.061 -0.105799 44.5291 0.0626576C44.3606 0.122472 44.2467 0.234777 44.133 0.346837C43.9981 0.47965 43.8633 0.612462 43.6376 0.657628L43.3761 0.0863393C42.9844 -0.0786998 42.7805 0.0961049 42.5782 0.269689C42.5471 0.2963 42.5162 0.322912 42.4846 0.348302C42.017 0.419591 41.5398 0.395421 41.0819 0.276769L40.8085 0.0270131L40.3449 0.383947H39.1562C39.0638 0.494787 39.0002 0.62174 38.9367 0.748449C38.7959 1.0297 38.6559 1.309 38.2052 1.40738H37.4563L37.1116 0.621984L36.4341 1.43107H34.6272L34.1518 1.07413L33.8546 1.75235H32.2142L31.5009 2.27604V2.9899L30.3122 3.48966H28.3984C28.2266 3.67765 27.9725 3.76139 27.7191 3.84488C27.4113 3.9462 27.1047 4.04728 26.9482 4.33463C27.3167 4.73917 27.3167 4.73917 27.1859 5.16764L27.0711 5.18278C26.645 5.24088 26.2203 5.29874 25.9258 4.90568C25.818 4.93595 25.7306 5.00211 25.6436 5.06803C25.4908 5.184 25.3394 5.29874 25.0819 5.21525L24.0715 6.05997C24.0767 6.15348 24.161 6.21305 24.2475 6.27408C24.3594 6.35294 24.4751 6.43448 24.4281 6.59562H23.4058L22.9541 6.94059H22.1339C22.0088 7.10074 21.829 7.22086 21.6521 7.33927C21.4086 7.50211 21.1705 7.66129 21.0879 7.91642C20.8261 7.97037 20.5583 7.99039 20.2914 7.97574V8.65738C19.69 8.81534 19.1302 9.10245 18.651 9.49894C18.6626 9.71695 18.6626 9.93546 18.651 10.1535C18.6434 10.2406 18.6527 10.3293 18.662 10.4174C18.6819 10.6056 18.7017 10.7924 18.5559 10.9626L17.9259 11.141C17.8079 11.2985 17.8174 11.4506 17.8263 11.5939C17.8362 11.7536 17.8455 11.9018 17.6762 12.0336L16.7372 12.1169C16.6963 12.1962 16.6601 12.2677 16.6273 12.3327C16.3549 12.871 16.318 12.944 15.7981 13.0927C15.4372 13.2069 15.1212 13.4316 14.8947 13.7353V14.6872L14.1339 15.318L14.0507 16.0795L13.6941 16.3769V17.0434C13.5435 17.144 13.4168 17.2682 13.2902 17.3925C13.0272 17.6505 12.765 17.9076 12.2914 17.9477C12.1131 17.9596 11.8159 18.6855 11.8159 18.9591C12.0019 18.9457 12.1887 18.9457 12.3746 18.9591C12.3778 19.0426 12.3932 19.1286 12.4087 19.2157C12.4507 19.4521 12.4943 19.6972 12.3033 19.923H11.9823L11.0552 19.1615L10.4013 19.7802L10.2944 20.5299L9.5574 20.7441L9.49799 21.5534C8.99396 21.717 8.78653 21.7751 8.63867 21.9023C8.5285 21.9972 8.45142 22.1305 8.3093 22.3744C8.17142 22.611 8.0274 22.8456 7.8815 23.0797C7.6752 23.4108 7.46512 23.7414 7.26321 24.0761C7.18338 24.2797 7.08383 24.475 6.96603 24.6591C6.87256 24.7463 6.77722 24.8312 6.68011 24.9142C6.53745 25.036 6.39096 25.1532 6.24088 25.266V25.7895C5.99478 26.2856 5.71274 26.7629 5.39694 27.2174C5.12466 27.5585 4.95923 27.9726 4.92142 28.4074C4.61395 28.5468 4.59528 28.7968 4.5766 29.0465C4.55701 29.3085 4.53741 29.5705 4.18442 29.7045V30.4423L3.80405 30.7516V31.9416C4.05615 31.9489 4.18604 31.8161 4.31802 31.6816C4.40387 31.5939 4.49057 31.5053 4.61234 31.4538V29.9545L5.87238 29.1095C5.86011 29.0058 5.8537 28.9015 5.85315 28.7973C5.85254 28.683 5.85895 28.5688 5.87238 28.455C5.90768 28.2958 6.0101 28.1659 6.11459 28.0334C6.22107 27.8984 6.32968 27.7607 6.37167 27.5863C6.42392 27.3698 6.61191 27.1625 6.78876 26.9677C6.89368 26.8522 6.99469 26.7409 7.0611 26.6344C7.13696 26.5129 7.13968 26.3805 7.14246 26.2438C7.14621 26.0595 7.15015 25.8671 7.33453 25.6825C7.6463 25.2958 7.90231 24.8671 8.09525 24.4091C8.33167 23.9335 8.68314 23.5246 9.11758 23.2192C9.07336 22.9904 9.22098 22.8305 9.37073 22.6681C9.46255 22.5685 9.55521 22.4682 9.60492 22.3505C9.75415 21.9965 9.93729 21.6579 10.1518 21.339C10.2277 21.225 10.3511 21.1222 10.4726 21.0212C10.6554 20.8691 10.834 20.7206 10.8412 20.5419C10.8531 20.2443 11.1503 20.2443 11.4831 20.2443L12.4341 21.113C11.9772 21.2243 11.5635 21.4687 11.2454 21.8151C11.2197 21.9692 11.234 22.1203 11.248 22.267C11.2728 22.5285 11.2963 22.7765 11.0908 23.005L10.0685 23.1003C10.0685 23.7445 9.70212 24.2626 9.33484 24.7817C9.17291 25.0107 9.0108 25.2399 8.87985 25.4801C8.50314 25.3818 8.3295 25.5658 8.16855 25.7365C8.09586 25.8136 8.02576 25.8879 7.9407 25.9323C7.84827 26.1173 7.86029 26.3048 7.87213 26.4894C7.88617 26.7082 7.8999 26.9223 7.73865 27.1225L7.17999 27.2414C7.078 27.5768 6.87952 27.8749 6.60938 28.0981V29.0859C6.5257 29.1545 6.42984 29.2072 6.33585 29.2589C6.13608 29.3686 5.94467 29.4738 5.89618 29.7165C5.85925 29.9013 5.74585 30.0414 5.63516 30.1781C5.53207 30.3056 5.43134 30.4301 5.39694 30.5851C5.37878 30.7592 5.37878 30.9347 5.39694 31.1088L4.99274 31.4777C4.99274 31.9655 5.06406 32.4772 4.99274 32.8698L4.58862 33.2267V34.0241L3.73273 34.5478V35.9875L3.37613 36.2731L3.73273 36.642L3.36423 36.9872C3.30017 37.0956 3.32803 37.2145 3.3555 37.3317C3.39432 37.497 3.43237 37.6591 3.20969 37.7843C2.99838 37.9035 2.93381 38.0959 2.87335 38.276C2.82495 38.4203 2.77917 38.5566 2.66293 38.6413C2.48495 38.7707 2.46661 39.005 2.44684 39.2575C2.43756 39.3761 2.42795 39.4989 2.40137 39.6169L1.89023 39.2243C1.75775 39.2753 1.61432 39.2607 1.47122 39.246C1.28052 39.2265 1.09039 39.2072 0.927399 39.3432L0.856079 39.6764C0.970673 40.0043 1.29379 40.1234 1.61978 40.2433C1.76721 40.2975 1.91522 40.352 2.04477 40.4262L1.66437 40.7831L2.09229 41.1757L1.93774 41.6042C1.78479 41.5932 1.69461 41.5119 1.60834 41.4342C1.5069 41.3429 1.41086 41.2563 1.22455 41.2948V42.1515L0.78476 42.5324L0.903595 42.9369C1.06735 43.0165 1.24765 43.0089 1.42032 43.0016C1.66132 42.9914 1.88745 42.9818 2.03287 43.2106C1.88422 43.2983 1.76611 43.4228 1.64606 43.5495C1.43967 43.767 1.22742 43.9909 0.844177 44.0436V44.5553L0.451874 44.9123L0.808472 45.2572L0.380554 45.6977L1.24835 47.09V48.6845L0.844177 49.0414V49.7196L1.24835 50.0766V50.755L0.891693 51.1V53.2062C0.891693 53.3134 0.998718 53.3134 0.998718 53.3134L1.66437 53.4206V54.5033L1.98535 54.8603L1.61685 55.4672C1.72562 55.633 1.87766 55.7533 2.02658 55.8713C2.25195 56.05 2.47012 56.2228 2.5202 56.5382L1.62869 57.383L1.81891 57.7878L2.42517 57.8947C2.46524 58.0224 2.47293 58.1532 2.48041 58.2804C2.49731 58.568 2.51309 58.8363 2.9006 59.0014V60.0248L3.31671 60.4054L2.92441 60.7626V61.1076L3.82782 61.4765L3.22159 62.476L4.19632 63.0116V64.3561C4.29898 64.4696 4.41006 64.5756 4.51703 64.6777C4.76926 64.9184 4.9986 65.1374 5.04034 65.3796C5.06601 65.5287 5.21375 65.6335 5.37326 65.7465C5.58295 65.8949 5.81296 66.058 5.81296 66.3554C5.7897 66.4291 5.7247 66.4902 5.65427 66.5563C5.50876 66.693 5.34012 66.8517 5.46826 67.1884L6.65695 67.9975V68.6877C7.31238 69.7004 8.16058 70.5736 9.15323 71.258V71.5912L9.914 71.9006L10.1042 72.4123H10.3895L11.1978 72.8644V73.6618C11.2476 73.7008 11.2975 73.7392 11.3468 73.777C11.734 74.0736 12.0894 74.3461 12.0894 74.7685L12.7193 74.8993C12.9095 75.1015 12.9214 75.4704 13.1116 75.6252C13.3018 75.7799 13.3018 76.1488 13.3018 76.4342C13.9059 76.9657 14.5726 77.4213 15.287 77.7909C15.5535 77.8952 15.8171 77.8923 16.0765 77.8893C16.3495 77.8861 16.6178 77.883 16.8798 78.005C16.9184 78.3036 17.0686 78.5766 17.3003 78.7687C17.5319 78.9609 17.8276 79.0578 18.1279 79.0404L18.3776 79.6591L19.0195 79.2546C19.4859 79.4902 19.9114 79.7997 20.2795 80.1708L19.8754 80.5634L20.6243 80.7897C20.6696 81.0221 20.7831 81.2358 20.9504 81.4032C21.0673 81.5202 21.2067 81.611 21.3593 81.6706C21.4251 81.6962 21.4933 81.716 21.5633 81.7297C22.0593 81.8854 22.5406 82.0844 23.0017 82.3246L23.8219 81.9557L24.7015 82.8839C25.198 83.0456 25.686 83.2321 26.1636 83.4433C26.5559 83.6574 26.9006 83.9074 27.2929 84.1691H28.4816L29.3374 84.883L30.0745 84.538L31.1205 84.9782V85.3354L32.226 85.7995L32.6659 85.4306L33.5811 86.4181L34.437 86.6679V87.0844L34.972 87.2631L36.0775 86.4538L36.7668 86.8822H37.3494C37.4207 86.5253 37.7535 86.3586 38.1101 86.1681L38.5618 86.3229L38.1814 86.8822C38.6586 86.9469 38.8331 87.2377 39.0083 87.5292C39.0905 87.6662 39.173 87.8034 39.287 87.9174C40.1071 87.6786 40.4128 87.5898 40.6852 87.6503C40.847 87.6864 40.9971 87.7756 41.2364 87.9174L41.8307 87.5844C42.9329 88.0585 43.2781 88.2069 43.6365 88.2533C43.8 88.2746 43.9662 88.2746 44.2082 88.2746C44.2841 88.2533 44.3421 88.1903 44.3981 88.1293C44.4998 88.0187 44.5948 87.9152 44.7788 88.0841L44.9214 88.6432H46.9423L48.4756 89.3217H49.5811L50.021 88.9884H50.8293L51.3048 89.3454H53.4088L53.7297 89.6191L55.3701 88.9289C55.4568 89.0456 55.5294 89.1642 55.5998 89.2792C55.7806 89.5746 55.9467 89.8459 56.2974 89.9999L56.7609 89.6547H59.4712L60.9333 89.036L61.2067 89.6786C61.528 89.0971 62.0112 88.6217 62.5975 88.3102L62.752 88.798C62.9468 88.8505 63.1298 88.9455 63.3143 89.0414C63.7155 89.2499 64.1241 89.4621 64.6777 89.2502L64.9749 89.0121C65.3688 88.9797 65.7676 88.984 66.1691 88.9887C66.6521 88.9941 67.1389 88.9994 67.6257 88.9408L68.3033 88.2863H68.9214L69.385 87.9413C69.5739 87.8715 69.7775 87.8976 69.9808 87.9237C70.2635 87.9599 70.5457 87.996 70.7877 87.7746L69.6822 87.3224L69.3612 87.5844C69.2593 87.56 69.189 87.4919 69.1189 87.424C69.0257 87.3339 68.9327 87.2438 68.7656 87.257C68.7572 87.2162 68.7582 87.174 68.7686 87.1337C68.7794 87.0912 68.8003 87.0522 68.8294 87.0194C68.8586 86.987 68.8951 86.9616 68.9359 86.946C68.9767 86.9306 69.0207 86.925 69.0641 86.9298H71.2513C71.2394 86.7631 71.4534 86.6442 71.5247 86.6562C71.596 86.6681 71.6674 86.8346 71.6674 86.9298H72.4875C72.6103 86.9027 72.7298 86.863 72.8441 86.8107L73.0819 86.2397H74.2706L75.7208 85.609L76.018 85.8468C76.2101 85.7323 76.4275 85.6474 76.6436 85.5629C77.056 85.4015 77.4638 85.2421 77.6822 84.883L78.4311 85.3114L79.394 84.5141H81.0581L81.8783 83.8359C82.1398 83.8359 82.5559 83.955 82.6629 83.8359C82.8275 83.665 83.0517 83.6005 83.2742 83.5365C83.4855 83.4757 83.6953 83.4154 83.8516 83.2648C84.2771 82.798 84.8248 82.4599 85.4325 82.289C85.898 82.1149 86.3379 81.8788 86.7401 81.5868C87.3123 81.1901 88.0113 81.0204 88.7014 81.111L89.2721 80.4325H90.2349C90.6665 80.058 91.1564 79.7565 91.6851 79.5402C92.1326 79.2831 92.5343 78.9533 92.8738 78.5644C93.0592 78.3371 93.3347 78.236 93.6082 78.1359C93.8785 78.0368 94.1468 77.9384 94.3241 77.7194C94.5026 77.4989 94.8002 77.392 95.0858 77.2895C95.3708 77.1869 95.6437 77.0888 95.7743 76.8866C95.9839 76.5622 96.3386 76.4215 96.7404 76.2621C96.84 76.2226 96.9424 76.1818 97.0462 76.1369C97.243 76.0519 97.3926 75.9096 97.5446 75.7651C97.7964 75.5256 98.0546 75.2799 98.544 75.2799L99.5187 74.4472C99.6045 74.3756 99.7117 74.3051 99.8198 74.234C100.071 74.069 100.327 73.9008 100.327 73.7094C100.375 73.3886 100.601 73.2135 100.828 73.039C100.937 72.9545 101.046 72.87 101.135 72.7692C101.247 72.6427 101.393 72.538 101.534 72.4367C101.738 72.29 101.933 72.1501 102.003 71.9601L102.074 71.246L103.263 71.0558V70.675L104.713 69.485H105.177C105.235 69.2785 105.323 69.0819 105.438 68.9018C105.671 68.6772 105.917 68.4665 106.175 68.2712C105.759 67.9618 105.45 68.1283 105.106 68.4855L104.416 67.9499L104.666 67.4381C104.791 67.414 104.916 67.4186 105.04 67.423C105.283 67.4318 105.524 67.4406 105.759 67.236V65.8676L106.128 65.558C105.945 65.3503 105.856 65.2492 105.83 65.1339C105.806 65.0248 105.838 64.903 105.902 64.6657H107.257C107.416 64.2726 107.664 63.9223 107.982 63.6422C108.27 63.3151 108.507 62.946 108.684 62.5475L108.434 62.2858L108.018 62.5832L107.412 62.0954V61.7384L109.052 61.0483L108.256 60.3817L108.636 60.0129V59.0253C108.874 58.8468 109.005 58.5373 109.349 58.5373C109.512 58.6762 109.497 58.8429 109.482 58.9953C109.475 59.0651 109.469 59.132 109.48 59.1918L109.489 59.2465C109.515 59.4076 109.532 59.5109 109.896 59.3822V55.6696C109.896 55.5744 110.063 55.4911 110.063 55.4076L110.728 55.3007C110.716 55.0212 110.684 54.7428 110.633 54.4677C110.627 54.4352 110.564 54.4135 110.498 54.3908C110.444 54.3717 110.387 54.352 110.36 54.3249C110.307 54.1137 110.464 54.0077 110.623 53.9008C110.715 53.839 110.807 53.777 110.859 53.6942L111.893 53.599L111.964 53.0873L111.085 52.8256C111.174 52.7497 111.26 52.6803 111.344 52.6127C111.483 52.5004 111.617 52.3925 111.751 52.2663C111.815 52.2057 111.89 52.1515 111.967 52.0966C112.146 51.9684 112.331 51.8368 112.381 51.6117V50.9096L111.192 51.4213V51.5404C110.794 51.623 110.38 51.5858 110.003 51.4333L111.655 50.7431V50.3742L110.467 49.8981L110.288 50.862L109.278 50.9335C109.112 51.1381 109.129 51.3608 109.145 51.5788C109.164 51.8297 109.182 52.0744 108.921 52.2782L108.375 51.362L108.707 51.088V50.3981L108.315 50.0292V49.3627L108.707 49.0058C108.743 48.9037 108.73 48.7968 108.718 48.6911C108.697 48.5131 108.677 48.3383 108.886 48.1964C108.893 48.1598 108.923 48.1684 108.965 48.1803C108.99 48.1877 109.02 48.1964 109.052 48.1964L109.23 49.1247H110.134L110.598 49.4936L111.144 48.9938L110.384 47.8039V45.174L110.811 44.7218C110.787 44.4203 110.595 44.2807 110.416 44.1498C110.333 44.0898 110.253 44.0317 110.193 43.9604H109.147V42.4848L108.755 42.0683L109.112 41.7707L108.743 41.4137L109.195 40.9972L108.327 40.4379V39.6884L108.672 39.3312L108.291 38.903L109.551 38.7362L108.719 37.5463V36.3564L107.852 36.0114C108.112 35.7414 108.356 35.7607 108.572 35.7775ZM111.192 51.5404C111.328 51.6142 111.459 51.6977 111.584 51.7902C111.268 51.9821 111.245 51.8415 111.217 51.6674C111.21 51.6256 111.203 51.5819 111.192 51.5404ZM110.36 54.3249C110.241 54.4677 110.146 54.5629 110.051 54.6581C109.826 54.3952 109.978 54.3766 110.186 54.3515C110.242 54.3449 110.302 54.3376 110.36 54.3249ZM68.7193 87.2631H68.4459L67.4712 87.7629C67.6577 87.8744 67.8674 87.9408 68.084 87.9574C68.1947 87.966 68.3056 87.9611 68.4145 87.9435C68.5186 87.9267 68.6209 87.8981 68.7193 87.8581V87.2631ZM12.3746 18.9591C12.4935 18.8163 12.5886 18.7211 12.6837 18.6259C12.9089 18.8888 12.7564 18.9074 12.5477 18.9325C12.492 18.9394 12.4323 18.9467 12.3746 18.9591ZM20.3038 8.67789C20.3166 8.95109 20.5524 8.97355 20.7868 8.99576C21.0016 9.01603 21.215 9.03605 21.2542 9.24918L21.5633 9.15397L21.4801 8.67789H20.3038ZM21.0879 7.91642C21.2285 7.99405 21.3636 8.08146 21.492 8.17814C21.1725 8.35685 21.1502 8.23087 21.1196 8.05851C21.1115 8.01285 21.1028 7.96378 21.0879 7.91642ZM24.4281 6.59562H25.0106C25.3672 6.77408 25.3434 7.00016 25.1057 7.23795C24.7847 7.09537 24.4876 6.92862 24.4281 6.59562ZM67.6019 4.89396C67.5076 5.01261 67.4043 5.12394 67.2929 5.22696C67.0777 4.96476 67.2307 4.94571 67.4332 4.92081C67.4879 4.91398 67.5463 4.90665 67.6019 4.89396ZM90.9006 14.7587C91.0122 14.6601 91.1156 14.5526 91.2097 14.4374C90.9363 14.4374 90.6153 14.4374 90.9006 14.7587ZM94.4667 17.1982C94.3553 17.3522 94.2936 17.4374 94.2108 17.4718C94.1081 17.5146 93.973 17.4794 93.6703 17.4003C93.7749 17.1505 93.9829 17.1735 94.1875 17.196C94.2852 17.2067 94.3822 17.2174 94.4667 17.1982ZM24.0715 69.4135C23.7149 69.6396 23.7386 69.3778 23.6436 69.1042L23.6198 69.0805C23.5247 69.1994 23.4058 69.0566 23.3226 68.997C23.6471 68.8207 23.6679 68.9413 23.7008 69.133C23.7101 69.1869 23.7204 69.2465 23.7387 69.3066C23.8456 69.247 23.9645 69.3302 24.0715 69.4135ZM11.2835 61.683C11.2741 61.6293 11.2639 61.5705 11.2454 61.5121C11.0789 61.5597 10.96 61.4884 10.9125 61.4052C11.2014 61.2123 11.2407 61.3554 11.2957 61.5558C11.3086 61.6027 11.3224 61.6527 11.3405 61.7025C11.4356 61.6549 11.5544 61.7265 11.6614 61.8097C11.3379 61.9948 11.3162 61.8705 11.2835 61.683ZM77.1657 6.28336C77.1331 6.36295 77.0292 6.41349 76.8263 6.51212C76.8976 6.28605 76.6242 5.97672 77.0641 5.84586C77.1554 6.08365 77.2 6.19962 77.1657 6.28336ZM76.5402 6.50992C76.6342 6.52018 76.7287 6.53043 76.8145 6.51456L76.7669 6.52408C76.5172 6.86905 76.5172 6.8693 76.0299 6.71451C76.1342 6.46549 76.336 6.48746 76.5402 6.50992ZM108.737 45.8615C108.811 45.9648 108.864 46.0255 108.93 46.0526C109.032 46.0946 109.168 46.0563 109.468 45.9713C109.367 45.6869 109.125 45.7563 108.905 45.8192C108.846 45.8361 108.789 45.8525 108.737 45.8615ZM108.674 45.6803C108.682 45.7223 108.69 45.7677 108.703 45.8139C108.693 45.7997 108.683 45.7846 108.672 45.769C108.538 45.724 108.413 45.6557 108.303 45.5668C108.619 45.3861 108.64 45.5004 108.674 45.6803ZM23.6571 10.3473C23.6416 10.3493 23.6264 10.3512 23.6116 10.3529C23.387 10.3805 23.2444 10.3979 23.4653 10.6652C23.5469 10.571 23.6117 10.4633 23.6571 10.3473ZM24.4757 10.32H23.8219C23.7744 10.0226 24.0596 9.85611 24.4757 9.66568V10.32ZM104.48 51.5417C104.479 51.5373 104.477 51.5329 104.476 51.5285H104.499C104.493 51.5329 104.487 51.5373 104.48 51.5417ZM104.904 51.8258C104.483 52.06 104.568 51.7992 104.48 51.5417C104.327 51.6462 104.167 51.7394 104.001 51.8207C103.825 51.9074 103.641 51.9809 103.453 52.0402L103.239 51.4928L103.846 50.9096L104.476 51.0048L104.547 51.6117C104.672 51.6715 104.792 51.7433 104.904 51.8258ZM26.1399 74.3481V74.34H26.1636C26.1557 74.3427 26.1478 74.3454 26.1399 74.3481ZM26.1399 74.8637V74.3481C25.965 74.4076 25.7919 74.4723 25.6209 74.5424C25.4834 74.5985 25.3473 74.6581 25.2126 74.7209L24.6183 74.34L24.1785 74.6733H23.7743C23.4771 74.4233 23.489 74.352 23.9764 73.8522C24.0478 73.5902 24.0478 73.3285 24.0478 73.0312C24.2023 73.1144 24.3806 73.1144 24.3806 73.1144C24.4969 73.2599 24.6789 73.2973 24.8636 73.3351C25.0562 73.3744 25.2517 73.4145 25.3791 73.5785C25.5016 73.7023 25.6293 73.8207 25.7617 73.9335C25.8949 74.047 26.033 74.1549 26.1755 74.2568C26.3423 74.3017 26.4502 74.4228 26.5627 74.549C26.6588 74.6569 26.7583 74.7685 26.9006 74.8398V75.3039C26.6255 75.2958 26.4827 75.1608 26.3445 75.0304C26.2797 74.9694 26.2159 74.9093 26.1399 74.8637ZM102.978 48.8749H102.479C102.406 48.9931 102.314 49.0978 102.205 49.1842C101.932 48.8273 102.253 48.9106 102.574 48.8273C102.474 47.9904 102.434 47.1471 102.455 46.3046C102.455 46.257 102.538 46.2211 102.657 46.1142L103.239 46.59V47.6254L103.644 47.9704V49.089C103.445 49.2262 103.357 49.1339 103.258 49.0314C103.186 48.956 103.109 48.8749 102.978 48.8749ZM29.2067 7.84488L28.6242 7.45231V6.32169L30.1458 5.95304L31.1087 6.34562V6.72648L29.2067 7.84488ZM27.5782 7.51188H28.6242V8.03531C28.3857 8.04557 28.1839 8.15348 27.9746 8.26529C27.6938 8.4152 27.3993 8.57267 26.9838 8.51139L27.5782 7.51188ZM70.9408 73.9831H70.9304L70.9541 73.9591C70.9498 73.9672 70.9453 73.9753 70.9408 73.9831ZM77.3527 68.0722C75.2621 70.2299 72.7722 72.1105 69.9759 73.6379H70.7877C70.8123 73.6984 70.8494 73.7528 70.8965 73.798C70.9436 73.8432 70.9997 73.8778 71.0611 73.8998C70.9978 73.9162 70.9346 73.9284 70.8759 73.9399C70.6367 73.9862 70.4731 74.0177 70.6926 74.2568C70.7941 74.1845 70.8787 74.091 70.9408 73.9831H71.5722L71.9645 73.2929H72.4043C72.5 73.1796 72.567 73.0522 72.634 72.925C72.75 72.7043 72.8656 72.4843 73.1294 72.341C73.2373 72.2907 73.3258 72.2065 73.3816 72.1012C73.4374 71.996 73.4574 71.8754 73.4385 71.7577C73.4385 71.7577 73.6168 71.6864 73.7 71.6508L74.021 71.9245L74.33 71.6984C74.544 71.5912 74.7461 71.5912 74.9303 71.5912C75.1146 71.5912 75.281 71.5912 75.4236 71.484C75.2842 71.3234 75.1881 71.1298 75.1444 70.9215C75.1008 70.7133 75.111 70.4975 75.174 70.2941L75.7684 69.842H76.6242C76.9927 69.1398 76.9927 69.1398 77.9318 68.652C77.8822 68.5031 77.7507 68.4079 77.6181 68.3117C77.5191 68.2399 77.4194 68.1676 77.3527 68.0722ZM77.5876 67.8266C77.9244 67.7275 78.2295 67.5363 78.4667 67.2716L78.1979 67.1601C77.9986 67.3849 77.7952 67.6071 77.5876 67.8266ZM69.281 74.0068C69.0875 74.1066 68.8926 74.205 68.6964 74.3014C68.9306 74.3073 69.1075 74.3034 69.2423 74.1615L69.281 74.0068ZM67.6114 74.8114C67.3674 74.9211 67.1214 75.028 66.8736 75.1325L67.0195 75.4587L67.6114 74.8114ZM79.2697 68.6567L79.6435 68.997L79.0492 69.497L78.5261 69.1161C78.4548 69.4731 78.5262 69.8776 78.2885 70.068C78.1888 70.1479 78.1435 70.2799 78.0955 70.4196C78.029 70.613 77.9576 70.821 77.7297 70.9247C77.6214 70.9723 77.5748 71.0197 77.5898 71.0693C77.6012 71.1068 77.6478 71.1457 77.7297 71.1867H79.0492C79.1 70.9811 79.1928 70.7882 79.3217 70.6203C79.4506 70.4523 79.6128 70.3129 79.7981 70.2109H80.8322V69.0209L81.6405 68.3544L81.7119 67.2836C82.0617 66.9801 82.2641 67.1191 82.4619 67.2553C82.5667 67.3273 82.6702 67.3984 82.7936 67.4025L83.3167 66.9384L82.9601 66.5934L83.3047 66.2245L82.7104 65.7485C82.5385 65.8713 82.3842 66.0077 82.2317 66.1425C81.8672 66.4648 81.5125 66.7782 80.9511 66.8788C80.9084 66.8883 80.8669 66.9023 80.8274 66.9206C80.7795 66.9428 80.7346 66.9714 80.6938 67.0053C80.6193 67.0675 80.5609 67.1466 80.5232 67.236C80.4754 67.6989 80.1172 67.9692 79.7575 68.2406C79.5836 68.3717 79.4094 68.5031 79.2697 68.6567ZM100.85 60.8695L100.184 61.9286L100.196 61.9525C99.9732 61.8214 99.9791 61.6457 99.9853 61.4638C99.9887 61.3647 99.9921 61.2636 99.9586 61.1671L100.434 60.5959L99.9705 59.9176C100.253 59.163 100.809 58.5426 101.528 58.1803L102.039 58.8586V59.3466C101.731 59.6921 101.309 59.9159 100.85 59.9772V60.8695ZM18.7342 72.4123V72.912H17.6287C17.6197 72.7485 17.5836 72.5878 17.5218 72.4362C17.4385 72.3051 17.2484 72.1862 17.1414 72.0673C17.0709 71.9889 17.0932 71.8847 17.1167 71.7753C17.1289 71.7184 17.1414 71.6601 17.1414 71.6032C17.3991 71.6327 17.5336 71.7626 17.6609 71.8857C17.739 71.9611 17.8145 72.0339 17.914 72.079C18.1755 72.1982 18.4608 72.3051 18.7342 72.4123ZM29.3078 9.28336C29.082 9.28336 28.8625 9.20865 28.6837 9.07071V8.7255C28.7854 8.66935 28.8706 8.58414 28.9561 8.49869C29.1601 8.29435 29.3654 8.08902 29.8011 8.27335C29.9655 8.42301 29.9466 8.59635 29.9277 8.76944C29.9165 8.8715 29.9053 8.97355 29.9318 9.07071C29.753 9.20865 29.5336 9.28336 29.3078 9.28336ZM104.172 54.2338C104.166 54.3437 104.16 54.4567 104.19 54.5746L104.155 54.6105C103.558 54.8532 103.327 54.5902 103.111 54.3451C103.052 54.278 102.994 54.2121 102.93 54.1584C103.026 54.0988 103.111 54.0216 103.195 53.9452C103.413 53.747 103.626 53.5536 104.012 53.6823C104.193 53.8632 104.183 54.0439 104.172 54.2338ZM25.3672 10.7841C25.3434 10.2963 25.6049 10.213 26.0091 10.2963L26.651 10.82L25.9854 11.1054L25.3672 10.7841ZM32.308 12.5646C32.4948 12.2052 32.6717 11.8649 33.1413 11.6647L33.07 11.7004C33.0966 11.7736 33.1495 11.862 33.1949 11.9381C33.2306 11.9977 33.2617 12.05 33.2721 12.0812C33.169 12.2638 33.0596 12.4425 32.9439 12.6173C32.8475 12.7629 32.7469 12.9054 32.6421 13.0451L32.0834 12.9618C32.1696 12.831 32.2394 12.6964 32.308 12.5646ZM20.755 75.1491V75.5539L19.6614 76.0536L19.5663 75.5895C19.6722 75.5314 19.7604 75.4477 19.8482 75.3644C20.0659 75.1579 20.2806 74.954 20.755 75.1491ZM22.3479 12.8429L22.8233 13.2712C22.722 13.3608 22.5837 13.3918 22.446 13.4225C22.1636 13.4858 21.8839 13.548 21.9318 14.1161L21.5039 13.2475L22.3479 12.8429ZM17.8427 57.276L17.1889 58.1923C16.9992 57.7804 16.9778 57.3107 17.1295 56.8832C17.1702 56.8686 17.201 56.8576 17.2323 56.8559C17.3287 56.851 17.4297 56.9345 17.8427 57.276ZM32.9036 5.85782L32.7491 5.16764H33.5574L33.6881 5.72672L32.9036 5.85782ZM8.8204 37.6298C8.30927 37.1894 8.30923 37.1894 8.47565 35.9994C8.71289 36.3593 8.72406 36.6754 8.73526 36.9933C8.74258 37.2008 8.74994 37.4088 8.8204 37.6298ZM6.57373 42.6513L6.72827 43.3295H5.91998L5.78915 42.7704L6.57373 42.6513ZM22.2233 76.1496C22.2633 76.1684 22.3011 76.1921 22.336 76.2201L21.7654 77.1364C21.5096 76.9401 21.5535 76.7194 21.5987 76.4916C21.6166 76.4018 21.6346 76.311 21.6346 76.2201C21.734 76.1401 21.8577 76.0964 21.9853 76.0964C22.0681 76.0964 22.1493 76.1147 22.2233 76.1496ZM32.4279 8.30411C32.5954 8.3151 32.7526 8.38932 32.8679 8.51139L32.0596 8.92789L31.9645 8.45182C32.0948 8.34586 32.2604 8.29313 32.4279 8.30411ZM104.004 53.3315C103.715 53.123 103.705 53.1156 103.881 52.2782V52.2187C104.214 52.6708 104.202 52.9684 104.012 53.3373L104.004 53.3315ZM25.4028 8.1901C25.4622 7.91642 25.7714 7.80924 26.0448 7.53556L26.1636 8.1901C26.0579 8.28141 25.9229 8.33146 25.7832 8.33146C25.6436 8.33146 25.5086 8.28141 25.4028 8.1901ZM16.4757 54.0392C16.1904 53.7655 16.1904 53.7655 16.3925 52.9565V52.8969C16.6896 53.373 16.7015 53.7299 16.4757 54.0392ZM21.5258 74.6955C21.5869 74.8346 21.5434 75.0197 21.4207 75.5419V75.4823C21.1235 75.0065 21.0997 74.6969 21.3256 74.4591C21.4268 74.5563 21.4921 74.6191 21.5258 74.6955ZM104.274 36.5824C104.559 36.8561 104.571 36.8561 104.369 37.6654V37.6059C104.072 37.13 104.048 36.8324 104.274 36.5824ZM7.44147 40.3786V40.5451C7.34271 40.5805 7.24274 40.6125 7.14175 40.6408C7.06393 40.6625 6.9855 40.6823 6.90656 40.6999C6.85269 40.6999 6.77933 40.5434 6.75717 40.4963L6.75201 40.4855L6.75101 40.4833C6.73776 40.4574 6.69763 40.3786 6.88281 40.3786H7.44147ZM107.661 41.0092C107.364 40.7831 107.364 40.5451 107.661 40.319V40.2594C107.959 40.4855 107.959 40.7235 107.661 41.0092ZM6.49054 41.985C6.78769 41.7589 6.78769 41.5209 6.49054 41.2948C6.15768 41.5209 6.15768 41.7589 6.49054 41.985ZM103.834 46.5067H104.06C104.107 46.6496 104.139 46.7973 104.155 46.9472C104.155 46.9948 103.917 47.078 103.893 47.078L103.884 47.0785C103.847 47.081 103.752 47.0878 103.762 46.9589C103.768 46.8974 103.781 46.8339 103.796 46.769C103.814 46.683 103.834 46.5949 103.834 46.5067ZM104.226 49.7316C104.392 49.4103 104.654 49.5055 105.034 49.7316H104.999C104.654 49.9577 104.428 49.9696 104.226 49.7316ZM102.716 52.9565C102.277 52.8136 102.395 52.5995 102.657 52.29H102.681C102.954 52.54 102.966 52.7541 102.716 52.9565ZM80.0715 10.2487V10.0346H80.1903C80.3264 9.98917 80.4654 9.95328 80.6064 9.9274C80.6571 9.9274 80.7164 10.0658 80.7402 10.1215L80.749 10.1415C80.7609 10.1654 80.6183 10.2487 80.6183 10.2487C80.4362 10.2604 80.2536 10.2604 80.0715 10.2487ZM102.348 61.9049H102.146C102.06 61.769 101.996 61.6203 101.956 61.4645C101.956 61.4169 102.181 61.3337 102.217 61.3337C102.253 61.3337 102.348 61.4528 102.348 61.4528C102.359 61.6032 102.359 61.7543 102.348 61.9049ZM10.2944 62.8092C10.1161 63.1305 9.85458 63.0353 9.47418 62.8092H9.5336C9.87833 62.5832 10.0567 62.5712 10.2944 62.8092ZM12.6538 64.7004C12.8949 64.3993 12.9991 64.196 12.5648 64.0588C12.4395 64.2526 12.4343 64.4247 12.6538 64.7004ZM82.5797 64.737H82.8412L82.9006 64.7489C82.9452 64.8915 82.9692 65.0397 82.972 65.1891C82.972 65.2367 82.7461 65.2963 82.7104 65.3083C82.6747 65.3202 82.5797 65.2011 82.5797 65.2011C82.5681 65.0465 82.5681 64.8915 82.5797 64.737ZM7.28693 66.0341C6.83524 65.8913 6.966 65.6652 7.22751 65.3559L7.28693 65.3676C7.56033 65.6296 7.57224 65.8437 7.28693 66.0341ZM78.3003 71.6388V71.8649L78.3598 71.8769C78.1638 71.9186 77.9652 71.9464 77.7654 71.9601C77.7147 71.9601 77.6554 71.8217 77.6316 71.766L77.6228 71.746C77.6109 71.7221 77.7535 71.6388 77.7535 71.6388C77.9356 71.6271 78.1182 71.6271 78.3003 71.6388ZM15.5504 75.7497C15.6221 75.7817 15.6863 75.8285 15.7387 75.8869L15.7981 75.8988C15.7451 75.9672 15.677 76.0224 15.5991 76.0597C15.5212 76.0973 15.4358 76.1161 15.3494 76.1152C15.263 76.1139 15.178 76.0927 15.1012 76.0531C15.0244 76.0136 14.9578 75.9567 14.9066 75.8869C14.959 75.8285 15.0231 75.7817 15.0948 75.7497C15.1665 75.7174 15.2441 75.7008 15.3226 75.7008C15.4011 75.7008 15.4787 75.7174 15.5504 75.7497ZM38.0745 85.7519V85.9779L38.1339 85.9897C37.9392 86.038 37.74 86.0658 37.5396 86.0729C37.4801 86.0729 37.3969 85.8827 37.385 85.8588L37.384 85.8566C37.3707 85.8307 37.3306 85.7519 37.5157 85.7519H38.0745ZM98.4588 24.0348C98.3871 24.0028 98.323 23.956 98.2706 23.8976L98.33 23.9093C98.4325 23.8083 98.57 23.7504 98.714 23.7482C98.8579 23.746 98.9971 23.7995 99.1026 23.8976C99.0502 23.956 98.9861 24.0028 98.9144 24.0348C98.8427 24.0671 98.7651 24.0837 98.6866 24.0837C98.6081 24.0837 98.5305 24.0671 98.4588 24.0348ZM35.4355 2.038L35.5782 2.1569L35.4355 2.38297C35.388 2.33536 35.3048 2.26407 35.3048 2.26407C35.3365 2.18253 35.3806 2.10611 35.4355 2.038ZM49.9496 5.13175L50.0923 5.35782L49.9496 5.47696C49.8971 5.40299 49.8533 5.32291 49.8189 5.23893C49.807 5.21525 49.9496 5.13175 49.9496 5.13175ZM57.6287 6.33365L57.7714 6.21476L58.0328 6.33365C57.9972 6.36954 57.9021 6.44083 57.9021 6.44083C57.8066 6.41764 57.7146 6.38151 57.6287 6.33365ZM28.1963 6.67887L28.0537 6.79777L27.7802 6.67887L27.9229 6.57169C28.016 6.60221 28.1073 6.63785 28.1963 6.67887ZM35.0433 7.88077L34.9006 7.76163L35.0433 7.54752C35.0909 7.58317 35.174 7.65445 35.174 7.65445C35.1422 7.73624 35.0982 7.81241 35.0433 7.88077ZM75.4712 7.71403L75.3167 7.83317L75.0551 7.71403C75.1027 7.67838 75.1859 7.60685 75.1859 7.60685C75.2852 7.63028 75.3811 7.66617 75.4712 7.71403ZM33.1651 8.05924L33.3077 7.9401L33.5811 8.05924L33.4385 8.16617C33.3454 8.13566 33.2542 8.10001 33.1651 8.05924ZM30.6807 8.40421L30.4073 8.52335L30.2646 8.40421C30.3506 8.35636 30.4425 8.32047 30.5381 8.29703C30.5737 8.28531 30.6807 8.40421 30.6807 8.40421ZM30.8828 8.91593L31.0255 9.142L30.8828 9.2609C30.8279 9.19278 30.7838 9.11661 30.752 9.03483C30.7401 8.99918 30.8828 8.91593 30.8828 8.91593ZM37.0997 10.6413L37.2543 10.8676L37.0997 10.9865C37.0516 10.9096 37.008 10.8302 36.969 10.7484C36.969 10.7248 37.0997 10.6413 37.0997 10.6413ZM37.3137 11.4982L37.1591 11.6291L36.8977 11.4982C36.9452 11.4626 37.0284 11.391 37.0284 11.391C37.1261 11.4196 37.2214 11.4552 37.3137 11.4982ZM20.9333 12.3669L20.7788 12.236L20.9333 12.0216C20.969 12.0575 21.0641 12.1288 21.0641 12.1288C21.0251 12.2106 20.9814 12.29 20.9333 12.3669ZM25.7713 12.819C25.7713 12.7951 25.9021 12.7118 25.9021 12.7118L25.9496 12.7238C25.9869 12.7912 26.0149 12.8632 26.0329 12.9379C26.0448 12.9618 25.9021 13.0451 25.9021 13.0451C25.8473 12.977 25.8031 12.9005 25.7713 12.819ZM106.782 41.6278L106.639 41.5089L106.782 41.2829C106.829 41.3185 106.912 41.39 106.912 41.39C106.878 41.474 106.834 41.5539 106.782 41.6278ZM4.33896 41.6278L4.4816 41.8542L4.33896 41.9731C4.28644 41.8991 4.24258 41.8192 4.20822 41.735C4.19635 41.7113 4.33896 41.6278 4.33896 41.6278ZM2.63913 43.1274C2.63913 43.1034 2.76987 43.0202 2.76987 43.0202L2.92441 43.2343L2.76987 43.3654C2.7218 43.2885 2.67816 43.2091 2.63913 43.1274ZM105.641 44.3886L105.783 44.5197L105.641 44.7338C105.593 44.6982 105.51 44.6266 105.51 44.6266C105.539 44.5404 105.583 44.4599 105.641 44.3886ZM102.689 60.578C102.66 60.6015 102.633 60.6274 102.633 60.6435C102.643 60.6689 102.654 60.6938 102.666 60.7179C102.693 60.7719 102.726 60.8227 102.764 60.8695C102.764 60.8695 102.907 60.7863 102.895 60.7626C102.833 60.6933 102.765 60.6315 102.689 60.578ZM8.20227 61.9406L8.05963 61.7145L8.20227 61.5956C8.25461 61.6654 8.29849 61.7414 8.33301 61.8217C8.34488 61.8573 8.20227 61.9406 8.20227 61.9406ZM83.6019 64.3088L83.7565 64.4396L83.6019 64.6537C83.5544 64.6181 83.4712 64.5465 83.4712 64.5465C83.487 64.508 83.5047 64.4704 83.5244 64.4338C83.5476 64.3905 83.5735 64.3488 83.6019 64.3088ZM9.15323 64.8322L9.01059 64.9511L8.73721 64.8322L8.87985 64.725C8.97473 64.7504 9.06644 64.7863 9.15323 64.8322ZM27.6139 69.1398L27.4593 69.0089L27.6139 68.7948C27.6614 68.8305 27.7446 68.9018 27.7446 68.9018C27.7267 68.9457 27.7061 68.9884 27.6832 69.0299C27.6621 69.0678 27.639 69.1044 27.6139 69.1398ZM9.56931 69.9967L9.72379 69.8776L9.98532 69.9967C9.93777 70.0324 9.85458 70.1037 9.85458 70.1037C9.75693 70.0754 9.66159 70.0395 9.56931 69.9967ZM16.9987 71.0319L16.856 71.151L16.5826 71.0319C16.6302 70.9843 16.7253 70.9247 16.7253 70.9247C16.8218 70.9447 16.9143 70.9809 16.9987 71.0319ZM22.6569 71.2699C22.6926 71.258 22.7996 71.3771 22.7996 71.3771L22.8471 71.4247C22.7375 71.4511 22.6263 71.4711 22.5143 71.484C22.4786 71.484 22.3835 71.3771 22.3835 71.3771C22.4278 71.349 22.4747 71.3256 22.5236 71.307C22.5667 71.2907 22.6113 71.2782 22.6569 71.2699ZM11.602 72.0553L11.3286 72.1862L11.1859 72.0553C11.2318 72.0329 11.2787 72.0126 11.3262 71.9941C11.37 71.9772 11.4144 71.9618 11.4593 71.9482C11.495 71.9482 11.602 72.0553 11.602 72.0553ZM22.0388 72.0077C22.0388 71.9721 22.1696 71.8886 22.1696 71.8886L22.2171 71.9362C22.2501 71.9931 22.2779 72.0529 22.3003 72.1149C22.3122 72.1506 22.1696 72.2338 22.1696 72.2338C22.1172 72.1637 22.0733 72.0881 22.0388 72.0077ZM76.7194 72.4003L76.5648 72.5312L76.3033 72.4003C76.3508 72.3647 76.4341 72.2934 76.4341 72.2934L76.7194 72.4003ZM19.2691 72.5788L19.4118 72.6979L19.2691 72.924C19.2216 72.8883 19.1384 72.8048 19.1384 72.8048C19.1529 72.7712 19.169 72.7382 19.1868 72.7062C19.2112 72.662 19.2388 72.6193 19.2691 72.5788ZM36.755 85.6803C36.7907 85.6684 36.8977 85.7875 36.8977 85.7875L36.9452 85.8588C36.8391 85.8774 36.7318 85.8893 36.6242 85.8944C36.5886 85.8944 36.4816 85.7875 36.4816 85.7875C36.5684 85.7414 36.6601 85.7055 36.755 85.6803Z" fill="white"/>
<path d="M46.7156 68.8873C48.3869 67.2158 49.3469 65.082 49.5958 62.877C49.9337 59.943 48.9558 56.9023 46.7156 54.6618C45.3822 53.3282 43.7465 52.4391 42.0219 52.0301C38.7327 51.1943 35.088 52.0656 32.4922 54.6618C30.6965 56.4578 29.7187 58.7516 29.5942 61.1166C29.5053 62.1302 29.5942 63.1793 29.8609 64.1929C30.2698 65.9177 31.1588 67.5536 32.4922 68.8873C36.4214 72.8171 42.7864 72.8171 46.7156 68.8873ZM43.3731 59.9252C44.4043 59.9252 45.2577 60.7788 45.2577 61.8101C45.2399 62.8592 44.4043 63.695 43.3553 63.7128L41.4885 63.695L41.5063 65.4909C41.4885 66.5401 40.6529 67.3758 39.6039 67.3936C38.5549 67.3758 37.7193 66.5401 37.7015 65.4909L37.7193 63.695L35.8525 63.7128C34.8035 63.695 33.9679 62.8592 33.9501 61.8101C33.9679 61.2944 34.1813 60.8321 34.5191 60.4942C34.8569 60.1564 35.3191 59.943 35.8347 59.9252L37.7193 59.9252L37.7193 57.9692C37.7193 57.4358 37.9327 56.9734 38.2705 56.6356C38.6083 56.2977 39.0705 56.0843 39.6039 56.0843C40.6351 56.0843 41.4885 56.9379 41.4885 57.9692L41.4885 59.9252L43.3731 59.9252Z" fill="url(#paint0_linear_9_658)"/>
<path d="M64.3741 23.9352V33.4912H60.6026V23.9352C60.6026 23.2562 59.9992 22.9293 59.5969 22.9293C59.4711 22.9293 59.3454 22.9545 59.2197 23.0048L39.2808 30.5238C37.9482 31.0268 37.0933 32.2841 37.0933 33.7175V35.4024C34.8053 37.1124 33.3218 39.8535 33.3218 42.9466V33.7175C33.3218 30.725 35.1573 28.0594 37.9482 27.0032L57.9122 19.459C58.4654 19.2578 59.0437 19.1572 59.5969 19.1572C62.1112 19.1572 64.3741 21.1942 64.3741 23.9352Z" fill="url(#paint1_linear_9_658)"/>
<path d="M81.0983 50.4676V52.9823C81.0983 53.6613 80.5703 54.2145 79.8663 54.2397H76.1953C74.8627 54.2397 73.6558 53.2589 73.5552 51.9513C73.4798 51.1717 73.7815 50.4424 74.2844 49.9395C74.737 49.4617 75.3656 49.2102 76.0444 49.2102H79.8411C80.5703 49.2354 81.0983 49.7886 81.0983 50.4676Z" fill="url(#paint2_linear_9_658)"/>
<path d="M76.0156 46.5658H78.5803C79.9632 46.5658 81.0946 45.4341 81.0946 44.051V42.9445C81.0946 37.739 76.8454 33.4891 71.6406 33.4891H42.7758C40.6386 33.4891 38.6774 34.1933 37.0933 35.4003C34.8053 37.1104 33.3218 39.8514 33.3218 42.9445V47.4208C33.3218 48.3764 34.3275 48.9799 35.2327 48.6781C36.6407 48.2003 38.1242 47.9489 39.6077 47.9489C47.2262 47.9489 53.4367 54.1603 53.4367 61.7799C53.4367 63.5905 52.9589 65.5771 52.2046 67.3375C51.8023 68.2428 52.4309 69.3241 53.4115 69.3241H71.6406C76.8454 69.3241 81.0946 65.0742 81.0946 59.8687V59.3909C81.0946 58.0078 79.9632 56.8762 78.5803 56.8762H76.3928C73.979 56.8762 71.6658 55.3925 71.0372 53.0538C70.5343 51.1426 71.1378 49.2817 72.395 48.0746C73.3253 47.119 74.6076 46.5658 76.0156 46.5658ZM62.2369 46.0628H49.6651C48.6342 46.0628 47.7794 45.2078 47.7794 44.1768C47.7794 43.1457 48.6342 42.2907 49.6651 42.2907H62.2369C63.2678 42.2907 64.1227 43.1457 64.1227 44.1768C64.1227 45.2078 63.2678 46.0628 62.2369 46.0628Z" fill="url(#paint3_linear_9_658)"/>
<defs>
<linearGradient id="paint0_linear_9_658" x1="45.768" y1="55.8114" x2="33.2047" y2="68.3728" gradientUnits="userSpaceOnUse">
<stop stop-color="#DEB457"/>
<stop offset="0.23" stop-color="#E2BF63"/>
<stop offset="0.41" stop-color="#D6AB47"/>
<stop offset="0.59" stop-color="#AE8225"/>
<stop offset="0.77" stop-color="#CF9E25"/>
<stop offset="1" stop-color="#B48A2D"/>
</linearGradient>
<linearGradient id="paint1_linear_9_658" x1="35.6109" y1="30.8832" x2="63.035" y2="30.8832" gradientUnits="userSpaceOnUse">
<stop stop-color="#DEB457"/>
<stop offset="0.23" stop-color="#E2BF63"/>
<stop offset="0.41" stop-color="#D6AB47"/>
<stop offset="0.59" stop-color="#AE8225"/>
<stop offset="0.77" stop-color="#CF9E25"/>
<stop offset="1" stop-color="#B48A2D"/>
</linearGradient>
<linearGradient id="paint2_linear_9_658" x1="74.1006" y1="51.6893" x2="80.7725" y2="51.6893" gradientUnits="userSpaceOnUse">
<stop stop-color="#DEB457"/>
<stop offset="0.23" stop-color="#E2BF63"/>
<stop offset="0.41" stop-color="#D6AB47"/>
<stop offset="0.59" stop-color="#AE8225"/>
<stop offset="0.77" stop-color="#CF9E25"/>
<stop offset="1" stop-color="#B48A2D"/>
</linearGradient>
<linearGradient id="paint3_linear_9_658" x1="36.8435" y1="51.1524" x2="79.0344" y2="51.1524" gradientUnits="userSpaceOnUse">
<stop stop-color="#DEB457"/>
<stop offset="0.23" stop-color="#E2BF63"/>
<stop offset="0.41" stop-color="#D6AB47"/>
<stop offset="0.59" stop-color="#AE8225"/>
<stop offset="0.77" stop-color="#CF9E25"/>
<stop offset="1" stop-color="#B48A2D"/>
</linearGradient>
</defs>
</svg>
