<svg width="112" height="90" viewBox="0 0 112 90" fill="none" xmlns="http://www.w3.org/2000/svg">
<path fill-rule="evenodd" clip-rule="evenodd" d="M108.192 35.7775C108.242 35.7814 108.291 35.7853 108.339 35.7853C108.339 35.467 108.104 35.4621 107.807 35.4559C107.671 35.4531 107.522 35.45 107.376 35.4163L106.77 34.3097C107.281 34.0241 107.519 33.5957 107.067 33.1197L106.401 33.0126V31.8227L105.605 31.1563V30.3709L104.808 30.1448V29.4308C104.096 28.9204 103.732 28.2291 103.373 27.5454C103.12 27.0656 102.87 26.5895 102.502 26.1823L101.92 26.0276V25.266C101.501 25.0436 101.258 24.6957 101.013 24.3437C100.798 24.0364 100.582 23.7259 100.244 23.4929C100.244 22.9816 99.859 22.8553 99.4709 22.7279C99.3261 22.6804 99.1809 22.6327 99.055 22.5648C98.9955 22.4577 98.9955 22.3388 98.9955 22.089V22.0888L97.8068 21.2558V20.4943C97.5566 20.2028 97.2436 19.9636 96.9267 19.7213C96.4155 19.3306 95.8938 18.9318 95.6077 18.2928C95.4454 18.1962 95.2944 18.0542 95.1321 17.9016C94.8545 17.6405 94.5437 17.3482 94.0862 17.198C93.5551 16.5349 92.9257 15.957 92.2199 15.4845C91.8556 15.2115 91.5654 14.8515 91.3759 14.4374H90.8291C90.8012 14.2418 90.6382 14.1365 90.4771 14.0323C90.3636 13.9589 90.251 13.8861 90.1872 13.7829H89.3551L88.4636 13.0689C88.3493 13.0477 88.2288 13.0582 88.1088 13.0687C87.8921 13.0877 87.6767 13.1065 87.5007 12.938L87.3819 12.1169L86.2645 11.9622L86.1337 11.4386L85.3729 11.2244V10.7961C85.1322 10.75 84.8971 10.6782 84.6716 10.5819C84.4106 10.4035 84.164 10.2045 83.9346 9.98688L83.4948 10.3082C83.3377 10.1983 83.1905 10.0749 83.0549 9.9393C82.9879 9.86217 82.9417 9.76801 82.8955 9.67389C82.7777 9.43407 82.6601 9.19447 82.1991 9.2372C82.1327 9.15819 82.0488 9.08355 81.9652 9.0092C81.8097 8.87078 81.6553 8.73339 81.6167 8.57082C81.5765 8.40201 81.4224 8.25493 81.268 8.10755C81.1939 8.03677 81.1196 7.96592 81.0579 7.89257L80.5943 8.24954H79.786L79.3581 7.94014L78.7399 8.41615V9.10632L79.1797 9.5109L79.0134 9.99879L78.526 9.6299H77.3373L76.7192 9.09441L77.2422 8.61843H78.4309C78.1583 8.27727 78.3559 8.1195 78.5597 7.95672C78.6402 7.89239 78.7218 7.82727 78.7756 7.74974C78.7519 7.65851 78.7598 7.56332 78.7677 7.46813C78.7836 7.27774 78.7994 7.08736 78.5617 6.9287L78.1694 7.63078L77.159 6.774C77.1833 6.68638 77.2653 6.62863 77.3488 6.5698C77.4695 6.4848 77.5934 6.39755 77.5512 6.21472C77.5047 6.01298 77.342 5.89218 77.1816 5.77316C77.0961 5.70966 77.0112 5.64665 76.945 5.57213H75.9822L75.7206 4.90575H75.0431C75.0282 4.93562 75.0167 4.97484 75.0052 5.01463C74.9799 5.10166 74.9538 5.19133 74.8885 5.19133C74.6463 5.29393 74.3894 5.3746 74.1294 5.45626C74.0577 5.47878 73.9857 5.50137 73.9138 5.52452C73.8092 5.21359 73.6316 4.93237 73.3958 4.70457C73.1599 4.47677 72.8729 4.30908 72.5587 4.21559C72.5944 4.42979 72.4398 4.56066 72.2258 4.56066L71.7266 4.70344V5.44125L72.5587 5.76253C72.3191 5.98396 72.0509 5.96216 71.7928 5.94119C71.7181 5.93511 71.6442 5.9291 71.5721 5.9291H70.5973C70.3542 5.56411 69.9951 5.40572 69.6465 5.25202C69.4155 5.15016 69.1892 5.05036 69.0044 4.89384H67.2214C67.2095 4.70345 67.0431 4.58448 66.8291 4.58448C66.7575 4.58026 66.685 4.57903 66.613 4.57781C66.2788 4.57215 65.9527 4.56662 65.7474 4.26316C65.6501 4.29561 65.5681 4.35846 65.4857 4.42158C65.3264 4.54365 65.1658 4.6667 64.8915 4.57257L64.4398 4.22747H63.6434L63.1679 3.87049H62.3952L61.8841 3.51348H60.6954L59.9347 2.88281L58.948 2.81141L59.2095 1.89515L58.104 1.75236L57.9376 1.18117C57.581 1.14086 57.2216 1.14235 56.8621 1.14383C56.4786 1.14541 56.0951 1.147 55.7147 1.09786C55.5486 0.905058 55.3174 0.78028 55.0653 0.747353C54.8131 0.714426 54.5576 0.775665 54.3477 0.919376L55.2035 2.27595L54.3952 2.79954L54.2169 1.89515L53.0996 1.74045C53.0518 1.6016 53.0578 1.47045 53.0635 1.34624C53.072 1.16174 53.0799 0.992526 52.9094 0.83607L52.2675 1.15738L50.6865 0.45531C50.6095 0.471535 50.5159 0.461488 50.4147 0.450622C50.2191 0.429611 49.9949 0.405537 49.8068 0.562402L49.4978 1.30017L48.7608 0.431487H47.8217L47.5364 1.05029H47.1323C46.9315 0.833219 46.7361 0.773663 46.4435 0.684469C46.3031 0.641646 46.1402 0.591992 45.9436 0.514793C45.7893 0.454248 45.6436 0.38061 45.5002 0.308182C45.08 0.0959084 44.6804 -0.105973 44.1486 0.062602C43.98 0.122479 43.8662 0.234646 43.7524 0.346708C43.6175 0.479623 43.4828 0.612389 43.2571 0.657583L42.9956 0.0864245C42.6038 -0.0786962 42.3998 0.0962898 42.1975 0.269848C42.1665 0.296413 42.1356 0.322944 42.104 0.348217C41.6365 0.419683 41.1592 0.395359 40.7013 0.276786L40.4279 0.0269046L39.9643 0.383915H38.7756C38.6833 0.494823 38.6196 0.621809 38.5562 0.74846C38.4153 1.02947 38.2753 1.30883 37.8247 1.40726H37.0758L36.7311 0.621885L36.0535 1.43105H34.2466L33.7712 1.07408L33.474 1.75236H31.8336L31.1203 2.27595V2.9899L29.9316 3.4897H28.0178C27.8461 3.67776 27.5919 3.76149 27.3385 3.84497C27.0308 3.94637 26.7241 4.04739 26.5676 4.33456C26.9361 4.7391 26.9361 4.73916 26.8054 5.1674L26.8053 5.16755C26.7673 5.17243 26.7292 5.17763 26.6911 5.18283C26.2647 5.24101 25.8399 5.29899 25.5453 4.90575C25.4375 4.93598 25.35 5.00226 25.2629 5.06819C25.1102 5.18391 24.9588 5.29855 24.7014 5.21516L23.6909 6.06002C23.6961 6.15341 23.7804 6.21288 23.8669 6.27392C23.9789 6.35286 24.0945 6.43445 24.0476 6.59552H23.0252L22.5735 6.94058H21.7533C21.6283 7.10082 21.4485 7.22103 21.2716 7.33933C21.028 7.50214 20.7899 7.66135 20.7073 7.91636C20.4455 7.97045 20.1778 7.99044 19.9108 7.97584V8.65723C19.3095 8.81518 18.7497 9.10241 18.2704 9.49899C18.2821 9.71699 18.2821 9.93549 18.2704 10.1535C18.2628 10.2408 18.2722 10.3292 18.2815 10.4174C18.3014 10.6057 18.3211 10.7924 18.1754 10.9627L17.5453 11.1411C17.4273 11.2986 17.4368 11.4508 17.4457 11.5939C17.4557 11.7535 17.4649 11.9018 17.2957 12.0336L16.3566 12.1169C16.3158 12.1961 16.2796 12.2677 16.2468 12.3324C15.9744 12.8711 15.9375 12.944 15.4176 13.0927C15.0566 13.2069 14.7406 13.4316 14.5141 13.7353V14.6872L13.7533 15.3179L13.6701 16.0795L13.3135 16.377V17.0434C13.163 17.1439 13.0362 17.2682 12.9097 17.3923C12.6466 17.6504 12.3844 17.9075 11.9109 17.9477C11.7326 17.9596 11.4354 18.6855 11.4354 18.9592C11.6213 18.9457 11.8081 18.9457 11.9941 18.9592C11.9973 19.0426 12.0126 19.1287 12.0281 19.2159C12.0702 19.4521 12.1138 19.6971 11.9228 19.9231H11.6018L10.6746 19.1615L10.0208 19.7803L9.91385 20.53L9.17686 20.7441L9.11743 21.5533C8.61335 21.717 8.40594 21.7751 8.25808 21.9024C8.14793 21.9973 8.07083 22.1305 7.92873 22.3744C7.73571 22.7056 7.5307 23.0329 7.32528 23.3607C7.17648 23.5982 7.02747 23.8361 6.88266 24.076C6.80282 24.2796 6.70329 24.4749 6.58548 24.6591C6.35468 24.8741 6.11258 25.0767 5.86032 25.266V25.7896C5.61423 26.2856 5.3322 26.7628 5.01638 27.2175C4.74412 27.5586 4.57866 27.9726 4.54087 28.4075C4.23341 28.5469 4.21472 28.7968 4.19604 29.0466C4.17645 29.3086 4.15686 29.5705 3.80388 29.7045V30.4423L3.42348 30.7517V31.9417C3.67559 31.9489 3.80548 31.8163 3.93747 31.6815C4.0233 31.5939 4.11001 31.5054 4.23179 31.4538V29.9544L5.49182 29.1096C5.46612 28.8922 5.46612 28.6725 5.49182 28.4551C5.52715 28.2959 5.62958 28.166 5.73408 28.0334C5.84054 27.8983 5.94914 27.7606 5.99113 27.5864C6.04336 27.3698 6.23143 27.1625 6.40831 26.9676C6.5132 26.852 6.61415 26.7408 6.68053 26.6345C6.7564 26.5129 6.7591 26.3806 6.76189 26.244C6.76566 26.0595 6.7696 25.8671 6.95398 25.6825C7.26574 25.2957 7.52177 24.8671 7.7147 24.4092C7.95111 23.9335 8.30257 23.5245 8.73704 23.2192C8.69282 22.9905 8.84049 22.8305 8.99028 22.6681C9.08208 22.5686 9.17469 22.4682 9.22438 22.3506C9.37359 21.9966 9.55674 21.6578 9.77121 21.3391C9.84719 21.225 9.9706 21.1223 10.0922 21.0211C10.2749 20.8691 10.4535 20.7205 10.4606 20.5418C10.4725 20.2443 10.7697 20.2443 11.1026 20.2443L12.0535 21.113C11.5966 21.2242 11.183 21.4686 10.8648 21.8151C10.8391 21.9692 10.8535 22.1202 10.8674 22.267C10.8922 22.5284 10.9158 22.7765 10.7103 23.0051L9.68799 23.1003C9.68799 23.7445 9.32153 24.2625 8.95422 24.7818C8.7923 25.0108 8.63021 25.2399 8.49928 25.4802C8.12249 25.3818 7.94888 25.5659 7.78788 25.7366C7.71524 25.8137 7.64517 25.888 7.56016 25.9324C7.46772 26.1175 7.47975 26.305 7.49158 26.4894C7.5056 26.708 7.51934 26.9222 7.3581 27.1224L6.79944 27.2413C6.69745 27.5768 6.49895 27.8748 6.22881 28.0981V29.0858C6.14511 29.1543 6.04922 29.2071 5.9552 29.2587C5.75547 29.3685 5.56411 29.4737 5.51562 29.7165C5.47869 29.9013 5.36527 30.0415 5.25458 30.1783C5.15149 30.3057 5.05077 30.4302 5.01638 30.5851C4.99824 30.7592 4.99824 30.9346 5.01638 31.1087L4.61219 31.4776C4.61219 31.6429 4.62038 31.811 4.62844 31.9763C4.64415 32.2987 4.65934 32.6103 4.61219 32.8699L4.20807 33.2268V34.0241L3.35216 34.5477V35.9875L2.99556 36.2731L3.35216 36.642L2.98367 36.9871C2.9196 37.0956 2.94747 37.2144 2.97496 37.3315C3.01377 37.4969 3.05182 37.659 2.82913 37.7844C2.61784 37.9034 2.55327 38.0958 2.4928 38.2759C2.4444 38.4202 2.39863 38.5565 2.28237 38.6412C2.1044 38.7707 2.08606 39.005 2.06628 39.2578C2.057 39.3764 2.0474 39.4991 2.02082 39.6169L1.50968 39.2242C1.37716 39.2753 1.23371 39.2607 1.09058 39.2461C0.899904 39.2267 0.709793 39.2073 0.546831 39.3432L0.475512 39.6764C0.590111 40.0042 0.91327 40.1232 1.23927 40.2432C1.38668 40.2975 1.53467 40.352 1.66422 40.4261L1.28382 40.7831L1.71174 41.1758L1.5572 41.6042C1.40426 41.5932 1.31407 41.5119 1.22781 41.4342C1.12635 41.3427 1.03033 41.2562 0.844008 41.2948V42.1515L0.404192 42.5323L0.523034 42.9369C0.686759 43.0164 0.867052 43.0088 1.03971 43.0015C1.28073 42.9914 1.50688 42.9818 1.65232 43.2106C1.50365 43.2982 1.38555 43.4227 1.26546 43.5494C1.05908 43.7671 0.846855 43.9909 0.463613 44.0436V44.5553L0.0713195 44.9123L0.427917 45.2574L0 45.6976L0.867805 47.0899V48.6844L0.463613 49.0414V49.7197L0.867805 50.0767V50.755L0.511135 51.1001V53.2063C0.511135 53.3134 0.618151 53.3134 0.618151 53.3134L1.28382 53.4205V54.5033L1.6048 54.8604L1.2363 55.4672C1.34508 55.6329 1.49713 55.7534 1.64604 55.8714C1.87139 56.05 2.08956 56.2229 2.13966 56.5382L1.24813 57.3831L1.43836 57.7876L2.04461 57.8947C2.08467 58.0223 2.09237 58.1533 2.09985 58.2804C2.11677 58.5682 2.13253 58.8363 2.52005 59.0014V60.0248L2.93614 60.4055L2.54385 60.7626V61.1077L3.44728 61.4765L2.84103 62.4761L3.81578 63.0116V64.3562C3.9184 64.4696 4.02945 64.5756 4.13639 64.6776C4.38867 64.9184 4.61804 65.1373 4.65978 65.3796C4.68546 65.5287 4.83317 65.6334 4.99267 65.7464C5.20235 65.895 5.4324 66.058 5.4324 66.3553C5.40913 66.4291 5.34412 66.4902 5.27368 66.5564C5.12819 66.6931 4.95955 66.8516 5.0877 67.1883L6.27641 67.9975V68.6877C6.93182 69.7003 7.78003 70.5737 8.77266 71.258V71.5912L9.53345 71.9006L9.72361 72.4123H10.009L10.8173 72.8644V73.6617C10.8671 73.7008 10.9171 73.7392 10.9666 73.7771C11.3537 74.074 11.7088 74.3464 11.7088 74.7684L12.3388 74.8993C12.4305 74.9969 12.4808 75.1332 12.5296 75.2656C12.5819 75.4076 12.6326 75.5451 12.7311 75.6252C12.9212 75.7798 12.9212 76.1486 12.9212 76.4342V76.4343C13.5253 76.9657 14.192 77.4213 14.9064 77.7909C15.1729 77.8953 15.4366 77.8923 15.6961 77.8893C15.969 77.8862 16.2372 77.8831 16.4993 78.0051C16.5378 78.3037 16.6881 78.5766 16.9197 78.7687C17.1513 78.9608 17.4471 79.0579 17.7474 79.0403L17.997 79.6591L18.6389 79.2546C19.1054 79.4902 19.5308 79.7996 19.8989 80.1708L19.4948 80.5635L20.2437 80.7896C20.289 81.022 20.4025 81.2357 20.5698 81.4032C20.7371 81.5706 20.9506 81.6843 21.1828 81.7297C21.6787 81.8854 22.1601 82.0844 22.6211 82.3246L23.4413 81.9558L24.321 82.8839C24.8175 83.0455 25.3054 83.2322 25.7831 83.4432C26.0848 83.608 26.3585 83.7939 26.6473 83.9901C26.7339 84.0489 26.8218 84.1087 26.9123 84.1691H28.101L28.9569 84.8831L29.6939 84.538L30.7399 84.9783V85.3353L31.8455 85.7994L32.2853 85.4305L33.2006 86.4181L34.0565 86.668V87.0845L34.5914 87.263L35.6969 86.4538L36.3863 86.8822H36.9688C37.0378 86.5369 37.3515 86.3697 37.6947 86.1868L37.7295 86.1682L38.1813 86.3229L37.8009 86.8822C38.278 86.947 38.4526 87.2376 38.6277 87.5292C38.71 87.6662 38.7924 87.8034 38.9064 87.9175C39.7265 87.6787 40.0322 87.5896 40.3045 87.6504C40.4664 87.6865 40.6165 87.7755 40.8559 87.9175L41.4502 87.5843C43.055 88.2745 43.055 88.2745 43.8276 88.2745C43.9036 88.2533 43.9616 88.1902 44.0175 88.1293C44.1192 88.0186 44.2142 87.9152 44.3982 88.0841L44.5409 88.6433H46.5617L48.0951 89.3216H49.2006L49.6404 88.9884H50.4487L50.9242 89.3454H53.0282L53.3492 89.6191L54.9896 88.9289C55.0762 89.0457 55.1489 89.1643 55.2193 89.2793C55.4 89.5745 55.5661 89.8458 55.9168 89.9999L56.3804 89.6548H59.0906L60.5527 89.036L60.8262 89.6786C61.1474 89.0971 61.6306 88.6217 62.2169 88.3102L62.3715 88.798C62.5663 88.8506 62.7493 88.9456 62.9339 89.0415C63.335 89.2499 63.7436 89.4621 64.2972 89.2502L64.5944 89.0122C64.9885 88.9798 65.3875 88.9842 65.7892 88.9886C66.272 88.9939 66.7586 88.9993 67.2452 88.9408L67.9227 88.2864H68.5409L69.0044 87.9413C69.1934 87.8716 69.3969 87.8977 69.6002 87.9237C69.8829 87.96 70.1651 87.9962 70.4072 87.7747L69.3016 87.3225L68.9807 87.5843C68.8787 87.56 68.8084 87.492 68.7383 87.4241C68.6451 87.3338 68.5521 87.2438 68.385 87.257C68.3766 87.2162 68.3776 87.174 68.388 87.1336C68.3989 87.0913 68.4198 87.0521 68.4489 87.0195C68.478 86.9869 68.5145 86.9617 68.5553 86.9461C68.5961 86.9305 68.6401 86.9249 68.6835 86.9298H70.8707C70.8588 86.7632 71.0728 86.6442 71.1441 86.6561C71.2155 86.668 71.2868 86.8346 71.2868 86.9298H72.107C72.2297 86.9027 72.3492 86.8628 72.4636 86.8108L72.7014 86.2396H73.8901L75.3402 85.609L75.6374 85.8469C75.8296 85.7323 76.0471 85.6473 76.2634 85.5627C76.6757 85.4015 77.0833 85.2421 77.3016 84.8831L78.0505 85.3115L79.0134 84.5142H80.6775L81.4977 83.8359C81.5849 83.8359 81.6893 83.8491 81.7936 83.8623C82.0023 83.8888 82.211 83.9152 82.2823 83.8359C82.447 83.665 82.6711 83.6005 82.8936 83.5365C83.1049 83.4758 83.3147 83.4154 83.471 83.2647C83.8965 82.7979 84.4442 82.4598 85.052 82.289C85.5174 82.115 85.9573 81.8788 86.3596 81.5869C86.9317 81.1901 87.6308 81.0205 88.3209 81.1109L88.8915 80.4326H89.8544C90.286 80.058 90.7758 79.7565 91.3046 79.5401C91.752 79.283 92.1537 78.9533 92.4933 78.5644C92.6786 78.3369 92.9542 78.2359 93.2278 78.1357C93.498 78.0366 93.7663 77.9383 93.9435 77.7195C94.1221 77.4991 94.4197 77.392 94.7053 77.2893C94.9902 77.1868 95.2631 77.0886 95.3937 76.8865C95.6033 76.5622 95.958 76.4214 96.3599 76.2619C96.4594 76.2224 96.5618 76.1817 96.6656 76.1368C96.8624 76.0518 97.012 75.9095 97.164 75.7651C97.4159 75.5255 97.674 75.2801 98.1634 75.2801L99.1382 74.4471C99.2239 74.3756 99.3311 74.3051 99.4392 74.2341C99.6906 74.0689 99.9465 73.9008 99.9465 73.7093C99.9946 73.3884 100.221 73.2135 100.447 73.0388C100.557 72.9544 100.666 72.87 100.755 72.7693C100.867 72.6427 101.012 72.5381 101.153 72.4366C101.357 72.29 101.552 72.15 101.623 71.9601L101.694 71.2461L102.883 71.0557V70.6749L104.333 69.485H104.796C104.854 69.2786 104.942 69.0821 105.058 68.9019C105.291 68.6771 105.537 68.4665 105.795 68.2712C105.379 67.9618 105.07 68.1284 104.725 68.4854L104.036 67.9499L104.285 67.4382C104.41 67.414 104.535 67.4185 104.66 67.423C104.902 67.4318 105.143 67.4405 105.379 67.2359V65.8675L105.747 65.5581C105.564 65.3504 105.475 65.2493 105.45 65.1341C105.425 65.0249 105.458 64.903 105.522 64.6656H106.877C107.036 64.2727 107.284 63.9223 107.602 63.6422C107.89 63.3152 108.126 62.946 108.303 62.5475L108.053 62.2857L107.637 62.5832L107.031 62.0953V61.7383L108.672 61.0481L107.875 60.3818L108.256 60.0129V59.0252C108.33 58.9693 108.394 58.9006 108.457 58.8326C108.596 58.6833 108.732 58.5373 108.969 58.5373C109.132 58.6761 109.116 58.8429 109.101 58.9954C109.095 59.0652 109.088 59.132 109.1 59.1918C109.103 59.2106 109.106 59.2289 109.109 59.2465C109.135 59.4076 109.151 59.5109 109.516 59.3822V55.6695C109.516 55.6203 109.56 55.5743 109.603 55.5299C109.643 55.4882 109.682 55.448 109.682 55.4077L110.348 55.3006C110.336 55.0211 110.304 54.7427 110.253 54.4676C110.246 54.4353 110.183 54.4135 110.118 54.3907C110.063 54.3717 110.006 54.352 109.979 54.3249C109.926 54.1137 110.084 54.0077 110.242 53.9008C110.334 53.839 110.426 53.777 110.478 53.6942L111.513 53.599L111.584 53.0873L110.704 52.8255C110.793 52.7498 110.879 52.6809 110.962 52.6135C111.102 52.5008 111.236 52.3929 111.37 52.2662C111.434 52.2056 111.51 52.1515 111.586 52.0967C111.766 51.9685 111.95 51.8368 112 51.6117V50.9097L110.811 51.4213V51.5404C110.413 51.6231 110 51.5858 109.623 51.4333L111.275 50.7431V50.3742L110.086 49.8982L109.908 50.8621L108.897 50.9335C108.732 51.1382 108.748 51.3609 108.765 51.5789C108.783 51.8298 108.802 52.0744 108.541 52.2781L107.994 51.3619L108.327 51.0882V50.398L107.935 50.0291V49.3627L108.327 49.0057C108.362 48.9037 108.35 48.7967 108.338 48.6909C108.317 48.5129 108.296 48.3383 108.505 48.1966C108.513 48.1598 108.543 48.1685 108.584 48.1805C108.61 48.1879 108.64 48.1966 108.672 48.1966L108.85 49.1247H109.753L110.217 49.4936L110.764 48.9938L110.003 47.8039V45.174L110.431 44.7219C110.406 44.4202 110.215 44.2806 110.035 44.1499C109.953 44.0897 109.873 44.0315 109.813 43.9603H108.767V42.4847L108.374 42.0683L108.731 41.7708L108.363 41.4138L108.814 40.9973L107.946 40.438V39.6883L108.291 39.3313L107.911 38.903L109.171 38.7364L108.339 37.5464V36.3564L107.471 36.0113C107.731 35.7413 107.976 35.7605 108.192 35.7775ZM110.811 51.5404C110.948 51.6142 111.079 51.6977 111.204 51.7902C110.887 51.9821 110.865 51.8414 110.837 51.6675C110.83 51.6257 110.823 51.5819 110.811 51.5404ZM109.979 54.3249C109.86 54.4676 109.765 54.5628 109.67 54.658L109.67 54.658C109.445 54.3952 109.597 54.3767 109.806 54.3514C109.862 54.3447 109.921 54.3374 109.979 54.3249ZM68.3387 87.263H68.0654L67.0906 87.7628C67.2771 87.8743 67.4869 87.9409 67.7035 87.9575C67.9201 87.974 68.1375 87.9399 68.3387 87.858V87.263ZM11.9941 18.9592C12.1129 18.8165 12.208 18.7213 12.303 18.6262L12.3032 18.626C12.5282 18.8889 12.376 18.9073 12.1675 18.9326C12.1116 18.9394 12.0518 18.9466 11.9941 18.9592ZM19.9233 8.67795C19.9361 8.9511 20.172 8.97339 20.4063 8.99553C20.621 9.01583 20.8345 9.03601 20.8737 9.24911L21.1828 9.15393L21.0995 8.67795H19.9233ZM20.7073 7.91636C20.848 7.99405 20.983 8.08153 21.1114 8.17815C20.792 8.35686 20.7696 8.23075 20.7391 8.05839C20.731 8.01269 20.7223 7.96374 20.7073 7.91636ZM24.0476 6.59552H24.63C24.9867 6.77401 24.9628 7.00008 24.7251 7.23807C24.4041 7.09527 24.107 6.9287 24.0476 6.59552ZM67.2214 4.89384C67.127 5.01267 67.0238 5.12406 66.9124 5.22703C66.6972 4.96485 66.8501 4.94582 67.0524 4.92062C67.1072 4.9138 67.1656 4.90652 67.2214 4.89384ZM90.5201 14.7586C90.6317 14.6602 90.7351 14.5527 90.8291 14.4374C90.5557 14.4374 90.2348 14.4373 90.5201 14.7586ZM94.0862 17.198L94.0861 17.1981C93.8365 17.5431 93.8365 17.5431 93.2898 17.4004C93.3943 17.1508 93.6023 17.1735 93.8068 17.1959C93.9046 17.2067 94.0016 17.2173 94.0862 17.198ZM23.3066 69.2513C23.294 69.2047 23.2805 69.1546 23.263 69.1042L23.2392 69.0804C23.1614 69.1778 23.0676 69.0998 22.9905 69.0356C22.9734 69.0214 22.9571 69.0079 22.942 68.9971C23.2666 68.8207 23.2873 68.9412 23.3203 69.1327C23.3296 69.1867 23.3398 69.2463 23.3581 69.3065C23.4651 69.247 23.5839 69.3303 23.6909 69.4136C23.4 69.598 23.3623 69.4578 23.3066 69.2513ZM10.903 61.683C10.8936 61.6294 10.8833 61.5705 10.8648 61.5122C10.6984 61.5598 10.5795 61.4884 10.5319 61.4051C10.8208 61.2123 10.8601 61.3554 10.9152 61.5558C10.9281 61.6028 10.9419 61.6529 10.9599 61.7026C11.055 61.655 11.1738 61.7264 11.2808 61.8097C10.9574 61.9947 10.9357 61.8705 10.903 61.683ZM76.6835 5.84583C76.8618 6.30992 76.8618 6.30992 76.4457 6.51221C76.469 6.43847 76.4556 6.35587 76.4422 6.27349C76.4146 6.10329 76.3871 5.93404 76.6835 5.84583ZM76.1597 6.50995C76.2531 6.52018 76.347 6.53046 76.4324 6.51488L76.3863 6.52408C76.1367 6.86917 76.1367 6.86918 75.6493 6.71448C75.7536 6.46548 75.9554 6.48758 76.1597 6.50995ZM108.356 45.8614C108.546 46.1246 108.593 46.1113 109.088 45.9713C108.987 45.6869 108.745 45.7562 108.525 45.8192C108.466 45.836 108.409 45.8524 108.356 45.8614ZM108.293 45.6803C108.301 45.7222 108.31 45.7677 108.323 45.8138C108.313 45.7996 108.302 45.7847 108.291 45.7691L108.291 45.769C108.157 45.724 108.033 45.6556 107.923 45.5668C108.239 45.3861 108.26 45.5003 108.293 45.6803ZM23.2765 10.3474C23.2611 10.3493 23.246 10.3512 23.2312 10.353C23.0065 10.3804 22.8638 10.3979 23.0847 10.6652C23.1663 10.5709 23.2312 10.4634 23.2765 10.3474ZM24.0951 10.3201H23.4413C23.3938 10.0226 23.6791 9.85599 24.0951 9.6656V10.3201ZM104.1 51.5416C104.098 51.5372 104.097 51.5328 104.095 51.5284H104.119C104.112 51.5328 104.106 51.5372 104.1 51.5416ZM104.14 51.7096C104.13 51.6572 104.119 51.5993 104.1 51.5416C103.784 51.7571 103.438 51.9251 103.073 52.0401L102.859 51.4927L103.465 50.9097L104.095 51.0049L104.166 51.6117C104.292 51.6716 104.411 51.7433 104.523 51.8259C104.196 52.0075 104.174 51.8912 104.14 51.7096ZM25.7593 74.3481V74.34H25.7831C25.7751 74.3427 25.7672 74.3454 25.7593 74.3481ZM25.7593 74.8636V74.3481C25.4438 74.4555 25.1342 74.5799 24.8321 74.7208L24.2378 74.34L23.7979 74.6732H23.3937C23.0966 74.4233 23.1085 74.3519 23.5959 73.8521C23.6672 73.5903 23.6672 73.3285 23.6672 73.0311C23.8217 73.1143 24 73.1144 24 73.1144C24.1164 73.26 24.2984 73.2973 24.4832 73.3351C24.6757 73.3745 24.8712 73.4145 24.9985 73.5784C25.2443 73.8267 25.5107 74.0536 25.795 74.2567C25.9617 74.3016 26.0696 74.4227 26.1821 74.549C26.2782 74.6569 26.3777 74.7685 26.52 74.8398V75.3039C26.245 75.2958 26.1022 75.161 25.964 75.0307C25.8991 74.9695 25.8353 74.9092 25.7593 74.8636ZM102.597 48.8748H102.098C102.026 48.9931 101.933 49.0978 101.825 49.1842C101.618 48.9139 101.751 48.896 101.968 48.8671C102.037 48.8579 102.115 48.8475 102.193 48.8272C102.093 47.9903 102.053 47.1472 102.074 46.3045C102.074 46.2745 102.107 46.2492 102.162 46.2078C102.193 46.1835 102.232 46.1537 102.276 46.1141L102.859 46.5901V47.6254L103.263 47.9705V49.089C103.064 49.2262 102.976 49.1341 102.878 49.0314C102.806 48.956 102.728 48.8748 102.597 48.8748ZM28.8261 7.84496L28.2437 7.45225V6.32181L29.7653 5.95293L30.7281 6.3456V6.72639L28.8261 7.84496ZM27.1976 7.51177H28.2437V8.03536C28.0051 8.04552 27.8034 8.15334 27.594 8.26521C27.3132 8.41531 27.0187 8.5727 26.6033 8.51134L27.1976 7.51177ZM70.5603 73.983H70.5498L70.5735 73.9592C70.5692 73.9672 70.5648 73.9752 70.5603 73.983ZM76.9721 68.0721C74.8815 70.2298 72.3916 72.1107 69.5952 73.6379H70.4072C70.4318 73.6984 70.4688 73.7529 70.5159 73.798C70.563 73.8431 70.6191 73.8778 70.6805 73.8997C70.6173 73.9161 70.5541 73.9284 70.4954 73.9398C70.2562 73.9861 70.0925 74.0178 70.312 74.2567C70.4136 74.1843 70.4982 74.0909 70.5603 73.983H71.1917L71.584 73.2928H72.0238C72.1194 73.1797 72.1865 73.0522 72.2534 72.9249C72.3694 72.7042 72.485 72.4843 72.7489 72.3409C72.8568 72.2906 72.9453 72.2064 73.0011 72.1012C73.0568 71.996 73.0768 71.8754 73.058 71.7578C73.058 71.7578 73.2362 71.6864 73.3194 71.6507L73.6404 71.9244L73.9495 71.6983C74.1635 71.5912 74.3655 71.5912 74.5498 71.5912C74.734 71.5912 74.9004 71.5912 75.0431 71.4841C74.9037 71.3235 74.8076 71.1298 74.7639 70.9216C74.7202 70.7133 74.7304 70.4974 74.7935 70.2942L75.3878 69.842H76.2437L76.2437 69.8419C76.6122 69.1399 76.6122 69.1399 77.5512 68.652C77.5016 68.503 77.3702 68.4077 77.2375 68.3116C77.1385 68.2398 77.0388 68.1676 76.9721 68.0721ZM77.207 67.8267C77.5439 67.7276 77.8489 67.5363 78.0862 67.2716L77.8174 67.16C77.6181 67.385 77.4146 67.6072 77.207 67.8267ZM68.9004 74.0068C68.7069 74.1067 68.512 74.2049 68.3158 74.3014C68.55 74.3072 68.7269 74.3033 68.8618 74.1615L68.9004 74.0068ZM67.2309 74.8115C66.9868 74.9211 66.7409 75.0281 66.4931 75.1325L66.6389 75.4586L67.2309 74.8115ZM78.889 68.6567L79.263 68.9971L78.6686 69.4969L78.1456 69.1161C78.1234 69.2269 78.115 69.3423 78.1069 69.4544C78.0888 69.7036 78.0718 69.9368 77.9079 70.0681C77.8082 70.1479 77.7629 70.2799 77.7149 70.4196C77.6485 70.6131 77.577 70.8212 77.3492 70.9248C77.159 71.0081 77.159 71.0914 77.3492 71.1866H78.6686C78.7195 70.9811 78.8122 70.7883 78.9411 70.6203C79.07 70.4524 79.2322 70.313 79.4175 70.2109H80.4517V69.0209L81.26 68.3545L81.3314 67.2836C81.6811 66.9801 81.8835 67.1192 82.0813 67.2552C82.1861 67.3272 82.2896 67.3984 82.4131 67.4025L82.9361 66.9385L82.5795 66.5934L82.9242 66.2245L82.3298 65.7485C82.158 65.8714 82.0037 66.0078 81.8511 66.1427C81.4866 66.4648 81.132 66.7783 80.5706 66.8789C80.4759 66.8999 80.3877 66.9432 80.3132 67.0053C80.2388 67.0674 80.1803 67.1465 80.1427 67.2359C80.0948 67.699 79.7366 67.9692 79.3768 68.2406C79.203 68.3717 79.0288 68.5032 78.889 68.6567ZM100.47 60.8696L99.8039 61.9287L99.8158 61.9525C99.5926 61.8216 99.5986 61.6458 99.6047 61.4638C99.6081 61.3646 99.6115 61.2637 99.578 61.1671L100.054 60.5959L99.5899 59.9177C99.872 59.163 100.428 58.5426 101.147 58.1803L101.658 58.8586V59.3465C101.35 59.6921 100.928 59.9158 100.47 59.9772V60.8696ZM18.3536 72.4123V72.912H17.2481C17.2391 72.7485 17.203 72.5877 17.1412 72.4361C17.0919 72.3585 17.005 72.2851 16.9201 72.2134C16.8618 72.1641 16.8044 72.1157 16.7608 72.0672C16.6904 71.9888 16.7127 71.8847 16.7361 71.7752C16.7483 71.7183 16.7608 71.66 16.7608 71.6031C17.0186 71.6326 17.1531 71.7626 17.2804 71.8855C17.3585 71.961 17.4339 72.0338 17.5334 72.0791C17.748 72.1768 17.9787 72.2664 18.2056 72.3546C18.2552 72.3739 18.3046 72.3931 18.3536 72.4123ZM28.9272 9.28342C28.7014 9.28342 28.4819 9.2086 28.3031 9.07062V8.72552C28.4049 8.6693 28.4901 8.58402 28.5756 8.49849C28.7795 8.29438 28.9849 8.08885 29.4205 8.27333C29.585 8.42305 29.5661 8.59632 29.5471 8.76943C29.5359 8.8715 29.5248 8.97352 29.5512 9.07062C29.3724 9.2086 29.153 9.28342 28.9272 9.28342ZM103.792 54.2339C103.786 54.3439 103.779 54.4569 103.81 54.5747L103.774 54.6104C103.177 54.8532 102.946 54.5903 102.731 54.3452C102.672 54.2779 102.614 54.212 102.55 54.1582C102.646 54.0986 102.731 54.0214 102.815 53.9449C103.033 53.7468 103.246 53.5535 103.631 53.6823C103.812 53.8631 103.802 54.044 103.792 54.2339ZM24.9866 10.7842C24.9629 10.2963 25.2244 10.213 25.6285 10.2963L26.2705 10.8199L25.6048 11.1054L24.9866 10.7842ZM31.9275 12.5645C32.1143 12.2052 32.2912 11.8649 32.7608 11.6647L32.6894 11.7004C32.7161 11.7738 32.7689 11.862 32.8143 11.9381C32.85 11.9977 32.8811 12.0498 32.8916 12.0812C32.7026 12.4158 32.4921 12.7378 32.2615 13.0451L31.7029 12.9618C31.789 12.8308 31.8589 12.6964 31.9275 12.5645ZM20.3745 75.1492V75.5538L19.2809 76.0536L19.1857 75.5895C19.2917 75.5313 19.3799 75.4476 19.4677 75.3643C19.6853 75.1579 19.9001 74.9542 20.3745 75.1492ZM21.9674 12.8428L22.4428 13.2712C22.3415 13.3609 22.2031 13.3918 22.0654 13.4225C21.783 13.4856 21.5033 13.5481 21.5513 14.116L21.1233 13.2474L21.9674 12.8428ZM17.4621 57.276L16.8083 58.1922C16.6186 57.7804 16.5973 57.3106 16.7489 56.8833C16.9153 56.8238 16.9153 56.8238 17.4618 57.2757L17.4621 57.276ZM32.523 5.85771L32.3685 5.16755H33.1768L33.3076 5.72683L32.523 5.85771ZM8.43981 37.6297C7.92872 37.1894 7.92868 37.1894 8.09509 35.9995C8.33233 36.3593 8.3435 36.6756 8.35472 36.9931C8.36204 37.2006 8.36939 37.4087 8.43986 37.6297L8.43981 37.6297ZM6.19319 42.6513L6.34773 43.3296H5.53941L5.4086 42.7703L6.19319 42.6513ZM21.6047 76.0963C21.7323 76.0963 21.8561 76.14 21.9555 76.2201L21.3848 77.1364C21.129 76.9401 21.1729 76.7193 21.2182 76.4916C21.236 76.4018 21.2541 76.311 21.2541 76.2201C21.3534 76.14 21.4771 76.0963 21.6047 76.0963ZM32.0473 8.30416C32.2149 8.31519 32.372 8.3892 32.4874 8.51134L31.6791 8.92783L31.584 8.45185C31.7143 8.34589 31.8798 8.29313 32.0473 8.30416ZM103.624 53.3317C103.334 53.1229 103.324 53.1157 103.501 52.2781V52.2186C103.834 52.6708 103.822 52.9683 103.631 53.3372L103.624 53.3317ZM25.3737 7.77791C25.4666 7.70812 25.5676 7.63223 25.6642 7.53556L25.7831 8.19006C25.6773 8.28135 25.5423 8.33154 25.4027 8.33154C25.263 8.33154 25.128 8.28135 25.0223 8.19006C25.0607 8.01304 25.2036 7.9057 25.3737 7.77791ZM16.0951 54.0393C15.8098 53.7656 15.8098 53.7656 16.0119 52.9564V52.8969C16.3091 53.3729 16.321 53.7299 16.0951 54.0393ZM20.9451 74.4591C21.2303 74.7327 21.2303 74.7327 21.0401 75.5419V75.4824C20.7429 75.0064 20.7192 74.697 20.945 74.459L20.9451 74.4591ZM103.903 36.5917C104.179 36.8563 104.188 36.8653 103.988 37.6654V37.6059C103.691 37.1299 103.667 36.8324 103.893 36.5825L103.903 36.5917ZM7.06092 40.3785V40.5451C6.88603 40.6078 6.70736 40.6595 6.52599 40.6998C6.47232 40.6998 6.39926 40.5445 6.37684 40.4969C6.37443 40.4918 6.3726 40.4879 6.37145 40.4856L6.3704 40.4835C6.35714 40.4573 6.31728 40.3785 6.50226 40.3785H7.06092ZM107.281 41.0092C106.984 40.7831 106.984 40.5451 107.281 40.319V40.2595C107.578 40.4856 107.578 40.7236 107.281 41.0092ZM6.10997 41.985C6.40715 41.7589 6.40715 41.5209 6.10997 41.2948C5.77713 41.5209 5.77713 41.7589 6.10997 41.985ZM103.453 46.5068H103.679C103.727 46.6496 103.759 46.7973 103.774 46.9471C103.774 46.9947 103.536 47.078 103.513 47.078C103.51 47.078 103.507 47.0782 103.503 47.0785C103.467 47.0811 103.371 47.0878 103.382 46.959C103.387 46.8975 103.401 46.8338 103.415 46.7689C103.434 46.683 103.453 46.5949 103.453 46.5068ZM103.845 49.7316C104.012 49.4103 104.273 49.5055 104.654 49.7316H104.618C104.273 49.9577 104.047 49.9696 103.845 49.7316ZM102.336 52.9564C101.896 52.8136 102.015 52.5994 102.276 52.29H102.3C102.574 52.5399 102.585 52.7541 102.336 52.9564ZM79.691 10.2487V10.0345H79.8098C79.9458 9.98913 80.0848 9.95335 80.2258 9.92739C80.2766 9.92739 80.3361 10.0666 80.3597 10.1218C80.3638 10.1312 80.3667 10.1381 80.3685 10.1416C80.3803 10.1654 80.2377 10.2487 80.2377 10.2487C80.0556 10.2604 79.873 10.2604 79.691 10.2487ZM101.967 61.9049H101.765C101.679 61.7688 101.615 61.6203 101.575 61.4646C101.575 61.417 101.801 61.3337 101.837 61.3337C101.872 61.3337 101.967 61.4527 101.967 61.4527C101.978 61.6032 101.978 61.7544 101.967 61.9049ZM9.91385 62.8093C9.73554 63.1306 9.47402 63.0354 9.09364 62.8093H9.15306C9.49778 62.5832 9.67611 62.5713 9.91385 62.8093ZM12.2732 64.7004C12.5144 64.3994 12.6186 64.196 12.1842 64.0587C12.0589 64.2526 12.0538 64.4246 12.2732 64.7004ZM82.1991 64.737H82.4606L82.5201 64.7489C82.5647 64.8915 82.5887 65.0398 82.5914 65.1892C82.5914 65.2301 82.4245 65.2798 82.355 65.3005C82.3436 65.3039 82.3349 65.3065 82.3298 65.3082C82.2942 65.3201 82.1991 65.2011 82.1991 65.2011C82.1875 65.0466 82.1875 64.8915 82.1991 64.737ZM6.90638 66.0341C6.45468 65.8913 6.58545 65.6652 6.84696 65.3558L6.90638 65.3677C7.17979 65.6295 7.19167 65.8437 6.90638 66.0341ZM77.9197 71.6388V71.8649L77.9792 71.8768C77.7833 71.9186 77.5847 71.9464 77.3849 71.9601C77.3341 71.9601 77.2746 71.821 77.2509 71.7657C77.2469 71.7563 77.2439 71.7494 77.2422 71.7459C77.2303 71.7221 77.373 71.6388 77.373 71.6388C77.555 71.627 77.7376 71.627 77.9197 71.6388ZM15.1699 75.7496C15.2416 75.7816 15.3057 75.8284 15.3581 75.887L15.4176 75.8989C15.3646 75.9672 15.2964 76.0223 15.2186 76.0598C15.1407 76.0973 15.0552 76.1162 14.9688 76.1151C14.8824 76.1139 14.7975 76.0927 14.7206 76.0531C14.6438 76.0135 14.5772 75.9567 14.526 75.887C14.5784 75.8284 14.6426 75.7816 14.7142 75.7496C14.7859 75.7175 14.8635 75.701 14.9421 75.701C15.0206 75.701 15.0982 75.7175 15.1699 75.7496ZM37.6939 85.7517V85.9778L37.7533 85.9897C37.5586 86.0379 37.3594 86.0658 37.159 86.073C37.1053 86.073 37.0322 85.9178 37.0098 85.8701C37.0074 85.865 37.0056 85.8611 37.0045 85.8588L37.0034 85.8567C36.9901 85.8305 36.9503 85.7517 37.1352 85.7517H37.6939ZM98.0783 24.0349C98.0066 24.0029 97.9425 23.9561 97.8901 23.8975L97.9495 23.9094C98.0519 23.8082 98.1895 23.7504 98.3334 23.7482C98.4774 23.746 98.6166 23.7995 98.7221 23.8975C98.6697 23.9561 98.6056 24.0029 98.5339 24.0349C98.4622 24.067 98.3846 24.0835 98.3061 24.0835C98.2276 24.0835 98.1499 24.067 98.0783 24.0349ZM35.055 2.03794L35.1976 2.15695L35.055 2.38304C35.0074 2.33544 34.9242 2.26404 34.9242 2.26404C34.956 2.18243 35.0001 2.10617 35.055 2.03794ZM49.5691 5.13185L49.7117 5.35795L49.5691 5.47695C49.5166 5.40287 49.4727 5.32301 49.4384 5.23894C49.4265 5.21514 49.5691 5.13185 49.5691 5.13185ZM57.2482 6.33372L57.3908 6.21472L57.6523 6.33372C57.6166 6.36942 57.5215 6.44081 57.5215 6.44081C57.426 6.41758 57.3341 6.38156 57.2482 6.33372ZM27.8158 6.67879L27.6731 6.79779L27.3997 6.67879L27.5424 6.57169C27.6355 6.60219 27.7267 6.63794 27.8158 6.67879ZM34.6627 7.88066L34.5201 7.76165L34.6627 7.54747C34.7103 7.58317 34.7935 7.65456 34.7935 7.65456C34.7617 7.73617 34.7176 7.81243 34.6627 7.88066ZM75.0907 7.71405L74.9361 7.83305L74.6746 7.71405C74.7221 7.67835 74.8053 7.60695 74.8053 7.60695C74.9046 7.63025 75.0005 7.66624 75.0907 7.71405ZM32.7846 8.05914L32.9272 7.94014L33.2006 8.05914L33.0579 8.16624C32.9649 8.13574 32.8736 8.09999 32.7846 8.05914ZM30.3001 8.40424L30.0267 8.52325L29.8841 8.40424C29.97 8.35641 30.062 8.32039 30.1575 8.29715C30.1931 8.28525 30.3001 8.40424 30.3001 8.40424ZM30.5023 8.91592L30.6449 9.14201L30.5023 9.26102C30.4474 9.19279 30.4032 9.11653 30.3714 9.03492C30.3596 8.99922 30.5023 8.91592 30.5023 8.91592ZM36.7192 10.6414L36.8737 10.8675L36.7192 10.9864C36.6711 10.9097 36.6275 10.8302 36.5884 10.7485C36.5884 10.7247 36.7192 10.6414 36.7192 10.6414ZM36.9331 11.4982L36.7786 11.629L36.5171 11.4982C36.5647 11.4625 36.6479 11.3911 36.6479 11.3911C36.7455 11.4195 36.8409 11.4553 36.9331 11.4982ZM20.5528 12.3668L20.3983 12.2359L20.5528 12.0217C20.5884 12.0574 20.6835 12.1288 20.6835 12.1288C20.6445 12.2106 20.6009 12.29 20.5528 12.3668ZM25.3908 12.819C25.3908 12.7952 25.5216 12.7119 25.5216 12.7119L25.5691 12.7238C25.6063 12.7911 25.6343 12.8632 25.6523 12.938C25.6642 12.9618 25.5216 13.0451 25.5216 13.0451C25.4667 12.9769 25.4225 12.9006 25.3908 12.819ZM106.401 41.6279L106.259 41.509L106.401 41.2829C106.449 41.3186 106.532 41.39 106.532 41.39C106.498 41.474 106.454 41.5539 106.401 41.6279ZM3.95841 41.6279L4.10105 41.854L3.95841 41.973C3.9059 41.899 3.86204 41.8191 3.82767 41.7351C3.81579 41.7113 3.95841 41.6279 3.95841 41.6279ZM2.25857 43.1273C2.25857 43.1035 2.38931 43.0202 2.38931 43.0202L2.54385 43.2344L2.38931 43.3653C2.34124 43.2885 2.2976 43.2091 2.25857 43.1273ZM105.26 44.3887L105.403 44.5196L105.26 44.7338C105.212 44.6981 105.129 44.6267 105.129 44.6267C105.159 44.5403 105.203 44.4598 105.26 44.3887ZM102.309 60.5781C102.279 60.6016 102.253 60.6274 102.253 60.6435C102.284 60.7252 102.328 60.8014 102.383 60.8696C102.383 60.8696 102.526 60.7864 102.514 60.7626C102.453 60.6933 102.384 60.6314 102.309 60.5781ZM7.82171 61.9406L7.67907 61.7145L7.82171 61.5955C7.87406 61.6654 7.91794 61.7413 7.95245 61.8216C7.96434 61.8573 7.82171 61.9406 7.82171 61.9406ZM83.2214 64.3086L83.3759 64.4395L83.2214 64.6537C83.1738 64.618 83.0906 64.5466 83.0906 64.5466C83.125 64.4626 83.1689 64.3827 83.2214 64.3086ZM8.77266 64.8322L8.63002 64.9512L8.35664 64.8322L8.49928 64.7251C8.59418 64.7503 8.68588 64.7862 8.77266 64.8322ZM27.2333 69.1399L27.0788 69.009L27.2333 68.7948C27.2809 68.8305 27.3641 68.9019 27.3641 68.9019C27.3297 68.986 27.2858 69.0658 27.2333 69.1399ZM9.18875 69.9967L9.34322 69.8777L9.60477 69.9967C9.55722 70.0324 9.47403 70.1038 9.47403 70.1038C9.37638 70.0753 9.28102 70.0395 9.18875 69.9967ZM16.6182 71.0319L16.4755 71.1509L16.2021 71.0319C16.2496 70.9843 16.3447 70.9248 16.3447 70.9248C16.4413 70.9447 16.5338 70.9809 16.6182 71.0319ZM22.2764 71.2699C22.312 71.258 22.419 71.377 22.419 71.377L22.4666 71.4246C22.357 71.4512 22.2458 71.4711 22.1337 71.4841C22.0981 71.4841 22.003 71.377 22.003 71.377C22.0864 71.3241 22.1792 71.2878 22.2764 71.2699ZM11.2214 72.0553L10.948 72.1862L10.8054 72.0553C10.8936 72.0124 10.985 71.9766 11.0788 71.9482C11.1144 71.9482 11.2214 72.0553 11.2214 72.0553ZM21.6583 72.0077C21.6583 71.972 21.789 71.8887 21.789 71.8887L21.8365 71.9363C21.8695 71.9932 21.8974 72.0529 21.9198 72.1148C21.9316 72.1505 21.789 72.2338 21.789 72.2338C21.7367 72.1638 21.6928 72.0879 21.6583 72.0077ZM76.3388 72.4004L76.1843 72.5312L75.9227 72.4004C75.9703 72.3647 76.0535 72.2933 76.0535 72.2933L76.3388 72.4004ZM18.8886 72.5789L19.0312 72.6979L18.8886 72.924C18.841 72.8883 18.7578 72.805 18.7578 72.805C18.7923 72.7247 18.8362 72.6488 18.8886 72.5789ZM36.3745 85.6804C36.4101 85.6684 36.5171 85.7874 36.5171 85.7874L36.5646 85.8588C36.4585 85.8774 36.3513 85.8893 36.2437 85.8945C36.208 85.8945 36.101 85.7874 36.101 85.7874C36.1878 85.7415 36.2796 85.7056 36.3745 85.6804Z" fill="url(#paint0_linear_9_729)"/>
<path d="M63.315 24.6601L42.9975 31.4101C29.34 35.9776 29.34 43.4251 42.9975 47.9701L49.0275 49.9726L51.03 56.0026C55.575 69.6601 63.045 69.6601 67.59 56.0026L74.3625 35.7076C77.3775 26.5951 72.4275 21.6226 63.315 24.6601ZM64.035 36.7651L55.485 45.3601C55.1475 45.6976 54.72 45.8551 54.2925 45.8551C53.865 45.8551 53.4375 45.6976 53.1 45.3601C52.4475 44.7076 52.4475 43.6276 53.1 42.9751L61.65 34.3801C62.3025 33.7276 63.3825 33.7276 64.035 34.3801C64.6875 35.0326 64.6875 36.1126 64.035 36.7651Z" fill="white"/>
<defs>
<linearGradient id="paint0_linear_9_729" x1="1.23628e-06" y1="6.62499" x2="116.467" y2="29.8729" gradientUnits="userSpaceOnUse">
<stop stop-color="#3F2864"/>
<stop offset="1" stop-color="#590E4C"/>
</linearGradient>
</defs>
</svg>
