<svg width="24" height="25" viewBox="0 0 24 25" fill="none" xmlns="http://www.w3.org/2000/svg">
<g clip-path="url(#clip0_5_6987)">
<path d="M12 24.5C18.6274 24.5 24 19.1274 24 12.5C24 5.87259 18.6274 0.5 12 0.5C5.37259 0.5 0 5.87259 0 12.5C0 19.1274 5.37259 24.5 12 24.5Z" fill="#009393"/>
<path fill-rule="evenodd" clip-rule="evenodd" d="M13.4415 13.5373V13.5357C13.359 13.5417 12.9338 13.5673 11.985 13.5673C11.2275 13.5673 10.6943 13.5447 10.5068 13.5357V13.538C7.59078 13.4097 5.41428 12.902 5.41428 12.2945C5.41428 11.6877 7.59078 11.18 10.5068 11.0495V13.0325C10.6973 13.046 11.2433 13.0783 11.9978 13.0783C12.903 13.0783 13.3568 13.0407 13.4415 13.0333V11.051C16.3515 11.1807 18.5228 11.6885 18.5228 12.2945C18.5228 12.902 16.3515 13.4083 13.4415 13.5373ZM13.4415 10.8447V9.07026H17.502V6.36426H6.44631V9.07026H10.5068V10.844C7.20678 10.9955 4.72504 11.6495 4.72504 12.4325C4.72504 13.2155 7.20678 13.8687 10.5068 14.021V19.7075H13.4415V14.0195C16.7363 13.868 19.212 13.2147 19.212 12.4325C19.212 11.6503 16.7363 10.997 13.4415 10.8447Z" fill="white"/>
</g>
<defs>
<clipPath id="clip0_5_6987">
<rect width="24" height="24" fill="white" transform="translate(0 0.5)"/>
</clipPath>
</defs>
</svg>
