<svg width="666" height="430" viewBox="0 0 666 430" fill="none" xmlns="http://www.w3.org/2000/svg">
<mask id="path-1-inside-1_8_54" fill="white">
<path d="M5.76444 172.56C6.89614 171.684 7.75913 170.464 8.24309 169.057C8.72704 167.65 8.80995 166.119 8.48129 164.661C8.07996 160.872 8.54631 157.035 9.83972 153.484C10.1988 152.568 10.7373 151.746 11.4184 151.074C12.1527 150.166 13.5479 149.376 13.6947 148.389C13.9642 147.157 14.4957 146.009 15.2474 145.036C15.9992 144.063 16.9509 143.29 18.0273 142.78C18.6119 142.356 19.1426 141.851 19.606 141.279C20.1538 140.794 20.6036 140.193 20.9281 139.514C21.2526 138.835 21.4449 138.092 21.493 137.33C21.5412 136.568 21.4441 135.804 21.208 135.084C20.9719 134.364 20.6016 133.704 20.1198 133.143C18.1739 130.339 16.4484 127.455 14.2455 124.296C18.6564 122.295 23.3753 121.197 28.1604 121.057C35.9439 120.149 41.3778 115.014 48.2435 110.59L43.8009 108.971C50.3361 107.51 51.144 105.772 48.317 99.4523C46.2242 94.8312 46.9585 93.1724 51.9884 91.2766C52.6985 90.9334 53.3855 90.5374 54.0445 90.0916C54.0445 87.1689 54.3747 84.2067 54.3013 81.2444C54.2055 80.3229 54.4142 79.3944 54.8908 78.6218C55.3674 77.8491 56.0816 77.2815 56.9081 77.0183C55.4395 75.5174 54.1544 74.7275 53.6404 73.5031C53.3773 72.3244 53.4413 71.0885 53.8242 69.9484C54.2648 67.5786 51.9883 67.3021 51.1438 65.7223L51.8414 60.5482L54.0445 58.6524C58.7072 54.2683 58.8173 53.4783 55.5497 46.8034C56.4733 45.8634 57.2982 44.817 58.0095 43.6832C58.5227 42.1133 58.8557 40.4819 59.0009 38.8251L63.9207 36.3763C64.3246 34.2435 64.8019 31.8342 65.2792 29.3854C65.4406 27.9195 65.6981 26.4676 66.05 25.0408C68.3631 17.7735 68.3998 17.7734 74.0906 13.7053C72.622 11.0985 70.0886 14.8112 68.3263 12.3624C68.6568 11.928 68.9874 11.1775 69.428 11.0985C71.7011 10.4896 74.0261 10.1322 76.3669 10.0321C88.6438 10.0301 100.908 9.17255 113.082 7.46485C128.061 5.64801 143.114 4.46311 158.131 3.23872C168.962 2.36979 179.792 1.73785 190.623 1.26389C201.454 0.78993 211.808 0.631946 222.418 0.35547C226.42 0.35547 230.422 0 234.424 0C244.778 0 255.168 -6.03258e-06 265.521 0.39496C279.877 1.0269 294.232 2.13281 308.588 2.88325C316.335 3.31771 324.118 3.4757 331.902 3.63368C347.469 4.02865 363.036 4.26562 378.603 4.70009C391.086 5.05555 403.569 5.52951 416.089 6.04297C429.269 6.59592 442.45 7.38586 455.667 7.85981C480.404 8.89265 505.06 11.5305 529.501 15.7591C545.545 18.4844 561.663 20.7357 577.781 23.2635C581.966 23.9349 586.115 24.9223 590.337 25.5148C599.185 26.8182 608.07 28.082 616.992 29.109C619.739 29.4166 622.433 30.1345 624.996 31.2418C629.253 32.6964 633.65 33.624 638.103 34.0065C641.774 34.6385 645.446 35.0334 649.117 35.5074C649.696 36.5462 650.038 37.7178 650.115 38.9261C650.191 40.1345 650 41.3451 649.558 42.4588C649.263 43.6805 649.229 44.9581 649.458 46.1961C649.687 47.434 650.173 48.6003 650.88 49.6077C652.136 51.414 652.899 53.5615 653.083 55.8086C652.668 59.3003 651.401 62.6116 649.411 65.4063C648.64 67.0257 646.694 67.2231 644.969 67.0257C641.921 66.7097 638.874 66.3937 635.827 66.1567C634.597 66.0267 633.356 66.1202 632.155 66.4332C631.84 66.5752 631.558 66.7905 631.33 67.0637C631.101 67.3368 630.932 67.6611 630.833 68.0131C630.762 68.3755 630.765 68.7503 630.841 69.1116C630.917 69.473 631.065 69.8123 631.274 70.1064C633.276 72.1721 635.859 73.4641 638.617 73.7796C642.289 74.0955 645.556 74.7275 649.044 75.2409C648.902 77.8033 649.038 80.3746 649.448 82.9033C650.256 85.747 647.869 87.4849 648.787 90.8026L636.12 88.4328C632.449 87.9193 628.777 87.3269 624.886 87.0109C620.994 86.6949 616.882 86.4975 612.88 86.4975C608.987 86.101 605.063 86.247 601.205 86.9319C601.833 87.6721 602.608 88.2514 603.472 88.6273C604.336 89.0032 605.268 89.1662 606.198 89.1042C611.852 89.3807 617.469 89.7362 623.123 90.0521C623.829 89.9877 624.539 90.0681 625.216 90.2891C631.347 93.3304 638.103 93.0539 644.491 94.6733C647.213 95.4321 649.867 96.4499 652.422 97.7145C653.266 98.1489 653.707 99.5313 654.588 100.756L649.888 102.849C649.621 103.58 649.62 104.393 649.885 105.126C650.151 105.858 650.663 106.455 651.32 106.799C653.046 108.023 654.808 109.09 656.901 110.472C655.873 111.459 655.322 112.407 654.515 112.763C653.37 113.41 652.374 114.324 651.6 115.438C650.825 116.551 650.29 117.837 650.035 119.201C649.411 121.017 650.035 123.15 648.236 124.73C647.796 125.046 648.016 126.626 648.236 127.574C648.64 129.509 649.264 131.524 649.925 133.775L645.519 133.656C640.82 133.301 636.12 132.906 631.421 132.669C629.365 132.669 628.52 133.933 628.447 136.421C635.79 139.818 644.051 138.949 651.577 142.148V147.678C652.973 148.31 654.294 148.823 655.542 149.455C656.791 150.087 657.525 150.758 658.443 151.351C658.443 152.101 658.443 152.733 658.003 153.049C657.263 153.788 656.673 154.684 656.27 155.679C655.867 156.675 655.658 157.749 655.658 158.835C655.658 159.921 655.867 160.996 656.27 161.991C656.673 162.987 657.263 163.882 658.003 164.622C658.592 165.165 659.073 165.83 659.418 166.578C659.763 167.327 659.963 168.142 660.008 168.975C660.052 169.809 659.94 170.644 659.677 171.429C659.415 172.215 659.008 172.936 658.48 173.548C661.696 176.622 664.049 180.603 665.272 185.041C665.752 187.641 665.949 190.292 665.859 192.941C664.009 193.647 662.086 194.111 660.132 194.323C655.175 194.047 650.292 193.217 645.446 192.862C640.6 192.506 634.652 192.309 629.255 192.151C628.289 192.24 627.338 192.466 626.428 192.822V200.366L623.748 202.301C624.225 202.933 624.445 203.526 624.812 203.644C625.95 204 627.125 204.118 628.227 204.513C629.31 204.912 630.282 205.599 631.052 206.511C631.823 207.422 632.366 208.529 632.633 209.727L622.242 211.939C625.914 214.861 629.585 216.283 631.898 219.838C634.211 223.393 636.634 226.75 639.021 230.186C638.009 231.019 637.311 232.216 637.054 233.559C636.798 234.901 637.001 236.298 637.626 237.493C637.986 238.11 638.222 238.801 638.317 239.523C638.412 240.244 638.364 240.979 638.176 241.679C638.023 243.424 638.198 245.184 638.691 246.853C638.911 248.078 639.461 249.223 639.755 250.448C640.563 253.805 639.755 255.306 636.341 255.148C632.583 254.71 628.799 255.672 625.62 257.873C621.929 260.662 619.225 264.713 617.947 269.367C617.412 270.785 617.412 272.372 617.947 273.79C621.214 279.399 621.104 285.639 622.169 291.722C616.184 299.621 616.184 299.621 617.653 306.928C616.808 308.034 615.707 309.337 614.752 310.877C613.924 311.798 613.301 312.909 612.932 314.128C612.564 315.346 612.458 316.639 612.625 317.908C612.791 319.176 613.225 320.387 613.893 321.448C614.561 322.509 615.445 323.392 616.478 324.03C617.8 325.096 619.268 325.886 621.104 327.111L623.931 334.575C622.599 336.497 621.734 338.746 621.413 341.119C621.093 343.491 621.327 345.912 622.095 348.162C624.078 350.453 627.015 352.112 628.263 355.706C629.371 358.407 629.464 361.465 628.52 364.237C628.145 364.875 627.912 365.598 627.84 366.349C627.767 367.1 627.857 367.859 628.103 368.567C628.348 369.274 628.742 369.911 629.254 370.427C629.766 370.944 630.382 371.326 631.054 371.544C632.175 371.938 633.315 372.268 634.468 372.532C637.295 373.44 638.14 375.573 637.222 378.969L622.83 379.246L617.176 379.522C616.254 379.714 615.307 379.714 614.385 379.522C610.038 378.38 605.569 377.862 601.095 377.982C593.752 377.113 586.409 376.165 579.286 375.533C576.165 375.257 572.641 373.953 570.181 377.548C567.38 377.935 564.56 378.146 561.736 378.18C552.594 377.824 543.379 377.192 534.274 376.758C530.015 376.758 525.756 376.481 521.534 376.481C520.542 376.581 519.567 376.82 518.633 377.192C521.423 386.039 523.553 394.65 520.359 403.576C520.433 404.06 520.582 404.527 520.799 404.958C522.121 406.499 523.406 407.92 522.635 410.29C522.371 411.406 521.81 412.416 521.021 413.194C520.232 413.973 519.249 414.487 518.193 414.674C513.53 415.425 508.867 416.215 504.168 416.61C495.686 417.321 487.205 417.637 478.761 418.348C464.662 419.572 450.564 420.954 436.465 422.297C423.579 423.561 410.765 425.141 397.768 426.247C389.764 426.918 381.724 426.918 373.72 427.195C369.241 427.195 364.798 427.59 360.319 427.708C354.885 427.708 349.305 427.945 344.054 428.143C337.446 428.34 330.874 428.656 324.265 428.972C295.995 430.354 267.688 430.236 239.417 429.249C228.807 428.854 218.233 427.708 207.659 427.234C198.003 426.76 188.31 426.76 178.654 426.444C168.998 426.128 159.379 426.642 149.76 426.444C144.106 426.444 138.488 426.444 132.834 426.444C127.641 426.337 122.451 426.787 117.341 427.787C116.37 428.139 115.316 428.123 114.355 427.74C113.394 427.358 112.584 426.633 112.06 425.685C111.537 424.738 111.33 423.627 111.476 422.536C111.622 421.445 112.111 420.44 112.861 419.69C113.302 416.294 112.017 415.267 108.713 415.504C107.312 415.712 105.903 415.844 104.491 415.899C103.301 415.733 102.131 415.428 101.003 414.99C101.003 414.082 100.635 413.292 101.003 412.739C101.256 412.232 101.41 411.675 101.454 411.101C101.499 410.528 101.433 409.951 101.26 409.406C101.088 408.861 100.813 408.36 100.453 407.935C100.093 407.509 99.6551 407.168 99.1668 406.933L94.6142 404.05C96.2297 401.325 98.2857 399.389 98.2857 396.15C98.4364 391.593 97.878 387.041 96.6335 382.682C96.1899 381.22 95.3788 379.919 94.2902 378.922C93.2016 377.925 91.8779 377.272 90.4655 377.034C87.9321 376.56 85.3622 376.284 82.2781 375.81C81.9114 373.661 81.3832 371.547 80.6992 369.49C79.8713 367.796 78.8874 366.194 77.7621 364.711C78.0191 364.316 78.2761 363.526 78.5331 363.526C83.1225 363.803 84.2607 358.984 87.051 356.614C87.9322 355.864 88.0055 353.257 87.6751 351.717C87.2538 349.515 86.2772 347.481 84.8525 345.837C83.4277 344.193 81.6098 343.002 79.5978 342.396C79.8187 339.689 79.8187 336.966 79.5978 334.259C79.0067 332.071 78.1813 329.963 77.138 327.979C77.395 324.03 77.5785 320.87 77.7988 317.631C77.7988 315.104 78.2395 312.615 78.3864 310.087C78.5251 307.799 79.424 305.64 80.9195 304.005C82.2706 302.245 83.4287 300.323 84.3707 298.278C84.75 297.373 85.2927 296.558 85.9671 295.88C86.6414 295.202 87.434 294.674 88.2992 294.328C90.7591 293.538 91.2731 291.287 91.0528 288.838C90.8325 286.39 90.5389 284.454 90.2452 281.808C85.604 279.688 80.601 278.638 75.5593 278.727C70.8598 279.043 66.1602 279.675 61.4607 280.11C58.2665 280.386 55.109 281.452 52.2452 278.253C51.2539 277.147 48.5739 277.226 46.8483 277.542C42.2956 278.253 39.0647 274.738 35.0995 273.593C32.9701 272.961 32.3092 269.959 32.3459 267.787C32.4233 263.173 30.7998 258.714 27.8301 255.385C27.0396 254.429 26.4631 253.292 26.1449 252.059C25.8267 250.827 25.7752 249.533 25.9943 248.275C26.1846 243.711 25.5486 239.15 24.1218 234.847C23.712 233.409 23.0515 232.069 22.1758 230.897C21.874 230.351 21.4675 229.881 20.9832 229.518C20.499 229.155 19.9483 228.907 19.368 228.791C18.7876 228.675 18.191 228.694 17.6179 228.846C17.0448 228.998 16.5083 229.28 16.0445 229.672C15.2368 230.146 14.4657 231.213 13.6947 231.213C12.5704 231.152 11.5032 230.662 10.6843 229.83C10.3539 229.475 10.6841 227.856 11.1614 227.184C11.9955 226.296 12.8917 225.477 13.8417 224.735C14.5752 223.926 15.2618 223.068 15.8977 222.168C14.9799 220.193 14.0252 218.218 13.0706 216.244C14.0486 215.373 14.79 214.235 15.2165 212.949C15.643 211.663 15.739 210.277 15.4939 208.937C15.0349 205.704 15.0349 202.414 15.4939 199.181C16.1187 196.592 16.2323 193.891 15.8276 191.251C15.4229 188.612 14.5088 186.093 13.1441 183.856C12.8538 183.449 12.6528 182.977 12.5566 182.474C12.1255 180.405 11.299 178.456 10.1297 176.749C8.96036 175.042 7.47381 173.616 5.76444 172.56ZM3.23111 226.671C1.9828 226.355 0.844704 228.172 0.881419 229.791C0.918134 231.41 2.42344 232.99 3.63503 232.437C4.84661 231.884 5.50742 230.62 6.90258 229.199C5.32385 227.935 4.36926 226.671 3.23111 226.671ZM642.986 240.258L642.399 239.784V240.218L642.986 240.258Z"/>
</mask>
<path d="M5.76444 172.56C6.89614 171.684 7.75913 170.464 8.24309 169.057C8.72704 167.65 8.80995 166.119 8.48129 164.661C8.07996 160.872 8.54631 157.035 9.83972 153.484C10.1988 152.568 10.7373 151.746 11.4184 151.074C12.1527 150.166 13.5479 149.376 13.6947 148.389C13.9642 147.157 14.4957 146.009 15.2474 145.036C15.9992 144.063 16.9509 143.29 18.0273 142.78C18.6119 142.356 19.1426 141.851 19.606 141.279C20.1538 140.794 20.6036 140.193 20.9281 139.514C21.2526 138.835 21.4449 138.092 21.493 137.33C21.5412 136.568 21.4441 135.804 21.208 135.084C20.9719 134.364 20.6016 133.704 20.1198 133.143C18.1739 130.339 16.4484 127.455 14.2455 124.296C18.6564 122.295 23.3753 121.197 28.1604 121.057C35.9439 120.149 41.3778 115.014 48.2435 110.59L43.8009 108.971C50.3361 107.51 51.144 105.772 48.317 99.4523C46.2242 94.8312 46.9585 93.1724 51.9884 91.2766C52.6985 90.9334 53.3855 90.5374 54.0445 90.0916C54.0445 87.1689 54.3747 84.2067 54.3013 81.2444C54.2055 80.3229 54.4142 79.3944 54.8908 78.6218C55.3674 77.8491 56.0816 77.2815 56.9081 77.0183C55.4395 75.5174 54.1544 74.7275 53.6404 73.5031C53.3773 72.3244 53.4413 71.0885 53.8242 69.9484C54.2648 67.5786 51.9883 67.3021 51.1438 65.7223L51.8414 60.5482L54.0445 58.6524C58.7072 54.2683 58.8173 53.4783 55.5497 46.8034C56.4733 45.8634 57.2982 44.817 58.0095 43.6832C58.5227 42.1133 58.8557 40.4819 59.0009 38.8251L63.9207 36.3763C64.3246 34.2435 64.8019 31.8342 65.2792 29.3854C65.4406 27.9195 65.6981 26.4676 66.05 25.0408C68.3631 17.7735 68.3998 17.7734 74.0906 13.7053C72.622 11.0985 70.0886 14.8112 68.3263 12.3624C68.6568 11.928 68.9874 11.1775 69.428 11.0985C71.7011 10.4896 74.0261 10.1322 76.3669 10.0321C88.6438 10.0301 100.908 9.17255 113.082 7.46485C128.061 5.64801 143.114 4.46311 158.131 3.23872C168.962 2.36979 179.792 1.73785 190.623 1.26389C201.454 0.78993 211.808 0.631946 222.418 0.35547C226.42 0.35547 230.422 0 234.424 0C244.778 0 255.168 -6.03258e-06 265.521 0.39496C279.877 1.0269 294.232 2.13281 308.588 2.88325C316.335 3.31771 324.118 3.4757 331.902 3.63368C347.469 4.02865 363.036 4.26562 378.603 4.70009C391.086 5.05555 403.569 5.52951 416.089 6.04297C429.269 6.59592 442.45 7.38586 455.667 7.85981C480.404 8.89265 505.06 11.5305 529.501 15.7591C545.545 18.4844 561.663 20.7357 577.781 23.2635C581.966 23.9349 586.115 24.9223 590.337 25.5148C599.185 26.8182 608.07 28.082 616.992 29.109C619.739 29.4166 622.433 30.1345 624.996 31.2418C629.253 32.6964 633.65 33.624 638.103 34.0065C641.774 34.6385 645.446 35.0334 649.117 35.5074C649.696 36.5462 650.038 37.7178 650.115 38.9261C650.191 40.1345 650 41.3451 649.558 42.4588C649.263 43.6805 649.229 44.9581 649.458 46.1961C649.687 47.434 650.173 48.6003 650.88 49.6077C652.136 51.414 652.899 53.5615 653.083 55.8086C652.668 59.3003 651.401 62.6116 649.411 65.4063C648.64 67.0257 646.694 67.2231 644.969 67.0257C641.921 66.7097 638.874 66.3937 635.827 66.1567C634.597 66.0267 633.356 66.1202 632.155 66.4332C631.84 66.5752 631.558 66.7905 631.33 67.0637C631.101 67.3368 630.932 67.6611 630.833 68.0131C630.762 68.3755 630.765 68.7503 630.841 69.1116C630.917 69.473 631.065 69.8123 631.274 70.1064C633.276 72.1721 635.859 73.4641 638.617 73.7796C642.289 74.0955 645.556 74.7275 649.044 75.2409C648.902 77.8033 649.038 80.3746 649.448 82.9033C650.256 85.747 647.869 87.4849 648.787 90.8026L636.12 88.4328C632.449 87.9193 628.777 87.3269 624.886 87.0109C620.994 86.6949 616.882 86.4975 612.88 86.4975C608.987 86.101 605.063 86.247 601.205 86.9319C601.833 87.6721 602.608 88.2514 603.472 88.6273C604.336 89.0032 605.268 89.1662 606.198 89.1042C611.852 89.3807 617.469 89.7362 623.123 90.0521C623.829 89.9877 624.539 90.0681 625.216 90.2891C631.347 93.3304 638.103 93.0539 644.491 94.6733C647.213 95.4321 649.867 96.4499 652.422 97.7145C653.266 98.1489 653.707 99.5313 654.588 100.756L649.888 102.849C649.621 103.58 649.62 104.393 649.885 105.126C650.151 105.858 650.663 106.455 651.32 106.799C653.046 108.023 654.808 109.09 656.901 110.472C655.873 111.459 655.322 112.407 654.515 112.763C653.37 113.41 652.374 114.324 651.6 115.438C650.825 116.551 650.29 117.837 650.035 119.201C649.411 121.017 650.035 123.15 648.236 124.73C647.796 125.046 648.016 126.626 648.236 127.574C648.64 129.509 649.264 131.524 649.925 133.775L645.519 133.656C640.82 133.301 636.12 132.906 631.421 132.669C629.365 132.669 628.52 133.933 628.447 136.421C635.79 139.818 644.051 138.949 651.577 142.148V147.678C652.973 148.31 654.294 148.823 655.542 149.455C656.791 150.087 657.525 150.758 658.443 151.351C658.443 152.101 658.443 152.733 658.003 153.049C657.263 153.788 656.673 154.684 656.27 155.679C655.867 156.675 655.658 157.749 655.658 158.835C655.658 159.921 655.867 160.996 656.27 161.991C656.673 162.987 657.263 163.882 658.003 164.622C658.592 165.165 659.073 165.83 659.418 166.578C659.763 167.327 659.963 168.142 660.008 168.975C660.052 169.809 659.94 170.644 659.677 171.429C659.415 172.215 659.008 172.936 658.48 173.548C661.696 176.622 664.049 180.603 665.272 185.041C665.752 187.641 665.949 190.292 665.859 192.941C664.009 193.647 662.086 194.111 660.132 194.323C655.175 194.047 650.292 193.217 645.446 192.862C640.6 192.506 634.652 192.309 629.255 192.151C628.289 192.24 627.338 192.466 626.428 192.822V200.366L623.748 202.301C624.225 202.933 624.445 203.526 624.812 203.644C625.95 204 627.125 204.118 628.227 204.513C629.31 204.912 630.282 205.599 631.052 206.511C631.823 207.422 632.366 208.529 632.633 209.727L622.242 211.939C625.914 214.861 629.585 216.283 631.898 219.838C634.211 223.393 636.634 226.75 639.021 230.186C638.009 231.019 637.311 232.216 637.054 233.559C636.798 234.901 637.001 236.298 637.626 237.493C637.986 238.11 638.222 238.801 638.317 239.523C638.412 240.244 638.364 240.979 638.176 241.679C638.023 243.424 638.198 245.184 638.691 246.853C638.911 248.078 639.461 249.223 639.755 250.448C640.563 253.805 639.755 255.306 636.341 255.148C632.583 254.71 628.799 255.672 625.62 257.873C621.929 260.662 619.225 264.713 617.947 269.367C617.412 270.785 617.412 272.372 617.947 273.79C621.214 279.399 621.104 285.639 622.169 291.722C616.184 299.621 616.184 299.621 617.653 306.928C616.808 308.034 615.707 309.337 614.752 310.877C613.924 311.798 613.301 312.909 612.932 314.128C612.564 315.346 612.458 316.639 612.625 317.908C612.791 319.176 613.225 320.387 613.893 321.448C614.561 322.509 615.445 323.392 616.478 324.03C617.8 325.096 619.268 325.886 621.104 327.111L623.931 334.575C622.599 336.497 621.734 338.746 621.413 341.119C621.093 343.491 621.327 345.912 622.095 348.162C624.078 350.453 627.015 352.112 628.263 355.706C629.371 358.407 629.464 361.465 628.52 364.237C628.145 364.875 627.912 365.598 627.84 366.349C627.767 367.1 627.857 367.859 628.103 368.567C628.348 369.274 628.742 369.911 629.254 370.427C629.766 370.944 630.382 371.326 631.054 371.544C632.175 371.938 633.315 372.268 634.468 372.532C637.295 373.44 638.14 375.573 637.222 378.969L622.83 379.246L617.176 379.522C616.254 379.714 615.307 379.714 614.385 379.522C610.038 378.38 605.569 377.862 601.095 377.982C593.752 377.113 586.409 376.165 579.286 375.533C576.165 375.257 572.641 373.953 570.181 377.548C567.38 377.935 564.56 378.146 561.736 378.18C552.594 377.824 543.379 377.192 534.274 376.758C530.015 376.758 525.756 376.481 521.534 376.481C520.542 376.581 519.567 376.82 518.633 377.192C521.423 386.039 523.553 394.65 520.359 403.576C520.433 404.06 520.582 404.527 520.799 404.958C522.121 406.499 523.406 407.92 522.635 410.29C522.371 411.406 521.81 412.416 521.021 413.194C520.232 413.973 519.249 414.487 518.193 414.674C513.53 415.425 508.867 416.215 504.168 416.61C495.686 417.321 487.205 417.637 478.761 418.348C464.662 419.572 450.564 420.954 436.465 422.297C423.579 423.561 410.765 425.141 397.768 426.247C389.764 426.918 381.724 426.918 373.72 427.195C369.241 427.195 364.798 427.59 360.319 427.708C354.885 427.708 349.305 427.945 344.054 428.143C337.446 428.34 330.874 428.656 324.265 428.972C295.995 430.354 267.688 430.236 239.417 429.249C228.807 428.854 218.233 427.708 207.659 427.234C198.003 426.76 188.31 426.76 178.654 426.444C168.998 426.128 159.379 426.642 149.76 426.444C144.106 426.444 138.488 426.444 132.834 426.444C127.641 426.337 122.451 426.787 117.341 427.787C116.37 428.139 115.316 428.123 114.355 427.74C113.394 427.358 112.584 426.633 112.06 425.685C111.537 424.738 111.33 423.627 111.476 422.536C111.622 421.445 112.111 420.44 112.861 419.69C113.302 416.294 112.017 415.267 108.713 415.504C107.312 415.712 105.903 415.844 104.491 415.899C103.301 415.733 102.131 415.428 101.003 414.99C101.003 414.082 100.635 413.292 101.003 412.739C101.256 412.232 101.41 411.675 101.454 411.101C101.499 410.528 101.433 409.951 101.26 409.406C101.088 408.861 100.813 408.36 100.453 407.935C100.093 407.509 99.6551 407.168 99.1668 406.933L94.6142 404.05C96.2297 401.325 98.2857 399.389 98.2857 396.15C98.4364 391.593 97.878 387.041 96.6335 382.682C96.1899 381.22 95.3788 379.919 94.2902 378.922C93.2016 377.925 91.8779 377.272 90.4655 377.034C87.9321 376.56 85.3622 376.284 82.2781 375.81C81.9114 373.661 81.3832 371.547 80.6992 369.49C79.8713 367.796 78.8874 366.194 77.7621 364.711C78.0191 364.316 78.2761 363.526 78.5331 363.526C83.1225 363.803 84.2607 358.984 87.051 356.614C87.9322 355.864 88.0055 353.257 87.6751 351.717C87.2538 349.515 86.2772 347.481 84.8525 345.837C83.4277 344.193 81.6098 343.002 79.5978 342.396C79.8187 339.689 79.8187 336.966 79.5978 334.259C79.0067 332.071 78.1813 329.963 77.138 327.979C77.395 324.03 77.5785 320.87 77.7988 317.631C77.7988 315.104 78.2395 312.615 78.3864 310.087C78.5251 307.799 79.424 305.64 80.9195 304.005C82.2706 302.245 83.4287 300.323 84.3707 298.278C84.75 297.373 85.2927 296.558 85.9671 295.88C86.6414 295.202 87.434 294.674 88.2992 294.328C90.7591 293.538 91.2731 291.287 91.0528 288.838C90.8325 286.39 90.5389 284.454 90.2452 281.808C85.604 279.688 80.601 278.638 75.5593 278.727C70.8598 279.043 66.1602 279.675 61.4607 280.11C58.2665 280.386 55.109 281.452 52.2452 278.253C51.2539 277.147 48.5739 277.226 46.8483 277.542C42.2956 278.253 39.0647 274.738 35.0995 273.593C32.9701 272.961 32.3092 269.959 32.3459 267.787C32.4233 263.173 30.7998 258.714 27.8301 255.385C27.0396 254.429 26.4631 253.292 26.1449 252.059C25.8267 250.827 25.7752 249.533 25.9943 248.275C26.1846 243.711 25.5486 239.15 24.1218 234.847C23.712 233.409 23.0515 232.069 22.1758 230.897C21.874 230.351 21.4675 229.881 20.9832 229.518C20.499 229.155 19.9483 228.907 19.368 228.791C18.7876 228.675 18.191 228.694 17.6179 228.846C17.0448 228.998 16.5083 229.28 16.0445 229.672C15.2368 230.146 14.4657 231.213 13.6947 231.213C12.5704 231.152 11.5032 230.662 10.6843 229.83C10.3539 229.475 10.6841 227.856 11.1614 227.184C11.9955 226.296 12.8917 225.477 13.8417 224.735C14.5752 223.926 15.2618 223.068 15.8977 222.168C14.9799 220.193 14.0252 218.218 13.0706 216.244C14.0486 215.373 14.79 214.235 15.2165 212.949C15.643 211.663 15.739 210.277 15.4939 208.937C15.0349 205.704 15.0349 202.414 15.4939 199.181C16.1187 196.592 16.2323 193.891 15.8276 191.251C15.4229 188.612 14.5088 186.093 13.1441 183.856C12.8538 183.449 12.6528 182.977 12.5566 182.474C12.1255 180.405 11.299 178.456 10.1297 176.749C8.96036 175.042 7.47381 173.616 5.76444 172.56ZM3.23111 226.671C1.9828 226.355 0.844704 228.172 0.881419 229.791C0.918134 231.41 2.42344 232.99 3.63503 232.437C4.84661 231.884 5.50742 230.62 6.90258 229.199C5.32385 227.935 4.36926 226.671 3.23111 226.671ZM642.986 240.258L642.399 239.784V240.218L642.986 240.258Z" fill="url(#paint0_linear_8_54)" fill-opacity="0.1" stroke="url(#paint1_linear_8_54)" stroke-width="20" mask="url(#path-1-inside-1_8_54)"/>
<defs>
<linearGradient id="paint0_linear_8_54" x1="49.903" y1="211.95" x2="637.202" y2="211.95" gradientUnits="userSpaceOnUse">
<stop stop-color="#DEB457"/>
<stop offset="0.23" stop-color="#E2BF63"/>
<stop offset="0.41" stop-color="#D6AB47"/>
<stop offset="0.59" stop-color="#AE8225"/>
<stop offset="0.77" stop-color="#CF9E25"/>
<stop offset="1" stop-color="#B48A2D"/>
</linearGradient>
<linearGradient id="paint1_linear_8_54" x1="49.903" y1="211.95" x2="637.202" y2="211.95" gradientUnits="userSpaceOnUse">
<stop stop-color="#DEB457"/>
<stop offset="0.23" stop-color="#E2BF63"/>
<stop offset="0.41" stop-color="#D6AB47"/>
<stop offset="0.59" stop-color="#AE8225"/>
<stop offset="0.77" stop-color="#CF9E25"/>
<stop offset="1" stop-color="#B48A2D"/>
</linearGradient>
</defs>
</svg>
