<svg width="138" height="51" viewBox="0 0 138 51" fill="none" xmlns="http://www.w3.org/2000/svg">
<path d="M134.839 21.8362C135.05 22.0849 134.839 22.3628 135.151 22.5676C135.544 22.5238 135.791 22.1434 136.43 22.4652C136.43 22.8017 136.43 23.1967 136.43 23.5989C136.429 23.6875 136.41 23.7748 136.372 23.8549C136.372 23.8549 136.263 23.9208 136.118 24.0012C136.031 23.716 135.951 23.4746 135.856 23.1967L135.253 23.1381C134.374 23.5477 135.798 23.7306 135.442 24.1036L134.505 24.3523C134.817 24.5937 135.231 24.462 135.653 24.4986L136.169 24.2572C136.249 24.3011 136.416 24.3523 136.423 24.4108C136.423 24.6668 136.336 24.9375 136.823 25.1423C136.932 25.1935 136.866 25.3763 136.881 25.4787C136.481 25.6835 136.067 25.4787 135.733 25.5957C135.581 25.4667 135.4 25.3794 135.205 25.3422C135.01 25.3051 134.809 25.3193 134.621 25.3836L134.468 25.7128L135.471 25.9761V26.2686L134.519 26.5246C134.861 26.7587 135.297 26.6197 135.711 26.6636L136.183 26.1077L136.91 26.5246L136.481 26.8026V27.5998L136.794 27.79C136.845 27.8631 136.939 27.9363 136.946 28.0167C136.946 28.3313 136.946 28.6458 136.946 28.9676L135.871 29.2528L136.786 29.3991C136.836 29.5473 136.918 29.6823 137.026 29.7941C137.186 29.9404 137.499 30.0355 137.368 30.3792L136.757 30.6938H135.602L135.399 29.9111C135.028 30.1891 135.028 30.1891 135.035 31.118L136.271 31.4764L137.201 30.9863C137.266 30.9863 137.375 31.0522 137.375 31.0887C137.375 31.4398 137.375 31.8201 137.375 32.142L137.891 32.4638V33.0709L137.331 33.6121C136.467 33.7804 136.249 33.1148 135.58 33.4878C135.58 33.6926 135.944 33.7292 136.118 33.9193L137.208 33.9632C137.419 34.1388 137.884 34.2119 137.935 34.563C137.651 34.8994 136.866 35.1042 136.525 35.448V35.9893L136.932 36.216L137.004 37.0864L137.942 37.2766L137.455 37.5838L138 37.9129L137.07 38.9588L137.419 39.2002V39.7341L136.99 40.0048L137.448 40.2827V40.8093L136.975 41.0946C136.786 41.3872 137.31 41.4749 137.491 41.7382L137.012 42.2356V43.3181C136.895 43.6546 136.285 43.7277 136.51 44.0495L136.939 44.3275L136.489 44.6054V45.0516L135.798 45.783H135.297L134.832 45.2345C134.447 45.4905 134.454 45.8927 133.814 46.0171L133.335 45.7976C132.608 46.1341 133.444 46.2584 133.589 46.5291L132.688 46.6827L131.053 47.6408C130.087 47.7067 129.709 48.2113 129.026 48.5039H127.122L126.235 49.0086H124.077L123.772 48.5478C123.314 48.6283 123.14 48.9428 122.755 49.0086C122.411 49.0317 122.078 49.1343 121.781 49.3085H118.409L118.097 49.4913C118.01 49.4913 117.951 49.5791 117.893 49.5791H115.524C115.305 49.7174 115.06 49.8101 114.804 49.8515C114.548 49.893 114.286 49.8824 114.035 49.8205L113.693 49.6303C113.627 49.608 113.559 49.5933 113.49 49.5864C113.25 49.5864 113.01 49.5864 112.763 49.5864C112.516 49.5864 112.174 49.5864 112.102 49.6376C111.666 50.0326 110.649 49.6376 110.278 50.1057L109.551 49.7912L108.788 50.1204H106.15H105.925L105.526 50.3471H104L103.513 50.1277L103.128 50.3398H96.7766L96.3624 50.113H91.5592L91.065 50.369L90.7308 50.1862C90.5906 50.1475 90.447 50.123 90.302 50.113H87.7079L87.2864 50.3544H85.2518L84.8739 50.135H81.9309L81.524 50.369L81.0081 50.1204H79.5911L79.0897 50.3764L78.6682 50.1423H76.7789L76.0522 49.7985L75.1148 50.0911H69.8974C69.694 50.0911 69.5632 49.7473 69.0182 49.8571L68.524 50.0984L68.0154 49.8424H67.0853L66.4821 49.5279L65.4067 49.8351H63.7353L63.2703 50.0911H60.8578L59.2373 49.5791H57.4788L56.9556 49.3085L56.6141 49.4986C56.5592 49.5353 56.4973 49.5602 56.4324 49.5718H46.4481L45.9031 49.8278L45.5325 49.6157L44.6315 49.8936L44.0138 49.5791H42.5605L42.0591 49.8424H41.1144L40.613 49.5864H38.2078L37.8008 49.8132H35.8389L35.2793 49.5645H30.0546L29.6114 49.3158H24.8518L24.2922 49.0379H21.5455L22.105 48.6429L21.7053 48.3796C21.7853 48.226 22.2285 48.1821 21.9161 47.7579C21.8361 47.6408 22.0905 47.7579 22.1268 47.831C22.2213 48.1382 22.4029 47.9041 22.7081 47.831C22.4102 47.6262 22.9261 47.341 22.3666 47.1508C22.1413 47.2751 21.9161 47.4068 21.9161 47.7432C21.9161 47.948 21.669 47.948 21.4365 47.948L20.8479 47.6408L20.6153 48.4088C20.5543 48.4436 20.488 48.4683 20.4191 48.482H18.2392L16.9021 48.1016L18.4063 47.5531C17.3018 47.3702 17.3018 47.3702 15.4996 47.9407C14.8675 47.9407 14.6858 47.5677 14.3152 47.4287L13.5013 47.3336L13.9664 47.0118C13.7993 46.7339 13.0799 46.6754 13.0508 46.3243H13.7775C14.1844 46.156 13.9519 45.9147 14.0245 45.6806L13.3487 45.2637H11.4449L10.6674 44.8468V44.2763L8.82891 43.8082C8.82214 43.5721 8.75505 43.3417 8.63414 43.1393C8.51323 42.9369 8.34258 42.7693 8.1386 42.6525C7.66627 42.3161 7.30293 41.9211 6.8306 41.5554V40.3997L5.43542 38.8857V37.8398L7.37559 37.3424L5.36275 36.5378V35.9746L4.47623 35.4699V33.7877L5.34821 33.6121C5.23921 33.3561 4.86134 33.4585 4.62155 33.3927C4.26548 33.2172 4.51983 32.9758 4.43263 32.7637L3.45163 32.2151C3.2845 31.9152 3.72777 31.8055 3.97483 31.5861L3.51703 31.118L3.85129 30.8766C3.88762 30.5914 4.1347 30.2622 3.43711 30.1013V29.5235L3.89489 29.2455L3.40804 28.953V28.441L2.96476 28.1557V26.2686L3.41531 26.0126V25.2081L3.91671 24.9228V23.2771L4.83228 23.0869C4.55615 22.6481 3.74229 22.6408 3.2191 22.4214C2.6959 22.2019 2.61597 21.6899 2.02011 21.4486V20.0881L2.43432 19.8029V19.2762L1.99831 18.9983V18.1645L2.56511 18.0548C2.81217 18.0548 3.0011 17.9524 2.94296 17.8061C3.38623 17.594 3.3717 18.1937 3.85856 17.9597V16.8186L3.47343 16.5992C3.26997 16.1092 3.62604 15.5752 3.25544 15.0486L2.52878 15.4728C2.67412 15.6557 3.15369 15.7508 2.96476 16.0287L2.49971 16.2993L2.97204 16.5846V17.8061C2.73224 17.8061 2.49244 17.8061 2.24538 17.8061L1.51872 17.4111V16.0433L1.96924 15.7581V14.9243L1.16991 14.7707C1.11905 14.6975 1.02459 14.6171 1.02459 14.5366C1.02459 14.0466 1.02459 13.5565 1.02459 13.0738L0.588593 12.8324L0.515922 12.2985L0 11.8596L0.603118 11.3257L0.130793 10.9087C0.414191 10.6089 0.908323 10.8429 1.31525 10.8137L2.16545 11.2891C2.72498 11.1867 2.35439 10.9307 2.48519 10.7186L2.03464 10.3748V9.76042C2.2499 9.71786 2.46969 9.70311 2.68865 9.71653C2.86997 9.77241 3.04156 9.85631 3.1973 9.96521C3.59696 9.78236 3.3499 9.54099 3.42984 9.32156L2.96476 9.03631L3.42984 8.74374V7.93917L4.1129 7.55152C4.96309 7.91723 3.69143 8.11471 3.94576 8.48774L4.51983 8.83882L5.67521 8.56819C5.97314 8.28294 5.75515 7.96843 5.83508 7.66854C6.39461 7.36135 7.02681 7.66854 7.6808 7.48569L7.78252 8.50237C8.10225 8.71448 8.50918 8.57551 8.91611 8.61939L9.92618 8.07814C10.2532 8.07814 10.5947 8.07814 10.6528 7.749L10.2096 7.39792L10.631 7.1346L10.1878 6.84935L11.0016 6.39587L11.8591 7.09072L12.2442 6.50558L13.2833 6.79815L13.6394 6.2569C13.8865 6.09598 14.3152 6.2569 14.6931 6.19107L15.2163 6.4617H15.7104C15.8557 6.27884 16.0156 6.09598 16.2191 5.8473L17.1855 6.16181L17.5706 5.94238L18.072 6.16913L18.5444 5.94238C18.8278 5.98627 18.9004 6.23495 19.271 6.1545C19.3509 6.32272 19.3146 6.53484 19.7361 6.35198C19.5855 6.27612 19.4301 6.21015 19.271 6.1545C19.3584 6.10343 19.431 6.03032 19.4818 5.94238H20.8915L21.4583 5.67176L21.9451 5.90581L22.9334 5.39382L23.3403 5.62056H24.7936L25.5203 5.36456L26.4577 5.64982C27.1335 5.64982 27.2352 5.22559 27.7657 5.12319C28.2961 5.02079 28.4124 5.29142 28.7031 5.37187H29.6114L30.0038 5.14513L30.7886 5.41576L31.5879 5.12319H33.8478L34.3783 4.85256L35.3593 5.37187C35.9043 5.48159 36.0496 5.16708 36.551 5.09393L37.2776 5.3353L37.6846 4.86719H38.1787L38.7019 5.13782H39.6466L40.2352 4.83794L40.475 5.62056C41.1435 5.62056 40.6276 5.25485 41.1508 5.16708L42.1172 5.10856C42.2407 4.94765 42.3497 4.79405 42.4805 4.61119L43.0183 4.85988H45.4017L45.9031 4.60388H51.1496L51.6655 4.34057L52.087 4.57462L52.6538 4.34057H55.5604L55.7639 4.06263H56.9483L57.457 4.32594L57.893 4.08457H62.2093L62.6817 3.81394L63.1903 4.03337L63.6917 3.80663H64.5928L65.1305 3.52869H66.0752L66.5766 3.78469L66.9981 3.55063L68.524 3.49943L69.9047 2.72412L70.8421 3.22149L72.3971 2.75338L72.7314 2.94355L73.5598 2.68024L74.2865 2.98012H75.1512L75.6744 3.25075L76.5318 2.76801C77.0332 2.76801 77.1204 3.12641 77.6509 3.19223L78.0723 2.98744H81.3932L81.9963 2.67292L83.0645 3.27269L85.7895 2.48275L86.349 2.76801L87.1992 2.08779L87.5988 2.69486H88.558L89.6698 2.13898C90.6218 2.1975 90.6726 2.65098 91.036 2.93624L92.1768 2.31452L92.3221 1.93418C92.5012 1.87109 92.6937 1.85681 92.88 1.89278C93.0663 1.92875 93.2399 2.01369 93.3831 2.13898H94.3713L94.8727 1.87567H95.999L96.7984 2.5047L97.1908 1.90493H98.2735L98.6732 2.12436L99.16 1.90493C99.4797 1.97807 99.6542 2.2487 100.214 2.12436L100.475 1.69282C100.81 1.51727 101.202 1.65624 101.602 1.59773L101.936 1.40756C102.077 1.3749 102.22 1.3529 102.365 1.34173H103.985L104.457 1.54653L106.129 1.06379H110.22L110.852 0.756592L111.971 1.04916L112.153 1.29785H113.737L114.071 0.778536L114.616 1.04916C115.299 1.04916 116.004 1.04916 116.593 1.04916C117.188 1.4807 115.866 1.67087 116.411 2.03658C116.585 2.08778 116.585 2.08778 117.675 1.44413L117.886 1.02722L118.569 1.0711C119.085 1.5319 117.675 1.75133 118.308 2.2487L117.515 2.65829L117.101 2.42424C116.614 2.48275 116.491 2.78264 116.069 2.88504C115.844 2.94355 115.481 2.88503 115.379 3.08252C115.452 3.11909 115.51 3.1776 115.568 3.1776H118.511L118.787 2.71681C118.92 2.65366 119.067 2.62463 119.214 2.63229C119.361 2.63994 119.504 2.68405 119.63 2.76069L119.187 3.05326L121.171 3.60914L120.24 3.79932C120.415 4.304 121.447 4.20891 121.883 4.53074C122.169 4.5516 122.454 4.47984 122.697 4.32594C122.965 4.24331 123.239 4.18457 123.518 4.1504L122.98 3.82126L123.183 3.44092L124.223 3.98217L124.695 3.75543L125.422 4.11383C125.523 4.3552 125.269 4.58925 125.669 4.80137L126.105 4.28937L127.115 4.61119L129.251 5.81073L129.454 6.16913L130.007 5.89118L130.893 6.38855C131.242 6.73232 131.402 6.86398 131.525 7.01758C131.646 7.17794 131.755 7.34658 131.852 7.52226L132.884 6.97369L133.415 7.24432H134.41L134.592 7.60272L134.091 7.9026L134.585 8.2098C134.293 8.23898 134.006 8.3003 133.727 8.39265C133.47 8.52311 133.187 8.59313 132.899 8.59745C132.79 8.59745 132.688 8.79494 132.637 8.83882C132.688 9.24842 133.291 9.05093 133.56 9.21185C133.876 9.34598 134.205 9.44649 134.541 9.51173V10.053C134.447 10.1993 134.003 10.2432 134.083 10.4992C133.812 10.4108 133.545 10.3083 133.284 10.192L133.095 10.5284L133.982 11.2013C134.047 10.8064 134.076 10.6381 134.083 10.4699C134.217 10.4603 134.352 10.4829 134.476 10.5357C134.669 10.7687 134.849 11.0129 135.013 11.2671V12.1449L135.624 12.613L135.057 13.0299L135.362 13.1908C135.42 13.2786 135.508 13.359 135.515 13.4395C135.515 14.0173 135.515 14.5951 135.515 15.1364L135.013 15.5167C135.115 15.9044 135.74 15.9556 135.958 16.4822V18.6033L136.423 18.9398L136.023 19.2177V19.9491L135.551 20.249C136.067 20.4465 135.973 20.8634 136.452 21.1048C136.612 21.1779 136.452 21.4412 136.452 21.6095L135.769 21.9898C135.472 21.8877 135.169 21.8071 134.861 21.7484C134.933 21.3974 135.144 21.017 134.919 20.7245C134.826 20.6962 134.732 20.6766 134.636 20.6659L132.812 21.1194L134.418 21.2584C134.5 21.4879 134.646 21.6885 134.839 21.8362ZM9.21404 42.0528C9.34484 42.0528 9.57739 42.0089 9.59192 41.965C9.65732 41.8041 9.44657 41.7748 9.21404 41.7821C9.12684 41.6139 9.44659 41.3652 8.93066 41.2701C8.71993 41.6212 8.71991 41.6212 9.21404 41.7821V42.0528C9.08324 42.0528 8.85072 42.0966 8.83619 42.1478C8.82165 42.199 8.98151 42.3307 9.21404 42.3234C9.30124 42.4989 8.98152 42.7403 9.49745 42.8427C9.70818 42.4843 9.70817 42.4843 9.21404 42.3234V42.0528ZM14.0681 40.5095C13.9591 40.3047 13.9955 40.0925 13.5813 40.2754C13.7166 40.3477 13.8607 40.4018 14.01 40.4363C14.1045 40.6119 13.7847 40.8532 14.2934 40.9483C14.5041 40.5972 14.5041 40.5972 14.0681 40.5095ZM38.0479 40.2388C37.9462 40.034 37.9753 39.8219 37.5611 40.0048C37.6964 40.0771 37.8405 40.1312 37.9898 40.1657C38.2804 40.4436 38.2804 40.4436 38.9417 40.3193C38.731 40.0779 38.3313 40.1949 38.0697 40.2388H38.0479ZM135.42 32.3468C135.914 32.1859 135.914 32.1859 135.696 31.8128C135.268 31.9445 135.478 32.1639 135.558 32.3175C135.188 32.376 134.832 32.3541 135.137 32.5881C135.264 32.5352 135.376 32.4524 135.464 32.3468H135.42ZM131.642 22.9846C131.533 22.7724 131.569 22.5676 131.148 22.7505C131.286 22.8208 131.433 22.8748 131.584 22.9114C131.867 23.182 131.867 23.182 132.506 23.065C132.368 22.7578 131.932 22.9553 131.685 22.9846H131.642ZM35.0831 37.9348C35.1849 38.1396 35.1558 38.3518 35.57 38.1689C35.4387 38.099 35.2997 38.045 35.1558 38.008L35.0759 37.4667L34.1021 37.5252L34.3347 38.008C34.5865 38.0298 34.8402 38.005 35.0831 37.9348ZM130.13 7.73437C130.239 7.93917 130.203 8.15128 130.624 7.96843C130.559 7.9268 130.484 7.90469 130.406 7.90469C130.329 7.90469 130.254 7.9268 130.188 7.96843V7.39792L130.697 7.09072C130.646 6.97369 130.588 6.85667 130.544 6.74695H129.382C129.127 6.98832 129.244 7.20043 129.273 7.41255C129.531 7.5842 129.824 7.69428 130.13 7.73437ZM31.0647 39.3758C31.7509 39.3916 32.4374 39.3697 33.1212 39.3099L33.499 38.6809L34.2911 39.3099C35.6499 39.3099 36.7545 39.3099 37.859 39.3099C37.9171 39.3099 37.968 39.2514 38.0915 39.171L36.7327 39.032L35.8679 38.5492H33.4845C32.9425 38.316 32.5035 37.8922 32.2492 37.357C32.2492 37.2912 32.0312 37.2546 31.9658 37.218H31.0211L30.4107 37.5765L31.2246 38.4615L30.8322 38.6736L31.7768 38.9369C31.617 39.0393 31.4644 39.1344 31.4353 39.3246C31.0647 39.3831 30.7087 39.3684 31.0211 39.6025C31.1228 39.5294 31.2318 39.4562 31.0647 39.3758ZM9.21404 28.6092C9.31577 28.8871 8.15312 29.0261 8.96698 29.4064H9.56285L9.87531 28.8945L10.602 28.9603L10.2459 29.3626C10.3784 29.4318 10.5254 29.468 10.6746 29.468C10.8239 29.468 10.9709 29.4318 11.1034 29.3626V29.0919C11.6144 29.0147 12.1 28.8167 12.5204 28.5141L12.0989 28.2801V27.1464L11.3722 26.7002H10.8636L10.384 26.137L9.65732 26.254C9.65732 26.7221 9.65732 27.1683 9.65732 27.6145C9.65732 27.6657 9.47565 27.7095 9.38118 27.7534L8.98878 27.534C8.8415 27.6208 8.68565 27.6919 8.52373 27.7461C8.2694 27.8193 7.88427 27.7461 7.75347 27.9655C7.75347 28.0387 7.75347 28.1265 7.79707 28.2142L9.21404 28.6092ZM32.2564 36.6549V35.4553L31.7914 35.192L32.2274 34.9068C31.8928 34.8794 31.5677 34.7812 31.2734 34.6186C30.9791 34.456 30.7223 34.2327 30.5197 33.9632L29.9021 34.051V35.5138L30.7959 36.0185C30.8976 36.2233 30.6505 36.4574 30.9993 36.6695L32.2564 36.6549ZM124.426 13.3371C124.426 12.9787 124.426 12.6057 124.426 12.2619C124.426 12.2619 124.317 12.2034 124.208 12.1522H123.634L123.307 12.6715L122.769 12.4082C122.043 12.6861 122.9 12.8836 122.893 13.1396L122.515 13.3517C122.806 13.4541 122.907 13.6808 123.307 13.7174L123.765 13.4614L124.491 13.893L124.266 14.2294C123.816 14.3757 123.38 14.1782 122.907 14.4635L123.787 14.8365C124.666 14.8365 124.666 14.8365 124.906 14.6902C124.847 14.3172 124.949 13.9588 124.906 13.6077L124.426 13.3371ZM12.8982 37.496L13.5304 37.0498V36.5232L12.6802 36.0405L12.3895 35.5577L11.6629 35.6382V36.8158L12.1207 37.0718V38.2713L13.5377 37.891L12.8982 37.496ZM11.5757 25.5006C11.6774 25.113 11.1542 25.0618 11.1688 24.9155C11.1688 24.6522 10.8999 24.5352 10.6383 24.3743C10.5173 24.303 10.3816 24.2607 10.2418 24.2505C10.1019 24.2404 9.96163 24.2627 9.83171 24.3157C9.58464 24.462 9.72997 24.6449 9.70817 24.8131C9.67903 24.9874 9.67903 25.1654 9.70817 25.3397C9.70817 25.5006 9.56285 25.6908 9.90438 25.8517H10.9072L11.5757 25.5006ZM10.0788 19.6493C10.0788 19.247 10.0788 19.2104 9.74451 18.9178V17.9012C10.3331 17.4623 10.3476 17.3892 9.89711 17.2721L9.54832 17.4696L8.74899 18.201V18.874L9.47565 19.6054L10.0788 19.6493ZM9.22132 20.7757V21.8435L9.91165 22.575C10.1805 22.575 10.4857 22.6627 10.6383 22.4287L10.2822 22.2312C10.5511 21.9898 10.849 21.7192 10.6674 21.4339C10.4543 21.1624 10.2105 20.9169 9.9407 20.7025L9.22132 20.7757ZM105.482 12.73C104.61 12.8105 104.937 13.4029 104.29 13.6223C104.232 13.6223 104.087 13.9661 104.595 13.9588L105.424 13.498L106.085 13.4248C106.129 13.3078 106.158 13.2274 106.238 13.0299L105.482 12.73ZM8.02958 32.6247L8.48013 32.0835C8.90159 32.0323 9.33031 32.1712 9.67184 31.9518C9.15698 31.8602 8.66392 31.6716 8.21852 31.3959C8.10573 31.3225 7.97495 31.282 7.84067 31.2789C7.64907 31.2959 7.45938 31.3301 7.27387 31.3813L7.78252 31.7177C8.00779 32.0103 7.46279 32.3614 8.02958 32.6247ZM8.53825 16.4676L9.16317 16.0287L8.70539 15.7435C8.70539 15.0779 8.70539 15.0779 8.35659 14.8804C8.31299 14.8804 8.23305 14.9462 8.23305 14.9755C8.23305 15.5972 8.23305 16.2116 8.23305 16.826C8.23305 16.826 8.32026 16.8918 8.45106 16.9796L9.26491 16.9064L8.53825 16.4676ZM29.3425 37.0718C29.4079 36.6987 28.9501 36.5451 28.4487 36.3769L27.8383 36.5232C28.0418 36.8231 27.7293 37.1376 28.0636 37.4229L29.3425 37.0718ZM129.484 9.68727C129.077 9.87744 129.098 10.1993 129.258 10.309C129.723 10.6089 129.636 11.1501 130.523 11.2598C131.097 10.9234 130.312 10.8137 130.159 10.5284V10.1188L129.484 9.68727ZM14.9765 25.2008C15.0564 25.4129 14.8021 25.6469 15.1509 25.8371C15.9938 25.625 16.0229 25.1057 16.4443 24.7473L16.1609 24.5352L14.9765 25.2008ZM125.342 5.78879L126.148 5.3865C125.378 5.45233 124.906 5.22559 124.426 5.51816V5.68639L125.153 6.24227L125.945 6.07404L125.342 5.78879ZM133.102 23.6794C133.538 23.182 134.083 23.2186 134.556 23.0504L134.367 22.575C133.916 22.7212 133.495 22.5238 133.131 22.7505L133.102 23.6794ZM132.863 12.3716C132.863 12.3716 132.521 12.3716 132.586 12.7154C132.834 12.9979 133.18 13.1734 133.553 13.2054C133.967 13.2054 134.032 13.0591 134.032 12.7519L132.863 12.3716ZM125.531 24.5059C125.313 25.8298 125.312 25.8298 125.705 26.0931C125.756 26.0931 125.843 26.0273 125.843 25.998C125.843 25.5518 125.843 25.1057 125.843 24.6668C125.857 24.6376 125.749 24.6083 125.531 24.5059ZM14.4533 46.4486C15.4125 46.9752 15.4851 46.9899 15.9066 46.7412V46.4779L14.5623 46.0902L14.4533 46.4486ZM32.8087 19.6493L32.6488 19.1812C32.1898 19.0634 31.7051 19.0993 31.2682 19.2835L31.399 19.6493H32.8087ZM6.08941 32.3248C5.70428 32.5808 5.86415 32.8149 5.86415 33.0563C5.86415 33.2976 5.70429 33.4951 6.06762 33.7365L6.896 33.6487L6.45274 33.3854C6.18388 32.9977 6.53268 32.6686 6.08941 32.3248ZM6.45274 31.7177L5.98042 31.4764C5.72609 31.1984 6.03129 30.9644 5.61709 30.745C5.38456 30.8839 5.13021 31.0156 4.78141 31.2277C5.66794 31.2277 5.16656 31.63 5.63889 31.8348L6.45274 31.7177ZM12.048 32.0542C11.4885 32.12 11.0743 31.9884 10.6456 32.2078L10.7836 32.632C11.2632 32.5735 11.6701 32.7052 12.048 32.5077V32.0542ZM30.2145 32.8295C29.9689 32.863 29.7261 32.9143 29.4879 32.9831C29.4007 32.9831 29.4152 33.1294 29.3643 33.2757L30.2436 33.6268C30.527 33.4805 30.3381 33.2245 30.2291 32.8295H30.2145ZM10.5438 33.2757C11.0488 33.4583 11.6012 33.4583 12.1062 33.2757L11.5684 32.9758L10.5438 33.2757ZM28.1581 32.1127C27.9328 33.166 27.9328 33.166 28.3179 33.3927C28.4161 33.1864 28.4532 32.956 28.4249 32.7291C28.3965 32.5021 28.3039 32.2882 28.1581 32.1127ZM11.1324 7.67586C11.2774 7.77748 11.4499 7.83196 11.6266 7.83196C11.8032 7.83196 11.9757 7.77748 12.1207 7.67586L11.9754 7.28089L11.1324 7.37598V7.67586ZM7.73167 39.7853C8.10227 39.8365 8.15312 40.1145 8.58185 40.1218C8.74898 39.6098 8.73445 39.6098 8.42199 39.3904L7.73167 39.7853ZM6.81607 16.0507C6.96502 16.1417 7.13593 16.1899 7.3102 16.1899C7.48446 16.1899 7.65537 16.1417 7.80432 16.0507L7.659 15.6411L6.81607 15.7435V16.0507ZM28.8847 19.8321C29.099 19.9313 29.332 19.9826 29.5678 19.9826C29.8036 19.9826 30.0366 19.9313 30.2509 19.8321L29.6695 19.3567L28.8847 19.8321ZM33.7316 36.7207L34.6762 36.6183L34.5091 36.1136L33.7316 36.2014V36.7207ZM7.32472 38.6078L8.27667 38.5054L8.10953 38.0007L7.32472 38.0884V38.6078ZM132.623 21.8874C132.686 21.9652 132.756 22.0363 132.833 22.0995L133.277 22.3848C133.655 22.18 133.655 22.0044 133.277 21.8143L132.623 21.8874ZM11.9972 39.522C13.1816 39.6391 13.1816 39.6317 13.4505 39.4416C12.9592 39.2979 12.434 39.3263 11.9608 39.522H11.9972ZM132.07 27.8778C132.298 27.9864 132.546 28.0427 132.797 28.0427C133.048 28.0427 133.297 27.9864 133.524 27.8778C133.298 27.7661 133.049 27.708 132.797 27.708C132.545 27.708 132.297 27.7661 132.07 27.8778ZM135.704 39.0539C135.333 39.2441 135.333 39.4196 135.704 39.6025C135.914 39.4489 136.285 39.3684 136.358 39.1124L135.704 39.0539ZM113.177 1.86104C112.807 2.05121 112.807 2.23407 113.177 2.41692C113.388 2.26332 113.759 2.18287 113.831 1.92687L113.177 1.86104ZM12.811 33.422C12.4114 33.6926 12.4114 33.9632 12.811 34.2412C13.2179 33.9632 13.2179 33.7292 12.811 33.422ZM28.8629 38.5419H29.3861L29.7785 38.4468C29.7204 38.3883 29.6841 38.3152 29.6041 38.2713C29.5242 38.2274 29.2844 38.0958 29.0228 37.9495L28.8629 38.5419ZM2.72497 13.7613C3.03744 13.5199 3.1755 13.3444 2.6523 13.2347C2.40524 13.3883 2.41978 13.5419 2.72497 13.7613ZM133.059 15.2241C133.201 15.3176 133.368 15.3674 133.538 15.3674C133.709 15.3674 133.875 15.3176 134.018 15.2241C133.877 15.1295 133.711 15.079 133.542 15.079C133.373 15.079 133.207 15.1295 133.066 15.2241H133.059ZM123.699 16.4603C124.012 16.2116 124.15 16.0433 123.627 15.9263C123.351 16.0872 123.394 16.2335 123.707 16.4603H123.699ZM8.64 24.5644H8.33479C8.30362 24.6824 8.27935 24.802 8.26212 24.9228C8.26212 24.9228 8.37838 25.0179 8.41471 25.0106C8.45105 25.0033 8.71265 24.9521 8.71992 24.9155C8.71004 24.7952 8.68314 24.677 8.64 24.5644ZM7.05586 25.2959C6.70707 25.4787 6.70707 25.6616 7.05586 25.8371C7.39739 25.6835 7.3974 25.5153 7.08493 25.3324L7.05586 25.2959ZM15.2163 26.9196C15.5578 26.7368 15.5578 26.5539 15.2163 26.3784C14.8675 26.5905 14.8675 26.7733 15.2163 26.9562V26.9196ZM5.13022 28.2654C4.78869 28.441 4.78869 28.6238 5.13022 28.8067C5.47901 28.6604 5.47901 28.4775 5.13022 28.302V28.2654ZM135.987 28.3971C135.551 28.2215 135.26 28.1484 135.042 28.441C135.188 28.5186 135.351 28.5586 135.516 28.5573C135.681 28.556 135.843 28.5135 135.987 28.4337V28.3971ZM39.4213 39.2222C39.8573 39.3977 40.148 39.4781 40.3587 39.1856C40.2118 39.1124 40.0491 39.0774 39.8854 39.0838C39.7216 39.0902 39.5621 39.1377 39.4213 39.2222ZM135.224 44.4811C134.883 44.6566 134.883 44.8395 135.224 45.0223C135.573 44.8395 135.573 44.6566 135.224 44.4811ZM23.3185 48.0431C23.413 48.1748 22.8389 48.3942 23.4784 48.4893C23.7036 48.3576 23.6891 48.1821 23.2894 48.0431H23.3185ZM133.785 13.7174C133.48 13.9661 133.335 14.1343 133.858 14.2514C134.12 14.0904 134.105 13.9807 133.785 13.7174ZM130.356 12.4301L130.188 12.5252C130.293 12.5621 130.4 12.5915 130.508 12.613C130.552 12.613 130.617 12.5545 130.668 12.5252L130.356 12.4301ZM101.623 12.9348C101.573 12.9348 101.464 13.0006 101.471 13.0226C101.515 13.0864 101.566 13.1452 101.623 13.1981C101.674 13.1981 101.783 13.1323 101.776 13.1103C101.731 13.0465 101.68 12.9877 101.623 12.9348ZM103.716 13.0299L103.542 12.9348C103.485 12.9858 103.436 13.0449 103.396 13.1103C103.396 13.1103 103.491 13.1688 103.542 13.1981L103.716 13.0299ZM7.53546 16.4383C7.47733 16.4383 7.3756 16.5041 7.38287 16.5261C7.39013 16.548 7.47733 16.6431 7.53546 16.7089C7.59359 16.7748 7.69533 16.6431 7.6808 16.6212C7.64335 16.5521 7.59415 16.4902 7.53546 16.4383ZM14.1844 18.8228L14.4969 18.7277C14.4387 18.7277 14.3733 18.6399 14.337 18.6472C14.2285 18.6654 14.1215 18.6923 14.0173 18.7277L14.1844 18.8228ZM10.8272 19.6346L11.1324 19.5395C11.0816 19.5395 11.0162 19.4518 10.9726 19.4518C10.8643 19.4742 10.7575 19.5035 10.6528 19.5395L10.8272 19.6346ZM125.218 19.7151L124.906 19.8102C124.956 19.8102 125.022 19.8979 125.065 19.8906C125.174 19.8707 125.28 19.8438 125.385 19.8102L125.218 19.7151ZM133.001 20.3075L132.826 20.2125C132.767 20.2662 132.716 20.3277 132.674 20.3953C132.674 20.3953 132.775 20.4538 132.826 20.4831L133.001 20.3075ZM9.14137 25.6835L8.97425 25.5884C8.91541 25.6422 8.86409 25.7037 8.82166 25.7713C8.82166 25.7713 8.92339 25.8298 8.97425 25.859L9.14137 25.6835ZM134.745 27.7461C134.694 27.7461 134.592 27.8119 134.599 27.8339C134.637 27.9029 134.686 27.9648 134.745 28.0167C134.803 28.0167 134.904 27.9509 134.897 27.929C134.858 27.8634 134.806 27.8062 134.745 27.7607V27.7461ZM136.256 30.4085L136.43 30.3061C136.323 30.2716 136.214 30.2447 136.103 30.2256C136.067 30.2256 136.002 30.2768 135.951 30.3061L136.256 30.4085ZM126.257 31.1692L126.083 31.0009C126.032 31.0009 125.923 31.0668 125.937 31.0887C125.977 31.1541 126.026 31.2133 126.083 31.2643L126.257 31.1692ZM134.25 31.0009C134.2 31.0009 134.091 31.0668 134.105 31.0887C134.145 31.1541 134.194 31.2133 134.25 31.2643C134.309 31.2643 134.41 31.1984 134.403 31.1765C134.363 31.1093 134.311 31.0499 134.25 31.0009ZM133.705 32.1127L133.531 32.2078C133.637 32.2481 133.746 32.2775 133.858 32.2956C133.858 32.2956 133.96 32.2444 134.011 32.2078L133.705 32.1127ZM10.1006 33.2537L9.93345 33.1513C9.87803 33.2083 9.827 33.2694 9.78084 33.3342C9.78084 33.3342 9.88259 33.3927 9.93345 33.422L10.1006 33.2537ZM9.14137 33.517L8.97425 33.422C8.91714 33.4773 8.86599 33.5386 8.82166 33.6048C8.82166 33.6048 8.92339 33.6633 8.97425 33.6926L9.14137 33.517ZM28.8266 35.192L28.6522 35.0238C28.6013 35.0238 28.4996 35.0896 28.5069 35.1116C28.5464 35.177 28.5954 35.2361 28.6522 35.2871L28.8266 35.192ZM125.799 36.5451L125.625 36.3696C125.574 36.3696 125.465 36.4354 125.48 36.4574C125.517 36.5264 125.566 36.5883 125.625 36.6402L125.799 36.5451ZM136.118 38.7394L136.43 38.6443C136.372 38.6443 136.307 38.5566 136.271 38.5639C136.162 38.582 136.055 38.6089 135.951 38.6443L136.118 38.7394ZM11.4449 39.0466L11.612 38.9515C11.5075 38.917 11.4007 38.8901 11.2923 38.8711C11.2487 38.8711 11.1833 38.9223 11.1324 38.9515L11.4449 39.0466ZM135.399 40.5095L135.224 40.4144C135.165 40.4663 135.116 40.5282 135.079 40.5972C135.079 40.5972 135.173 40.6557 135.224 40.685L135.399 40.5095ZM33.6661 41.6285C33.6153 41.6285 33.5499 41.5408 33.5063 41.5408C33.398 41.5632 33.2912 41.5925 33.1866 41.6285C33.2374 41.6285 33.3028 41.7163 33.3464 41.709C33.4639 41.6976 33.5804 41.678 33.6952 41.6505L33.6661 41.6285ZM135.849 41.6285L135.682 41.453C135.624 41.453 135.522 41.5188 135.529 41.5408C135.567 41.6324 135.627 41.7129 135.704 41.7748L135.849 41.6285ZM15.456 45.4319C15.3979 45.4319 15.3325 45.3442 15.2962 45.3442C15.1874 45.3647 15.0805 45.3941 14.9765 45.4319C15.0273 45.4319 15.0927 45.5197 15.1291 45.5124C15.2398 45.4934 15.3491 45.4665 15.456 45.4319ZM123.394 5.55473L123.227 5.37919C123.176 5.37919 123.067 5.44502 123.074 5.46696C123.117 5.53457 123.168 5.59608 123.227 5.64982L123.394 5.55473Z" fill="url(#paint0_linear_9_567)"/>
<defs>
<linearGradient id="paint0_linear_9_567" x1="1.52327e-06" y1="4.40916" x2="124.455" y2="59.928" gradientUnits="userSpaceOnUse">
<stop stop-color="#3F2864"/>
<stop offset="1" stop-color="#590E4C"/>
</linearGradient>
</defs>
</svg>
