<svg width="195" height="23" viewBox="0 0 195 23" fill="none" xmlns="http://www.w3.org/2000/svg">
<path d="M0.333333 11.5C0.333333 17.391 5.10896 22.1667 11 22.1667C16.891 22.1667 21.6667 17.391 21.6667 11.5C21.6667 5.60896 16.891 0.833333 11 0.833333C5.10896 0.833333 0.333333 5.60896 0.333333 11.5ZM173.333 11.5C173.333 17.391 178.109 22.1667 184 22.1667C189.891 22.1667 194.667 17.391 194.667 11.5C194.667 5.60896 189.891 0.833333 184 0.833333C178.109 0.833333 173.333 5.60896 173.333 11.5ZM11 13.5H184V9.5H11V13.5Z" fill="#EA8E43"/>
</svg>
