<svg width="476" height="325" viewBox="0 0 476 325" fill="none" xmlns="http://www.w3.org/2000/svg">
<path d="M468.434 184.941L471.431 187.25C471.168 188.034 471.063 188.731 470.905 188.818C469.038 189.559 467.172 190.212 465.069 190.996L463.991 196.223C463.421 196.426 462.838 196.514 462.256 196.485L446.483 193.653C445.681 193.48 444.873 193.392 444.064 193.392C443.486 193.455 442.93 193.792 442.464 194.364C441.998 194.936 441.641 195.717 441.435 196.615C441.313 197.019 441.245 197.462 441.236 197.914C441.228 198.366 441.279 198.815 441.387 199.231C441.495 199.646 441.656 200.017 441.86 200.318C442.064 200.619 442.305 200.842 442.566 200.971C444.958 201.625 447.35 202.061 449.743 202.54C450.689 202.54 451.714 202.801 452.135 205.371L446.351 207.026L448.665 212.776L441.251 213.125C440.463 216.435 442.145 218.265 442.356 220.443C443.828 222.926 446.351 221.053 447.824 224.799C444.847 226.275 441.756 227.024 438.649 227.02C430.762 226.149 422.613 225.104 414.569 224.276C407.997 223.579 401.425 223.056 394.826 222.534C393.586 222.549 392.348 222.694 391.119 222.969C391.251 225.322 392.224 225.104 392.933 225.234C398.848 226.367 404.789 227.325 410.704 228.414C418.591 229.895 426.661 231.464 434.653 233.032C438.184 233.216 441.673 234.348 444.984 236.386C447.134 237.484 449.361 238.114 451.609 238.259L454.974 239.261C454.974 242.092 453.581 242.963 453.029 244.749C452.46 246.449 451.818 248.079 451.11 249.628C450.742 250.499 450.268 251.24 449.9 252.111C448.034 256.249 448.218 258.645 450.689 262.348C451.031 262.87 451.451 263.262 451.793 263.698C450.82 270.711 450.82 270.711 452.739 282.472C455.132 284.171 458.497 284.694 457.997 291.838L450.479 291.141C449.534 290.833 448.561 290.84 447.618 291.162C446.675 291.484 445.779 292.113 444.984 293.014C443.978 293.808 442.846 294.052 441.751 293.711C429.395 292.535 417.014 291.097 404.632 290.008C399.821 289.616 394.984 290.008 390.147 290.008C389.453 289.883 388.751 290.031 388.097 290.44C387.444 290.849 386.858 291.507 386.387 292.361C387.135 293.155 387.95 293.757 388.806 294.147C392.96 294.931 397.139 295.54 401.319 296.063L417.092 297.893L418.696 302.249C422.008 301.9 424.979 304.688 428.291 304.906C431.604 305.124 435.31 306.343 438.807 307.084L448.77 309.349L452.398 318.061C451.136 318.845 449.269 318.976 448.612 320.5C446.956 324.464 444.774 323.55 442.618 323.462C436.513 323.283 430.427 322.248 424.427 320.37C423.144 320.122 421.854 320.006 420.562 320.021C416.882 319.76 413.175 319.629 409.495 319.281C401.293 318.453 393.091 317.538 384.915 316.667L378.159 316.014C376.887 315.688 375.593 315.688 374.321 316.014C368.117 318.497 361.834 316.754 355.604 317.016C347.717 317.32 339.831 317.016 331.944 317.016C331.032 317.194 330.144 317.621 329.315 318.279C328.464 318.996 327.586 319.622 326.686 320.152C325.372 320.631 323.926 320.762 324.215 317.059C321.876 317.408 319.799 316.58 318.09 319.498C317.696 320.239 316.565 320.152 315.803 319.934C311.081 319.085 306.329 318.779 301.581 319.019C293.826 318.497 286.176 320.675 278.447 319.978C276.844 319.978 275.24 320.195 273.636 320.239C272.525 320.589 271.383 320.589 270.272 320.239C267.036 318.523 263.531 318.865 260.439 321.197C258.899 321.915 257.307 322.282 255.708 322.286C247.07 323.491 238.398 323.869 229.735 323.419C226.259 324.492 222.694 324.492 219.219 323.419C216.502 323.636 213.78 323.548 211.07 323.158C210.424 323.01 209.767 323.177 209.177 323.637C206.952 325.307 204.419 325.448 202.132 324.029C201.369 323.68 200.397 322.94 199.818 323.419C196.427 326.076 192.878 324.116 189.435 324.508C184.966 324.987 180.444 324.29 175.949 324.072C168.062 323.782 160.176 323.433 152.289 323.027C145.375 322.722 138.461 322.461 131.547 321.938C128.062 321.168 124.538 321.007 121.032 321.459C118.471 321.777 115.896 321.617 113.356 320.98C108.098 320.326 102.84 319.455 97.5827 318.889C93.18 317.822 88.7248 317.472 84.2808 317.843C83.1688 318.254 82.0064 318.055 80.9684 317.277C78.8529 315.398 76.4319 314.681 74.0546 315.23C72.6613 315.23 71.2153 313.748 69.8483 313.966C64.9324 314.794 60.4108 311.222 55.6 311.004C52.9712 311.004 50.3424 310.351 47.8975 310.569C45.6541 310.873 43.3996 310.275 41.3254 308.826C37.2756 306.162 32.9272 304.974 28.5756 305.341C25.0683 305.178 21.6098 303.937 18.3757 301.682C17.35 300.898 16.3497 300.026 15.3788 299.069C12.7499 296.934 12.7499 296.934 9.49017 299.069C5.94123 296.673 4.49536 291.272 3.07578 286.001C2.89096 284.477 2.89096 282.907 3.07578 281.383C3.07578 279.293 3.5227 277.027 2.68147 275.198C2.59081 274.731 2.56731 274.236 2.61296 273.752C2.65861 273.268 2.77209 272.808 2.94429 272.41C3.16307 271.897 3.31766 271.317 3.39893 270.703C3.4802 270.09 3.48656 269.456 3.41755 268.838C3.41755 263.524 4.86335 261.346 8.12312 261.433C8.88548 261.433 9.6216 261.433 10.3051 261.215C10.6994 258.34 9.41124 256.859 8.93805 254.245L11.2251 246.23C10.121 241.874 9.01701 237.736 7.88661 233.467C9.14846 228.371 9.59523 222.926 12.3555 219.659C10.8045 209.945 10.8046 209.945 8.01802 206.852L11.0937 202.496L9.14841 198.14L14.7215 193C14.5316 191.452 14.4348 189.876 14.4324 188.296C14.5972 186.686 14.8343 185.099 15.1421 183.547C12.0401 180.455 8.2283 180.106 5.52059 174.835C4.61258 169.319 4.76889 163.47 5.96753 158.108C6.28299 156.497 6.46689 155.103 7.41328 154.232C7.66801 153.947 7.88325 153.576 8.04434 153.143C8.70155 151.792 6.99282 150.006 8.22837 148.787C9.46393 147.567 9.01689 146.696 8.91174 145.52C8.80597 144.472 8.60201 143.458 8.30716 142.514C7.97205 141.764 7.79114 140.855 7.79114 139.922C7.79114 138.989 7.97205 138.08 8.30716 137.33C8.68313 136.143 8.8969 134.832 8.93324 133.492C8.96958 132.152 8.82766 130.816 8.51751 129.577C8.28091 128.008 7.17675 126.789 6.33552 125.221C6.73861 116.16 7.15918 106.708 7.59732 96.863L3.8644 93.4653C4.04842 92.4634 4.02214 91.3745 4.28503 91.0696C5.62574 89.5885 7.04525 88.3688 8.56998 86.7136C9.01688 84.6227 7.67625 83.3158 7.17677 81.0507C7.78242 80.0273 8.34462 78.9357 8.85927 77.7837C10.384 73.9068 10.2 72.7307 7.57116 69.0717C8.12322 67.8955 8.57 65.9354 9.2535 65.7176C11.3303 64.9771 10.7783 62.1021 11.3304 59.8806L8.04434 52.6496C8.97142 49.1158 9.31615 45.2378 9.04331 41.4111C8.85717 36.8865 9.15976 32.343 9.93703 27.9946C10.4831 24.132 10.8175 20.1957 10.936 16.2334L13.5648 13.0535C13.5648 11.0062 13.407 9.0024 13.3282 6.78084C13.7005 6.35584 14.1208 6.05949 14.5638 5.90959L28.0498 6.95512C28.9841 7.2628 29.9376 7.37978 30.889 7.30354C36.3044 5.21266 41.4043 8.78461 46.8986 7.60849V9.22019H39.8533C43.2445 11.2675 46.399 14.4474 50.132 13.5762C50.7034 13.6083 51.2694 13.7696 51.8145 14.0554C52.8975 14.4 53.9977 14.575 55.1005 14.5781C55.4011 14.5 55.6873 14.3106 55.9376 14.0241C56.1879 13.7375 56.3959 13.3611 56.5464 12.9228C57.0196 11.224 55.9681 10.832 55.2846 9.96077C56.1258 8.56685 57.2037 7.30352 56.6253 4.55924L54.417 3.68811C54.6799 3.42675 54.8902 3.07821 55.1005 3.07821C56.8619 3.07821 58.6495 3.07821 60.3582 3.07821C61.9647 3.20251 63.574 2.96807 65.1427 2.38123C68.2664 1.1809 71.454 0.495118 74.6591 0.333906C79.1603 -0.196769 83.6806 -0.0947327 88.1714 0.638858C99.7384 1.94566 111.305 3.17989 122.872 4.34149C133.782 5.47405 144.692 6.69373 155.628 7.60849C169.928 8.82817 184.256 9.78645 198.557 10.8319C206.759 11.4417 214.961 11.9209 223.189 12.5743C227.684 12.8792 232.179 13.0971 236.648 13.9248C239.625 14.4686 242.621 14.6433 245.613 14.4475C247.637 14.4475 249.688 15.5364 251.712 15.7106C253.736 15.8848 255.892 15.3186 257.995 15.3622C259.102 15.444 260.198 15.7662 261.255 16.3205C263.711 17.5329 266.306 17.7568 268.826 16.9739C271.849 16.2114 274.924 16.2114 277.948 16.9739C279.641 17.6402 281.301 18.5139 282.916 19.5875C283.522 18.7345 284.225 18.0907 284.984 17.6943C285.742 17.2978 286.541 17.1566 287.333 17.2788C295.009 18.3243 302.711 19.1083 310.414 19.9359C315.409 20.4586 320.377 20.9814 325.346 21.417L348.506 23.3772C356.55 24.0306 364.568 24.7276 372.612 25.3375C380.657 25.9473 388.044 26.6007 395.746 27.0798C402.502 27.5154 409.258 27.6897 415.988 28.2124C419.984 28.5609 423.875 29.3885 427.976 30.0419C432.918 30.8695 437.886 31.7408 442.829 32.6555C445.195 33.0911 447.561 33.7009 449.874 34.2236C450.347 37.055 449.138 37.8827 448.507 39.2766C447.35 41.8466 447.587 43.6327 449.401 44.8088C450.268 45.4622 451.189 45.9413 452.319 46.6383V59.4885C455.132 61.0131 456.262 65.5869 458.654 67.7649C459.022 68.1134 459.575 68.9411 459.548 69.4202C459.259 73.7762 461.599 75.7364 462.939 78.6113C463.413 79.6568 463.912 80.6587 464.464 81.8349L461.467 85.4503L461.31 91.113L449.453 96.0353C450.084 101.872 450.347 102.482 453.081 103.31C457.813 104.704 462.571 106.011 467.067 107.274C468.011 109.517 469.104 111.578 470.326 113.416C471.546 114.494 472.858 115.258 474.217 115.681C473.928 116.596 473.849 117.293 473.665 117.38C472.456 118.033 471.036 118.164 470.458 120.429C470.071 121.785 469.857 123.259 469.83 124.758C469.803 126.257 469.963 127.749 470.3 129.141C470.726 131.697 471.65 133.949 472.929 135.544C475.216 137.505 475.4 140.815 475.979 144.256C476.007 144.793 476.007 145.332 475.979 145.868C474.007 150.224 474.138 155.625 473.613 160.678C473.613 160.678 473.323 161.071 473.192 161.071C470.321 160.543 467.429 160.382 464.543 160.591C461.715 161.535 458.826 161.872 455.947 161.593C454.994 161.589 454.043 161.735 453.108 162.029C451.504 162.029 449.874 162.377 448.297 162.29C443.039 162.029 437.781 161.68 432.261 162.29C432.798 162.632 433.352 162.894 433.917 163.074C436.073 163.684 436.073 163.684 437.045 167.822L441.856 168.868L443.381 173.224L466.567 179.104L468.434 184.941ZM50.4476 9.7865C50.6298 10.029 50.8231 10.2475 51.0259 10.4399C51.0259 10.4399 51.2625 10.1785 51.3676 10.0478L50.7892 9.35087L50.4476 9.7865ZM0 264.569V265.005H0.341763L0 264.569Z" fill="white"/>
</svg>
