<svg width="139" height="50" viewBox="0 0 139 50" fill="none" xmlns="http://www.w3.org/2000/svg">
<path d="M135.339 21.2412C135.55 21.4917 135.339 21.7718 135.651 21.9782C136.044 21.934 136.291 21.5507 136.93 21.875C136.93 22.214 136.93 22.612 136.93 23.0174C136.929 23.1066 136.91 23.1945 136.872 23.2754C136.872 23.2754 136.763 23.3417 136.618 23.4228C136.531 23.1353 136.451 22.8921 136.356 22.612L135.753 22.5531C134.874 22.9658 136.298 23.1501 135.942 23.5259L135.005 23.7765C135.317 24.0198 135.731 23.8871 136.153 23.9239L136.669 23.6807C136.749 23.7249 136.916 23.7765 136.923 23.8355C136.923 24.0935 136.836 24.3662 137.323 24.5725C137.432 24.6241 137.366 24.8084 137.381 24.9116C136.981 25.1179 136.567 24.9116 136.233 25.0295C136.081 24.8995 135.9 24.8115 135.705 24.774C135.51 24.7366 135.309 24.7509 135.121 24.8157L134.968 25.1474L135.971 25.4127V25.7075L135.019 25.9655C135.361 26.2014 135.797 26.0613 136.211 26.1055L136.683 25.5454L137.41 25.9655L136.981 26.2456V27.0489L137.294 27.2406C137.345 27.3143 137.439 27.388 137.446 27.469C137.446 27.786 137.446 28.1029 137.446 28.4272L136.371 28.7146L137.286 28.862C137.336 29.0113 137.418 29.1473 137.526 29.26C137.686 29.4074 137.999 29.5032 137.868 29.8496L137.257 30.1666H136.102L135.899 29.3779C135.528 29.658 135.528 29.658 135.535 30.594L136.771 30.9552L137.701 30.4614C137.766 30.4614 137.875 30.5277 137.875 30.5646C137.875 30.9183 137.875 31.3016 137.875 31.6259L138.391 31.9502V32.5619L137.831 33.1073C136.967 33.2768 136.749 32.6061 136.08 32.982C136.08 33.1884 136.444 33.2252 136.618 33.4169L137.708 33.4611C137.919 33.638 138.384 33.7117 138.435 34.0654C138.151 34.4045 137.366 34.6108 137.025 34.9572V35.5026L137.432 35.7311L137.504 36.6082L138.442 36.7998L137.955 37.1094L138.5 37.441L137.57 38.495L137.919 38.7382V39.2762L137.49 39.5489L137.948 39.829V40.3597L137.475 40.6471C137.286 40.9419 137.81 41.0304 137.991 41.2957L137.512 41.7969V42.8877C137.395 43.2267 136.785 43.3004 137.01 43.6247L137.439 43.9048L136.989 44.1848V44.6344L136.298 45.3715H135.797L135.332 44.8187C134.947 45.0767 134.954 45.482 134.314 45.6073L133.835 45.3862C133.108 45.7252 133.944 45.8505 134.089 46.1232L133.188 46.278L131.553 47.2435C130.587 47.3098 130.209 47.8184 129.526 48.1132H127.622L126.735 48.6218H124.577L124.272 48.1574C123.814 48.2385 123.64 48.5554 123.255 48.6218C122.911 48.645 122.578 48.7484 122.281 48.9239H118.909L118.597 49.1082C118.51 49.1082 118.451 49.1966 118.393 49.1966H116.024C115.805 49.336 115.56 49.4294 115.304 49.4711C115.048 49.5129 114.786 49.5023 114.535 49.4399L114.193 49.2482C114.127 49.2258 114.059 49.2109 113.99 49.204C113.75 49.204 113.51 49.204 113.263 49.204C113.016 49.204 112.674 49.204 112.602 49.2556C112.166 49.6536 111.149 49.2556 110.778 49.7273L110.051 49.4104L109.288 49.742H106.65H106.425L106.026 49.9705H104.5L104.013 49.7494L103.628 49.9631H97.2766L96.8624 49.7347H92.0592L91.565 49.9926L91.2308 49.8084C91.0906 49.7694 90.947 49.7447 90.802 49.7347H88.2079L87.7864 49.9779H85.7518L85.3739 49.7568H82.4309L82.024 49.9926L81.5081 49.742H80.0911L79.5897 50L79.1682 49.7641H77.2789L76.5522 49.4177L75.6148 49.7126H70.3974C70.194 49.7126 70.0632 49.3662 69.5182 49.4767L69.024 49.7199L68.5154 49.462H67.5853L66.9821 49.145L65.9067 49.4546H64.2353L63.7703 49.7126H61.3578L59.7373 49.1966H57.9788L57.4556 48.9239L57.1141 49.1156C57.0592 49.1525 56.9973 49.1776 56.9324 49.1893H46.9481L46.4031 49.4472L46.0325 49.2335L45.1315 49.5136L44.5138 49.1966H43.0605L42.5591 49.462H41.6144L41.113 49.204H38.7078L38.3008 49.4325H36.3389L35.7793 49.1819H30.5546L30.1114 48.9313H25.3518L24.7922 48.6512H22.0455L22.605 48.2532L22.2053 47.9879C22.2853 47.8331 22.7285 47.7889 22.4161 47.3614C22.3361 47.2435 22.5905 47.3614 22.6268 47.4351C22.7213 47.7447 22.9029 47.5088 23.2081 47.4351C22.9102 47.2288 23.4261 46.9413 22.8666 46.7497C22.6413 46.875 22.4161 47.0077 22.4161 47.3467C22.4161 47.5531 22.169 47.5531 21.9365 47.5531L21.3479 47.2435L21.1153 48.0174C21.0543 48.0525 20.988 48.0774 20.9191 48.0911H18.7392L17.4021 47.7078L18.9063 47.1551C17.8018 46.9708 17.8018 46.9708 15.9996 47.5457C15.3675 47.5457 15.1858 47.1698 14.8152 47.0298L14.0013 46.934L14.4664 46.6097C14.2993 46.3296 13.5799 46.2706 13.5508 45.9169H14.2775C14.6844 45.7473 14.4519 45.5041 14.5245 45.2683L13.8487 44.8482H11.9449L11.1674 44.4281V43.8532L9.32891 43.3815C9.32214 43.1436 9.25505 42.9115 9.13414 42.7075C9.01323 42.5035 8.84258 42.3346 8.6386 42.217C8.16627 41.8779 7.80293 41.4799 7.3306 41.1114V39.9469L5.93542 38.4213V37.3673L7.87559 36.8662L5.86275 36.0554V35.4879L4.97623 34.9794V33.2842L5.84821 33.1073C5.73921 32.8493 5.36134 32.9525 5.12155 32.8862C4.76548 32.7093 5.01983 32.4661 4.93263 32.2524L3.95163 31.6996C3.7845 31.3974 4.22777 31.2868 4.47483 31.0657L4.01703 30.594L4.35129 30.3508C4.38762 30.0634 4.6347 29.7317 3.93711 29.5696V28.9873L4.39489 28.7073L3.90804 28.4124V27.8965L3.46476 27.6091V25.7075L3.91531 25.4496V24.6389L4.41671 24.3514V22.6931L5.33228 22.5015C5.05615 22.0593 4.24229 22.0519 3.7191 21.8308C3.1959 21.6097 3.11597 21.0937 2.52011 20.8505V19.4797L2.93432 19.1922V18.6616L2.49831 18.3815V17.5413L3.06511 17.4307C3.31217 17.4307 3.5011 17.3275 3.44296 17.1801C3.88623 16.9664 3.8717 17.5708 4.35856 17.3349V16.1851L3.97343 15.964C3.76997 15.4702 4.12604 14.9322 3.75544 14.4015L3.02878 14.829C3.17412 15.0133 3.65369 15.1091 3.46476 15.3892L2.99971 15.6618L3.47204 15.9493V17.1801C3.23224 17.1801 2.99244 17.1801 2.74538 17.1801L2.01872 16.7821V15.4039L2.46924 15.1165V14.2762L1.66991 14.1215C1.61905 14.0478 1.52459 13.9667 1.52459 13.8856C1.52459 13.3918 1.52459 12.898 1.52459 12.4116L1.08859 12.1683L1.01592 11.6303L0.5 11.1881L1.10312 10.6501L0.630793 10.23C0.914191 9.92777 1.40832 10.1636 1.81525 10.1341L2.66545 10.6132C3.22498 10.51 2.85439 10.2521 2.98519 10.0383L2.53464 9.69192V9.07282C2.7499 9.02993 2.96969 9.01507 3.18865 9.0286C3.36997 9.08491 3.54156 9.16945 3.6973 9.27919C4.09696 9.09493 3.8499 8.85171 3.92984 8.6306L3.46476 8.34316L3.92984 8.04835V7.23762L4.6129 6.84699C5.46309 7.21551 4.19143 7.41451 4.44576 7.79039L5.01983 8.14416L6.17521 7.87146C6.47314 7.58402 6.25515 7.2671 6.33508 6.96492C6.89461 6.65537 7.52681 6.96492 8.1808 6.78066L8.28252 7.80513C8.60225 8.01887 9.00918 7.87883 9.41611 7.92305L10.4262 7.37765C10.7532 7.37765 11.0947 7.37765 11.1528 7.04599L10.7096 6.69222L11.131 6.42689L10.6878 6.13945L11.5016 5.68249L12.3591 6.38267L12.7442 5.79304L13.7833 6.08785L14.1394 5.54245C14.3865 5.38031 14.8152 5.54245 15.1931 5.47612L15.7163 5.74882H16.2104C16.3557 5.56457 16.5156 5.38031 16.7191 5.12972L17.6855 5.44664L18.0706 5.22553L18.572 5.45401L19.0444 5.22553C19.3278 5.26975 19.4004 5.52034 19.771 5.43927C19.8509 5.60879 19.8146 5.82252 20.2361 5.63827C20.0855 5.56182 19.9301 5.49535 19.771 5.43927C19.8584 5.38781 19.931 5.31414 19.9818 5.22553H21.3915L21.9583 4.95283L22.4451 5.18868L23.4334 4.67276L23.8403 4.90124H25.2936L26.0203 4.64328L26.9577 4.93072C27.6335 4.93072 27.7352 4.50324 28.2657 4.40006C28.7961 4.29688 28.9124 4.56958 29.2031 4.65065H30.1114L30.5038 4.42217L31.2886 4.69487L32.0879 4.40006H34.3478L34.8783 4.12736L35.8593 4.65065C36.4043 4.7612 36.5496 4.44428 37.051 4.37058L37.7776 4.6138L38.1846 4.1421H38.6787L39.2019 4.4148H40.1466L40.7352 4.11262L40.975 4.90124C41.6435 4.90124 41.1276 4.53273 41.6508 4.44428L42.6172 4.38532C42.7407 4.22317 42.8497 4.0684 42.9805 3.88414L43.5183 4.13473H45.9017L46.4031 3.87677H51.6496L52.1655 3.61144L52.587 3.84729L53.1538 3.61144H56.0604L56.2639 3.33137H57.4483L57.957 3.5967L58.393 3.35348H62.7093L63.1817 3.08078L63.6903 3.30189L64.1917 3.07341H65.0928L65.6305 2.79334H66.5752L67.0766 3.0513L67.4981 2.81545L69.024 2.76386L70.4047 1.98261L71.3421 2.48379L72.8971 2.01209L73.2314 2.20372L74.0598 1.93839L74.7865 2.24057H75.6512L76.1744 2.51327L77.0318 2.02683C77.5332 2.02683 77.6204 2.38797 78.1509 2.45431L78.5723 2.24794H81.8932L82.4963 1.93102L83.5645 2.53538L86.2895 1.73939L86.849 2.02683L87.6992 1.34139L88.0988 1.95313H89.058L90.1698 1.39299C91.1218 1.45195 91.1726 1.90891 91.536 2.19635L92.6768 1.56987L92.8221 1.18662C93.0012 1.12304 93.1937 1.10865 93.38 1.14489C93.5663 1.18114 93.7399 1.26673 93.8831 1.39299H94.8713L95.3727 1.12766H96.499L97.2984 1.7615L97.6908 1.15714H98.7735L99.1732 1.37824L99.66 1.15714C99.9797 1.23084 100.154 1.50354 100.714 1.37824L100.975 0.943398C101.31 0.766511 101.702 0.906546 102.102 0.847584L102.436 0.655958C102.577 0.623049 102.72 0.600876 102.865 0.589625H104.485L104.957 0.795992L106.629 0.309553H110.72L111.352 0L112.471 0.294812L112.653 0.545402H114.237L114.571 0.0221128L115.116 0.294812C115.799 0.294812 116.504 0.294812 117.093 0.294812C117.688 0.729659 116.366 0.921285 116.911 1.2898C117.085 1.34139 117.085 1.34139 118.175 0.692808L118.386 0.272702L119.069 0.316922C119.585 0.78125 118.175 1.00236 118.808 1.50354L118.015 1.91628L117.601 1.68043C117.114 1.73939 116.991 2.04157 116.569 2.14475C116.344 2.20372 115.981 2.14475 115.879 2.34375C115.952 2.3806 116.01 2.43956 116.068 2.43956H119.011L119.287 1.97524C119.42 1.91161 119.567 1.88235 119.714 1.89007C119.861 1.89778 120.004 1.94223 120.13 2.01946L119.687 2.31427L121.671 2.87441L120.74 3.06604C120.915 3.57459 121.947 3.47878 122.383 3.80307C122.669 3.82409 122.954 3.75178 123.197 3.5967C123.465 3.51343 123.739 3.45425 124.018 3.41981L123.48 3.08815L123.683 2.7049L124.723 3.2503L125.195 3.02182L125.922 3.38296C126.023 3.62618 125.769 3.86203 126.169 4.07577L126.605 3.55985L127.615 3.88414L129.751 5.09287L129.954 5.45401L130.507 5.17394L131.393 5.67512C131.742 6.02152 131.902 6.15419 132.025 6.30896C132.146 6.47056 132.255 6.64049 132.352 6.81751L133.384 6.26474L133.915 6.53744H134.91L135.092 6.89858L134.591 7.20077L135.085 7.51032C134.793 7.53973 134.506 7.60152 134.227 7.69458C133.97 7.82603 133.687 7.89659 133.399 7.90094C133.29 7.90094 133.188 8.09994 133.137 8.14416C133.188 8.5569 133.791 8.3579 134.06 8.52005C134.376 8.6552 134.705 8.75648 135.041 8.82223V9.36763C134.947 9.51504 134.503 9.55926 134.583 9.81722C134.312 9.72819 134.045 9.62487 133.784 9.50767L133.595 9.8467L134.482 10.5248C134.547 10.1268 134.576 9.95725 134.583 9.78774C134.717 9.77806 134.852 9.8008 134.976 9.85407C135.169 10.0888 135.349 10.3349 135.513 10.5911V11.4755L136.124 11.9472L135.557 12.3673L135.862 12.5295C135.92 12.6179 136.008 12.699 136.015 12.7801C136.015 13.3623 136.015 13.9446 136.015 14.49L135.513 14.8732C135.615 15.2639 136.24 15.3154 136.458 15.8461V17.9835L136.923 18.3225L136.523 18.6026V19.3396L136.051 19.6418C136.567 19.8408 136.473 20.2609 136.952 20.5041C137.112 20.5778 136.952 20.8432 136.952 21.0127L136.269 21.3959C135.972 21.293 135.669 21.2118 135.361 21.1527C135.433 20.7989 135.644 20.4157 135.419 20.1209C135.326 20.0924 135.232 20.0727 135.136 20.0619L133.312 20.5189L134.918 20.6589C135 20.8901 135.146 21.0923 135.339 21.2412ZM9.71404 41.6126C9.84484 41.6126 10.0774 41.5684 10.0919 41.5242C10.1573 41.362 9.94657 41.3325 9.71404 41.3399C9.62684 41.1704 9.94659 40.9198 9.43066 40.824C9.21993 41.1778 9.21991 41.1778 9.71404 41.3399V41.6126C9.58324 41.6126 9.35072 41.6568 9.33619 41.7084C9.32165 41.76 9.48151 41.8927 9.71404 41.8853C9.80124 42.0622 9.48152 42.3054 9.99745 42.4086C10.2082 42.0475 10.2082 42.0475 9.71404 41.8853V41.6126ZM14.5681 40.0575C14.4591 39.8511 14.4955 39.6374 14.0813 39.8216C14.2166 39.8945 14.3607 39.949 14.51 39.9838C14.6045 40.1607 14.2847 40.4039 14.7934 40.4997C15.0041 40.1459 15.0041 40.1459 14.5681 40.0575ZM38.5479 39.7848C38.4462 39.5784 38.4753 39.3647 38.0611 39.5489C38.1964 39.6218 38.3405 39.6763 38.4898 39.7111C38.7804 39.9912 38.7804 39.9912 39.4417 39.8659C39.231 39.6226 38.8313 39.7406 38.5697 39.7848H38.5479ZM135.92 31.8323C136.414 31.6701 136.414 31.6701 136.196 31.2942C135.768 31.4269 135.978 31.648 136.058 31.8028C135.688 31.8617 135.332 31.8396 135.637 32.0755C135.764 32.0221 135.876 31.9387 135.964 31.8323H135.92ZM132.142 22.3983C132.033 22.1845 132.069 21.9782 131.648 22.1624C131.786 22.2332 131.933 22.2877 132.084 22.3246C132.367 22.5973 132.367 22.5973 133.006 22.4794C132.868 22.1698 132.432 22.3688 132.185 22.3983H132.142ZM35.5831 37.4631C35.6849 37.6695 35.6558 37.8833 36.07 37.699C35.9387 37.6286 35.7997 37.5741 35.6558 37.5368L35.5759 36.9914L34.6021 37.0504L34.8347 37.5368C35.0865 37.5588 35.3402 37.5338 35.5831 37.4631ZM130.63 7.03125C130.739 7.23762 130.703 7.45136 131.124 7.2671C131.059 7.22515 130.984 7.20288 130.906 7.20288C130.829 7.20288 130.754 7.22515 130.688 7.2671V6.69222L131.197 6.38267C131.146 6.26474 131.088 6.14682 131.044 6.03626H129.882C129.627 6.27948 129.744 6.49322 129.773 6.70696C130.031 6.87993 130.324 6.99085 130.63 7.03125ZM31.5647 38.9151C32.2509 38.9311 32.9374 38.909 33.6212 38.8488L33.999 38.2149L34.7911 38.8488C36.1499 38.8488 37.2545 38.8488 38.359 38.8488C38.4171 38.8488 38.468 38.7898 38.5915 38.7087L37.2327 38.5687L36.3679 38.0822H33.9845C33.4425 37.8472 33.0035 37.4202 32.7492 36.8809C32.7492 36.8146 32.5312 36.7777 32.4658 36.7409H31.5211L30.9107 37.102L31.7246 37.9938L31.3322 38.2075L32.2768 38.4729C32.117 38.5761 31.9644 38.6719 31.9353 38.8635C31.5647 38.9225 31.2087 38.9077 31.5211 39.1436C31.6228 39.0699 31.7318 38.9962 31.5647 38.9151ZM9.71404 28.066C9.81577 28.3461 8.65312 28.4861 9.46698 28.8694H10.0628L10.3753 28.3535L11.102 28.4198L10.7459 28.8252C10.8784 28.8949 11.0254 28.9314 11.1746 28.9314C11.3239 28.9314 11.4709 28.8949 11.6034 28.8252V28.5525C12.1144 28.4747 12.6 28.2751 13.0204 27.9702L12.5989 27.7344V26.592L11.8722 26.1424H11.3636L10.884 25.5749L10.1573 25.6928C10.1573 26.1645 10.1573 26.6141 10.1573 27.0637C10.1573 27.1153 9.97565 27.1595 9.88118 27.2037L9.48878 26.9826C9.3415 27.07 9.18565 27.1417 9.02373 27.1963C8.7694 27.27 8.38427 27.1963 8.25347 27.4175C8.25347 27.4912 8.25347 27.5796 8.29707 27.668L9.71404 28.066ZM32.7564 36.1733V34.9646L32.2914 34.6993L32.7274 34.4118C32.3928 34.3843 32.0677 34.2853 31.7734 34.1215C31.4791 33.9576 31.2223 33.7326 31.0197 33.4611L30.4021 33.5495V35.0236L31.2959 35.5321C31.3976 35.7385 31.1505 35.9743 31.4993 36.1881L32.7564 36.1733ZM124.926 12.6769C124.926 12.3157 124.926 11.9399 124.926 11.5935C124.926 11.5935 124.817 11.5345 124.708 11.4829H124.134L123.807 12.0062L123.269 11.7409C122.543 12.0209 123.4 12.2199 123.393 12.4779L123.015 12.6916C123.306 12.7948 123.407 13.0233 123.807 13.0601L124.265 12.8022L124.991 13.237L124.766 13.5761C124.316 13.7235 123.88 13.5245 123.407 13.8119L124.287 14.1878C125.166 14.1878 125.166 14.1878 125.406 14.0404C125.347 13.6645 125.449 13.3034 125.406 12.9496L124.926 12.6769ZM13.3982 37.0209L14.0304 36.5713V36.0407L13.1802 35.5542L12.8895 35.0678L12.1629 35.1489V36.3355L12.6207 36.5935V37.8022L14.0377 37.4189L13.3982 37.0209ZM12.0757 24.9337C12.1774 24.543 11.6542 24.4914 11.6688 24.344C11.6688 24.0787 11.3999 23.9608 11.1383 23.7986C11.0173 23.7268 10.8816 23.6842 10.7418 23.6739C10.6019 23.6637 10.4616 23.6862 10.3317 23.7397C10.0846 23.8871 10.23 24.0713 10.2082 24.2409C10.179 24.4165 10.179 24.5959 10.2082 24.7715C10.2082 24.9337 10.0628 25.1253 10.4044 25.2874H11.4072L12.0757 24.9337ZM10.5788 19.0374C10.5788 18.6321 10.5788 18.5952 10.2445 18.3004V17.2759C10.8331 16.8337 10.8476 16.76 10.3971 16.6421L10.0483 16.8411L9.24899 17.5781V18.2562L9.97565 18.9932L10.5788 19.0374ZM9.72132 20.1725V21.2485L10.4117 21.9856C10.6805 21.9856 10.9857 22.074 11.1383 21.8382L10.7822 21.6391C11.0511 21.3959 11.349 21.1232 11.1674 20.8358C10.9543 20.5622 10.7105 20.3148 10.4407 20.0988L9.72132 20.1725ZM105.982 12.0652C105.11 12.1462 105.437 12.7432 104.79 12.9643C104.732 12.9643 104.587 13.3107 105.095 13.3034L105.924 12.839L106.585 12.7653C106.629 12.6474 106.658 12.5663 106.738 12.3673L105.982 12.0652ZM8.52958 32.1123L8.98013 31.5669C9.40159 31.5153 9.83031 31.6554 10.1718 31.4343C9.65698 31.3419 9.16392 31.1519 8.71852 30.8741C8.60573 30.8001 8.47495 30.7593 8.34067 30.7562C8.14907 30.7733 7.95938 30.8078 7.77387 30.8594L8.28252 31.1984C8.50779 31.4932 7.96279 31.847 8.52958 32.1123ZM9.03825 15.8314L9.66317 15.3892L9.20539 15.1017C9.20539 14.431 9.20539 14.431 8.85659 14.232C8.81299 14.232 8.73305 14.2983 8.73305 14.3278C8.73305 14.9543 8.73305 15.5734 8.73305 16.1925C8.73305 16.1925 8.82026 16.2588 8.95106 16.3473L9.76491 16.2736L9.03825 15.8314ZM29.8425 36.5935C29.9079 36.2176 29.4501 36.0628 28.9487 35.8933L28.3383 36.0407C28.5418 36.3429 28.2293 36.6598 28.5636 36.9472L29.8425 36.5935ZM129.984 8.99912C129.577 9.19074 129.598 9.51504 129.758 9.62559C130.223 9.92777 130.136 10.4732 131.023 10.5837C131.597 10.2447 130.812 10.1341 130.659 9.8467V9.43396L129.984 8.99912ZM15.4765 24.6315C15.5564 24.8452 15.3021 25.0811 15.6509 25.2727C16.4938 25.059 16.5229 24.5357 16.9443 24.1745L16.6609 23.9608L15.4765 24.6315ZM125.842 5.07076L126.648 4.66539C125.878 4.73172 125.406 4.50324 124.926 4.79806V4.96757L125.653 5.52771L126.445 5.3582L125.842 5.07076ZM133.602 23.0985C134.038 22.5973 134.583 22.6341 135.056 22.4646L134.867 21.9856C134.416 22.133 133.995 21.934 133.631 22.1624L133.602 23.0985ZM133.363 11.704C133.363 11.704 133.021 11.704 133.086 12.0504C133.334 12.3351 133.68 12.5119 134.053 12.5442C134.467 12.5442 134.532 12.3968 134.532 12.0873L133.363 11.704ZM126.031 23.9313C125.813 25.2653 125.812 25.2653 126.205 25.5307C126.256 25.5307 126.343 25.4643 126.343 25.4348C126.343 24.9853 126.343 24.5357 126.343 24.0935C126.357 24.064 126.249 24.0345 126.031 23.9313ZM14.9533 46.0422C15.9125 46.5728 15.9851 46.5876 16.4066 46.337V46.0716L15.0623 45.681L14.9533 46.0422ZM33.3087 19.0374L33.1488 18.5657C32.6898 18.4471 32.2051 18.4833 31.7682 18.6689L31.899 19.0374H33.3087ZM6.58941 31.8101C6.20428 32.0681 6.36415 32.304 6.36415 32.5472C6.36415 32.7904 6.20429 32.9894 6.56762 33.2326L7.396 33.1442L6.95274 32.8788C6.68388 32.4882 7.03268 32.1565 6.58941 31.8101ZM6.95274 31.1984L6.48042 30.9552C6.22609 30.6751 6.53129 30.4393 6.11709 30.2182C5.88456 30.3582 5.63021 30.4909 5.28141 30.7046C6.16794 30.7046 5.66656 31.11 6.13889 31.3163L6.95274 31.1984ZM12.548 31.5374C11.9885 31.6038 11.5743 31.4711 11.1456 31.6922L11.2836 32.1197C11.7632 32.0607 12.1701 32.1934 12.548 31.9944V31.5374ZM30.7145 32.3187C30.4689 32.3524 30.2261 32.4042 29.9879 32.4735C29.9007 32.4735 29.9152 32.6209 29.8643 32.7683L30.7436 33.1221C31.027 32.9746 30.8381 32.7167 30.7291 32.3187H30.7145ZM11.0438 32.7683C11.5488 32.9523 12.1012 32.9523 12.6062 32.7683L12.0684 32.4661L11.0438 32.7683ZM28.6581 31.5964C28.4328 32.6577 28.4328 32.6577 28.8179 32.8862C28.9161 32.6783 28.9532 32.4462 28.9249 32.2175C28.8965 31.9888 28.8039 31.7732 28.6581 31.5964ZM11.6324 6.97229C11.7774 7.07469 11.9499 7.12959 12.1266 7.12959C12.3032 7.12959 12.4757 7.07469 12.6207 6.97229L12.4754 6.57429L11.6324 6.67011V6.97229ZM8.23167 39.3278C8.60227 39.3794 8.65312 39.6595 9.08185 39.6669C9.24898 39.1509 9.23445 39.1509 8.92199 38.9298L8.23167 39.3278ZM7.31607 15.4113C7.46502 15.503 7.63593 15.5515 7.8102 15.5515C7.98446 15.5515 8.15537 15.503 8.30432 15.4113L8.159 14.9985L7.31607 15.1017V15.4113ZM29.3847 19.2217C29.599 19.3216 29.832 19.3734 30.0678 19.3734C30.3036 19.3734 30.5366 19.3216 30.7509 19.2217L30.1695 18.7426L29.3847 19.2217ZM34.2316 36.2397L35.1762 36.1365L35.0091 35.6279L34.2316 35.7164V36.2397ZM7.82472 38.1412L8.77667 38.038L8.60953 37.5295L7.82472 37.6179V38.1412ZM133.123 21.2927C133.186 21.3711 133.256 21.4428 133.333 21.5065L133.777 21.7939C134.155 21.5876 134.155 21.4107 133.777 21.219L133.123 21.2927ZM12.4972 39.0625C13.6816 39.1804 13.6816 39.173 13.9505 38.9814C13.4592 38.8366 12.934 38.8652 12.4608 39.0625H12.4972ZM132.57 27.329C132.798 27.4384 133.046 27.4952 133.297 27.4952C133.548 27.4952 133.797 27.4384 134.024 27.329C133.798 27.2164 133.549 27.1579 133.297 27.1579C133.045 27.1579 132.797 27.2164 132.57 27.329ZM136.204 38.5908C135.833 38.7824 135.833 38.9593 136.204 39.1436C136.414 38.9888 136.785 38.9077 136.858 38.6498L136.204 38.5908ZM113.677 1.11291C113.307 1.30454 113.307 1.4888 113.677 1.67305C113.888 1.51828 114.259 1.43721 114.331 1.17925L113.677 1.11291ZM13.311 32.9157C12.9114 33.1884 12.9114 33.4611 13.311 33.7412C13.7179 33.4611 13.7179 33.2252 13.311 32.9157ZM29.3629 38.0749H29.8861L30.2785 37.9791C30.2204 37.9201 30.1841 37.8464 30.1041 37.8022C30.0242 37.758 29.7844 37.6253 29.5228 37.4779L29.3629 38.0749ZM3.22497 13.1044C3.53744 12.8611 3.6755 12.6843 3.1523 12.5737C2.90524 12.7285 2.91978 12.8833 3.22497 13.1044ZM133.559 14.5784C133.701 14.6726 133.868 14.7228 134.038 14.7228C134.209 14.7228 134.375 14.6726 134.518 14.5784C134.377 14.483 134.211 14.4321 134.042 14.4321C133.873 14.4321 133.707 14.483 133.566 14.5784H133.559ZM124.199 15.824C124.512 15.5734 124.65 15.4039 124.127 15.286C123.851 15.4481 123.894 15.5955 124.207 15.824H124.199ZM9.14 23.9903H8.83479C8.80362 24.1091 8.77935 24.2297 8.76212 24.3514C8.76212 24.3514 8.87838 24.4472 8.91471 24.4399C8.95105 24.4325 9.21265 24.3809 9.21992 24.344C9.21004 24.2229 9.18314 24.1037 9.14 23.9903ZM7.55586 24.7273C7.20707 24.9116 7.20707 25.0958 7.55586 25.2727C7.89739 25.1179 7.8974 24.9484 7.58493 24.7641L7.55586 24.7273ZM15.7163 26.3635C16.0578 26.1792 16.0578 25.995 15.7163 25.8181C15.3675 26.0318 15.3675 26.2161 15.7163 26.4004V26.3635ZM5.63022 27.7196C5.28869 27.8965 5.28869 28.0808 5.63022 28.265C5.97901 28.1176 5.97901 27.9334 5.63022 27.7565V27.7196ZM136.487 27.8523C136.051 27.6754 135.76 27.6017 135.542 27.8965C135.688 27.9747 135.851 28.015 136.016 28.0137C136.181 28.0124 136.343 27.9696 136.487 27.8892V27.8523ZM39.9213 38.7603C40.3573 38.9372 40.648 39.0183 40.8587 38.7235C40.7118 38.6497 40.5491 38.6144 40.3854 38.6209C40.2216 38.6273 40.0621 38.6753 39.9213 38.7603ZM135.724 44.0595C135.383 44.2364 135.383 44.4207 135.724 44.605C136.073 44.4207 136.073 44.2364 135.724 44.0595ZM23.8185 47.6489C23.913 47.7815 23.3389 48.0027 23.9784 48.0985C24.2036 47.9658 24.1891 47.7889 23.7894 47.6489H23.8185ZM134.285 13.0601C133.98 13.3107 133.835 13.4802 134.358 13.5982C134.62 13.436 134.605 13.3255 134.285 13.0601ZM130.856 11.763L130.688 11.8588C130.793 11.896 130.9 11.9256 131.008 11.9472C131.052 11.9472 131.117 11.8883 131.168 11.8588L130.856 11.763ZM102.123 12.2715C102.073 12.2715 101.964 12.3379 101.971 12.36C102.015 12.4243 102.066 12.4836 102.123 12.5369C102.174 12.5369 102.283 12.4705 102.276 12.4484C102.231 12.3841 102.18 12.3248 102.123 12.2715ZM104.216 12.3673L104.042 12.2715C103.985 12.3229 103.936 12.3825 103.896 12.4484C103.896 12.4484 103.991 12.5074 104.042 12.5369L104.216 12.3673ZM8.03546 15.8019C7.97733 15.8019 7.8756 15.8682 7.88287 15.8903C7.89013 15.9124 7.97733 16.0083 8.03546 16.0746C8.09359 16.1409 8.19533 16.0083 8.1808 15.9861C8.14335 15.9166 8.09415 15.8542 8.03546 15.8019ZM14.6844 18.2046L14.9969 18.1088C14.9387 18.1088 14.8733 18.0203 14.837 18.0277C14.7285 18.046 14.6215 18.0731 14.5173 18.1088L14.6844 18.2046ZM11.3272 19.0227L11.6324 18.9269C11.5816 18.9269 11.5162 18.8384 11.4726 18.8384C11.3643 18.861 11.2575 18.8906 11.1528 18.9269L11.3272 19.0227ZM125.718 19.1038L125.406 19.1996C125.456 19.1996 125.522 19.288 125.565 19.2807C125.674 19.2606 125.78 19.2335 125.885 19.1996L125.718 19.1038ZM133.501 19.7008L133.326 19.6049C133.267 19.6591 133.216 19.7211 133.174 19.7892C133.174 19.7892 133.275 19.8482 133.326 19.8777L133.501 19.7008ZM9.64137 25.1179L9.47425 25.0221C9.41541 25.0763 9.36409 25.1382 9.32166 25.2064C9.32166 25.2064 9.42339 25.2653 9.47425 25.2948L9.64137 25.1179ZM135.245 27.1963C135.194 27.1963 135.092 27.2627 135.099 27.2848C135.137 27.3544 135.186 27.4167 135.245 27.469C135.303 27.469 135.404 27.4027 135.397 27.3806C135.358 27.3145 135.306 27.2569 135.245 27.2111V27.1963ZM136.756 29.8791L136.93 29.7759C136.823 29.7411 136.714 29.714 136.603 29.6949C136.567 29.6949 136.502 29.7465 136.451 29.7759L136.756 29.8791ZM126.757 30.6456L126.583 30.4761C126.532 30.4761 126.423 30.5425 126.437 30.5646C126.477 30.6305 126.526 30.6901 126.583 30.7414L126.757 30.6456ZM134.75 30.4761C134.7 30.4761 134.591 30.5425 134.605 30.5646C134.645 30.6305 134.694 30.6901 134.75 30.7414C134.809 30.7414 134.91 30.6751 134.903 30.653C134.863 30.5853 134.811 30.5254 134.75 30.4761ZM134.205 31.5964L134.031 31.6922C134.137 31.7328 134.246 31.7625 134.358 31.7807C134.358 31.7807 134.46 31.7291 134.511 31.6922L134.205 31.5964ZM10.6006 32.7462L10.4335 32.643C10.378 32.7004 10.327 32.762 10.2808 32.8272C10.2808 32.8272 10.3826 32.8862 10.4335 32.9157L10.6006 32.7462ZM9.64137 33.0115L9.47425 32.9157C9.41714 32.9715 9.36599 33.0332 9.32166 33.0999C9.32166 33.0999 9.42339 33.1589 9.47425 33.1884L9.64137 33.0115ZM29.3266 34.6993L29.1522 34.5298C29.1013 34.5298 28.9996 34.5961 29.0069 34.6182C29.0464 34.6841 29.0954 34.7437 29.1522 34.7951L29.3266 34.6993ZM126.299 36.0628L126.125 35.8859C126.074 35.8859 125.965 35.9522 125.98 35.9744C126.017 36.0439 126.066 36.1063 126.125 36.1586L126.299 36.0628ZM136.618 38.2739L136.93 38.1781C136.872 38.1781 136.807 38.0896 136.771 38.097C136.662 38.1153 136.555 38.1424 136.451 38.1781L136.618 38.2739ZM11.9449 38.5834L12.112 38.4876C12.0075 38.4528 11.9007 38.4257 11.7923 38.4065C11.7487 38.4065 11.6833 38.4581 11.6324 38.4876L11.9449 38.5834ZM135.899 40.0575L135.724 39.9617C135.665 40.014 135.616 40.0764 135.579 40.1459C135.579 40.1459 135.673 40.2049 135.724 40.2344L135.899 40.0575ZM34.1661 41.1851C34.1153 41.1851 34.0499 41.0967 34.0063 41.0967C33.898 41.1193 33.7912 41.1488 33.6866 41.1851C33.7374 41.1851 33.8028 41.2736 33.8464 41.2662C33.9639 41.2547 34.0804 41.235 34.1952 41.2073L34.1661 41.1851ZM136.349 41.1851L136.182 41.0083C136.124 41.0083 136.022 41.0746 136.029 41.0967C136.067 41.189 136.127 41.2702 136.204 41.3325L136.349 41.1851ZM15.956 45.0177C15.8979 45.0177 15.8325 44.9292 15.7962 44.9292C15.6874 44.95 15.5805 44.9795 15.4765 45.0177C15.5273 45.0177 15.5927 45.1061 15.6291 45.0988C15.7398 45.0796 15.8491 45.0525 15.956 45.0177ZM123.894 4.83491L123.727 4.65802C123.676 4.65802 123.567 4.72435 123.574 4.74646C123.617 4.81459 123.668 4.87658 123.727 4.93072L123.894 4.83491Z" fill="url(#paint0_linear_8_336)"/>
<defs>
<linearGradient id="paint0_linear_8_336" x1="0.500002" y1="3.68055" x2="125.268" y2="58.9161" gradientUnits="userSpaceOnUse">
<stop stop-color="#3F2864"/>
<stop offset="1" stop-color="#590E4C"/>
</linearGradient>
</defs>
</svg>
