<svg width="277" height="194" viewBox="0 0 277 194" fill="none" xmlns="http://www.w3.org/2000/svg">
<path d="M0.833333 183C0.833333 188.891 5.60896 193.667 11.5 193.667C17.391 193.667 22.1667 188.891 22.1667 183C22.1667 177.109 17.391 172.333 11.5 172.333C5.60896 172.333 0.833333 177.109 0.833333 183ZM143.5 183V185H144.529L145.127 184.162L143.5 183ZM255.333 11.5C255.333 17.391 260.109 22.1667 266 22.1667C271.891 22.1667 276.667 17.391 276.667 11.5C276.667 5.60896 271.891 0.833333 266 0.833333C260.109 0.833333 255.333 5.60896 255.333 11.5ZM11.5 185H143.5V181H11.5V185ZM145.127 184.162L267.627 12.6625L264.373 10.3375L141.873 181.838L145.127 184.162Z" fill="#7421B5"/>
</svg>
