<svg width="432" height="261" viewBox="0 0 432 261" fill="none" xmlns="http://www.w3.org/2000/svg">
<path d="M425.491 155.854C425.896 156.667 424.275 157.564 425.491 158.376C425.532 158.482 425.553 158.597 425.553 158.713C425.553 158.829 425.532 158.944 425.491 159.049C424.394 159.806 424.347 160.479 425.181 161.852C425.364 162.052 425.499 162.305 425.571 162.586C425.643 162.867 425.65 163.165 425.592 163.451C425.534 163.736 425.412 163.998 425.239 164.21C425.067 164.421 424.849 164.575 424.609 164.656C423.056 165.395 421.639 166.48 420.437 167.851C419.812 168.468 419.034 168.832 418.219 168.888C414.77 169.355 411.313 169.776 407.848 170.15C405.607 170.374 403.389 170.43 401.148 170.598C399.822 170.706 398.542 171.221 397.438 172.092C396.333 172.962 395.442 174.158 394.854 175.56C393.805 177.69 392.66 179.736 391.659 181.895C391.057 183.187 390.57 184.549 390.204 185.959C389.894 187.193 389.894 188.538 389.656 189.828C388.941 193.444 389.036 196.639 392.517 198.237C392.779 198.377 392.851 199.078 392.994 199.47C391.897 202.273 389.489 201.04 387.749 202.273C387.129 205.077 388.035 208.076 387.987 210.991C388.06 211.636 388.321 212.23 388.726 212.673C390.714 215.462 391.758 219.015 391.659 222.652C391.704 225.94 392.236 229.194 393.232 232.267C393.807 233.945 394.054 235.752 393.955 237.557C393.856 239.362 393.413 241.118 392.66 242.695C392.451 243.217 392.11 243.651 391.683 243.937C391.256 244.223 390.765 244.347 390.276 244.292L378.212 243.956C377.593 243.814 376.955 243.831 376.342 244.005C375.729 244.179 375.155 244.506 374.659 244.965C374.317 245.317 373.914 245.578 373.477 245.728C373.041 245.878 372.582 245.914 372.132 245.834C363.215 245.385 354.322 244.909 345.405 244.488L321.562 243.451L298.173 242.358C295.526 242.358 292.88 241.882 290.233 241.797C277.549 241.321 264.865 240.788 252.085 240.564C245.41 240.424 238.71 241.013 232.034 240.929C225.883 240.929 219.779 241.657 213.652 241.797C201.087 242.134 188.546 242.246 175.981 242.666C164.274 243.059 152.591 243.788 140.885 244.208C132.802 244.489 124.719 244.685 116.637 244.601C105.336 244.601 94.0343 244.04 82.7569 243.76C76.4863 243.592 70.2158 243.479 63.9452 243.283C62.5385 243.283 61.1557 243.087 59.7728 242.919C57.9187 242.681 56.2123 241.618 55.0043 239.947C54.5779 239.525 54.291 238.939 54.1937 238.294C54.188 236.341 53.6811 234.436 52.7393 232.827C52.3956 232.043 52.2617 231.155 52.3553 230.279C52.4489 229.404 52.7657 228.582 53.2639 227.922C54.4222 226.285 55.4667 224.542 56.3872 222.708C56.6733 222.176 56.3872 221.279 56.3872 220.466C58.4615 219.12 58.4615 219.12 60.7742 215.392L59.7013 214.972L58.3661 214.327C59.2771 213.172 60.3849 212.255 61.6173 211.637C62.8497 211.019 64.1791 210.713 65.5188 210.739C69.572 210.879 73.6014 210.739 77.6546 210.543C78.3035 210.497 78.9297 210.245 79.4666 209.814C74.0291 209.088 68.5592 208.751 63.0869 208.805C62.5624 207.571 63.2061 207.179 63.8975 207.011C67.1561 206.035 70.5015 205.518 73.8636 205.469C74.5551 203.899 73.8637 203.227 73.053 203.002C71.9658 202.698 70.8558 202.519 69.739 202.47C65.8638 202.04 61.9669 201.946 58.08 202.189C55.1712 202.526 52.2386 202.722 49.306 202.862C48.3507 202.858 47.3989 202.726 46.4688 202.47C45.9204 202.47 45.3482 201.825 44.8952 201.965C42.3917 202.806 40.6751 200.984 38.72 199.779C37.8322 199.296 37.1 198.49 36.632 197.481C36.1639 196.471 35.9849 195.311 36.1212 194.172C36.7411 189.351 34.5476 185.763 33.0216 181.699C32.5438 180.694 31.9041 179.808 31.1381 179.092C30.3513 178.195 29.3976 177.466 28.5631 176.597C25.5313 173.392 21.6451 171.529 17.5718 171.327C16.6006 171.298 15.6375 171.109 14.7107 170.766C13.0772 170.287 11.6523 169.114 10.7103 167.474C9.7683 165.833 9.37588 163.841 9.60848 161.88C9.75661 159.714 9.54607 157.534 8.98855 155.461C11.0628 152.07 10.9436 147.837 11.6589 143.884C11.8019 143.128 10.7767 142.231 11.6589 141.334C13.0179 140.044 12.3265 138.727 11.5158 137.325C12.3026 135.615 13.9001 133.933 12.2788 131.719C12.1596 131.551 12.2788 131.074 12.2788 130.822C12.5857 129.99 12.688 129.074 12.5742 128.177C12.4604 127.28 12.1351 126.439 11.635 125.748C10.7249 124.404 10.1993 122.756 10.133 121.039C11.039 120.478 12.0404 119.974 12.9464 119.301C13.8524 118.628 14.1623 117.479 13.5662 115.937C12.7671 113.239 12.5541 110.348 12.9464 107.528C13.7883 105.351 14.1569 102.962 14.0193 100.576C14.0193 98.6139 15.0922 96.6798 14.0193 94.5775L12.4219 94.3252C12.3976 94.0831 12.3976 93.8384 12.4219 93.5963C12.9702 91.0455 15.1399 89.7 15.9982 86.9809L14.5438 84.1778C14.8299 83.6172 15.4737 82.9725 15.4737 82.3558C15.4737 79.889 15.2591 77.4503 15.1637 75.0116C15.0947 74.2892 15.2042 73.5587 15.4791 72.9075C15.7539 72.2563 16.1824 71.7119 16.7135 71.3395C18.0267 70.1353 18.8938 68.3814 19.1336 66.4437C19.3735 64.5061 18.9677 62.5344 18.001 60.94C17.4087 59.7551 16.4669 58.8673 15.3544 58.4451C16.6896 57.4921 18.4778 57.1277 18.1917 54.7731C18.1924 54.4434 18.294 54.125 18.4778 53.876C19.0501 53.2033 20.1707 52.6427 20.1945 51.9699C20.325 50.0877 20.1879 48.193 19.7891 46.3637C19.3622 45.326 19.2847 44.1369 19.5721 43.0348C19.8595 41.9327 20.4906 40.9991 21.3389 40.4211C23.7231 38.6271 24.2 35.2913 25.1298 32.5163C25.6543 30.9465 24.9152 28.7881 24.7483 26.7418C25.4261 25.7949 26.1676 24.9138 26.9657 24.1069C27.7267 23.4127 28.5808 22.8726 29.493 22.5091C34.4396 20.7234 39.578 19.7795 44.7521 19.706C51.7141 19.5097 58.6999 19.3696 65.6619 19.0893C73.6014 18.7529 81.5409 18.2484 89.5042 17.9401C92.9852 17.7999 96.4662 17.94 99.9472 18.0802C109.484 18.0802 119.021 18.2484 128.415 18.4446C130.799 18.4446 133.374 19.0893 135.854 19.1454C138.333 19.2014 140.837 18.9772 143.34 18.8651C144.591 18.7065 145.849 18.6316 147.107 18.6408C151.428 18.8555 155.756 18.6774 160.054 18.1082C161.556 17.912 163.106 18.1082 164.608 18.1082C165.162 18.0263 165.724 18.1033 166.248 18.3327C166.771 18.5621 167.239 18.9372 167.612 19.4257C167.952 19.8344 168.368 20.1455 168.827 20.3351C169.286 20.5246 169.775 20.5875 170.258 20.5189C174.574 20.5189 178.889 20.6591 183.205 20.7432C183.904 20.7847 184.604 20.7847 185.303 20.7432C186.679 20.4707 188.089 20.542 189.441 20.9525C190.792 21.363 192.055 22.1035 193.147 23.1258C194.724 24.2043 196.555 24.6565 198.369 24.4153C199.179 24.4153 199.918 24.219 200.348 25.5365C200.491 26.013 201.826 26.2653 202.589 26.1532C208.251 25.4527 213.971 25.8026 219.541 27.1903C221.114 27.5267 222.926 27.1903 224.452 28.7601L220.137 30.3579C219.708 33.3572 222.664 31.7875 223.093 33.5254C222.902 33.7777 222.736 34.1701 222.545 34.1701C219.07 34.4434 215.64 35.2443 212.34 36.5528C210.994 36.9763 209.609 37.2022 208.215 37.2255C207.375 37.1815 206.54 37.3995 205.795 37.8573C205.05 38.3151 204.421 38.9966 203.972 39.8325C203.485 40.8205 203.307 41.9769 203.468 43.1026C203.629 44.2282 204.119 45.2526 204.854 45.9993C208.168 46.2516 211.768 46.6721 215.392 46.7562C224.023 46.9524 232.678 47.0645 241.309 47.0645C251.489 47.0645 261.67 46.8122 271.851 46.7281C274.497 46.7281 277.144 46.7281 279.79 46.9523C291.092 47.3728 302.393 47.7373 313.67 48.2418C321.061 48.5782 328.429 49.1669 335.82 49.5593C342.639 49.8957 349.482 50.1199 356.3 50.3161C357.408 50.3109 358.505 50.5782 359.519 51.101C360.694 51.574 361.926 51.8201 363.167 51.8298C368.46 52.3344 373.729 52.8109 379.022 53.2593C383.028 53.5566 386.965 54.617 390.681 56.3989C391.192 56.6624 391.729 56.8507 392.279 56.9595C394.211 57.0011 396.061 57.8795 397.476 59.4263C398.001 60.0429 399.098 59.9589 399.861 60.4074C400.624 60.8559 401.649 61.8369 402.722 62.7339C402.018 64.0656 401.618 65.5876 401.56 67.1536C401.501 68.7196 401.786 70.2769 402.388 71.6759C401.673 72.7742 401.02 73.926 400.433 75.1238C400.071 75.8305 399.88 76.6396 399.88 77.4643C399.88 78.2891 400.071 79.0982 400.433 79.8049C400.846 80.4661 401.116 81.2359 401.22 82.0475C401.286 82.7831 401.518 83.4848 401.89 84.0807C402.263 84.6767 402.764 85.1455 403.341 85.4392C403.687 85.8138 403.991 86.2376 404.248 86.7007C403.771 87.8219 403.222 88.9432 402.817 90.1205C402.536 90.7916 402.48 91.5626 402.662 92.2796C402.843 92.9967 403.247 93.607 403.795 93.9887C404.844 94.7877 405.944 95.4906 407.085 96.0911C407.659 96.3856 408.169 96.83 408.575 97.3906C408.981 97.9512 409.274 98.6132 409.43 99.3265C409.586 100.04 409.602 100.786 409.477 101.507C409.352 102.229 409.088 102.907 408.706 103.491C407.984 104.484 407.33 105.544 406.751 106.659C406.232 108.132 405.786 109.638 405.416 111.172C407.275 113.555 409.636 112.686 411.686 112.798C412.259 113.975 411.686 114.48 411.09 114.844C410.494 115.208 409.421 116.049 409.636 117.451C409.803 117.675 409.922 118.012 410.137 118.152C410.828 118.544 411.925 118.152 411.901 119.721C411.913 120.132 411.807 120.536 411.599 120.867C411.391 121.198 411.094 121.436 410.757 121.543C409.946 121.852 409.064 122.16 409.111 123.394C409.131 123.892 409.288 124.37 409.559 124.754C409.83 125.139 410.2 125.409 410.613 125.524C414.619 126.925 415.382 130.878 416.05 135.027C416.116 135.959 416.116 136.897 416.05 137.83C416.05 139.624 416.05 141.39 416.05 142.259C417.647 144.277 418.768 145.734 419.936 147.136C420.946 148.51 422.285 149.493 423.778 149.959C425.271 150.424 426.848 150.349 428.304 149.743C429.234 149.378 430.188 149.154 431.118 148.902C431.424 148.946 431.723 149.05 432 149.21C430.569 150.135 429.234 150.892 427.995 151.845C427.081 152.604 426.235 153.468 425.467 154.424C425.3 154.62 425.467 155.265 425.467 155.686L425.491 155.854ZM90.1003 209.954V209.533L85.6894 209.758V210.206L90.1003 209.954ZM82.3993 209.562L82.7092 209.393L82.3993 209.253V209.562ZM93.6051 209.562H93.2952C93.2952 209.562 93.2952 209.73 93.2952 209.814H93.5813C93.5813 209.814 93.5813 209.702 93.6051 209.618V209.562ZM81.6839 0C81.4265 0.0192069 81.1711 0.0661733 80.921 0.140208C80.921 0.308395 81.1356 0.644722 81.2309 0.616691C81.4779 0.558636 81.7128 0.44438 81.9224 0.280329C81.9224 0.280329 81.6839 0.028086 81.6124 0.0561172L81.6839 0ZM155.595 259.681C155.595 259.681 155.262 260.074 155.262 260.298C155.262 260.522 155.524 261.027 155.572 260.999C155.962 260.839 156.337 260.632 156.692 260.382C156.329 260.176 155.955 259.998 155.572 259.85L155.595 259.681ZM425.491 155.854L427.255 155.994V155.629L425.515 155.826L425.491 155.854ZM0.667584 160.927C0.667584 160.927 0.834475 160.619 0.810632 160.591C0.78679 160.563 0.524468 160.199 0.381414 160.199C0.23836 160.199 0.119212 160.507 0 160.675C0.215069 160.784 0.438642 160.869 0.667584 160.927Z" fill="url(#paint0_linear_9_564)"/>
<defs>
<linearGradient id="paint0_linear_9_564" x1="31.8461" y1="128.649" x2="413.37" y2="128.649" gradientUnits="userSpaceOnUse">
<stop stop-color="#DEB457"/>
<stop offset="0.23" stop-color="#E2BF63"/>
<stop offset="0.41" stop-color="#D6AB47"/>
<stop offset="0.59" stop-color="#AE8225"/>
<stop offset="0.77" stop-color="#CF9E25"/>
<stop offset="1" stop-color="#B48A2D"/>
</linearGradient>
</defs>
</svg>
