<svg width="2119" height="253" viewBox="0 0 2119 253" fill="none" xmlns="http://www.w3.org/2000/svg">
<path d="M1803.97 246.923C1794.1 246.575 1784.34 246.886 1774.99 247.848L1755.16 246.462L1749.37 247.571L1743.19 245.819L1726.96 244.684L1720.45 242.715L1701.65 241.167C1700.57 239.732 1703.17 239.875 1705.93 240.068C1708.69 240.261 1711.2 240.436 1710.77 239.358C1706.44 238.519 1701.9 238.07 1697.41 238.035L1691.29 238.967C1689.66 238.184 1687.67 237.592 1685.51 237.251C1683.35 236.909 1681.1 236.829 1678.99 237.019C1674.11 238.27 1680.14 240.983 1674.75 242.276C1666.94 240.992 1673.76 239.605 1670.42 238.09L1663.69 237.075L1656.97 238.198L1651.04 236.346C1645.06 235.346 1642.61 236.766 1638.81 236.967C1636.02 236.903 1633.22 236.707 1630.45 236.382C1624.63 235.393 1619.31 233.312 1612.89 233.756C1605.62 233.863 1598.57 234.51 1592 235.674C1590.68 236.006 1589.28 236.273 1587.82 236.469L1576.36 235.668L1570.52 233.823L1563.89 234.912C1556.13 234.059 1550.01 231.379 1540.73 231.972L1536.81 232.708L1526.13 230.369L1518.56 231.626L1490.03 229.631L1484.02 227.774L1479.85 228.531C1479.15 228.679 1478.37 228.756 1477.57 228.76L1415.33 224.407L1408.79 225.387C1401.97 225.532 1400.51 223.527 1394.17 222.85L1385.71 223.657L1380.54 221.897L1374.5 222.834L1368.66 221.027C1362.35 219.965 1360.22 221.563 1354.24 221.65L1338.68 219.359L1334.68 220.127L1249.19 214.149C1244.38 214.318 1242.34 215.845 1236.19 214.794L1230.27 212.904L1218.98 212.114L1212.78 213.117L1208.5 211.692C1203.47 210.637 1198.01 210.406 1193.08 211.041C1188.08 211.622 1182.62 211.417 1177.49 210.456L1172.15 208.645L1163.51 211.925L1150.3 207.428L1143.93 208.265L1111.56 206.001L1100.72 207.146L1091.22 204.734L1080.68 203.997L1074.72 205.017L1068.88 203.172L1057.59 202.382L1051.3 203.341L1046.46 201.682L1040.69 202.482L1031.43 200.242L1022.95 201.358L1016.29 199.222L1003.71 199.896L953.523 196.387L949.006 194.867L941.876 195.844L919.374 194.271L914.179 195.228L904.934 192.795L896.439 194.065L849.762 190.801L844.751 189.13L837.799 189.964L821.069 188.795L815.445 189.877L809.514 188.142L803.477 189.118L792.184 188.328L785.277 186.136L770.602 186.819C760.313 186.1 744.252 184.977 728.776 183.894L723.495 184.884L717.475 183.221L711.53 184.086C707.235 184.038 702.907 183.735 698.647 183.186L695.161 180.146L688.051 179.648C686.993 180.351 685.762 181.12 684.613 181.932C682.96 182.046 681.268 182.084 679.561 182.045C663.333 180.91 647.02 179.77 630.959 178.647L624.666 179.682C620.584 177.96 621.423 175.572 612.578 174.643C605.683 175.869 614.499 177.224 615.753 178.515C611.827 179.367 606.695 178.231 602.158 178.186L595.439 179.309L592.822 177.067L598.632 175.726C595.715 174.163 594.627 174.087 584.362 175.427L560.103 173.731C559.191 175.958 570.006 175.161 569.726 176.773L554.862 177.753C552.794 177.27 550.92 176.597 549.367 175.778C547.815 174.96 546.62 174.014 545.863 173.007C539.905 172.862 537.374 174.2 532.031 174.875L525.053 171.28L509.912 170.221C508.881 170.537 507.432 170.824 507.067 171.226C505.537 172.672 509.841 174.838 503.472 175.751C497.809 173.802 503.713 172.312 499.013 169.808C497.437 168.877 495.378 168.144 493.073 167.694C490.768 167.244 488.313 167.096 485.993 167.267L481.165 170.191L471.958 166.014L445.524 164.165L434.77 167.685L426.505 165.67L417.368 166.507C412.046 165.669 410.438 163.42 403.255 162.763C402.238 161.682 406.264 160.604 400.028 159.624C397.877 160.328 393.085 160.343 392.893 161.883L403.266 162.608L395.55 165.952L381.448 166.869L370.873 161.819L347.702 160.199L351.96 157.001L346.242 154.621L352.473 153.27C351.429 152.575 350.342 151.296 349.421 151.231C341.642 150.687 337.292 147.975 329.043 148.136L329.2 145.895L323.376 143.818L323.582 140.88L315.371 138.093L287.012 136.11L280.679 134.113L264.953 133.014L244.674 128.489L228.947 127.389L224.185 125.774L203.774 124.347L181.989 119.717L165.259 118.547L156.044 114.485L148.558 115.748L137.265 114.958L131.264 113.024L116.625 112L104.852 109.663C100.372 109.089 96.34 107.749 93.5966 105.924C97.2962 105.911 101.962 106.509 97.8819 104.748C96.3694 105.078 94.9357 105.471 93.5966 105.924C88.8042 104.734 83.17 103.564 76.2917 102.151L87.315 101.989C90.2968 101.421 88.443 100.282 89.0071 99.4281C93.608 99.7498 98.2089 100.072 102.726 100.387C103.814 100.463 104.855 99.9926 105.964 99.7595C97.0219 96.6098 96.8519 96.6367 89.3231 97.3142L89.1717 99.4784L75.3692 98.5132L69.5053 99.4237C65.3686 98.4742 61.2346 97.486 60.5007 95.9589L74.8889 96.9651C80.1619 96.091 77.9196 94.4973 76.6218 92.6201L68.6612 93.4616C66.9258 93.4514 65.1712 93.2759 63.5037 92.9457C61.8362 92.6155 60.2905 92.1374 58.9603 91.5404C54.2085 89.7712 54.1062 87.6281 47.2468 85.9445C42.2152 84.4932 37.4083 82.8578 32.8779 81.0561L33.0887 78.0417L2.95041 67.8563L9.9127 65.6635L4.9153 63.7994L6.38814 42.7368L0.977991 40.7662C2.94026 40.4224 4.77853 39.9642 6.45334 39.4014C7.41519 38.8554 8.14226 38.2227 8.60145 37.5322L17.6359 38.1639L32.359 36.7856L24.2127 33.0703L24.391 30.5196C20.6917 28.1249 11.0903 29.5895 7.11566 27.5251C10.787 26.6691 14.7989 26.1106 18.9999 25.8706L27.8345 28.1584L35.439 26.3988L35.8768 20.1379L24.4895 18.2931L43.7435 14.6296L34.7495 13.4182L27.5203 14.6215L24.8327 12.181C28.4865 11.621 31.93 10.4637 35.5324 10.6379C47.1736 11.2578 46.9418 8.56184 51.5779 7.17724L76.6736 8.93211L92.0499 5.4247L110.286 6.6999L114.555 8.16344C115.215 8.26568 115.895 8.31324 116.563 8.30383C119.794 7.43442 123.353 6.81887 127.114 6.47852C131.207 6.62346 135.202 6.31745 138.777 5.58527L156.26 6.80783C163.179 8.84507 155.99 10.6725 159.803 12.6479C164.288 12.2237 164.288 12.2237 164.795 9.77365L170.343 8.56932L165.1 6.61041C170.203 5.76332 179.308 6.59415 182.055 4.57261C175.792 2.77539 167.146 3.80194 160.551 1.94269C163.541 0.0546284 170.36 2.31793 173.914 1.9839L180.714 0.905941L196.441 2.00566L203.481 1.09987L216.782 2.02995C224.257 2.12544 228.051 -0.444249 234.654 2.50297L226.138 4.08225L214.761 3.28671L208.295 4.38806L197.086 3.60422L188.569 5.18349C193.971 7.27003 197.984 6.38554 202.415 5.5303L229.351 7.41385L252.507 5.65435L260.751 7.97841L295.968 10.4411L300.019 7.81161L341.009 10.6779L346.716 9.6012L360.435 10.5605C367.57 10.7099 368.954 8.94262 376.186 10.1085L383.504 12.4456L386.224 16.83C389.06 13.5331 400.086 13.3332 413.492 12.7561L432.314 14.0722L439.873 12.9696C445.356 15.1007 439.575 17.2208 444.449 19.6587L453.016 17.3452L454.477 14.4957L469.75 13.6608L471.436 15.9924C475.149 16.9899 477.119 18.8752 484.248 19.1019L496.287 15.2446L504.02 17.6495L514.488 17.0222L531.971 20.6526C538.871 20.5525 538.534 18.16 543.313 17.1349L549.001 17.5327C552.838 19.1602 560.659 20.3284 557.08 22.2142C562.412 22.8977 562.412 22.8977 563.146 20.8131C568.141 20.308 570.487 18.0253 580.004 20.1666L581.347 23.7946C582.834 24.2827 584.517 24.6017 586.242 24.7223C587.967 24.8429 589.678 24.7613 591.218 24.4849C590.638 23.1627 582.999 21.813 588.728 20.4271L596.497 22.3296C600.345 22.5987 604.36 22.8794 604.047 21.343L618.435 22.3491L623.546 21.3861L646.635 23.0005L653.195 21.7505C655.453 21.9084 659.134 22.1658 662.731 22.4173C664.336 22.6597 665.894 22.9904 667.37 23.4019L661.651 24.6331C660.353 26.3677 666.328 27.4845 669.768 28.7737L681.469 27.3394L674.396 23.8933C675.972 22.9937 679.47 23.4713 683.466 24.0226L686.647 26.6141L703.469 26.4699L710.712 28.6852L716.751 27.6706L726.684 31.0837C738.223 30.7643 749.832 30.644 766.104 29.9565L771.428 28.3482L785.9 29.3602L792.368 28.2202L815.122 29.8113L820.146 28.8811L828.908 31.0084L840.493 30.032L852.997 32.7316L861.476 31.6934L867.07 33.4439L872.094 32.5136L888.072 33.6309L895.196 32.731L913.507 36.5357C916.935 35.9129 920.718 35.6859 924.566 35.8721C928.079 36.1178 930.802 34.4441 937.281 35.5573C938.15 36.356 939.343 37.3326 940.533 38.3479C946.404 38.5255 948.52 37.12 953.434 36.5704L958.666 39.8877L965.045 38.8192L990.643 40.6092L1000.95 38.6503C1001.91 39.3775 1003.02 40.3483 1004.45 41.4584L1023.19 42.7687L1028.22 41.8385L1045.62 43.0552L1052.12 44.9859L1055.4 42.6516C1060.24 42.672 1064.97 42.3346 1069.42 41.6517L1074.1 43.2604L1086.98 44.1613L1091.16 43.3658C1096.65 44.1383 1098.98 45.7379 1102.85 46.7858C1104.89 47.1803 1107.05 47.3387 1109.12 47.2465C1111.2 47.1542 1113.14 46.8142 1114.74 46.2579L1126.45 47.0768L1133.44 49.3131L1148.3 48.449L1163.02 53.0516L1173.44 51.9547L1206.9 54.2945L1219.41 52.0626C1223.35 52.3375 1227.78 52.6475 1227.69 53.9615C1227.6 55.2755 1232.21 56.6466 1237.76 57.8115C1238.4 57.0408 1239.03 56.3861 1239.68 55.6154L1247.68 54.117L1253.61 55.9295L1259.56 54.909L1271.19 55.7221C1275.24 57.9082 1282.47 57.9475 1287.82 58.3606L1292.5 59.9307C1300.9 60.0519 1301.06 57.7717 1305.18 56.5839L1311.18 58.4795L1322.39 59.2634L1328.39 61.159L1333.42 60.2287L1356.92 61.8724C1364.15 63.1157 1367.31 66.0936 1375.53 67.5229C1383.88 68.3011 1382.32 66.5609 1383.48 65.5935C1387.02 65.4914 1390.39 65.4162 1393.59 65.2133C1396.8 65.0105 1398.08 64.7504 1400.54 64.495L1409.87 66.8178L1414.09 64.2387L1420.19 65.9469L1455.74 68.433L1460.69 67.4582L1466.69 69.3538L1506.68 72.1499L1512.6 74.001L1518.89 73.0426C1524.94 73.2486 1530.98 74.0957 1536.53 75.5194L1541.05 74.67L1559.79 75.9803L1569.1 79.8935L1573.03 79.0032C1574.81 78.7396 1575.58 78.5217 1576.33 78.5743L1604.69 80.5573L1609.12 79.7407C1610.84 79.6876 1612.58 79.6926 1614.33 79.7556L1645.11 81.9082L1656.12 85.6292L1662.4 84.7094L1685.24 86.3064L1691 88.1071L1697.12 87.0983L1725.81 89.1047L1730.91 90.82C1743.84 92.1518 1758.09 92.7211 1772.05 93.9299L1777.14 95.6452L1795.04 96.897C1795.77 97.5706 1796.86 98.1579 1798.2 98.5937C1794.5 98.6069 1789.84 98.0088 1793.92 99.7698C1795.43 99.4399 1796.86 99.0464 1798.2 98.5937C1799.04 98.6522 1801.38 98.816 1802.16 98.4049C1803.76 97.7214 1805.25 96.9818 1806.61 96.1912C1807.26 95.97 1808.01 95.8119 1808.82 95.7249L1802.85 93.4042L1803.28 87.2593C1802.31 87.168 1801.33 87.0996 1800.35 87.0546L1789.28 89.1153C1783.2 87.1752 1791.18 84.7821 1781.29 83.1584C1785.98 82.2821 1791.02 83.4119 1795.39 83.4456L1801.56 85.4301L1818.71 86.6293C1819.74 87.5556 1820.85 88.4877 1821.87 89.4526L1831.6 91.0259L1831.98 92.7228L1826.27 93.9541L1831.51 95.8743L1824.94 97.279L1830.1 100.475L1825.99 101.546L1825.55 107.73C1829.99 109.167 1835.15 108.751 1842.23 109.711L1853.4 113.483L1864.97 112.661L1879.61 113.685C1884.62 112.986 1882.18 111.729 1882.92 110.848L1894.46 111.655L1894.19 115.52C1900.09 117.68 1908.75 116.538 1914.79 117.854L1919.64 119.474L1937.62 120.732L1950.87 126.085L1950.58 130.22L1946.15 131.076L1952.82 135.426L1977.33 137.14C1982.88 135.897 1976.68 133.211 1981.65 131.85C1985.51 133.129 1985.51 133.129 1985.32 137.077C1986.81 137.453 1988.44 138.111 1989.7 138.121C1999.68 138.579 2009.57 140.067 2018.65 142.476L2024.82 146.791L2024.47 151.854C2031.76 153.412 2030.14 154.891 2030.34 156.808L2043.07 161.116C2057.84 162.615 2058.78 166.098 2064.43 169.367L2059.28 170.871C2059.19 172.263 2063.84 171.812 2067.59 172.384L2074.88 175.069L2074.44 181.407L2064.33 181.632C2061.71 183.119 2065.16 184.176 2068.88 185.174L2068.57 189.579C2070.08 190.734 2075.25 191.328 2074.33 192.507L2065.97 191.922C2060.53 192.745 2063.1 194.401 2063.76 195.845L2074.97 197.756L2062.99 198.432L2062.37 200.02L2073.73 202.252L2073.48 205.846L2090.95 210.951L2090.7 214.467L2101.59 216.277L2096.45 217.665L2095.91 225.395C2097.06 225.747 2097.71 226.103 2098.37 226.15C2102.14 226.413 2105.99 226.682 2109.84 226.951C2113.61 228.225 2114.21 229.277 2109.63 229.888L2103.54 228.064C2101.11 229.06 2095.07 228.948 2094.96 230.455C2091.45 230.21 2089.8 229.706 2089.36 228.898C2088.91 228.09 2091.29 226.547 2086 225.207L2078.78 225.09C2078.66 226.714 2076.32 227.831 2080.57 229.565C2085.73 231.592 2089.19 234.404 2090.19 237.384L2098.42 239.978L2106 239.771L2106.11 238.147L2100.54 236.127L2100.69 233.924C2107.73 234.145 2109.96 232.32 2115.7 232.022C2120.15 233.304 2117.13 234.413 2118.05 235.72L2112.33 236.99L2111.98 241.975C2113.41 243.086 2121.31 244.337 2115.14 246.08L2106.88 243.988L2088.9 245.061C2090.67 246.068 2092.67 246.989 2094.84 247.807C2091.15 247.781 2086.48 247.222 2090.48 248.938C2092 248.615 2093.46 248.237 2094.84 247.807C2096.85 247.947 2099.78 248.152 2102.62 248.351C2107.81 249.917 2105.2 251.21 2104.18 252.576C2100.35 253.163 2100.29 251.721 2095.86 251.257L2090.52 251.893L2066.93 250.243L2062.66 248.818C2057.66 249.357 2053.26 250.571 2049.97 252.32C2048.04 251.097 2046.36 249.931 2044.19 248.498L2025.54 249.485L2022.2 251.659L2013.92 249.876L2011.73 252.248C1999.94 252.511 1986.64 250.493 1974.3 250.174L1969.44 251.116L1963.44 249.259L1952.14 248.469L1946.02 249.555L1910.88 247.098L1907.47 247.869C1905.67 247.976 1903.84 248.004 1902 247.953L1859.08 244.952L1853.97 245.915L1825.11 243.897L1820 244.899C1814.88 244.735 1812.37 242.19 1806.01 243.027C1802.42 243.863 1804.82 245.546 1803.97 246.923ZM48.0031 27.0444C46.9859 25.9635 50.9284 24.8799 44.776 23.906C42.1286 25.7015 42.1286 25.7015 48.0678 27.3207C48.6559 28.5269 45.9574 29.8528 49.9537 31.6081C54.382 30.7915 54.5062 29.0137 59.4256 28.3868C59.8438 28.4161 59.4607 27.8844 59.4769 27.6525C59.4931 27.4206 57.8606 26.7239 57.0538 26.2403C54.1324 26.6137 51.1032 26.8442 48.0112 26.9284L48.0031 27.0444ZM1972.11 150.523C1973.36 151.776 1972.87 152.906 1977.95 152.252C1976.32 151.734 1974.57 151.312 1972.75 150.994C1975.08 147.701 1991.84 149.65 1996.14 146.999C1995.38 145.859 1998.4 144.749 1994.28 143.568L1975.54 142.258L1965.06 144.244L1956.67 144.084L1956.42 147.601L1964.21 150.398C1966.88 150.63 1969.56 150.633 1972.12 150.407L1972.11 150.523ZM1775.18 240.289C1769.55 240.245 1767.7 241.474 1763.72 241.818C1759.75 242.161 1755.95 242.323 1751.65 242.566L1753.44 244.594C1761.7 246.648 1764.55 243.274 1771.85 244.677C1775.71 242.307 1785.95 244.926 1792.58 243.913L1775.18 240.289ZM1910.69 126.033L1922.21 128.353L1935.95 127.838C1930.21 127.057 1924.63 125.922 1919.37 124.466L1910.69 126.033ZM83.2316 28.1485L89.9045 32.4987L100.216 31.7051L91.1139 28.4278L83.2316 28.1485ZM167.155 22.9099L175.666 21.4079C172.96 20.5972 169.965 20.0648 166.907 19.8509C163.849 19.6371 160.808 19.7475 158.015 20.1737L167.155 22.9099ZM117.319 104.476L105.905 104.221L107.712 107.222L117.114 107.413L117.319 104.476ZM198.776 21.5092C196.107 20.6906 193.136 20.1538 190.101 19.9415C187.066 19.7293 184.05 19.8475 181.293 20.2867C183.982 21.1195 186.983 21.6653 190.05 21.8798C193.117 22.0942 196.164 21.9713 198.943 21.521L198.776 21.5092ZM1933.18 132.615L1933.25 131.649L1925.65 130.885C1924.98 130.838 1923.61 131.131 1923.78 131.22C1923.94 131.309 1924.96 132.274 1925.72 132.327C1928.21 132.494 1930.7 132.591 1933.18 132.615ZM1998.91 154.338C2002.77 153.21 2004.51 152.361 1998.28 151.304C1994.79 151.953 1994.9 152.815 1998.91 154.338ZM2058.53 212.878C2054.67 214.006 2052.93 214.856 2059.16 215.913C2061.9 215.172 2061.95 214.438 2058.19 212.932L2058.53 212.878ZM2079.42 244.747C2075.56 245.837 2073.82 246.686 2080.05 247.743C2082.87 247.125 2082.76 246.301 2079.08 244.801L2079.42 244.747ZM814.965 32.0528C814.296 32.006 813.016 32.2661 813.173 32.4324C813.606 32.8426 814.176 33.2238 814.86 33.5601C815.529 33.6069 816.81 33.3081 816.735 33.1863C816.198 32.7137 815.487 32.282 814.638 31.9135L814.965 32.0528ZM642.567 25.8619L644.697 25.467C643.44 25.1523 642.135 24.8919 640.8 24.6897C640.382 24.6604 639.524 24.9111 638.925 25.0634L642.567 25.8619ZM416.374 14.8217C415.788 14.7807 414.509 15.0408 414.585 15.1626C415.042 15.5783 415.609 15.9704 416.269 16.3289C416.951 16.1825 418.22 16.077 418.144 15.9552C417.715 15.4891 417.119 15.0529 416.385 14.6671L416.374 14.8217ZM2064.53 177.569L2066.47 178.675C2067.14 178.722 2068.42 178.462 2068.35 178.34C2067.88 177.915 2067.29 177.519 2066.58 177.168L2064.53 177.569ZM2055.98 179.689L2052.18 179.967C2052.85 180.014 2053.56 180.569 2054.07 180.565C2055.38 180.543 2056.68 180.478 2057.95 180.37L2055.98 179.689ZM2011.52 214.368C2010.85 214.321 2009.57 214.581 2009.65 214.703C2010.11 215.128 2010.71 215.524 2011.42 215.875C2012.02 215.723 2013.28 215.617 2013.21 215.495C2012.78 215.085 2012.21 214.704 2011.52 214.368ZM1986.45 229.081L1990.25 228.803C1989.59 228.757 1988.87 228.201 1988.36 228.205C1987.05 228.227 1985.75 228.292 1984.48 228.4L1986.45 229.081ZM467.549 160.54L469.603 161.227C470.326 160.989 470.944 160.691 471.43 160.345C471.43 160.345 470.366 159.922 469.708 159.72L467.549 160.54ZM1698.85 91.2966C1698.18 91.2499 1697.46 90.6948 1696.95 90.6984C1695.64 90.7207 1694.35 90.7857 1693.07 90.893C1693.66 90.934 1694.46 91.4949 1694.88 91.4855C1696.29 91.5265 1697.7 91.5209 1699.09 91.4688L1698.85 91.2966Z" fill="url(#paint0_linear_5_7344)"/>
<defs>
<linearGradient id="paint0_linear_5_7344" x1="156.785" y1="58.8899" x2="2029.42" y2="189.837" gradientUnits="userSpaceOnUse">
<stop stop-color="#DEB457"/>
<stop offset="0.23" stop-color="#E2BF63"/>
<stop offset="0.41" stop-color="#D6AB47"/>
<stop offset="0.59" stop-color="#AE8225"/>
<stop offset="0.77" stop-color="#CF9E25"/>
<stop offset="1" stop-color="#B48A2D"/>
</linearGradient>
</defs>
</svg>
