<svg width="138" height="50" viewBox="0 0 138 50" fill="none" xmlns="http://www.w3.org/2000/svg">
<path d="M134.839 21.2412C135.05 21.4917 134.839 21.7718 135.151 21.9782C135.544 21.934 135.791 21.5507 136.43 21.875C136.43 22.214 136.43 22.612 136.43 23.0174C136.429 23.1066 136.41 23.1945 136.372 23.2754C136.372 23.2754 136.263 23.3417 136.118 23.4228C136.031 23.1353 135.951 22.8921 135.856 22.612L135.253 22.5531C134.374 22.9658 135.798 23.1501 135.442 23.5259L134.505 23.7765C134.817 24.0198 135.231 23.8871 135.653 23.9239L136.169 23.6807C136.249 23.7249 136.416 23.7765 136.423 23.8355C136.423 24.0935 136.336 24.3662 136.823 24.5725C136.932 24.6241 136.866 24.8084 136.881 24.9116C136.481 25.1179 136.067 24.9116 135.733 25.0295C135.581 24.8995 135.4 24.8115 135.205 24.774C135.01 24.7366 134.809 24.7509 134.621 24.8157L134.468 25.1474L135.471 25.4127V25.7075L134.519 25.9655C134.861 26.2014 135.297 26.0613 135.711 26.1055L136.183 25.5454L136.91 25.9655L136.481 26.2456V27.0489L136.794 27.2406C136.845 27.3143 136.939 27.388 136.946 27.469C136.946 27.786 136.946 28.1029 136.946 28.4272L135.871 28.7146L136.786 28.862C136.836 29.0113 136.918 29.1473 137.026 29.26C137.186 29.4074 137.499 29.5032 137.368 29.8496L136.757 30.1666H135.602L135.399 29.3779C135.028 29.658 135.028 29.658 135.035 30.594L136.271 30.9552L137.201 30.4614C137.266 30.4614 137.375 30.5277 137.375 30.5646C137.375 30.9183 137.375 31.3016 137.375 31.6259L137.891 31.9502V32.5619L137.331 33.1073C136.467 33.2768 136.249 32.6061 135.58 32.982C135.58 33.1884 135.944 33.2252 136.118 33.4169L137.208 33.4611C137.419 33.638 137.884 33.7117 137.935 34.0654C137.651 34.4045 136.866 34.6108 136.525 34.9572V35.5026L136.932 35.7311L137.004 36.6082L137.942 36.7998L137.455 37.1094L138 37.441L137.07 38.495L137.419 38.7382V39.2762L136.99 39.5489L137.448 39.829V40.3597L136.975 40.6471C136.786 40.9419 137.31 41.0304 137.491 41.2957L137.012 41.7969V42.8877C136.895 43.2267 136.285 43.3004 136.51 43.6247L136.939 43.9048L136.489 44.1848V44.6344L135.798 45.3715H135.297L134.832 44.8187C134.447 45.0767 134.454 45.482 133.814 45.6073L133.335 45.3862C132.608 45.7252 133.444 45.8505 133.589 46.1232L132.688 46.278L131.053 47.2435C130.087 47.3098 129.709 47.8184 129.026 48.1132H127.122L126.235 48.6218H124.077L123.772 48.1574C123.314 48.2385 123.14 48.5554 122.755 48.6218C122.411 48.645 122.078 48.7484 121.781 48.9239H118.409L118.097 49.1082C118.01 49.1082 117.951 49.1966 117.893 49.1966H115.524C115.305 49.336 115.06 49.4294 114.804 49.4711C114.548 49.5129 114.286 49.5023 114.035 49.4399L113.693 49.2482C113.627 49.2258 113.559 49.2109 113.49 49.204C113.25 49.204 113.01 49.204 112.763 49.204C112.516 49.204 112.174 49.204 112.102 49.2556C111.666 49.6536 110.649 49.2556 110.278 49.7273L109.551 49.4104L108.788 49.742H106.15H105.925L105.526 49.9705H104L103.513 49.7494L103.128 49.9631H96.7766L96.3624 49.7347H91.5592L91.065 49.9926L90.7308 49.8084C90.5906 49.7694 90.447 49.7447 90.302 49.7347H87.7079L87.2864 49.9779H85.2518L84.8739 49.7568H81.9309L81.524 49.9926L81.0081 49.742H79.5911L79.0897 50L78.6682 49.7641H76.7789L76.0522 49.4177L75.1148 49.7126H69.8974C69.694 49.7126 69.5632 49.3662 69.0182 49.4767L68.524 49.7199L68.0154 49.462H67.0853L66.4821 49.145L65.4067 49.4546H63.7353L63.2703 49.7126H60.8578L59.2373 49.1966H57.4788L56.9556 48.9239L56.6141 49.1156C56.5592 49.1525 56.4973 49.1776 56.4324 49.1893H46.4481L45.9031 49.4472L45.5325 49.2335L44.6315 49.5136L44.0138 49.1966H42.5605L42.0591 49.462H41.1144L40.613 49.204H38.2078L37.8008 49.4325H35.8389L35.2793 49.1819H30.0546L29.6114 48.9313H24.8518L24.2922 48.6512H21.5455L22.105 48.2532L21.7053 47.9879C21.7853 47.8331 22.2285 47.7889 21.9161 47.3614C21.8361 47.2435 22.0905 47.3614 22.1268 47.4351C22.2213 47.7447 22.4029 47.5088 22.7081 47.4351C22.4102 47.2288 22.9261 46.9413 22.3666 46.7497C22.1413 46.875 21.9161 47.0077 21.9161 47.3467C21.9161 47.5531 21.669 47.5531 21.4365 47.5531L20.8479 47.2435L20.6153 48.0174C20.5543 48.0525 20.488 48.0774 20.4191 48.0911H18.2392L16.9021 47.7078L18.4063 47.1551C17.3018 46.9708 17.3018 46.9708 15.4996 47.5457C14.8675 47.5457 14.6858 47.1698 14.3152 47.0298L13.5013 46.934L13.9664 46.6097C13.7993 46.3296 13.0799 46.2706 13.0508 45.9169H13.7775C14.1844 45.7473 13.9519 45.5041 14.0245 45.2683L13.3487 44.8482H11.4449L10.6674 44.4281V43.8532L8.82891 43.3815C8.82214 43.1436 8.75505 42.9115 8.63414 42.7075C8.51323 42.5035 8.34258 42.3346 8.1386 42.217C7.66627 41.8779 7.30293 41.4799 6.8306 41.1114V39.9469L5.43542 38.4213V37.3673L7.37559 36.8662L5.36275 36.0554V35.4879L4.47623 34.9794V33.2842L5.34821 33.1073C5.23921 32.8493 4.86134 32.9525 4.62155 32.8862C4.26548 32.7093 4.51983 32.4661 4.43263 32.2524L3.45163 31.6996C3.2845 31.3974 3.72777 31.2868 3.97483 31.0657L3.51703 30.594L3.85129 30.3508C3.88762 30.0634 4.1347 29.7317 3.43711 29.5696V28.9873L3.89489 28.7073L3.40804 28.4124V27.8965L2.96476 27.6091V25.7075L3.41531 25.4496V24.6389L3.91671 24.3514V22.6931L4.83228 22.5015C4.55615 22.0593 3.74229 22.0519 3.2191 21.8308C2.6959 21.6097 2.61597 21.0937 2.02011 20.8505V19.4797L2.43432 19.1922V18.6616L1.99831 18.3815V17.5413L2.56511 17.4307C2.81217 17.4307 3.0011 17.3275 2.94296 17.1801C3.38623 16.9664 3.3717 17.5708 3.85856 17.3349V16.1851L3.47343 15.964C3.26997 15.4702 3.62604 14.9322 3.25544 14.4015L2.52878 14.829C2.67412 15.0133 3.15369 15.1091 2.96476 15.3892L2.49971 15.6618L2.97204 15.9493V17.1801C2.73224 17.1801 2.49244 17.1801 2.24538 17.1801L1.51872 16.7821V15.4039L1.96924 15.1165V14.2762L1.16991 14.1215C1.11905 14.0478 1.02459 13.9667 1.02459 13.8856C1.02459 13.3918 1.02459 12.898 1.02459 12.4116L0.588593 12.1683L0.515922 11.6303L0 11.1881L0.603118 10.6501L0.130793 10.23C0.414191 9.92777 0.908323 10.1636 1.31525 10.1341L2.16545 10.6132C2.72498 10.51 2.35439 10.2521 2.48519 10.0383L2.03464 9.69192V9.07282C2.2499 9.02993 2.46969 9.01507 2.68865 9.0286C2.86997 9.08491 3.04156 9.16945 3.1973 9.27919C3.59696 9.09493 3.3499 8.85171 3.42984 8.6306L2.96476 8.34316L3.42984 8.04835V7.23762L4.1129 6.84699C4.96309 7.21551 3.69143 7.41451 3.94576 7.79039L4.51983 8.14416L5.67521 7.87146C5.97314 7.58402 5.75515 7.2671 5.83508 6.96492C6.39461 6.65537 7.02681 6.96492 7.6808 6.78066L7.78252 7.80513C8.10225 8.01887 8.50918 7.87883 8.91611 7.92305L9.92618 7.37765C10.2532 7.37765 10.5947 7.37765 10.6528 7.04599L10.2096 6.69222L10.631 6.42689L10.1878 6.13945L11.0016 5.68249L11.8591 6.38267L12.2442 5.79304L13.2833 6.08785L13.6394 5.54245C13.8865 5.38031 14.3152 5.54245 14.6931 5.47612L15.2163 5.74882H15.7104C15.8557 5.56457 16.0156 5.38031 16.2191 5.12972L17.1855 5.44664L17.5706 5.22553L18.072 5.45401L18.5444 5.22553C18.8278 5.26975 18.9004 5.52034 19.271 5.43927C19.3509 5.60879 19.3146 5.82252 19.7361 5.63827C19.5855 5.56182 19.4301 5.49535 19.271 5.43927C19.3584 5.38781 19.431 5.31414 19.4818 5.22553H20.8915L21.4583 4.95283L21.9451 5.18868L22.9334 4.67276L23.3403 4.90124H24.7936L25.5203 4.64328L26.4577 4.93072C27.1335 4.93072 27.2352 4.50324 27.7657 4.40006C28.2961 4.29688 28.4124 4.56958 28.7031 4.65065H29.6114L30.0038 4.42217L30.7886 4.69487L31.5879 4.40006H33.8478L34.3783 4.12736L35.3593 4.65065C35.9043 4.7612 36.0496 4.44428 36.551 4.37058L37.2776 4.6138L37.6846 4.1421H38.1787L38.7019 4.4148H39.6466L40.2352 4.11262L40.475 4.90124C41.1435 4.90124 40.6276 4.53273 41.1508 4.44428L42.1172 4.38532C42.2407 4.22317 42.3497 4.0684 42.4805 3.88414L43.0183 4.13473H45.4017L45.9031 3.87677H51.1496L51.6655 3.61144L52.087 3.84729L52.6538 3.61144H55.5604L55.7639 3.33137H56.9483L57.457 3.5967L57.893 3.35348H62.2093L62.6817 3.08078L63.1903 3.30189L63.6917 3.07341H64.5928L65.1305 2.79334H66.0752L66.5766 3.0513L66.9981 2.81545L68.524 2.76386L69.9047 1.98261L70.8421 2.48379L72.3971 2.01209L72.7314 2.20372L73.5598 1.93839L74.2865 2.24057H75.1512L75.6744 2.51327L76.5318 2.02683C77.0332 2.02683 77.1204 2.38797 77.6509 2.45431L78.0723 2.24794H81.3932L81.9963 1.93102L83.0645 2.53538L85.7895 1.73939L86.349 2.02683L87.1992 1.34139L87.5988 1.95313H88.558L89.6698 1.39299C90.6218 1.45195 90.6726 1.90891 91.036 2.19635L92.1768 1.56987L92.3221 1.18662C92.5012 1.12304 92.6937 1.10865 92.88 1.14489C93.0663 1.18114 93.2399 1.26673 93.3831 1.39299H94.3713L94.8727 1.12766H95.999L96.7984 1.7615L97.1908 1.15714H98.2735L98.6732 1.37824L99.16 1.15714C99.4797 1.23084 99.6542 1.50354 100.214 1.37824L100.475 0.943398C100.81 0.766511 101.202 0.906546 101.602 0.847584L101.936 0.655958C102.077 0.623049 102.22 0.600876 102.365 0.589625H103.985L104.457 0.795992L106.129 0.309553H110.22L110.852 0L111.971 0.294812L112.153 0.545402H113.737L114.071 0.0221128L114.616 0.294812C115.299 0.294812 116.004 0.294812 116.593 0.294812C117.188 0.729659 115.866 0.921285 116.411 1.2898C116.585 1.34139 116.585 1.34139 117.675 0.692808L117.886 0.272702L118.569 0.316922C119.085 0.78125 117.675 1.00236 118.308 1.50354L117.515 1.91628L117.101 1.68043C116.614 1.73939 116.491 2.04157 116.069 2.14475C115.844 2.20372 115.481 2.14475 115.379 2.34375C115.452 2.3806 115.51 2.43956 115.568 2.43956H118.511L118.787 1.97524C118.92 1.91161 119.067 1.88235 119.214 1.89007C119.361 1.89778 119.504 1.94223 119.63 2.01946L119.187 2.31427L121.171 2.87441L120.24 3.06604C120.415 3.57459 121.447 3.47878 121.883 3.80307C122.169 3.82409 122.454 3.75178 122.697 3.5967C122.965 3.51343 123.239 3.45425 123.518 3.41981L122.98 3.08815L123.183 2.7049L124.223 3.2503L124.695 3.02182L125.422 3.38296C125.523 3.62618 125.269 3.86203 125.669 4.07577L126.105 3.55985L127.115 3.88414L129.251 5.09287L129.454 5.45401L130.007 5.17394L130.893 5.67512C131.242 6.02152 131.402 6.15419 131.525 6.30896C131.646 6.47056 131.755 6.64049 131.852 6.81751L132.884 6.26474L133.415 6.53744H134.41L134.592 6.89858L134.091 7.20077L134.585 7.51032C134.293 7.53973 134.006 7.60152 133.727 7.69458C133.47 7.82603 133.187 7.89659 132.899 7.90094C132.79 7.90094 132.688 8.09994 132.637 8.14416C132.688 8.5569 133.291 8.3579 133.56 8.52005C133.876 8.6552 134.205 8.75648 134.541 8.82223V9.36763C134.447 9.51504 134.003 9.55926 134.083 9.81722C133.812 9.72819 133.545 9.62487 133.284 9.50767L133.095 9.8467L133.982 10.5248C134.047 10.1268 134.076 9.95725 134.083 9.78774C134.217 9.77806 134.352 9.8008 134.476 9.85407C134.669 10.0888 134.849 10.3349 135.013 10.5911V11.4755L135.624 11.9472L135.057 12.3673L135.362 12.5295C135.42 12.6179 135.508 12.699 135.515 12.7801C135.515 13.3623 135.515 13.9446 135.515 14.49L135.013 14.8732C135.115 15.2639 135.74 15.3154 135.958 15.8461V17.9835L136.423 18.3225L136.023 18.6026V19.3396L135.551 19.6418C136.067 19.8408 135.973 20.2609 136.452 20.5041C136.612 20.5778 136.452 20.8432 136.452 21.0127L135.769 21.3959C135.472 21.293 135.169 21.2118 134.861 21.1527C134.933 20.7989 135.144 20.4157 134.919 20.1209C134.826 20.0924 134.732 20.0727 134.636 20.0619L132.812 20.5189L134.418 20.6589C134.5 20.8901 134.646 21.0923 134.839 21.2412ZM9.21404 41.6126C9.34484 41.6126 9.57739 41.5684 9.59192 41.5242C9.65732 41.362 9.44657 41.3325 9.21404 41.3399C9.12684 41.1704 9.44659 40.9198 8.93066 40.824C8.71993 41.1778 8.71991 41.1778 9.21404 41.3399V41.6126C9.08324 41.6126 8.85072 41.6568 8.83619 41.7084C8.82165 41.76 8.98151 41.8927 9.21404 41.8853C9.30124 42.0622 8.98152 42.3054 9.49745 42.4086C9.70818 42.0475 9.70817 42.0475 9.21404 41.8853V41.6126ZM14.0681 40.0575C13.9591 39.8511 13.9955 39.6374 13.5813 39.8216C13.7166 39.8945 13.8607 39.949 14.01 39.9838C14.1045 40.1607 13.7847 40.4039 14.2934 40.4997C14.5041 40.1459 14.5041 40.1459 14.0681 40.0575ZM38.0479 39.7848C37.9462 39.5784 37.9753 39.3647 37.5611 39.5489C37.6964 39.6218 37.8405 39.6763 37.9898 39.7111C38.2804 39.9912 38.2804 39.9912 38.9417 39.8659C38.731 39.6226 38.3313 39.7406 38.0697 39.7848H38.0479ZM135.42 31.8323C135.914 31.6701 135.914 31.6701 135.696 31.2942C135.268 31.4269 135.478 31.648 135.558 31.8028C135.188 31.8617 134.832 31.8396 135.137 32.0755C135.264 32.0221 135.376 31.9387 135.464 31.8323H135.42ZM131.642 22.3983C131.533 22.1846 131.569 21.9782 131.148 22.1624C131.286 22.2332 131.433 22.2877 131.584 22.3246C131.867 22.5973 131.867 22.5973 132.506 22.4794C132.368 22.1698 131.932 22.3688 131.685 22.3983H131.642ZM35.0831 37.4631C35.1849 37.6695 35.1558 37.8833 35.57 37.699C35.4387 37.6286 35.2997 37.5741 35.1558 37.5368L35.0759 36.9914L34.1021 37.0504L34.3347 37.5368C34.5865 37.5588 34.8402 37.5338 35.0831 37.4631ZM130.13 7.03125C130.239 7.23762 130.203 7.45136 130.624 7.2671C130.559 7.22515 130.484 7.20288 130.406 7.20288C130.329 7.20288 130.254 7.22515 130.188 7.2671V6.69222L130.697 6.38267C130.646 6.26474 130.588 6.14682 130.544 6.03626H129.382C129.127 6.27948 129.244 6.49322 129.273 6.70696C129.531 6.87993 129.824 6.99085 130.13 7.03125ZM31.0647 38.9151C31.7509 38.9311 32.4374 38.909 33.1212 38.8488L33.499 38.2149L34.2911 38.8488C35.6499 38.8488 36.7545 38.8488 37.859 38.8488C37.9171 38.8488 37.968 38.7898 38.0915 38.7087L36.7327 38.5687L35.8679 38.0822H33.4845C32.9425 37.8472 32.5035 37.4202 32.2492 36.8809C32.2492 36.8146 32.0312 36.7777 31.9658 36.7409H31.0211L30.4107 37.102L31.2246 37.9938L30.8322 38.2075L31.7768 38.4729C31.617 38.5761 31.4644 38.6719 31.4353 38.8635C31.0647 38.9225 30.7087 38.9077 31.0211 39.1436C31.1228 39.0699 31.2318 38.9962 31.0647 38.9151ZM9.21404 28.066C9.31577 28.3461 8.15312 28.4861 8.96698 28.8694H9.56285L9.87531 28.3535L10.602 28.4198L10.2459 28.8252C10.3784 28.8949 10.5254 28.9314 10.6746 28.9314C10.8239 28.9314 10.9709 28.8949 11.1034 28.8252V28.5525C11.6144 28.4747 12.1 28.2751 12.5204 27.9702L12.0989 27.7344V26.592L11.3722 26.1424H10.8636L10.384 25.5749L9.65732 25.6928C9.65732 26.1645 9.65732 26.6141 9.65732 27.0637C9.65732 27.1153 9.47565 27.1595 9.38118 27.2037L8.98878 26.9826C8.8415 27.07 8.68565 27.1417 8.52373 27.1963C8.2694 27.27 7.88427 27.1963 7.75347 27.4175C7.75347 27.4912 7.75347 27.5796 7.79707 27.668L9.21404 28.066ZM32.2564 36.1733V34.9646L31.7914 34.6993L32.2274 34.4118C31.8928 34.3843 31.5677 34.2853 31.2734 34.1215C30.9791 33.9576 30.7223 33.7326 30.5197 33.4611L29.9021 33.5495V35.0236L30.7959 35.5321C30.8976 35.7385 30.6505 35.9743 30.9993 36.1881L32.2564 36.1733ZM124.426 12.6769C124.426 12.3157 124.426 11.9399 124.426 11.5935C124.426 11.5935 124.317 11.5345 124.208 11.4829H123.634L123.307 12.0062L122.769 11.7409C122.043 12.0209 122.9 12.2199 122.893 12.4779L122.515 12.6916C122.806 12.7948 122.907 13.0233 123.307 13.0601L123.765 12.8022L124.491 13.237L124.266 13.5761C123.816 13.7235 123.38 13.5245 122.907 13.8119L123.787 14.1878C124.666 14.1878 124.666 14.1878 124.906 14.0404C124.847 13.6645 124.949 13.3034 124.906 12.9496L124.426 12.6769ZM12.8982 37.0209L13.5304 36.5713V36.0407L12.6802 35.5542L12.3895 35.0678L11.6629 35.1489V36.3355L12.1207 36.5935V37.8022L13.5377 37.4189L12.8982 37.0209ZM11.5757 24.9337C11.6774 24.543 11.1542 24.4914 11.1688 24.344C11.1688 24.0787 10.8999 23.9608 10.6383 23.7986C10.5173 23.7268 10.3816 23.6842 10.2418 23.6739C10.1019 23.6637 9.96163 23.6862 9.83171 23.7397C9.58464 23.8871 9.72997 24.0713 9.70817 24.2409C9.67903 24.4165 9.67903 24.5959 9.70817 24.7715C9.70817 24.9337 9.56285 25.1253 9.90438 25.2874H10.9072L11.5757 24.9337ZM10.0788 19.0374C10.0788 18.6321 10.0788 18.5952 9.74451 18.3004V17.2759C10.3331 16.8337 10.3476 16.76 9.89711 16.6421L9.54832 16.8411L8.74899 17.5781V18.2562L9.47565 18.9932L10.0788 19.0374ZM9.22132 20.1725V21.2485L9.91165 21.9856C10.1805 21.9856 10.4857 22.074 10.6383 21.8382L10.2822 21.6391C10.5511 21.3959 10.849 21.1232 10.6674 20.8358C10.4543 20.5622 10.2105 20.3148 9.9407 20.0988L9.22132 20.1725ZM105.482 12.0652C104.61 12.1462 104.937 12.7432 104.29 12.9643C104.232 12.9643 104.087 13.3107 104.595 13.3034L105.424 12.839L106.085 12.7653C106.129 12.6474 106.158 12.5663 106.238 12.3673L105.482 12.0652ZM8.02958 32.1123L8.48013 31.5669C8.90159 31.5153 9.33031 31.6554 9.67184 31.4343C9.15698 31.3419 8.66392 31.1519 8.21852 30.8741C8.10573 30.8001 7.97495 30.7593 7.84067 30.7562C7.64907 30.7733 7.45938 30.8078 7.27387 30.8594L7.78252 31.1984C8.00779 31.4932 7.46279 31.847 8.02958 32.1123ZM8.53825 15.8314L9.16317 15.3892L8.70539 15.1017C8.70539 14.431 8.70539 14.431 8.35659 14.232C8.31299 14.232 8.23305 14.2984 8.23305 14.3278C8.23305 14.9543 8.23305 15.5734 8.23305 16.1925C8.23305 16.1925 8.32026 16.2588 8.45106 16.3473L9.26491 16.2736L8.53825 15.8314ZM29.3425 36.5935C29.4079 36.2176 28.9501 36.0628 28.4487 35.8933L27.8383 36.0407C28.0418 36.3429 27.7293 36.6598 28.0636 36.9472L29.3425 36.5935ZM129.484 8.99912C129.077 9.19074 129.098 9.51503 129.258 9.62559C129.723 9.92777 129.636 10.4732 130.523 10.5837C131.097 10.2447 130.312 10.1341 130.159 9.8467V9.43396L129.484 8.99912ZM14.9765 24.6315C15.0564 24.8452 14.8021 25.0811 15.1509 25.2727C15.9938 25.059 16.0229 24.5357 16.4443 24.1745L16.1609 23.9608L14.9765 24.6315ZM125.342 5.07076L126.148 4.66539C125.378 4.73172 124.906 4.50324 124.426 4.79806V4.96757L125.153 5.52771L125.945 5.3582L125.342 5.07076ZM133.102 23.0985C133.538 22.5973 134.083 22.6341 134.556 22.4646L134.367 21.9856C133.916 22.133 133.495 21.934 133.131 22.1624L133.102 23.0985ZM132.863 11.704C132.863 11.704 132.521 11.704 132.586 12.0504C132.834 12.3351 133.18 12.5119 133.553 12.5442C133.967 12.5442 134.032 12.3968 134.032 12.0873L132.863 11.704ZM125.531 23.9313C125.313 25.2653 125.312 25.2653 125.705 25.5307C125.756 25.5307 125.843 25.4643 125.843 25.4348C125.843 24.9853 125.843 24.5357 125.843 24.0935C125.857 24.064 125.749 24.0345 125.531 23.9313ZM14.4533 46.0422C15.4125 46.5728 15.4851 46.5876 15.9066 46.337V46.0716L14.5623 45.681L14.4533 46.0422ZM32.8087 19.0374L32.6488 18.5657C32.1898 18.4471 31.7051 18.4833 31.2682 18.6689L31.399 19.0374H32.8087ZM6.08941 31.8101C5.70428 32.0681 5.86415 32.304 5.86415 32.5472C5.86415 32.7904 5.70429 32.9894 6.06762 33.2326L6.896 33.1442L6.45274 32.8788C6.18388 32.4882 6.53268 32.1565 6.08941 31.8101ZM6.45274 31.1984L5.98042 30.9552C5.72609 30.6751 6.03129 30.4393 5.61709 30.2182C5.38456 30.3582 5.13021 30.4909 4.78141 30.7046C5.66794 30.7046 5.16656 31.11 5.63889 31.3163L6.45274 31.1984ZM12.048 31.5374C11.4885 31.6038 11.0743 31.4711 10.6456 31.6922L10.7836 32.1197C11.2632 32.0607 11.6701 32.1934 12.048 31.9944V31.5374ZM30.2145 32.3187C29.9689 32.3524 29.7261 32.4042 29.4879 32.4735C29.4007 32.4735 29.4152 32.6209 29.3643 32.7683L30.2436 33.1221C30.527 32.9746 30.3381 32.7167 30.2291 32.3187H30.2145ZM10.5438 32.7683C11.0488 32.9523 11.6012 32.9523 12.1062 32.7683L11.5684 32.4661L10.5438 32.7683ZM28.1581 31.5964C27.9328 32.6577 27.9328 32.6577 28.3179 32.8862C28.4161 32.6783 28.4532 32.4462 28.4249 32.2175C28.3965 31.9888 28.3039 31.7732 28.1581 31.5964ZM11.1324 6.97229C11.2774 7.07469 11.4499 7.12959 11.6266 7.12959C11.8032 7.12959 11.9757 7.07469 12.1207 6.97229L11.9754 6.57429L11.1324 6.67011V6.97229ZM7.73167 39.3278C8.10227 39.3794 8.15312 39.6595 8.58185 39.6669C8.74898 39.1509 8.73445 39.1509 8.42199 38.9298L7.73167 39.3278ZM6.81607 15.4113C6.96502 15.503 7.13593 15.5515 7.3102 15.5515C7.48446 15.5515 7.65537 15.503 7.80432 15.4113L7.659 14.9985L6.81607 15.1017V15.4113ZM28.8847 19.2217C29.099 19.3216 29.332 19.3734 29.5678 19.3734C29.8036 19.3734 30.0366 19.3216 30.2509 19.2217L29.6695 18.7426L28.8847 19.2217ZM33.7316 36.2397L34.6762 36.1365L34.5091 35.6279L33.7316 35.7164V36.2397ZM7.32472 38.1412L8.27667 38.038L8.10953 37.5295L7.32472 37.6179V38.1412ZM132.623 21.2927C132.686 21.3711 132.756 21.4428 132.833 21.5065L133.277 21.7939C133.655 21.5876 133.655 21.4107 133.277 21.219L132.623 21.2927ZM11.9972 39.0625C13.1816 39.1804 13.1816 39.173 13.4505 38.9814C12.9592 38.8366 12.434 38.8652 11.9608 39.0625H11.9972ZM132.07 27.329C132.298 27.4384 132.546 27.4952 132.797 27.4952C133.048 27.4952 133.297 27.4384 133.524 27.329C133.298 27.2164 133.049 27.1579 132.797 27.1579C132.545 27.1579 132.297 27.2164 132.07 27.329ZM135.704 38.5908C135.333 38.7824 135.333 38.9593 135.704 39.1436C135.914 38.9888 136.285 38.9077 136.358 38.6498L135.704 38.5908ZM113.177 1.11291C112.807 1.30454 112.807 1.4888 113.177 1.67305C113.388 1.51828 113.759 1.43721 113.831 1.17925L113.177 1.11291ZM12.811 32.9157C12.4114 33.1884 12.4114 33.4611 12.811 33.7412C13.2179 33.4611 13.2179 33.2252 12.811 32.9157ZM28.8629 38.0749H29.3861L29.7785 37.9791C29.7204 37.9201 29.6841 37.8464 29.6041 37.8022C29.5242 37.758 29.2844 37.6253 29.0228 37.4779L28.8629 38.0749ZM2.72497 13.1044C3.03744 12.8611 3.1755 12.6843 2.6523 12.5737C2.40524 12.7285 2.41978 12.8833 2.72497 13.1044ZM133.059 14.5784C133.201 14.6726 133.368 14.7228 133.538 14.7228C133.709 14.7228 133.875 14.6726 134.018 14.5784C133.877 14.483 133.711 14.4321 133.542 14.4321C133.373 14.4321 133.207 14.483 133.066 14.5784H133.059ZM123.699 15.824C124.012 15.5734 124.15 15.4039 123.627 15.286C123.351 15.4481 123.394 15.5955 123.707 15.824H123.699ZM8.64 23.9903H8.33479C8.30362 24.1091 8.27935 24.2297 8.26212 24.3514C8.26212 24.3514 8.37838 24.4472 8.41471 24.4399C8.45105 24.4325 8.71265 24.3809 8.71992 24.344C8.71004 24.2229 8.68314 24.1037 8.64 23.9903ZM7.05586 24.7273C6.70707 24.9116 6.70707 25.0958 7.05586 25.2727C7.39739 25.1179 7.3974 24.9484 7.08493 24.7641L7.05586 24.7273ZM15.2163 26.3635C15.5578 26.1792 15.5578 25.995 15.2163 25.8181C14.8675 26.0318 14.8675 26.2161 15.2163 26.4004V26.3635ZM5.13022 27.7196C4.78869 27.8965 4.78869 28.0808 5.13022 28.265C5.47901 28.1176 5.47901 27.9334 5.13022 27.7565V27.7196ZM135.987 27.8523C135.551 27.6754 135.26 27.6017 135.042 27.8965C135.188 27.9747 135.351 28.015 135.516 28.0137C135.681 28.0124 135.843 27.9696 135.987 27.8892V27.8523ZM39.4213 38.7603C39.8573 38.9372 40.148 39.0183 40.3587 38.7235C40.2118 38.6497 40.0491 38.6144 39.8854 38.6209C39.7216 38.6273 39.5621 38.6753 39.4213 38.7603ZM135.224 44.0595C134.883 44.2364 134.883 44.4207 135.224 44.605C135.573 44.4207 135.573 44.2364 135.224 44.0595ZM23.3185 47.6489C23.413 47.7815 22.8389 48.0027 23.4784 48.0985C23.7036 47.9658 23.6891 47.7889 23.2894 47.6489H23.3185ZM133.785 13.0601C133.48 13.3107 133.335 13.4802 133.858 13.5982C134.12 13.436 134.105 13.3255 133.785 13.0601ZM130.356 11.763L130.188 11.8588C130.293 11.896 130.4 11.9256 130.508 11.9472C130.552 11.9472 130.617 11.8883 130.668 11.8588L130.356 11.763ZM101.623 12.2715C101.573 12.2715 101.464 12.3379 101.471 12.36C101.515 12.4243 101.566 12.4836 101.623 12.5369C101.674 12.5369 101.783 12.4705 101.776 12.4484C101.731 12.3841 101.68 12.3248 101.623 12.2715ZM103.716 12.3673L103.542 12.2715C103.485 12.3229 103.436 12.3825 103.396 12.4484C103.396 12.4484 103.491 12.5074 103.542 12.5369L103.716 12.3673ZM7.53546 15.8019C7.47733 15.8019 7.3756 15.8682 7.38287 15.8903C7.39013 15.9124 7.47733 16.0083 7.53546 16.0746C7.59359 16.1409 7.69533 16.0083 7.6808 15.9861C7.64335 15.9166 7.59415 15.8542 7.53546 15.8019ZM14.1844 18.2046L14.4969 18.1088C14.4387 18.1088 14.3733 18.0203 14.337 18.0277C14.2285 18.046 14.1215 18.0731 14.0173 18.1088L14.1844 18.2046ZM10.8272 19.0227L11.1324 18.9269C11.0816 18.9269 11.0162 18.8384 10.9726 18.8384C10.8643 18.861 10.7575 18.8906 10.6528 18.9269L10.8272 19.0227ZM125.218 19.1038L124.906 19.1996C124.956 19.1996 125.022 19.288 125.065 19.2807C125.174 19.2606 125.28 19.2335 125.385 19.1996L125.218 19.1038ZM133.001 19.7008L132.826 19.6049C132.767 19.6591 132.716 19.7211 132.674 19.7892C132.674 19.7892 132.775 19.8482 132.826 19.8777L133.001 19.7008ZM9.14137 25.1179L8.97425 25.0221C8.91541 25.0763 8.86409 25.1382 8.82166 25.2064C8.82166 25.2064 8.92339 25.2653 8.97425 25.2948L9.14137 25.1179ZM134.745 27.1963C134.694 27.1963 134.592 27.2627 134.599 27.2848C134.637 27.3544 134.686 27.4167 134.745 27.469C134.803 27.469 134.904 27.4027 134.897 27.3806C134.858 27.3145 134.806 27.2569 134.745 27.2111V27.1963ZM136.256 29.8791L136.43 29.7759C136.323 29.7411 136.214 29.714 136.103 29.6949C136.067 29.6949 136.002 29.7465 135.951 29.7759L136.256 29.8791ZM126.257 30.6456L126.083 30.4761C126.032 30.4761 125.923 30.5425 125.937 30.5646C125.977 30.6305 126.026 30.6901 126.083 30.7414L126.257 30.6456ZM134.25 30.4761C134.2 30.4761 134.091 30.5425 134.105 30.5646C134.145 30.6305 134.194 30.6901 134.25 30.7414C134.309 30.7414 134.41 30.6751 134.403 30.653C134.363 30.5853 134.311 30.5254 134.25 30.4761ZM133.705 31.5964L133.531 31.6922C133.637 31.7328 133.746 31.7625 133.858 31.7807C133.858 31.7807 133.96 31.7291 134.011 31.6922L133.705 31.5964ZM10.1006 32.7462L9.93345 32.643C9.87803 32.7004 9.827 32.762 9.78084 32.8272C9.78084 32.8272 9.88259 32.8862 9.93345 32.9157L10.1006 32.7462ZM9.14137 33.0115L8.97425 32.9157C8.91713 32.9715 8.86599 33.0332 8.82166 33.0999C8.82166 33.0999 8.92339 33.1589 8.97425 33.1884L9.14137 33.0115ZM28.8266 34.6993L28.6522 34.5298C28.6013 34.5298 28.4996 34.5961 28.5069 34.6182C28.5464 34.6841 28.5954 34.7437 28.6522 34.7951L28.8266 34.6993ZM125.799 36.0628L125.625 35.8859C125.574 35.8859 125.465 35.9522 125.48 35.9744C125.517 36.0439 125.566 36.1063 125.625 36.1586L125.799 36.0628ZM136.118 38.2739L136.43 38.1781C136.372 38.1781 136.307 38.0896 136.271 38.097C136.162 38.1153 136.055 38.1424 135.951 38.1781L136.118 38.2739ZM11.4449 38.5834L11.612 38.4876C11.5075 38.4528 11.4007 38.4257 11.2923 38.4065C11.2487 38.4065 11.1833 38.4581 11.1324 38.4876L11.4449 38.5834ZM135.399 40.0575L135.224 39.9617C135.165 40.014 135.116 40.0764 135.079 40.1459C135.079 40.1459 135.173 40.2049 135.224 40.2344L135.399 40.0575ZM33.6661 41.1851C33.6153 41.1851 33.5499 41.0967 33.5063 41.0967C33.398 41.1193 33.2912 41.1488 33.1866 41.1851C33.2374 41.1851 33.3028 41.2736 33.3464 41.2662C33.4639 41.2547 33.5804 41.235 33.6952 41.2073L33.6661 41.1851ZM135.849 41.1851L135.682 41.0083C135.624 41.0083 135.522 41.0746 135.529 41.0967C135.567 41.189 135.627 41.2702 135.704 41.3325L135.849 41.1851ZM15.456 45.0177C15.3979 45.0177 15.3325 44.9292 15.2962 44.9292C15.1874 44.95 15.0805 44.9795 14.9765 45.0177C15.0273 45.0177 15.0927 45.1061 15.1291 45.0988C15.2398 45.0796 15.3491 45.0525 15.456 45.0177ZM123.394 4.83491L123.227 4.65802C123.176 4.65802 123.067 4.72435 123.074 4.74646C123.117 4.81459 123.168 4.87658 123.227 4.93072L123.394 4.83491Z" fill="url(#paint0_linear_9_606)"/>
<defs>
<linearGradient id="paint0_linear_9_606" x1="1.52327e-06" y1="3.68055" x2="124.768" y2="58.9161" gradientUnits="userSpaceOnUse">
<stop stop-color="#3F2864"/>
<stop offset="1" stop-color="#590E4C"/>
</linearGradient>
</defs>
</svg>
