<svg width="312" height="90" viewBox="0 0 312 90" fill="none" xmlns="http://www.w3.org/2000/svg">
<path d="M290.333 78.5C290.333 84.391 295.109 89.1667 301 89.1667C306.891 89.1667 311.667 84.391 311.667 78.5C311.667 72.609 306.891 67.8333 301 67.8333C295.109 67.8333 290.333 72.609 290.333 78.5ZM183 11.5L183.988 9.7608L183.528 9.5H183V11.5ZM0.333333 11.5C0.333333 17.391 5.10896 22.1667 11 22.1667C16.891 22.1667 21.6667 17.391 21.6667 11.5C21.6667 5.60896 16.891 0.833333 11 0.833333C5.10896 0.833333 0.333333 5.60896 0.333333 11.5ZM301.988 76.7608L183.988 9.7608L182.012 13.2392L300.012 80.2392L301.988 76.7608ZM183 9.5H11V13.5H183V9.5Z" fill="#4B7AB2"/>
</svg>
