<svg width="393" height="217" viewBox="0 0 393 217" fill="none" xmlns="http://www.w3.org/2000/svg">
<path d="M387.079 129.58C387.447 130.255 385.973 131.001 387.079 131.677C387.116 131.765 387.135 131.86 387.135 131.957C387.135 132.053 387.116 132.149 387.079 132.236C386.081 132.866 386.038 133.425 386.797 134.567C386.963 134.733 387.085 134.943 387.151 135.177C387.217 135.41 387.224 135.659 387.171 135.896C387.118 136.133 387.007 136.351 386.85 136.527C386.692 136.703 386.495 136.831 386.276 136.898C384.863 137.512 383.574 138.414 382.48 139.554C381.912 140.068 381.204 140.37 380.463 140.417C377.325 140.805 374.18 141.155 371.028 141.465C368.989 141.652 366.972 141.698 364.933 141.838C363.727 141.928 362.563 142.356 361.558 143.08C360.553 143.804 359.743 144.798 359.207 145.963C358.253 147.735 357.212 149.436 356.301 151.23C355.753 152.305 355.31 153.438 354.978 154.61C354.696 155.635 354.696 156.754 354.479 157.826C353.828 160.832 353.915 163.489 357.081 164.818C357.32 164.934 357.385 165.517 357.515 165.843C356.518 168.174 354.327 167.148 352.743 168.174C352.18 170.504 353.004 172.998 352.96 175.422C353.027 175.958 353.264 176.452 353.633 176.82C355.441 179.139 356.391 182.093 356.301 185.117C356.342 187.851 356.826 190.556 357.732 193.111C358.255 194.506 358.479 196.009 358.389 197.509C358.299 199.01 357.897 200.469 357.212 201.78C357.021 202.215 356.711 202.576 356.323 202.814C355.935 203.051 355.487 203.155 355.043 203.109L344.068 202.829C343.504 202.711 342.924 202.725 342.366 202.87C341.809 203.015 341.287 203.287 340.836 203.668C340.525 203.961 340.158 204.178 339.76 204.303C339.363 204.427 338.946 204.457 338.537 204.391C330.425 204.018 322.334 203.622 314.222 203.272L292.532 202.41L271.254 201.501C268.847 201.501 266.439 201.105 264.032 201.035C252.493 200.638 240.954 200.196 229.328 200.009C223.255 199.893 217.16 200.382 211.086 200.312C205.49 200.312 199.938 200.918 194.364 201.035C182.933 201.314 171.524 201.408 160.093 201.757C149.444 202.083 138.816 202.689 128.166 203.039C120.813 203.272 113.46 203.435 106.107 203.365C95.8261 203.365 85.5451 202.899 75.2858 202.666C69.5813 202.526 63.8768 202.433 58.1724 202.27C56.8927 202.27 55.6347 202.107 54.3766 201.967C52.6899 201.769 51.1376 200.885 50.0386 199.497C49.6507 199.145 49.3897 198.658 49.3012 198.121C49.296 196.498 48.8349 194.914 47.9781 193.577C47.6654 192.925 47.5436 192.186 47.6288 191.458C47.7139 190.73 48.0021 190.047 48.4553 189.498C49.5091 188.138 50.4593 186.688 51.2967 185.164C51.557 184.721 51.2967 183.975 51.2967 183.299C53.1837 182.18 53.1837 182.18 55.2876 179.081L54.3116 178.731L53.0969 178.195C53.9257 177.235 54.9334 176.473 56.0546 175.959C57.1758 175.445 58.3851 175.19 59.6039 175.212C63.2912 175.329 66.9568 175.212 70.6441 175.049C71.2344 175.011 71.8041 174.801 72.2925 174.443C67.3459 173.839 62.3698 173.559 57.3916 173.604C56.9144 172.578 57.5 172.252 58.129 172.112C61.0934 171.302 64.1367 170.871 67.1954 170.831C67.8244 169.525 67.1954 168.966 66.4579 168.78C65.4689 168.526 64.4591 168.378 63.4431 168.337C59.9177 167.979 56.3727 167.902 52.8367 168.104C50.1905 168.383 47.5226 168.547 44.8548 168.663C43.9857 168.66 43.1198 168.55 42.2737 168.337C41.7748 168.337 41.2542 167.801 40.8421 167.917C38.5647 168.617 37.003 167.102 35.2244 166.1C34.4168 165.698 33.7507 165.028 33.3249 164.189C32.8991 163.35 32.7362 162.385 32.8602 161.438C33.4242 157.43 31.4287 154.447 30.0405 151.067C29.6058 150.232 29.0239 149.496 28.3271 148.9C27.6113 148.154 26.7437 147.548 25.9845 146.826C23.2264 144.161 19.691 142.612 15.9855 142.444C15.1019 142.42 14.2258 142.263 13.3827 141.978C11.8966 141.58 10.6004 140.605 9.7434 139.241C8.88644 137.877 8.52945 136.22 8.74104 134.59C8.8758 132.789 8.68427 130.976 8.17708 129.253C10.0641 126.433 9.95565 122.914 10.6063 119.628C10.7365 118.999 9.80382 118.253 10.6063 117.507C11.8427 116.435 11.2137 115.34 10.4762 114.174C11.192 112.753 12.6452 111.355 11.1703 109.513C11.0619 109.374 11.1703 108.977 11.1703 108.768C11.4495 108.076 11.5426 107.314 11.439 106.568C11.3355 105.823 11.0395 105.123 10.5846 104.549C9.75671 103.431 9.27854 102.061 9.21823 100.634C10.0424 100.168 10.9534 99.7482 11.7776 99.1889C12.6018 98.6296 12.8838 97.6741 12.3415 96.3923C11.6145 94.1485 11.4207 91.7452 11.7776 89.4006C12.5435 87.5906 12.8788 85.6045 12.7536 83.6207C12.7536 81.9893 13.7297 80.3813 12.7536 78.6334L11.3004 78.4236C11.2783 78.2223 11.2783 78.0189 11.3004 77.8176C11.7993 75.6968 13.7731 74.5781 14.5539 72.3175L13.2308 69.9869C13.4911 69.5208 14.0768 68.9848 14.0768 68.4721C14.0768 66.4212 13.8815 64.3936 13.7948 62.366C13.732 61.7653 13.8316 61.158 14.0816 60.6166C14.3317 60.0751 14.7215 59.6226 15.2046 59.3129C16.3993 58.3117 17.1881 56.8535 17.4063 55.2425C17.6245 53.6315 17.2554 51.9922 16.3759 50.6666C15.8371 49.6815 14.9803 48.9433 13.9683 48.5923C15.1829 47.7999 16.8096 47.497 16.5494 45.5393C16.55 45.2652 16.6425 45.0005 16.8097 44.7935C17.3303 44.2342 18.3497 43.7681 18.3714 43.2087C18.4901 41.6438 18.3654 40.0685 18.0026 38.5476C17.6142 37.6848 17.5437 36.6962 17.8052 35.7799C18.0666 34.8636 18.6408 34.0874 19.4125 33.6068C21.5815 32.1152 22.0152 29.3418 22.8612 27.0346C23.3383 25.7295 22.6659 23.9349 22.5141 22.2336C23.1306 21.4464 23.8053 20.7137 24.5313 20.0429C25.2236 19.4657 26.0006 19.0167 26.8304 18.7144C31.3304 17.2298 36.005 16.445 40.712 16.3839C47.0455 16.2207 53.4006 16.1042 59.7341 15.8712C66.9568 15.5915 74.1796 15.172 81.424 14.9157C84.5907 14.7992 87.7575 14.9157 90.9242 15.0322C99.6002 15.0322 108.276 15.172 116.822 15.3352C118.991 15.3352 121.333 15.8712 123.589 15.9178C125.845 15.9644 128.122 15.778 130.4 15.6847C131.538 15.5529 132.682 15.4907 133.827 15.4983C137.758 15.6768 141.695 15.5288 145.605 15.0555C146.971 14.8924 148.381 15.0555 149.747 15.0555C150.251 14.9874 150.763 15.0514 151.239 15.2421C151.715 15.4329 152.141 15.7447 152.48 16.1509C152.79 16.4906 153.168 16.7493 153.585 16.9069C154.003 17.0645 154.449 17.1168 154.888 17.0598C158.814 17.0598 162.74 17.1763 166.666 17.2462C167.301 17.2808 167.938 17.2808 168.574 17.2462C169.826 17.0197 171.109 17.079 172.339 17.4203C173.568 17.7616 174.717 18.3772 175.71 19.2272C177.145 20.1239 178.811 20.4998 180.46 20.2993C181.198 20.2993 181.87 20.1361 182.261 21.2315C182.391 21.6277 183.605 21.8374 184.299 21.7442C189.45 21.1618 194.654 21.4528 199.721 22.6065C201.152 22.8862 202.801 22.6065 204.189 23.9116L200.263 25.2401C199.873 27.7338 202.562 26.4287 202.953 27.8736C202.779 28.0834 202.627 28.4096 202.454 28.4096C199.293 28.6369 196.173 29.3028 193.171 30.3906C191.946 30.7427 190.686 30.9306 189.418 30.9499C188.654 30.9133 187.894 31.0946 187.216 31.4752C186.538 31.8559 185.966 32.4224 185.557 33.1174C185.115 33.9389 184.953 34.9003 185.1 35.8362C185.246 36.7721 185.692 37.6238 186.36 38.2446C189.375 38.4544 192.65 38.804 195.947 38.8739C203.799 39.037 211.672 39.1302 219.524 39.1302C228.785 39.1302 238.047 38.9205 247.309 38.8506C249.716 38.8506 252.124 38.8505 254.531 39.037C264.812 39.3866 275.094 39.6896 285.353 40.1091C292.077 40.3888 298.779 40.8782 305.503 41.2045C311.706 41.4841 317.931 41.6706 324.134 41.8337C325.142 41.8293 326.14 42.0516 327.063 42.4863C328.131 42.8795 329.252 43.0842 330.381 43.0922C335.196 43.5117 339.99 43.9079 344.805 44.2808C348.449 44.5279 352.031 45.4095 355.411 46.8911C355.876 47.1102 356.364 47.2667 356.865 47.3571C358.622 47.3917 360.306 48.122 361.593 49.408C362.07 49.9208 363.068 49.8509 363.762 50.2237C364.456 50.5966 365.389 51.4123 366.365 52.1581C365.725 53.2653 365.361 54.5307 365.308 55.8327C365.255 57.1347 365.514 58.4295 366.061 59.5926C365.411 60.5058 364.817 61.4634 364.283 62.4592C363.954 63.0468 363.78 63.7195 363.78 64.4052C363.78 65.0909 363.954 65.7636 364.283 66.3512C364.659 66.9009 364.904 67.5409 364.998 68.2157C365.059 68.8274 365.269 69.4107 365.609 69.9062C365.948 70.4017 366.403 70.7915 366.929 71.0357C367.243 71.3471 367.52 71.6994 367.753 72.0845C367.319 73.0167 366.82 73.9489 366.452 74.9278C366.196 75.4857 366.145 76.1267 366.31 76.7229C366.475 77.3191 366.843 77.8265 367.341 78.1439C368.295 78.8082 369.296 79.3925 370.334 79.8918C370.856 80.1366 371.32 80.5062 371.69 80.9722C372.059 81.4383 372.325 81.9887 372.468 82.5818C372.61 83.1748 372.624 83.7949 372.51 84.3948C372.396 84.9948 372.156 85.559 371.809 86.0445C371.152 86.8701 370.557 87.7508 370.03 88.6781C369.558 89.9025 369.153 91.1553 368.816 92.4303C370.508 94.4113 372.655 93.6888 374.52 93.782C375.041 94.7609 374.52 95.1803 373.978 95.4833C373.436 95.7863 372.46 96.4855 372.655 97.6508C372.807 97.8372 372.915 98.1169 373.11 98.2334C373.739 98.5597 374.737 98.2334 374.715 99.5385C374.726 99.8802 374.63 100.216 374.441 100.491C374.252 100.766 373.981 100.964 373.674 101.053C372.937 101.31 372.134 101.566 372.178 102.592C372.196 103.006 372.339 103.403 372.585 103.723C372.832 104.042 373.168 104.267 373.544 104.363C377.188 105.528 377.882 108.814 378.489 112.263C378.55 113.039 378.55 113.818 378.489 114.594C378.489 116.086 378.489 117.554 378.489 118.276C379.943 119.954 380.962 121.166 382.025 122.331C382.944 123.474 384.162 124.292 385.52 124.678C386.878 125.065 388.313 125.002 389.638 124.499C390.484 124.196 391.352 124.009 392.197 123.8C392.476 123.836 392.748 123.923 393 124.056C391.699 124.825 390.484 125.454 389.356 126.247C388.525 126.878 387.755 127.596 387.057 128.391C386.905 128.554 387.057 129.09 387.057 129.44L387.079 129.58ZM81.9662 174.559V174.21L77.9536 174.396V174.769L81.9662 174.559ZM74.9604 174.233L75.2423 174.093L74.9604 173.977V174.233ZM85.1547 174.233H84.8727C84.8727 174.233 84.8727 174.373 84.8727 174.443H85.133C85.133 174.443 85.133 174.35 85.1547 174.28V174.233ZM74.3097 0C74.0755 0.0159689 73.8432 0.0550176 73.6156 0.116571C73.6156 0.256405 73.8108 0.536033 73.8976 0.512727C74.1222 0.464459 74.3359 0.369465 74.5266 0.233071C74.5266 0.233071 74.3097 0.0233512 74.2446 0.0466568L74.3097 0ZM141.549 215.904C141.549 215.904 141.245 216.23 141.245 216.416C141.245 216.603 141.483 217.022 141.527 216.999C141.882 216.866 142.224 216.694 142.546 216.486C142.216 216.315 141.875 216.167 141.527 216.044L141.549 215.904ZM387.079 129.58L388.684 129.696V129.393L387.1 129.556L387.079 129.58ZM0.607316 133.798C0.607316 133.798 0.75914 133.541 0.73745 133.518C0.71576 133.495 0.47712 133.192 0.346981 133.192C0.216841 133.192 0.10845 133.448 0 133.588C0.195653 133.679 0.399042 133.749 0.607316 133.798Z" fill="url(#paint0_linear_9_543)"/>
<defs>
<linearGradient id="paint0_linear_9_543" x1="28.9711" y1="106.961" x2="376.052" y2="106.961" gradientUnits="userSpaceOnUse">
<stop stop-color="#DEB457"/>
<stop offset="0.23" stop-color="#E2BF63"/>
<stop offset="0.41" stop-color="#D6AB47"/>
<stop offset="0.59" stop-color="#AE8225"/>
<stop offset="0.77" stop-color="#CF9E25"/>
<stop offset="1" stop-color="#B48A2D"/>
</linearGradient>
</defs>
</svg>
