<svg width="326" height="108" viewBox="0 0 326 108" fill="none" xmlns="http://www.w3.org/2000/svg">
<path d="M0.333333 11.5C0.333333 17.391 5.10896 22.1667 11 22.1667C16.891 22.1667 21.6667 17.391 21.6667 11.5C21.6667 5.60896 16.891 0.833333 11 0.833333C5.10896 0.833333 0.333333 5.60896 0.333333 11.5ZM77.5 96.5L75.9248 97.7324L76.5254 98.5H77.5V96.5ZM303.833 96.5C303.833 102.391 308.609 107.167 314.5 107.167C320.391 107.167 325.167 102.391 325.167 96.5C325.167 90.609 320.391 85.8333 314.5 85.8333C308.609 85.8333 303.833 90.609 303.833 96.5ZM9.42479 12.7324L75.9248 97.7324L79.0752 95.2676L12.5752 10.2676L9.42479 12.7324ZM77.5 98.5H314.5V94.5H77.5V98.5Z" fill="#B64C4A"/>
</svg>
