<svg width="336" height="112" viewBox="0 0 336 112" fill="none" xmlns="http://www.w3.org/2000/svg">
<path d="M314.333 11C314.333 16.891 319.109 21.6667 325 21.6667C330.891 21.6667 335.667 16.891 335.667 11C335.667 5.10896 330.891 0.333333 325 0.333333C319.109 0.333333 314.333 5.10896 314.333 11ZM177.757 101V103H178.32L178.8 102.706L177.757 101ZM0.333333 101C0.333333 106.891 5.10896 111.667 11 111.667C16.891 111.667 21.6667 106.891 21.6667 101C21.6667 95.109 16.891 90.3333 11 90.3333C5.10896 90.3333 0.333333 95.109 0.333333 101ZM323.957 9.29353L176.714 99.2935L178.8 102.706L326.043 12.7065L323.957 9.29353ZM177.757 99H11V103H177.757V99Z" fill="#93B154"/>
</svg>
