<svg width="191" height="68" viewBox="0 0 191 68" fill="none" xmlns="http://www.w3.org/2000/svg">
<path d="M186.441 28.82C186.731 29.16 186.441 29.54 186.871 29.82C187.411 29.76 187.751 29.24 188.631 29.68C188.631 30.14 188.631 30.68 188.631 31.23C188.629 31.351 188.602 31.4704 188.551 31.58C188.551 31.58 188.401 31.67 188.201 31.78C188.081 31.39 187.971 31.06 187.841 30.68L187.011 30.6C185.801 31.16 187.761 31.41 187.271 31.92L185.981 32.26C186.411 32.59 186.981 32.41 187.561 32.46L188.271 32.13C188.381 32.19 188.611 32.26 188.621 32.34C188.621 32.69 188.501 33.06 189.171 33.34C189.321 33.41 189.231 33.66 189.251 33.8C188.701 34.08 188.131 33.8 187.671 33.96C187.462 33.7836 187.212 33.6642 186.944 33.6134C186.676 33.5626 186.399 33.5821 186.141 33.67L185.931 34.12L187.311 34.48V34.88L186.001 35.23C186.471 35.55 187.071 35.36 187.641 35.42L188.291 34.66L189.291 35.23L188.701 35.61V36.7L189.131 36.96C189.201 37.06 189.331 37.16 189.341 37.27C189.341 37.7 189.341 38.13 189.341 38.57L187.861 38.96L189.121 39.16C189.189 39.3625 189.301 39.5471 189.451 39.7C189.671 39.9 190.101 40.03 189.921 40.5L189.081 40.93H187.491L187.211 39.86C186.701 40.24 186.701 40.24 186.711 41.51L188.411 42L189.691 41.33C189.781 41.33 189.931 41.42 189.931 41.47C189.931 41.95 189.931 42.47 189.931 42.91L190.641 43.35V44.18L189.871 44.92C188.681 45.15 188.381 44.24 187.461 44.75C187.461 45.03 187.961 45.08 188.201 45.34L189.701 45.4C189.991 45.64 190.631 45.74 190.701 46.22C190.311 46.68 189.231 46.96 188.761 47.43V48.17L189.321 48.48L189.421 49.67L190.711 49.93L190.041 50.35L190.791 50.8L189.511 52.23L189.991 52.56V53.29L189.401 53.66L190.031 54.04V54.76L189.381 55.15C189.121 55.55 189.841 55.67 190.091 56.03L189.431 56.71V58.19C189.271 58.65 188.431 58.75 188.741 59.19L189.331 59.57L188.711 59.95V60.56L187.761 61.56H187.071L186.431 60.81C185.901 61.16 185.911 61.71 185.031 61.88L184.371 61.58C183.371 62.04 184.521 62.21 184.721 62.58L183.481 62.79L181.231 64.1C179.901 64.19 179.381 64.88 178.441 65.28H175.821L174.601 65.97H171.631L171.211 65.34C170.581 65.45 170.341 65.88 169.811 65.97C169.338 66.0015 168.88 66.1419 168.471 66.38H163.831L163.401 66.63C163.281 66.63 163.201 66.75 163.121 66.75H159.861C159.558 66.9391 159.221 67.0658 158.869 67.1224C158.517 67.1791 158.157 67.1647 157.811 67.08L157.341 66.82C157.25 66.7895 157.156 66.7694 157.061 66.76C156.731 66.76 156.401 66.76 156.061 66.76C155.721 66.76 155.251 66.76 155.151 66.83C154.551 67.37 153.151 66.83 152.641 67.47L151.641 67.04L150.591 67.49H146.961H146.651L146.101 67.8H144.001L143.331 67.5L142.801 67.79H134.061L133.491 67.48H126.881L126.201 67.83L125.741 67.58C125.548 67.5271 125.35 67.4936 125.151 67.48H121.581L121.001 67.81H118.201L117.681 67.51H113.631L113.071 67.83L112.361 67.49H110.411L109.721 67.84L109.141 67.52H106.541L105.541 67.05L104.251 67.45H97.0706C96.7906 67.45 96.6106 66.98 95.8606 67.13L95.1805 67.46L94.4806 67.11H93.2006L92.3705 66.68L90.8906 67.1H88.5905L87.9506 67.45H84.6306L82.4005 66.75H79.9806L79.2606 66.38L78.7906 66.64C78.715 66.6902 78.6299 66.7242 78.5406 66.74H64.8006L64.0506 67.09L63.5406 66.8L62.3006 67.18L61.4506 66.75H59.4506L58.7606 67.11H57.4605L56.7706 66.76H53.4605L52.9005 67.07H50.2006L49.4305 66.73H42.2405L41.6306 66.39H35.0806L34.3105 66.01H30.5305L31.3006 65.47L30.7505 65.11C30.8605 64.9 31.4706 64.84 31.0406 64.26C30.9306 64.1 31.2806 64.26 31.3306 64.36C31.4606 64.78 31.7106 64.46 32.1306 64.36C31.7206 64.08 32.4306 63.69 31.6606 63.43C31.3506 63.6 31.0406 63.78 31.0406 64.24C31.0406 64.52 30.7006 64.52 30.3806 64.52L29.5706 64.1L29.2505 65.15C29.1665 65.1976 29.0753 65.2314 28.9806 65.25H25.9806L24.1406 64.73L26.2105 63.98C24.6905 63.73 24.6905 63.73 22.2105 64.51C21.3405 64.51 21.0906 64 20.5806 63.81L19.4605 63.68L20.1006 63.24C19.8706 62.86 18.8805 62.78 18.8405 62.3H19.8405C20.4005 62.07 20.0805 61.74 20.1805 61.42L19.2505 60.85H16.6306L15.5605 60.28V59.5L13.0305 58.86C13.0212 58.5372 12.9289 58.2223 12.7625 57.9456C12.5961 57.6688 12.3613 57.4396 12.0806 57.28C11.4306 56.82 10.9305 56.28 10.2805 55.78V54.2L8.36057 52.13V50.7L11.0305 50.02L8.26056 48.92V48.15L7.04056 47.46V45.16L8.24054 44.92C8.09054 44.57 7.57054 44.71 7.24054 44.62C6.75054 44.38 7.10056 44.05 6.98056 43.76L5.63055 43.01C5.40055 42.6 6.01056 42.45 6.35056 42.15L5.72055 41.51L6.18054 41.18C6.23054 40.79 6.57057 40.34 5.61057 40.12V39.33L6.24054 38.95L5.57056 38.55V37.85L4.96054 37.46V34.88L5.58057 34.53V33.43L6.27057 33.04V30.79L7.53055 30.53C7.15055 29.93 6.03055 29.92 5.31055 29.62C4.59055 29.32 4.48055 28.62 3.66055 28.29V26.43L4.23056 26.04V25.32L3.63055 24.94V23.8L4.41055 23.65C4.75055 23.65 5.01054 23.51 4.93054 23.31C5.54054 23.02 5.52055 23.84 6.19055 23.52V21.96L5.66055 21.66C5.38055 20.99 5.87057 20.26 5.36057 19.54L4.36057 20.12C4.56057 20.37 5.22054 20.5 4.96054 20.88L4.32056 21.25L4.97055 21.64V23.31C4.64055 23.31 4.31055 23.31 3.97055 23.31L2.97055 22.77V20.9L3.59055 20.51V19.37L2.49054 19.16C2.42054 19.06 2.29056 18.95 2.29056 18.84C2.29056 18.17 2.29056 17.5 2.29056 16.84L1.69055 16.51L1.59055 15.78L0.880554 15.18L1.71054 14.45L1.06055 13.88C1.45055 13.47 2.13055 13.79 2.69055 13.75L3.86057 14.4C4.63057 14.26 4.12057 13.91 4.30057 13.62L3.68054 13.15V12.31C3.97677 12.2518 4.27924 12.2317 4.58057 12.25C4.8301 12.3264 5.06623 12.4411 5.28055 12.59C5.83055 12.34 5.49056 12.01 5.60056 11.71L4.96054 11.32L5.60056 10.92V9.82L6.54056 9.29C7.71056 9.79 5.96055 10.06 6.31055 10.57L7.10056 11.05L8.69055 10.68C9.10055 10.29 8.80055 9.86 8.91055 9.45C9.68055 9.03 10.5506 9.45 11.4506 9.2L11.5905 10.59C12.0305 10.88 12.5905 10.69 13.1505 10.75L14.5406 10.01C14.9906 10.01 15.4606 10.01 15.5406 9.56L14.9305 9.08L15.5106 8.72L14.9005 8.33L16.0206 7.71L17.2006 8.66L17.7306 7.86L19.1606 8.26L19.6505 7.52C19.9905 7.3 20.5806 7.52 21.1006 7.43L21.8206 7.8H22.5005C22.7006 7.55 22.9206 7.3 23.2006 6.96L24.5305 7.39L25.0605 7.09L25.7505 7.4L26.4005 7.09C26.7905 7.15 26.8905 7.49 27.4005 7.38C27.5105 7.61 27.4606 7.9 28.0406 7.65C27.8333 7.54628 27.6195 7.45609 27.4005 7.38C27.5208 7.31018 27.6207 7.21022 27.6906 7.09H29.6306L30.4106 6.72L31.0806 7.04L32.4406 6.34L33.0005 6.65H35.0005L36.0005 6.3L37.2906 6.69C38.2206 6.69 38.3605 6.11 39.0905 5.97C39.8205 5.83 39.9806 6.2 40.3806 6.31H41.6306L42.1706 6L43.2505 6.37L44.3506 5.97H47.4605L48.1906 5.6L49.5406 6.31C50.2906 6.46 50.4905 6.03 51.1805 5.93L52.1805 6.26L52.7405 5.62H53.4206L54.1406 5.99H55.4406L56.2505 5.58L56.5806 6.65C57.5006 6.65 56.7906 6.15 57.5106 6.03L58.8405 5.95C59.0105 5.73 59.1605 5.52 59.3405 5.27L60.0806 5.61H63.3606L64.0506 5.26H71.2706L71.9806 4.9L72.5605 5.22L73.3405 4.9H77.3405L77.6205 4.52H79.2505L79.9506 4.88L80.5506 4.55H86.4905L87.1406 4.18L87.8405 4.48L88.5305 4.17H89.7706L90.5106 3.79H91.8105L92.5005 4.14L93.0806 3.82L95.1805 3.75L97.0806 2.69L98.3705 3.37L100.511 2.73L100.971 2.99L102.111 2.63L103.111 3.04H104.301L105.021 3.41L106.201 2.75C106.891 2.75 107.011 3.24 107.741 3.33L108.321 3.05H112.891L113.721 2.62L115.191 3.44L118.941 2.36L119.711 2.75L120.881 1.82L121.431 2.65H122.751L124.281 1.89C125.591 1.97 125.661 2.59 126.161 2.98L127.731 2.13L127.931 1.61C128.177 1.52374 128.442 1.50421 128.698 1.55339C128.955 1.60257 129.194 1.7187 129.391 1.89H130.751L131.441 1.53H132.991L134.091 2.39L134.631 1.57H136.121L136.671 1.87L137.341 1.57C137.781 1.67 138.021 2.04 138.791 1.87L139.151 1.28C139.611 1.04 140.151 1.23 140.701 1.15L141.161 0.890003C141.355 0.845353 141.552 0.815269 141.751 0.800003H143.981L144.631 1.08L146.931 0.420002H152.561L153.431 0L154.971 0.400002L155.221 0.740002H157.401L157.861 0.0300026L158.611 0.400002C159.551 0.400002 160.521 0.400002 161.331 0.400002C162.151 0.990001 160.331 1.25 161.081 1.75C161.321 1.82 161.321 1.82 162.821 0.940002L163.111 0.370003L164.051 0.43C164.761 1.06 162.821 1.36 163.691 2.04L162.601 2.6L162.031 2.28C161.361 2.36 161.191 2.77 160.611 2.91C160.301 2.99 159.801 2.91 159.661 3.18C159.761 3.23 159.841 3.31 159.921 3.31H163.971L164.351 2.68C164.534 2.59367 164.736 2.55398 164.938 2.56445C165.14 2.57491 165.337 2.63522 165.511 2.74L164.901 3.14L167.631 3.9L166.351 4.16C166.591 4.85 168.011 4.72 168.611 5.16C169.004 5.18853 169.397 5.09041 169.731 4.88C170.099 4.76703 170.478 4.68672 170.861 4.64L170.121 4.19L170.401 3.67L171.831 4.41L172.481 4.1L173.481 4.59C173.621 4.92 173.271 5.24 173.821 5.53L174.421 4.83L175.811 5.27L178.751 6.91L179.031 7.4L179.791 7.02L181.011 7.7C181.491 8.17 181.711 8.35 181.881 8.56C182.046 8.77925 182.197 9.00981 182.331 9.25L183.751 8.5L184.481 8.87H185.851L186.101 9.36L185.411 9.77L186.091 10.19C185.689 10.2299 185.294 10.3137 184.911 10.44C184.557 10.6184 184.167 10.7141 183.771 10.72C183.621 10.72 183.481 10.99 183.411 11.05C183.481 11.61 184.311 11.34 184.681 11.56C185.115 11.7434 185.567 11.8808 186.031 11.97V12.71C185.901 12.91 185.291 12.97 185.401 13.32C185.027 13.1992 184.66 13.059 184.301 12.9L184.041 13.36L185.261 14.28C185.351 13.74 185.391 13.51 185.401 13.28C185.585 13.2669 185.77 13.2977 185.941 13.37C186.207 13.6885 186.454 14.0224 186.681 14.37V15.57L187.521 16.21L186.741 16.78L187.161 17C187.241 17.12 187.361 17.23 187.371 17.34C187.371 18.13 187.371 18.92 187.371 19.66L186.681 20.18C186.821 20.71 187.681 20.78 187.981 21.5V24.4L188.621 24.86L188.071 25.24V26.24L187.421 26.65C188.131 26.92 188.001 27.49 188.661 27.82C188.881 27.92 188.661 28.28 188.661 28.51L187.721 29.03C187.312 28.8904 186.895 28.7801 186.471 28.7C186.571 28.22 186.861 27.7 186.551 27.3C186.423 27.2614 186.293 27.2346 186.161 27.22L183.651 27.84L185.861 28.03C185.974 28.3437 186.175 28.6181 186.441 28.82ZM13.5605 56.46C13.7405 56.46 14.0606 56.4 14.0806 56.34C14.1706 56.12 13.8805 56.08 13.5605 56.09C13.4405 55.86 13.8806 55.52 13.1706 55.39C12.8806 55.87 12.8805 55.87 13.5605 56.09V56.46C13.3805 56.46 13.0606 56.52 13.0406 56.59C13.0206 56.66 13.2405 56.84 13.5605 56.83C13.6805 57.07 13.2406 57.4 13.9506 57.54C14.2406 57.05 14.2405 57.05 13.5605 56.83V56.46ZM20.2405 54.35C20.0905 54.07 20.1406 53.78 19.5706 54.03C19.7568 54.1288 19.9551 54.2028 20.1606 54.25C20.2906 54.49 19.8506 54.82 20.5506 54.95C20.8406 54.47 20.8405 54.47 20.2405 54.35ZM53.2405 53.98C53.1005 53.7 53.1406 53.41 52.5706 53.66C52.7568 53.7588 52.9551 53.8328 53.1606 53.88C53.5606 54.26 53.5606 54.26 54.4706 54.09C54.1805 53.76 53.6306 53.92 53.2706 53.98H53.2405ZM187.241 43.19C187.921 42.97 187.921 42.97 187.621 42.46C187.031 42.64 187.321 42.94 187.431 43.15C186.921 43.23 186.431 43.2 186.851 43.52C187.025 43.4476 187.179 43.3344 187.301 43.19H187.241ZM182.041 30.39C181.891 30.1 181.941 29.82 181.361 30.07C181.551 30.1661 181.753 30.2399 181.961 30.29C182.351 30.66 182.351 30.66 183.231 30.5C183.041 30.08 182.441 30.35 182.101 30.39H182.041ZM49.1606 50.83C49.3006 51.11 49.2606 51.4 49.8306 51.15C49.6499 51.0544 49.4586 50.9806 49.2606 50.93L49.1505 50.19L47.8105 50.27L48.1306 50.93C48.4771 50.9598 48.8262 50.9259 49.1606 50.83ZM179.961 9.54C180.111 9.82 180.061 10.11 180.641 9.86C180.551 9.80309 180.447 9.77287 180.341 9.77287C180.234 9.77287 180.13 9.80309 180.041 9.86V9.08L180.741 8.66C180.671 8.5 180.591 8.34 180.531 8.19H178.931C178.581 8.52 178.741 8.81 178.781 9.1C179.135 9.33468 179.539 9.48518 179.961 9.54ZM43.6306 52.8C44.5748 52.8217 45.5196 52.7917 46.4605 52.71L46.9806 51.85L48.0706 52.71C49.9406 52.71 51.4606 52.71 52.9806 52.71C53.0606 52.71 53.1306 52.63 53.3006 52.52L51.4305 52.33L50.2405 51.67H46.9605C46.2148 51.3511 45.6105 50.7717 45.2606 50.04C45.2606 49.95 44.9605 49.9 44.8705 49.85H43.5706L42.7306 50.34L43.8506 51.55L43.3105 51.84L44.6106 52.2C44.3906 52.34 44.1806 52.47 44.1406 52.73C43.6306 52.81 43.1406 52.79 43.5706 53.11C43.7106 53.01 43.8606 52.91 43.6306 52.8ZM13.5605 38.08C13.7005 38.46 12.1006 38.65 13.2206 39.17H14.0406L14.4706 38.47L15.4706 38.56L14.9806 39.11C15.1628 39.2047 15.3652 39.2541 15.5706 39.2541C15.7759 39.2541 15.9783 39.2047 16.1606 39.11V38.74C16.8638 38.6345 17.5321 38.3637 18.1106 37.95L17.5305 37.63V36.08L16.5305 35.47H15.8306L15.1706 34.7L14.1706 34.86C14.1706 35.5 14.1706 36.11 14.1706 36.72C14.1706 36.79 13.9206 36.85 13.7906 36.91L13.2505 36.61C13.0479 36.7286 12.8334 36.8258 12.6106 36.9C12.2606 37 11.7306 36.9 11.5506 37.2C11.5506 37.3 11.5506 37.42 11.6106 37.54L13.5605 38.08ZM45.2706 49.08V47.44L44.6306 47.08L45.2306 46.69C44.7701 46.6526 44.3227 46.5183 43.9178 46.296C43.5128 46.0737 43.1593 45.7684 42.8806 45.4L42.0305 45.52V47.52L43.2606 48.21C43.4006 48.49 43.0606 48.81 43.5406 49.1L45.2706 49.08ZM172.111 17.2C172.111 16.71 172.111 16.2 172.111 15.73C172.111 15.73 171.961 15.65 171.811 15.58H171.021L170.571 16.29L169.831 15.93C168.831 16.31 170.011 16.58 170.001 16.93L169.481 17.22C169.881 17.36 170.021 17.67 170.571 17.72L171.201 17.37L172.201 17.96L171.891 18.42C171.271 18.62 170.671 18.35 170.021 18.74L171.231 19.25C172.441 19.25 172.441 19.25 172.771 19.05C172.691 18.54 172.831 18.05 172.771 17.57L172.111 17.2ZM18.6306 50.23L19.5005 49.62V48.9L18.3306 48.24L17.9305 47.58L16.9305 47.69V49.3L17.5605 49.65V51.29L19.5106 50.77L18.6306 50.23ZM16.8105 33.83C16.9505 33.3 16.2305 33.23 16.2505 33.03C16.2505 32.67 15.8806 32.51 15.5206 32.29C15.354 32.1926 15.1673 32.1347 14.9749 32.1208C14.7824 32.1069 14.5893 32.1375 14.4106 32.21C14.0706 32.41 14.2705 32.66 14.2405 32.89C14.2004 33.1283 14.2004 33.3717 14.2405 33.61C14.2405 33.83 14.0406 34.09 14.5106 34.31H15.8906L16.8105 33.83ZM14.7505 25.83C14.7505 25.28 14.7506 25.23 14.2906 24.83V23.44C15.1006 22.84 15.1205 22.74 14.5005 22.58L14.0206 22.85L12.9206 23.85V24.77L13.9206 25.77L14.7505 25.83ZM13.5706 27.37V28.83L14.5206 29.83C14.8906 29.83 15.3106 29.95 15.5206 29.63L15.0305 29.36C15.4005 29.03 15.8105 28.66 15.5605 28.27C15.2674 27.8988 14.9318 27.5632 14.5605 27.27L13.5706 27.37ZM146.041 16.37C144.841 16.48 145.291 17.29 144.401 17.59C144.321 17.59 144.121 18.06 144.821 18.05L145.961 17.42L146.871 17.32C146.931 17.16 146.971 17.05 147.081 16.78L146.041 16.37ZM11.9305 43.57L12.5506 42.83C13.1306 42.76 13.7206 42.95 14.1906 42.65C13.482 42.5247 12.8035 42.2669 12.1906 41.89C12.0353 41.7896 11.8554 41.7343 11.6706 41.73C11.4069 41.7532 11.1458 41.8001 10.8906 41.87L11.5905 42.33C11.9005 42.73 11.1505 43.21 11.9305 43.57ZM12.6306 21.48L13.4905 20.88L12.8606 20.49C12.8606 19.58 12.8606 19.58 12.3806 19.31C12.3206 19.31 12.2105 19.4 12.2105 19.44C12.2105 20.29 12.2105 21.13 12.2105 21.97C12.2105 21.97 12.3306 22.06 12.5106 22.18L13.6306 22.08L12.6306 21.48ZM41.2606 49.65C41.3506 49.14 40.7205 48.93 40.0305 48.7L39.1906 48.9C39.4706 49.31 39.0406 49.74 39.5005 50.13L41.2606 49.65ZM179.071 12.21C178.511 12.47 178.541 12.91 178.761 13.06C179.401 13.47 179.281 14.21 180.501 14.36C181.291 13.9 180.211 13.75 180.001 13.36V12.8L179.071 12.21ZM21.4905 33.42C21.6005 33.71 21.2506 34.03 21.7306 34.29C22.8906 34 22.9306 33.29 23.5106 32.8L23.1205 32.51L21.4905 33.42ZM173.371 6.88L174.481 6.33C173.421 6.42 172.771 6.11 172.111 6.51V6.74L173.111 7.5L174.201 7.27L173.371 6.88ZM184.051 31.34C184.651 30.66 185.401 30.71 186.051 30.48L185.791 29.83C185.171 30.03 184.591 29.76 184.091 30.07L184.051 31.34ZM183.721 15.88C183.721 15.88 183.251 15.88 183.341 16.35C183.681 16.7362 184.158 16.9762 184.671 17.02C185.241 17.02 185.331 16.82 185.331 16.4L183.721 15.88ZM173.631 32.47C173.331 34.28 173.331 34.28 173.871 34.64C173.941 34.64 174.061 34.55 174.061 34.51C174.061 33.9 174.061 33.29 174.061 32.69C174.081 32.65 173.931 32.61 173.631 32.47ZM20.7706 62.47C22.0906 63.19 22.1906 63.21 22.7706 62.87V62.51L20.9206 61.98L20.7706 62.47ZM46.0305 25.83L45.8105 25.19C45.1788 25.029 44.5119 25.0781 43.9106 25.33L44.0905 25.83H46.0305ZM9.26056 43.16C8.73056 43.51 8.95056 43.83 8.95056 44.16C8.95056 44.49 8.73056 44.76 9.23056 45.09L10.3705 44.97L9.76056 44.61C9.39056 44.08 9.87056 43.63 9.26056 43.16ZM9.76056 42.33L9.11057 42C8.76057 41.62 9.18056 41.3 8.61057 41C8.29057 41.19 7.94054 41.37 7.46054 41.66C8.68054 41.66 7.99056 42.21 8.64056 42.49L9.76056 42.33ZM17.4605 42.79C16.6905 42.88 16.1205 42.7 15.5305 43L15.7206 43.58C16.3806 43.5 16.9405 43.68 17.4605 43.41V42.79ZM42.4605 43.85C42.1226 43.8958 41.7884 43.966 41.4605 44.06C41.3405 44.06 41.3606 44.26 41.2906 44.46L42.5005 44.94C42.8905 44.74 42.6306 44.39 42.4806 43.85H42.4605ZM15.3906 44.46C16.0855 44.7096 16.8456 44.7096 17.5406 44.46L16.8006 44.05L15.3906 44.46ZM39.6306 42.87C39.3206 44.31 39.3206 44.31 39.8506 44.62C39.9856 44.3379 40.0367 44.023 39.9977 43.7127C39.9587 43.4024 39.8312 43.1099 39.6306 42.87ZM16.2006 9.46C16.4001 9.59894 16.6374 9.67343 16.8806 9.67343C17.1237 9.67343 17.361 9.59894 17.5605 9.46L17.3606 8.92L16.2006 9.05V9.46ZM11.5206 53.36C12.0306 53.43 12.1006 53.81 12.6906 53.82C12.9206 53.12 12.9006 53.12 12.4706 52.82L11.5206 53.36ZM10.2606 20.91C10.4655 21.0345 10.7007 21.1003 10.9406 21.1003C11.1804 21.1003 11.4156 21.0345 11.6205 20.91L11.4206 20.35L10.2606 20.49V20.91ZM40.6306 26.08C40.9254 26.2156 41.2461 26.2858 41.5706 26.2858C41.8951 26.2858 42.2157 26.2156 42.5106 26.08L41.7105 25.43L40.6306 26.08ZM47.3006 49.17L48.6006 49.03L48.3705 48.34L47.3006 48.46V49.17ZM10.9605 51.75L12.2706 51.61L12.0406 50.92L10.9605 51.04V51.75ZM183.391 28.89C183.477 28.9963 183.574 29.0935 183.681 29.18L184.291 29.57C184.811 29.29 184.811 29.05 184.291 28.79L183.391 28.89ZM17.3906 53C19.0206 53.16 19.0206 53.15 19.3906 52.89C18.7145 52.6936 17.9917 52.7323 17.3405 53H17.3906ZM182.631 37.08C182.943 37.2285 183.285 37.3055 183.631 37.3055C183.977 37.3055 184.318 37.2285 184.631 37.08C184.319 36.9273 183.977 36.8479 183.631 36.8479C183.284 36.8479 182.942 36.9273 182.631 37.08ZM187.631 52.36C187.121 52.62 187.121 52.86 187.631 53.11C187.921 52.9 188.431 52.79 188.531 52.44L187.631 52.36ZM156.631 1.51C156.121 1.77 156.121 2.02 156.631 2.27C156.921 2.06 157.431 1.95 157.531 1.6L156.631 1.51ZM18.5106 44.66C17.9606 45.03 17.9606 45.4 18.5106 45.78C19.0706 45.4 19.0706 45.08 18.5106 44.66ZM40.6006 51.66H41.3206L41.8606 51.53C41.7806 51.45 41.7305 51.35 41.6205 51.29C41.5105 51.23 41.1806 51.05 40.8206 50.85L40.6006 51.66ZM4.63055 17.78C5.06055 17.45 5.25055 17.21 4.53055 17.06C4.19055 17.27 4.21055 17.48 4.63055 17.78ZM183.991 19.78C184.187 19.9078 184.416 19.9759 184.651 19.9759C184.885 19.9759 185.114 19.9078 185.311 19.78C185.117 19.6506 184.889 19.5815 184.656 19.5815C184.422 19.5815 184.194 19.6506 184.001 19.78H183.991ZM171.111 21.47C171.541 21.13 171.731 20.9 171.011 20.74C170.631 20.96 170.691 21.16 171.121 21.47H171.111ZM12.7706 32.55H12.3506C12.3077 32.7112 12.2743 32.8749 12.2505 33.04C12.2505 33.04 12.4105 33.17 12.4605 33.16C12.5105 33.15 12.8706 33.08 12.8806 33.03C12.867 32.8656 12.8299 32.7039 12.7706 32.55ZM10.5905 33.55C10.1105 33.8 10.1105 34.05 10.5905 34.29C11.0605 34.08 11.0606 33.85 10.6306 33.6L10.5905 33.55ZM21.8206 35.77C22.2906 35.52 22.2906 35.27 21.8206 35.03C21.3406 35.32 21.3406 35.57 21.8206 35.82V35.77ZM7.94055 37.61C7.47055 37.85 7.47055 38.1 7.94055 38.35C8.42055 38.15 8.42055 37.9 7.94055 37.66V37.61ZM188.021 37.79C187.421 37.55 187.021 37.45 186.721 37.85C186.921 37.9561 187.145 38.0108 187.372 38.009C187.599 38.0073 187.822 37.9492 188.021 37.84V37.79ZM55.1306 52.59C55.7306 52.83 56.1306 52.94 56.4206 52.54C56.2185 52.4399 55.9945 52.3921 55.7692 52.4008C55.5439 52.4095 55.3243 52.4746 55.1306 52.59ZM186.971 59.78C186.501 60.02 186.501 60.27 186.971 60.52C187.451 60.27 187.451 60.02 186.971 59.78ZM32.9706 64.65C33.1006 64.83 32.3106 65.13 33.1906 65.26C33.5006 65.08 33.4805 64.84 32.9305 64.65H32.9706ZM184.991 17.72C184.571 18.06 184.371 18.29 185.091 18.45C185.451 18.23 185.431 18.08 184.991 17.72ZM180.271 15.96L180.041 16.09C180.184 16.1405 180.331 16.1806 180.481 16.21C180.541 16.21 180.631 16.13 180.701 16.09L180.271 15.96ZM140.731 16.65C140.661 16.65 140.511 16.74 140.521 16.77C140.582 16.8572 140.652 16.9377 140.731 17.01C140.801 17.01 140.951 16.92 140.941 16.89C140.879 16.8028 140.809 16.7223 140.731 16.65ZM143.611 16.78L143.371 16.65C143.292 16.7197 143.225 16.8006 143.171 16.89C143.171 16.89 143.301 16.97 143.371 17.01L143.611 16.78ZM11.2505 21.44C11.1705 21.44 11.0306 21.53 11.0406 21.56C11.0506 21.59 11.1705 21.72 11.2505 21.81C11.3305 21.9 11.4706 21.72 11.4506 21.69C11.399 21.5956 11.3313 21.511 11.2505 21.44ZM20.4005 24.7L20.8306 24.57C20.7506 24.57 20.6606 24.45 20.6106 24.46C20.4612 24.4848 20.3141 24.5216 20.1706 24.57L20.4005 24.7ZM15.7805 25.81L16.2006 25.68C16.1306 25.68 16.0406 25.56 15.9806 25.56C15.8315 25.5907 15.6845 25.6307 15.5406 25.68L15.7805 25.81ZM173.201 25.92L172.771 26.05C172.841 26.05 172.931 26.17 172.991 26.16C173.139 26.1328 173.286 26.096 173.431 26.05L173.201 25.92ZM183.911 26.73L183.671 26.6C183.59 26.6735 183.519 26.7576 183.461 26.85C183.461 26.85 183.601 26.93 183.671 26.97L183.911 26.73ZM13.4605 34.08L13.2306 33.95C13.1496 34.0235 13.079 34.1076 13.0206 34.2C13.0206 34.2 13.1606 34.28 13.2306 34.32L13.4605 34.08ZM186.311 36.9C186.241 36.9 186.101 36.99 186.111 37.02C186.162 37.1144 186.23 37.199 186.311 37.27C186.391 37.27 186.531 37.18 186.521 37.15C186.466 37.0603 186.395 36.9822 186.311 36.92V36.9ZM188.391 40.54L188.631 40.4C188.483 40.3528 188.333 40.316 188.181 40.29C188.131 40.29 188.041 40.36 187.971 40.4L188.391 40.54ZM174.631 41.58L174.391 41.35C174.321 41.35 174.171 41.44 174.191 41.47C174.245 41.5594 174.312 41.6403 174.391 41.71L174.631 41.58ZM185.631 41.35C185.561 41.35 185.411 41.44 185.431 41.47C185.485 41.5594 185.552 41.6403 185.631 41.71C185.711 41.71 185.851 41.62 185.841 41.59C185.785 41.4981 185.714 41.4169 185.631 41.35ZM184.881 42.87L184.641 43C184.786 43.0551 184.937 43.0953 185.091 43.12C185.091 43.12 185.231 43.05 185.301 43L184.881 42.87ZM14.7805 44.43L14.5506 44.29C14.4743 44.3679 14.4041 44.4514 14.3405 44.54C14.3405 44.54 14.4806 44.62 14.5506 44.66L14.7805 44.43ZM13.4605 44.79L13.2306 44.66C13.152 44.7357 13.0816 44.8195 13.0206 44.91C13.0206 44.91 13.1606 44.99 13.2306 45.03L13.4605 44.79ZM40.5506 47.08L40.3105 46.85C40.2405 46.85 40.1006 46.94 40.1106 46.97C40.165 47.0594 40.2324 47.1403 40.3105 47.21L40.5506 47.08ZM174.001 48.93L173.761 48.69C173.691 48.69 173.541 48.78 173.561 48.81C173.612 48.9044 173.68 48.989 173.761 49.06L174.001 48.93ZM188.201 51.93L188.631 51.8C188.551 51.8 188.461 51.68 188.411 51.69C188.261 51.7148 188.114 51.7516 187.971 51.8L188.201 51.93ZM16.6306 52.35L16.8606 52.22C16.7167 52.1728 16.5697 52.136 16.4206 52.11C16.3606 52.11 16.2706 52.18 16.2006 52.22L16.6306 52.35ZM187.211 54.35L186.971 54.22C186.89 54.291 186.822 54.3756 186.771 54.47C186.771 54.47 186.901 54.55 186.971 54.59L187.211 54.35ZM47.2105 55.88C47.1405 55.88 47.0505 55.76 46.9905 55.76C46.8415 55.7907 46.6945 55.8307 46.5506 55.88C46.6206 55.88 46.7106 56 46.7706 55.99C46.9322 55.9744 47.0926 55.9476 47.2505 55.91L47.2105 55.88ZM187.831 55.88L187.601 55.64C187.521 55.64 187.381 55.73 187.391 55.76C187.442 55.8853 187.525 55.9954 187.631 56.08L187.831 55.88ZM22.1505 61.08C22.0705 61.08 21.9805 60.96 21.9305 60.96C21.7809 60.9881 21.6337 61.0282 21.4905 61.08C21.5605 61.08 21.6506 61.2 21.7006 61.19C21.853 61.164 22.0033 61.1272 22.1505 61.08ZM170.691 6.56L170.461 6.32C170.391 6.32 170.241 6.41 170.251 6.44C170.309 6.53244 170.38 6.61654 170.461 6.69L170.691 6.56Z" fill="white"/>
</svg>
