<svg width="2394" height="114" viewBox="0 0 2394 114" fill="none" xmlns="http://www.w3.org/2000/svg">
<path d="M2041.94 101.662C2030.82 101.875 2019.88 102.495 2009.45 103.504H1987.07L1980.64 104.45L1973.56 103.625H1955.24L1947.78 102.68L1926.53 102.535C1925.2 101.686 1928.13 101.662 1931.25 101.662C1934.36 101.662 1937.2 101.662 1936.63 101.007C1931.71 100.673 1926.57 100.591 1921.52 100.765L1914.72 101.613C1912.83 101.196 1910.54 100.914 1908.08 100.795C1905.63 100.676 1903.1 100.724 1900.74 100.935C1895.36 101.929 1902.35 103.359 1896.4 104.401C1887.52 103.941 1895.08 102.777 1891.2 101.977L1883.55 101.638L1876.09 102.632L1869.29 101.735C1862.49 101.371 1859.85 102.365 1855.6 102.656C1852.46 102.738 1849.29 102.738 1846.15 102.656C1839.54 102.292 1833.4 101.226 1826.22 101.783C1818.06 102.167 1810.19 102.879 1802.9 103.892C1801.44 104.157 1799.89 104.384 1798.27 104.571H1785.33L1778.62 103.674L1771.26 104.643C1762.47 104.449 1755.39 103.044 1745 103.819L1740.65 104.45L1728.47 103.456L1720.07 104.571H1687.86L1680.96 103.674L1676.34 104.328C1675.56 104.451 1674.69 104.534 1673.79 104.571H1603.52L1596.25 105.468C1588.6 105.855 1586.8 104.668 1579.62 104.522L1570.18 105.395L1564.23 104.522L1557.52 105.371L1550.82 104.498C1543.64 104.11 1541.37 105.201 1534.67 105.516L1517 104.765L1512.57 105.419H1416.04C1410.66 105.734 1408.49 106.777 1401.5 106.389L1394.7 105.468H1381.95L1375.05 106.364L1370.14 105.662C1364.41 105.222 1358.25 105.317 1352.76 105.928C1347.18 106.509 1341.03 106.62 1335.19 106.243L1329.06 105.346L1319.61 107.77L1304.4 105.54L1297.32 106.34H1260.77L1248.68 107.528L1237.82 106.437H1225.92L1219.31 107.334L1212.6 106.437H1199.85L1192.86 107.31L1187.29 106.486L1180.87 107.237L1170.29 106.243L1160.85 107.31L1153.2 106.268L1139.12 107.237H1082.45L1077.26 106.486L1069.33 107.407H1043.92L1038.16 108.231L1027.58 107.116L1018.14 108.279H965.435L959.674 107.455L951.93 108.279H933.04L926.807 109.201L920.006 108.376L913.3 109.249H900.55L892.617 108.182L876.183 109.249C864.566 109.249 846.432 109.249 828.96 109.249L823.104 110.097L816.209 109.322L809.598 110.122C804.769 110.279 799.882 110.279 795.053 110.122L790.898 108.376H782.869C781.736 108.861 780.414 109.394 779.186 109.952C777.338 110.095 775.44 110.193 773.519 110.243C755.197 110.243 736.78 110.243 718.646 110.243L711.657 111.164C706.934 110.267 707.69 108.74 697.679 108.546C690.028 109.613 700.04 110.073 701.551 110.825C697.206 111.528 691.351 111.043 686.251 111.212L678.789 112.206L675.673 110.922L682.095 109.831C678.695 108.982 677.467 108.982 666.039 110.267H638.649C637.799 111.697 649.889 110.728 649.7 111.746L633.077 113.006C630.715 112.795 628.557 112.457 626.748 112.014C624.939 111.57 623.522 111.033 622.593 110.437C615.887 110.606 613.149 111.552 607.199 112.206L599.076 110.267H581.981C580.848 110.509 579.242 110.752 578.865 111.018C577.259 111.988 582.265 113.152 575.181 114C568.664 113.03 575.181 111.843 569.703 110.485C567.86 109.973 565.489 109.605 562.864 109.425C560.239 109.245 557.469 109.259 554.875 109.467L549.68 111.503L539.008 109.297H509.163L497.357 111.964L487.912 111.067L477.712 111.988C471.667 111.697 469.684 110.364 461.562 110.267C460.334 109.637 464.773 108.788 457.689 108.449C455.328 108.982 449.945 109.2 449.85 110.17H461.562L453.156 112.594L437.383 113.782L425.105 111.091H398.943L403.477 108.91L396.865 107.673L403.76 106.558C402.532 106.171 401.21 105.419 400.171 105.419C391.388 105.419 386.287 103.916 377.032 104.377V102.971L370.326 101.929V100.086L360.881 98.7047H328.864L321.591 97.7351H303.835L280.696 95.7959H262.94L257.462 94.996H234.417L209.577 93.0568H190.688L180.016 90.9237L171.704 92.0388H158.954L152.059 91.0934H135.531L122.12 90.1481C117.042 89.9854 112.406 89.3253 109.18 88.3058C113.336 88.1362 118.625 88.3058 113.903 87.3847C112.229 87.6566 110.649 87.9648 109.18 88.3058C103.703 87.7726 97.2802 87.2878 89.4411 86.706L101.814 86.1243C105.119 85.6395 102.947 85.0092 103.514 84.4517C108.708 84.4517 113.903 84.4517 119.003 84.4517C120.231 84.4517 121.364 84.1124 122.592 83.9184C112.297 82.3429 112.108 82.3671 103.703 83.1185V84.4759H88.1189L81.602 85.3001C76.8797 84.888 72.1573 84.4517 71.2128 83.5306H87.4577C93.3134 82.7549 90.6689 81.8581 89.0633 80.743L80.1852 81.6157C78.2347 81.6851 76.2495 81.6521 74.3501 81.5188C72.4506 81.3855 70.6764 81.1545 69.135 80.84C63.6571 79.9431 63.3737 78.6099 55.5346 77.8585C49.7674 77.1722 44.2381 76.3613 39.0064 75.4345V73.5438L4.34447 68.5019L11.9946 66.8294L6.23338 65.884V52.6734L0 51.6795C2.17769 51.3793 4.20707 51.0131 6.04459 50.5888C7.08237 50.206 7.84955 49.7793 8.31122 49.3283H18.5115L34.9453 47.8254L25.5006 45.862V44.2622C21.1561 42.929 10.4836 44.2622 5.85566 43.1471C9.91328 42.4527 14.3769 41.9289 19.0782 41.5958L29.184 42.6381L37.5898 41.208V37.2811L24.6506 36.6267L45.9956 33.4997L35.7953 33.1361L27.7674 34.2027L24.5561 32.7968C28.6173 32.2877 32.3953 31.4151 36.4565 31.3666C49.5846 31.2454 49.1123 29.5729 54.2124 28.5063H82.5464L99.5469 25.6461H120.136L125.047 26.3732C125.797 26.4082 126.565 26.4082 127.314 26.3732C130.877 25.6895 134.826 25.15 139.026 24.7734C143.636 24.6852 148.101 24.3199 152.059 23.7069H171.799C179.732 24.6765 171.799 26.1308 176.238 27.1974C181.243 26.7368 181.243 26.7368 181.621 25.1855L187.76 24.1917L181.716 23.1978C187.382 22.4464 197.677 22.5676 200.605 21.1859C193.427 20.3375 183.793 21.3556 176.238 20.483C179.449 19.174 187.288 20.2891 191.255 19.9255L198.81 18.9559H216.566L224.406 18.0832H239.423C247.828 17.8166 251.89 16.0471 259.54 17.5984L250.095 18.9559H237.25L230.072 19.9255H217.416L207.972 21.2829C214.205 22.3494 218.644 21.6222 223.556 20.895H253.967L279.846 18.7862L289.29 19.877H329.053L333.397 18.059H379.676L386.004 17.1379H401.493C409.521 16.9197 410.938 15.7562 419.155 16.1683L427.561 17.3076L430.961 19.9255C433.889 17.7439 446.261 17.1379 461.278 16.1925H482.529L490.934 15.1745C497.262 16.2652 490.935 17.8408 496.601 19.1498L506.046 17.3318L507.463 15.4896L524.558 14.3018L526.635 15.6835C530.885 16.1441 533.247 17.2348 541.275 17.0652L554.497 14.1322L563.375 15.2957L575.086 14.4473L595.015 15.9501C602.76 15.5865 602.193 14.1079 607.482 13.2595H613.904C618.343 14.1079 627.221 14.4958 623.349 15.8289C629.394 16.0229 629.393 16.0229 630.055 14.6897C635.627 14.1564 638.083 12.6293 648.944 13.5504L650.738 15.7562C652.447 15.996 654.363 16.1216 656.311 16.1216C658.258 16.1216 660.174 15.996 661.883 15.7562C661.128 14.9563 652.439 14.4473 658.767 13.3322L667.645 14.1806C671.989 14.1806 676.522 14.1806 676.05 13.2353H692.295L697.962 12.4111H724.029L731.302 11.3446C733.852 11.3446 738.007 11.3446 742.069 11.3446C743.891 11.4258 745.667 11.5642 747.358 11.7566L741.03 12.7747C739.707 13.914 746.508 14.3503 750.474 15.0048L763.508 13.5989L755.291 11.7566C756.991 11.1264 760.958 11.2719 765.491 11.4415L769.269 12.9202L788.158 12.096L796.47 13.1625L803.176 12.2657L814.604 13.9625C827.543 13.2595 840.577 12.6778 858.805 11.5385L864.66 10.3023H881L888.178 9.30844H913.867L919.44 8.50852L929.451 9.45387L942.39 8.33886L956.652 9.47809L966.096 8.46003L972.519 9.30844L978.091 8.50852H996.131L1004.06 7.63589L1024.94 9.21146C1028.74 8.67313 1032.97 8.36629 1037.31 8.3146C1041.28 8.3146 1044.2 7.15109 1051.57 7.56317C1052.61 8.02372 1054.03 8.58125 1055.44 9.163C1062.05 9.01756 1064.32 8.04797 1069.8 7.49045L1075.94 9.33266L1083.02 8.38731H1111.92L1123.35 6.71476C1124.48 7.12684 1125.81 7.68436 1127.51 8.3146H1148.66L1154.23 7.51468H1173.88L1181.34 8.4358L1184.84 6.83597C1190.28 6.63719 1195.57 6.22004 1200.51 5.59975L1205.9 6.39967H1220.44L1225.07 5.72096C1231.3 5.96336 1234.04 6.86022 1238.48 7.34502C1240.8 7.5024 1243.24 7.50714 1245.56 7.35885C1247.89 7.21056 1250.04 6.91401 1251.8 6.49661H1265.02L1273.05 7.5874L1289.67 6.39967L1306.58 8.62972L1318.19 7.49045H1355.97L1369.86 5.55126C1374.3 5.55126 1379.3 5.55125 1379.3 6.37541C1379.3 7.19956 1384.59 7.85406 1390.92 8.33886C1391.58 7.82982 1392.24 7.39349 1392.9 6.88446L1401.78 5.59975L1408.58 6.47239L1415.19 5.57549H1428.32C1433.04 6.76324 1441.16 6.47237 1447.21 6.49661L1452.59 7.2723C1462.04 6.98143 1462.04 5.55125 1466.57 4.63014L1473.46 5.55126H1486.12L1493.02 6.47239L1498.59 5.67247H1525.13C1533.34 6.13303 1537.12 7.85404 1546.47 8.38731C1555.92 8.50851 1554.03 7.49044 1555.26 6.83597C1559.22 6.61781 1563 6.4239 1566.59 6.15726C1570.18 5.89062 1571.59 5.67247 1574.33 5.40583L1585.01 6.44812L1589.54 4.6544L1596.53 5.45432H1636.67L1642.15 4.63014L1649.04 5.55126H1694.19L1700.99 6.44812L1707.98 5.57549C1714.79 5.43989 1721.64 5.70519 1728 6.35118L1733 5.62398H1754.16L1764.93 7.66011L1769.27 6.93295C1771.26 6.69055 1772.11 6.52088 1772.96 6.52088H1804.97L1809.88 5.8179C1811.81 5.70965 1813.77 5.63675 1815.74 5.59975H1850.5L1863.15 7.44196L1870.14 6.59359H1895.93L1902.54 7.46623L1909.34 6.56933H1941.73L1947.59 7.41774C1962.23 7.68437 1978.28 7.41773 1994.06 7.56317L1999.91 8.41158H2020.12C2020.99 8.80015 2022.27 9.11898 2023.81 9.33266C2019.65 9.50234 2014.36 9.33267 2019.08 10.2538C2020.76 9.98184 2022.34 9.67367 2023.81 9.33266C2024.75 9.33266 2027.4 9.33267 2028.25 9.0418C2029.99 8.54539 2031.6 8.01898 2033.06 7.46623C2033.78 7.29954 2034.61 7.16808 2035.52 7.07838L2028.62 5.89062V2.0365C2027.52 2.02198 2026.42 2.02198 2025.32 2.0365L2013.04 3.806C2006.05 2.86065 2014.83 1.01843 2003.59 0.436671C2008.79 -0.314762 2014.55 0.170051 2019.46 0.000372586L2026.55 0.969949H2045.91C2047.13 1.50322 2048.46 2.03649 2049.68 2.59401L2060.74 3.15151L2061.3 4.19384L2054.97 5.21191L2061.02 6.18148L2053.75 7.34502L2059.79 9.11451L2055.26 9.96292V13.8413C2060.36 14.5442 2066.12 14.0594 2074.15 14.3503L2086.99 16.2168L2099.93 15.1987H2116.46C2122.03 14.5442 2119.2 13.8655 2119.95 13.2838H2132.99V15.7077C2139.79 16.7985 2149.42 15.7077 2156.32 16.2652L2161.89 17.0652H2182.19L2197.49 19.8285V22.4222L2192.58 23.1493L2200.42 25.5733H2228.09C2234.23 24.5552 2227.06 23.1494 2232.53 22.0828C2236.97 22.713 2236.97 22.713 2237.07 25.1855C2238.77 25.3552 2240.66 25.6945 2242.07 25.6461C2253.31 25.4965 2264.54 25.9933 2274.94 27.1004L2282.21 29.5244V32.6998C2290.52 33.3543 2288.82 34.3481 2289.2 35.5358L2303.84 37.669C2320.56 37.9598 2321.88 40.0929 2328.49 41.8867L2322.82 43.0502C2322.82 43.9228 2328.02 43.438 2332.27 43.632L2340.68 44.9894V48.9647L2329.34 49.5465C2326.51 50.5888 2330.48 51.0978 2334.73 51.5583V54.3217C2336.52 54.9761 2342.38 55.1216 2341.43 55.8973H2331.99C2325.94 56.6487 2328.96 57.5698 2329.81 58.4425L2342.56 59.1454L2329.15 60.0907L2328.59 61.1088L2341.53 62.0057V64.26L2361.55 66.684V68.8898L2373.92 69.5443L2368.25 70.6351V75.483C2369.58 75.6527 2370.33 75.8466 2371.09 75.8466C2375.34 75.8466 2379.68 75.8466 2384.03 75.8466C2388.37 76.4768 2389.13 77.107 2384.03 77.6888L2377.04 76.8162C2374.39 77.5434 2367.59 77.7373 2367.59 78.6826C2363.63 78.6826 2361.74 78.4402 2361.17 77.9554C2360.6 77.4706 2363.15 76.4041 2357.11 75.7981L2348.99 76.0405C2348.99 77.0586 2346.44 77.8585 2351.35 78.7554C2357.31 79.7948 2361.42 81.3989 2362.78 83.2155L2372.22 84.4759L2380.72 84.0154V82.9973L2374.3 81.9792V80.5976C2382.23 80.4279 2384.59 79.1917 2391.02 78.7554C2396.12 79.3614 2392.81 80.1855 2393.94 80.9612L2387.62 82.0035V85.1304C2389.32 85.7607 2398.29 86.197 2391.49 87.5544L2382.04 86.6091L2361.93 88.0635C2364 88.6147 2366.31 89.1027 2368.82 89.5178C2364.66 89.6633 2359.38 89.5178 2364 90.4147C2365.69 90.1467 2367.3 89.8469 2368.82 89.5178C2371.09 89.5178 2374.39 89.5178 2377.6 89.5178C2383.55 90.2693 2380.72 91.1904 2379.68 92.0872C2375.43 92.6205 2375.24 91.7236 2370.24 91.6267L2364.29 92.2569H2337.65L2332.74 91.5539C2327.16 92.1084 2322.32 93.0584 2318.76 94.2931C2316.5 93.6143 2314.51 92.9599 2311.96 92.1599L2291.09 93.5901L2287.5 95.093L2278.06 94.3415L2275.79 95.9171C2262.57 96.5958 2247.46 95.9171 2233.57 96.2565L2228.19 97.0564L2221.29 96.1595H2208.54L2201.74 97.1049H2162.08L2158.3 97.7351C2156.29 97.8799 2154.24 97.9773 2152.16 98.026H2103.71L2098.04 98.8501H2065.46L2059.79 99.6985C2054.03 99.8197 2051.01 98.3411 2043.92 99.141C2039.96 99.8197 2042.79 100.765 2041.94 101.662ZM51.7568 41.0625C50.529 40.4323 54.8735 39.5839 47.8845 39.2446C45.0511 40.4808 45.051 40.4808 51.8512 41.2322C52.6068 41.9594 49.679 42.9048 54.3069 43.8259C59.2181 43.1229 59.2181 42.0079 64.696 41.4019C65.1682 41.4019 64.696 41.0868 64.696 40.9413C64.696 40.7959 62.807 40.4323 61.8625 40.1657C58.6096 40.5263 55.2242 40.8023 51.7568 40.9898V41.0625ZM2223.28 34.1542C2224.79 34.8814 2224.32 35.6086 2229.98 34.9783C2228.1 34.7268 2226.1 34.5394 2224.03 34.4208C2226.39 32.2635 2245.38 32.7483 2250.01 30.9061C2249.06 30.2274 2252.37 29.4032 2247.65 28.8457H2226.49L2214.87 30.5425L2205.43 30.8091V33.0149L2214.4 34.4208C2217.42 34.4492 2220.43 34.3342 2223.28 34.0815V34.1542ZM2009.07 98.7774C2002.74 98.9956 2000.76 99.844 1996.32 100.232C1991.88 100.62 1987.63 100.886 1982.82 101.226L1984.99 102.413C1994.43 103.335 1997.36 101.104 2005.67 101.662C2009.83 100.014 2021.54 101.201 2028.91 100.28L2009.07 98.7774ZM2152.35 21.5495L2165.48 22.4949L2180.87 21.5738C2174.36 21.3369 2168 20.872 2161.98 20.1921L2152.35 21.5495ZM91.4244 40.2141L99.2635 42.6381L110.786 41.6928L100.302 40.0444L91.4244 40.2141ZM185.305 33.2816L194.749 31.9726C191.645 31.5847 188.238 31.3831 184.785 31.3831C181.333 31.3831 177.925 31.5847 174.821 31.9726L185.305 33.2816ZM135.72 86.3666L122.875 86.706L125.142 88.4998L135.72 88.2089V86.3666ZM220.722 31.0272C217.659 30.6328 214.279 30.4274 210.852 30.4274C207.425 30.4274 204.046 30.6328 200.983 31.0272C204.07 31.4296 207.484 31.6394 210.947 31.6394C214.41 31.6394 217.824 31.4296 220.911 31.0272H220.722ZM2178.13 24.6764V24.0704L2169.54 23.925C2168.78 23.925 2167.27 24.1674 2167.46 24.2159C2167.65 24.2644 2168.88 24.8219 2169.73 24.8219C2172.54 24.8179 2175.34 24.7693 2178.13 24.6764ZM2253.69 35.3662C2257.94 34.4936 2259.83 33.8876 2252.75 33.4997C2248.87 34.0572 2249.06 34.5905 2253.69 35.3662ZM2325.28 69.3019C2321.03 70.1745 2319.14 70.7805 2326.22 71.1683C2329.25 70.5866 2329.25 70.126 2324.9 69.3504L2325.28 69.3019ZM2351.25 88.2816C2347 89.13 2345.11 89.736 2352.2 90.1238C2355.31 89.6148 2355.13 89.1058 2350.88 88.3301L2351.25 88.2816ZM913.867 10.7143C913.112 10.7143 911.695 10.9325 911.884 11.0294C912.403 11.2666 913.073 11.4797 913.867 11.6597C914.623 11.6597 916.039 11.4173 915.945 11.3446C915.304 11.073 914.472 10.8346 913.49 10.6416L913.867 10.7143ZM719.685 14.3745L722.046 14.0352C720.609 13.8936 719.123 13.788 717.607 13.7201C717.134 13.7201 716.19 13.914 715.529 14.0352L719.685 14.3745ZM464.678 17.356C464.017 17.356 462.6 17.5742 462.695 17.6469C463.242 17.8864 463.909 18.1064 464.678 18.3014C465.434 18.1802 466.851 18.059 466.756 17.9863C466.238 17.7141 465.534 17.4678 464.678 17.2591V17.356ZM2329.25 47.0013L2331.51 47.6073C2332.27 47.6073 2333.69 47.3891 2333.59 47.3164C2333.04 47.071 2332.34 46.8501 2331.51 46.6619L2329.25 47.0013ZM2319.8 48.6981L2315.55 49.0374C2316.31 49.0374 2317.16 49.3525 2317.72 49.3283C2319.2 49.2571 2320.65 49.1599 2322.07 49.0374L2319.8 48.6981ZM2272.58 72.2833C2271.82 72.2833 2270.41 72.5015 2270.5 72.5742C2271.05 72.8196 2271.75 73.0405 2272.58 73.2287C2273.24 73.1075 2274.66 72.9863 2274.56 72.9136C2274.04 72.6765 2273.37 72.4634 2272.58 72.2833ZM2245.57 82.561L2249.82 82.2217C2249.06 82.2217 2248.21 81.9065 2247.65 81.9308C2246.17 82.002 2244.72 82.0992 2243.3 82.2217L2245.57 82.561ZM533.625 106.074L535.986 106.413C536.78 106.233 537.45 106.02 537.969 105.783C537.969 105.783 536.741 105.565 535.986 105.468L533.625 106.074ZM1911.6 9.11451C1910.85 9.11451 1910 8.79941 1909.43 8.82365C1907.96 8.89485 1906.51 8.99203 1905.09 9.11451C1905.75 9.11451 1906.69 9.42962 1907.16 9.40538C1908.75 9.36935 1910.33 9.30454 1911.89 9.21146L1911.6 9.11451Z" fill="url(#paint0_linear_9_806)"/>
<defs>
<linearGradient id="paint0_linear_9_806" x1="176.481" y1="56.1913" x2="2290.76" y2="56.1913" gradientUnits="userSpaceOnUse">
<stop stop-color="#DEB457"/>
<stop offset="0.23" stop-color="#E2BF63"/>
<stop offset="0.41" stop-color="#D6AB47"/>
<stop offset="0.59" stop-color="#AE8225"/>
<stop offset="0.77" stop-color="#CF9E25"/>
<stop offset="1" stop-color="#B48A2D"/>
</linearGradient>
</defs>
</svg>
