<svg width="336" height="177" viewBox="0 0 336 177" fill="none" xmlns="http://www.w3.org/2000/svg">
<path d="M330.453 105.694C330.767 106.245 329.51 106.853 330.453 107.405C330.484 107.476 330.501 107.554 330.501 107.633C330.501 107.712 330.484 107.789 330.453 107.861C329.602 108.374 329.565 108.831 330.212 109.762C330.354 109.897 330.458 110.069 330.514 110.26C330.57 110.45 330.576 110.652 330.531 110.846C330.486 111.039 330.391 111.217 330.257 111.361C330.123 111.504 329.955 111.609 329.768 111.663C328.564 112.164 327.465 112.9 326.533 113.83C326.048 114.249 325.445 114.495 324.813 114.533C322.139 114.85 319.458 115.135 316.771 115.389C315.033 115.541 313.313 115.579 311.575 115.693C310.547 115.766 309.555 116.115 308.698 116.706C307.842 117.296 307.151 118.107 306.694 119.058C305.881 120.502 304.993 121.89 304.217 123.354C303.75 124.231 303.372 125.154 303.089 126.11C302.849 126.947 302.849 127.859 302.664 128.734C302.109 131.186 302.183 133.353 304.882 134.437C305.086 134.532 305.141 135.007 305.252 135.273C304.402 137.174 302.534 136.337 301.185 137.174C300.704 139.075 301.407 141.109 301.37 143.086C301.426 143.523 301.629 143.926 301.943 144.227C303.484 146.118 304.294 148.527 304.217 150.994C304.252 153.224 304.665 155.43 305.437 157.514C305.883 158.652 306.074 159.878 305.997 161.102C305.92 162.326 305.577 163.517 304.993 164.586C304.831 164.94 304.567 165.235 304.236 165.429C303.905 165.623 303.524 165.707 303.144 165.669L293.789 165.441C293.309 165.345 292.814 165.356 292.339 165.475C291.864 165.593 291.419 165.815 291.034 166.126C290.769 166.365 290.456 166.541 290.118 166.643C289.779 166.745 289.423 166.769 289.074 166.715C282.16 166.411 275.263 166.088 268.348 165.803L249.86 165.099L231.722 164.358C229.67 164.358 227.617 164.035 225.565 163.978C215.729 163.654 205.893 163.293 195.983 163.141C190.806 163.046 185.611 163.445 180.434 163.388C175.664 163.388 170.93 163.883 166.179 163.978C156.435 164.206 146.71 164.282 136.966 164.567C127.888 164.833 118.829 165.327 109.751 165.612C103.483 165.803 97.2153 165.936 90.9476 165.879C82.1838 165.879 73.4201 165.498 64.6749 165.308C59.8123 165.194 54.9497 165.118 50.0871 164.985C48.9963 164.985 47.9239 164.852 46.8516 164.738C45.4138 164.577 44.0906 163.856 43.1538 162.723C42.8231 162.436 42.6007 162.039 42.5252 161.601C42.5207 160.277 42.1277 158.985 41.3974 157.894C41.1308 157.363 41.027 156.76 41.0996 156.166C41.1722 155.573 41.4178 155.015 41.8042 154.568C42.7024 153.458 43.5124 152.275 44.2262 151.032C44.4481 150.671 44.2262 150.063 44.2262 149.511C45.8347 148.599 45.8347 148.599 47.6281 146.07L46.7961 145.785L45.7607 145.348C46.4672 144.565 47.3262 143.943 48.2819 143.524C49.2376 143.105 50.2685 142.897 51.3074 142.915C54.4505 143.01 57.5751 142.915 60.7182 142.782C61.2214 142.751 61.707 142.58 62.1234 142.288C57.9068 141.795 53.6651 141.567 49.4216 141.603C49.0148 140.767 49.514 140.501 50.0502 140.387C52.577 139.725 55.1713 139.374 57.7785 139.341C58.3147 138.277 57.7785 137.82 57.1499 137.668C56.3068 137.462 55.4461 137.341 54.58 137.307C51.5749 137.016 48.553 136.952 45.5389 137.117C43.2832 137.345 41.0091 137.478 38.735 137.573C37.9942 137.57 37.2561 137.481 36.5348 137.307C36.1096 137.307 35.6658 136.87 35.3145 136.965C33.3732 137.535 32.042 136.3 30.5259 135.482C29.8375 135.155 29.2697 134.608 28.9067 133.924C28.5438 133.239 28.4049 132.452 28.5106 131.68C28.9914 128.41 27.2903 125.977 26.1071 123.221C25.7365 122.54 25.2404 121.939 24.6465 121.453C24.0363 120.845 23.2968 120.35 22.6496 119.761C20.2986 117.588 17.2849 116.324 14.1263 116.187C13.3731 116.168 12.6263 116.04 11.9076 115.807C10.6409 115.482 9.53592 114.687 8.80544 113.574C8.07496 112.462 7.77065 111.11 7.95102 109.781C8.06589 108.312 7.90262 106.833 7.47029 105.428C9.07882 103.128 8.98637 100.257 9.54103 97.5768C9.65197 97.0635 8.85695 96.4552 9.54103 95.8469C10.5949 94.9724 10.0587 94.079 9.43011 93.1285C10.0402 91.9689 11.279 90.8283 10.0218 89.3266C9.92932 89.2125 10.0218 88.8893 10.0218 88.7182C10.2597 88.1541 10.3391 87.5326 10.2508 86.9244C10.1626 86.3162 9.91028 85.7457 9.52253 85.2775C8.81679 84.3657 8.40919 83.248 8.35777 82.0839C9.06035 81.7037 9.83687 81.3615 10.5394 80.9052C11.242 80.449 11.4823 79.6696 11.0201 78.6241C10.4004 76.794 10.2352 74.8337 10.5394 72.9212C11.1923 71.4448 11.4782 69.8248 11.3714 68.2068C11.3714 66.8761 12.2034 65.5645 11.3714 64.1387L10.1327 63.9677C10.1139 63.8035 10.1139 63.6376 10.1327 63.4734C10.5579 61.7435 12.2404 60.831 12.906 58.9871L11.7782 57.0861C12 56.7059 12.4993 56.2687 12.4993 55.8505C12.4993 54.1776 12.3329 52.5238 12.2589 50.8699C12.2054 50.38 12.2903 49.8846 12.5034 49.443C12.7166 49.0014 13.0489 48.6322 13.4607 48.3797C14.479 47.563 15.1514 46.3736 15.3374 45.0595C15.5235 43.7455 15.2088 42.4084 14.4591 41.3271C13.9998 40.5236 13.2694 39.9215 12.4068 39.6352C13.4422 38.9889 14.8288 38.7418 14.607 37.1449C14.6075 36.9214 14.6863 36.7054 14.8289 36.5366C15.2726 36.0804 16.1416 35.7002 16.1601 35.244C16.2612 33.9675 16.155 32.6826 15.8457 31.442C15.5147 30.7383 15.4546 29.9319 15.6774 29.1845C15.9003 28.4371 16.3897 27.804 17.0475 27.412C18.8964 26.1954 19.2662 23.9332 19.9872 22.0513C20.394 20.9867 19.8208 19.523 19.6914 18.1353C20.217 17.4931 20.792 16.8955 21.4109 16.3483C22.001 15.8776 22.6634 15.5113 23.3707 15.2648C27.2066 14.0538 31.1913 13.4137 35.2036 13.3638C40.6024 13.2307 46.0196 13.1357 51.4183 12.9456C57.5751 12.7175 63.7319 12.3754 69.9072 12.1662C72.6066 12.0712 75.306 12.1662 78.0054 12.2613C85.4009 12.2613 92.7965 12.3753 100.081 12.5084C101.93 12.5084 103.927 12.9456 105.85 12.9837C107.772 13.0217 109.714 12.8696 111.655 12.7935C112.625 12.686 113.601 12.6352 114.576 12.6415C117.927 12.7871 121.283 12.6663 124.616 12.2803C125.781 12.1472 126.982 12.2803 128.147 12.2803C128.577 12.2247 129.013 12.2769 129.419 12.4325C129.825 12.5881 130.188 12.8425 130.477 13.1738C130.741 13.4509 131.063 13.6619 131.419 13.7904C131.775 13.919 132.155 13.9616 132.529 13.9151C135.876 13.9151 139.222 14.0102 142.569 14.0672C143.111 14.0954 143.654 14.0954 144.196 14.0672C145.263 13.8824 146.356 13.9308 147.404 14.2092C148.452 14.4876 149.432 14.9897 150.278 15.683C151.502 16.4144 152.921 16.7211 154.327 16.5575C154.956 16.5575 155.529 16.4244 155.862 17.3179C155.973 17.641 157.008 17.8121 157.6 17.7361C161.991 17.261 166.427 17.4983 170.746 18.4394C171.966 18.6675 173.371 18.4394 174.554 19.504L171.208 20.5875C170.875 22.6216 173.168 21.557 173.5 22.7356C173.353 22.9067 173.223 23.1728 173.075 23.1728C170.381 23.3582 167.721 23.9013 165.162 24.7887C164.118 25.0759 163.044 25.2291 161.963 25.2449C161.312 25.215 160.664 25.3629 160.086 25.6733C159.508 25.9838 159.021 26.4459 158.672 27.0128C158.295 27.6829 158.157 28.4671 158.282 29.2305C158.407 29.9938 158.787 30.6885 159.356 31.1949C161.926 31.366 164.718 31.6512 167.529 31.7082C174.222 31.8413 180.933 31.9173 187.626 31.9173C195.521 31.9173 203.415 31.7462 211.31 31.6892C213.362 31.6892 215.415 31.6892 217.467 31.8412C226.231 32.1264 234.994 32.3735 243.74 32.7157C249.471 32.9438 255.184 33.343 260.916 33.6092C266.204 33.8373 271.51 33.9893 276.798 34.1224C277.657 34.1189 278.507 34.3002 279.294 34.6547C280.205 34.9755 281.16 35.1424 282.123 35.149C286.227 35.4911 290.313 35.8143 294.418 36.1184C297.524 36.32 300.577 37.0391 303.459 38.2475C303.855 38.4263 304.271 38.5539 304.698 38.6277C306.196 38.6559 307.631 39.2516 308.728 40.3006C309.135 40.7188 309.985 40.6618 310.577 40.9659C311.169 41.2701 311.964 41.9354 312.796 42.5437C312.25 43.4468 311.94 44.4789 311.895 45.5409C311.849 46.6029 312.071 47.659 312.537 48.6078C311.983 49.3526 311.476 50.1337 311.021 50.946C310.74 51.4253 310.592 51.974 310.592 52.5333C310.592 53.0926 310.74 53.6413 311.021 54.1206C311.341 54.569 311.551 55.091 311.631 55.6414C311.682 56.1403 311.862 56.6161 312.151 57.0202C312.44 57.4244 312.829 57.7423 313.276 57.9416C313.544 58.1956 313.78 58.4829 313.979 58.797C313.609 59.5574 313.184 60.3178 312.87 61.1162C312.652 61.5713 312.609 62.0942 312.749 62.5804C312.89 63.0667 313.203 63.4806 313.628 63.7395C314.441 64.2813 315.294 64.758 316.179 65.1652C316.624 65.3649 317.02 65.6663 317.335 66.0465C317.65 66.4267 317.877 66.8756 317.998 67.3593C318.119 67.843 318.131 68.3488 318.034 68.8382C317.937 69.3276 317.732 69.7878 317.436 70.1838C316.876 70.8572 316.369 71.5755 315.92 72.3319C315.518 73.3306 315.172 74.3525 314.885 75.3924C316.327 77.0083 318.157 76.419 319.747 76.495C320.191 77.2934 319.747 77.6356 319.285 77.8827C318.823 78.1298 317.991 78.7002 318.157 79.6506C318.287 79.8027 318.379 80.0308 318.546 80.1259C319.082 80.392 319.932 80.1259 319.914 81.1904C319.923 81.4691 319.841 81.7429 319.68 81.9672C319.518 82.1916 319.288 82.3533 319.026 82.426C318.398 82.6351 317.714 82.8443 317.751 83.6807C317.766 84.0189 317.888 84.3428 318.098 84.6034C318.308 84.8641 318.595 85.0473 318.916 85.1254C322.022 86.0759 322.613 88.7563 323.131 91.5697C323.182 92.2022 323.182 92.8381 323.131 93.4707C323.131 94.6873 323.131 95.8849 323.131 96.4742C324.37 97.8429 325.239 98.8314 326.145 99.7819C326.928 100.714 327.966 101.381 329.124 101.696C330.282 102.011 331.505 101.96 332.634 101.55C333.355 101.303 334.095 101.151 334.816 100.98C335.054 101.009 335.285 101.08 335.5 101.189C334.391 101.816 333.355 102.329 332.394 102.976C331.686 103.49 331.029 104.076 330.434 104.724C330.305 104.857 330.434 105.295 330.434 105.58L330.453 105.694ZM70.3694 142.383V142.097L66.949 142.25V142.554L70.3694 142.383ZM64.3976 142.116L64.6379 142.002L64.3976 141.907V142.116ZM73.0873 142.116H72.8469C72.8469 142.116 72.8469 142.23 72.8469 142.288H73.0689C73.0689 142.288 73.0688 142.211 73.0873 142.154V142.116ZM63.8429 0C63.6432 0.0130254 63.4452 0.0448761 63.2512 0.0950833C63.2512 0.209141 63.4176 0.437225 63.4916 0.418215C63.6831 0.378845 63.8652 0.301361 64.0278 0.190108C64.0278 0.190108 63.8429 0.0190468 63.7874 0.0380565L63.8429 0ZM121.158 176.106C121.158 176.106 120.9 176.372 120.9 176.524C120.9 176.676 121.103 177.018 121.14 176.999C121.443 176.891 121.734 176.75 122.009 176.581C121.727 176.441 121.437 176.32 121.14 176.22L121.158 176.106ZM330.453 105.694L331.821 105.789V105.542L330.471 105.675L330.453 105.694ZM1.01769 109.135C1.01769 109.135 1.1471 108.926 1.12862 108.907C1.11013 108.888 0.906706 108.64 0.795772 108.64C0.684839 108.64 0.592444 108.849 0.5 108.964C0.666778 109.038 0.84015 109.095 1.01769 109.135Z" fill="white"/>
</svg>
