<svg width="432" height="263" viewBox="0 0 432 263" fill="none" xmlns="http://www.w3.org/2000/svg">
<path d="M425.491 157.048C425.896 157.867 424.275 158.771 425.491 159.59C425.532 159.697 425.553 159.812 425.553 159.929C425.553 160.046 425.532 160.162 425.491 160.268C424.394 161.031 424.347 161.709 425.181 163.093C425.364 163.294 425.499 163.549 425.571 163.832C425.643 164.115 425.65 164.416 425.592 164.703C425.534 164.991 425.412 165.255 425.239 165.468C425.067 165.681 424.849 165.836 424.609 165.917C423.056 166.662 421.639 167.755 420.437 169.137C419.812 169.759 419.034 170.126 418.219 170.182C414.77 170.653 411.313 171.077 407.848 171.453C405.607 171.679 403.389 171.736 401.148 171.905C399.822 172.014 398.542 172.533 397.438 173.41C396.333 174.288 395.442 175.492 394.854 176.905C393.805 179.052 392.66 181.114 391.659 183.289C391.057 184.591 390.57 185.964 390.204 187.384C389.894 188.627 389.894 189.983 389.656 191.282C388.941 194.926 389.036 198.146 392.517 199.756C392.779 199.897 392.851 200.603 392.994 200.999C391.897 203.823 389.489 202.581 387.749 203.823C387.129 206.648 388.035 209.67 387.987 212.608C388.06 213.257 388.321 213.856 388.726 214.303C390.714 217.114 391.758 220.693 391.659 224.358C391.704 227.672 392.236 230.95 393.232 234.047C393.807 235.737 394.054 237.559 393.955 239.378C393.856 241.196 393.413 242.965 392.66 244.554C392.451 245.081 392.11 245.518 391.683 245.806C391.256 246.095 390.765 246.22 390.276 246.164L378.212 245.825C377.593 245.682 376.955 245.699 376.342 245.875C375.729 246.05 375.155 246.38 374.659 246.842C374.317 247.197 373.914 247.46 373.477 247.611C373.041 247.762 372.582 247.799 372.132 247.718C363.215 247.266 354.322 246.786 345.405 246.362L321.562 245.317L298.173 244.215C295.526 244.215 292.88 243.735 290.233 243.65C277.549 243.17 264.865 242.633 252.085 242.408C245.41 242.266 238.71 242.859 232.034 242.775C225.883 242.775 219.779 243.509 213.652 243.65C201.087 243.989 188.546 244.102 175.981 244.526C164.274 244.921 152.591 245.656 140.885 246.08C132.802 246.362 124.719 246.56 116.637 246.475C105.336 246.475 94.0343 245.91 82.7569 245.628C76.4863 245.458 70.2158 245.345 63.9452 245.147C62.5385 245.147 61.1557 244.95 59.7728 244.78C57.9187 244.541 56.2123 243.469 55.0043 241.786C54.5779 241.36 54.291 240.77 54.1937 240.12C54.188 238.152 53.6811 236.232 52.7393 234.612C52.3956 233.821 52.2617 232.926 52.3553 232.044C52.4489 231.162 52.7657 230.334 53.2639 229.669C54.4222 228.019 55.4667 226.262 56.3872 224.415C56.6733 223.878 56.3872 222.974 56.3872 222.155C58.4615 220.799 58.4615 220.799 60.7742 217.043L59.7013 216.619L58.3661 215.969C59.2771 214.805 60.3849 213.881 61.6173 213.259C62.8497 212.636 64.1791 212.327 65.5188 212.354C69.572 212.495 73.6014 212.354 77.6546 212.156C78.3035 212.11 78.9297 211.856 79.4666 211.422C74.0291 210.69 68.5592 210.351 63.0869 210.405C62.5624 209.162 63.2061 208.766 63.8975 208.597C67.1561 207.614 70.5015 207.093 73.8636 207.043C74.5551 205.462 73.8637 204.784 73.053 204.558C71.9658 204.251 70.8558 204.071 69.739 204.021C65.8638 203.588 61.9669 203.494 58.08 203.739C55.1712 204.078 52.2386 204.275 49.306 204.417C48.3507 204.412 47.3989 204.28 46.4688 204.021C45.9204 204.021 45.3482 203.372 44.8952 203.513C42.3917 204.36 40.6751 202.524 38.72 201.31C37.8322 200.823 37.1 200.011 36.632 198.994C36.1639 197.977 35.9849 196.808 36.1212 195.66C36.7411 190.802 34.5476 187.186 33.0216 183.091C32.5438 182.079 31.9041 181.186 31.1381 180.464C30.3513 179.56 29.3976 178.826 28.5631 177.95C25.5313 174.721 21.6451 172.844 17.5718 172.64C16.6006 172.61 15.6375 172.42 14.7107 172.075C13.0772 171.592 11.6523 170.41 10.7103 168.757C9.7683 167.104 9.37588 165.096 9.60848 163.121C9.75661 160.938 9.54607 158.741 8.98855 156.653C11.0628 153.235 10.9436 148.97 11.6589 144.987C11.8019 144.224 10.7767 143.32 11.6589 142.417C13.0179 141.117 12.3265 139.79 11.5158 138.377C12.3026 136.654 13.9001 134.96 12.2788 132.728C12.1596 132.559 12.2788 132.079 12.2788 131.824C12.5857 130.986 12.688 130.063 12.5742 129.159C12.4604 128.255 12.1351 127.407 11.635 126.712C10.7249 125.357 10.1993 123.696 10.133 121.966C11.039 121.402 12.0404 120.893 12.9464 120.215C13.8524 119.537 14.1623 118.379 13.5662 116.826C12.7671 114.106 12.5541 111.194 12.9464 108.352C13.7883 106.158 14.1569 103.751 14.0193 101.347C14.0193 99.3696 15.0922 97.4206 14.0193 95.3022L12.4219 95.048C12.3976 94.804 12.3976 94.5575 12.4219 94.3136C12.9702 91.7432 15.1399 90.3873 15.9982 87.6474L14.5438 84.8228C14.8299 84.2579 15.4737 83.6083 15.4737 82.9869C15.4737 80.5012 15.2591 78.0438 15.1637 75.5864C15.0947 74.8585 15.2042 74.1224 15.4791 73.4662C15.7539 72.81 16.1824 72.2615 16.7135 71.8862C18.0267 70.6727 18.8938 68.9054 19.1336 66.9529C19.3735 65.0004 18.9677 63.0136 18.001 61.4069C17.4087 60.213 16.4669 59.3183 15.3544 58.893C16.6896 57.9326 18.4778 57.5654 18.1917 55.1928C18.1924 54.8606 18.294 54.5397 18.4778 54.2889C19.0501 53.611 20.1707 53.0461 20.1945 52.3682C20.325 50.4715 20.1879 48.5623 19.7891 46.719C19.3622 45.6733 19.2847 44.4751 19.5721 43.3646C19.8595 42.254 20.4906 41.3133 21.3389 40.7308C23.7231 38.9231 24.2 35.5618 25.1298 32.7654C25.6543 31.1836 24.9152 29.0087 24.7483 26.9467C25.4261 25.9926 26.1676 25.1047 26.9657 24.2916C27.7267 23.5921 28.5808 23.0479 29.493 22.6816C34.4396 20.8822 39.578 19.931 44.7521 19.857C51.7141 19.6592 58.6999 19.518 65.6619 19.2355C73.6014 18.8966 81.5409 18.3882 89.5042 18.0775C92.9852 17.9363 96.4662 18.0775 99.9472 18.2187C109.484 18.2187 119.021 18.3882 128.415 18.5859C130.799 18.5859 133.374 19.2356 135.854 19.2921C138.333 19.3486 140.837 19.1226 143.34 19.0096C144.591 18.8498 145.849 18.7744 147.107 18.7837C151.428 19 155.756 18.8206 160.054 18.247C161.556 18.0493 163.106 18.247 164.608 18.247C165.162 18.1644 165.724 18.242 166.248 18.4732C166.771 18.7044 167.239 19.0823 167.612 19.5746C167.952 19.9864 168.368 20.2999 168.827 20.4909C169.286 20.6819 169.775 20.7453 170.258 20.6761C174.574 20.6761 178.889 20.8174 183.205 20.9021C183.904 20.944 184.604 20.944 185.303 20.9021C186.679 20.6276 188.089 20.6994 189.441 21.1131C190.792 21.5267 192.055 22.2729 193.147 23.303C194.724 24.3897 196.555 24.8454 198.369 24.6024C199.179 24.6024 199.918 24.4046 200.348 25.7322C200.491 26.2124 201.826 26.4666 202.589 26.3536C208.251 25.6477 213.971 26.0004 219.541 27.3987C221.114 27.7376 222.926 27.3987 224.452 28.9805L220.137 30.5905C219.708 33.6128 222.664 32.0311 223.093 33.7823C222.902 34.0365 222.736 34.4319 222.545 34.4319C219.07 34.7074 215.64 35.5144 212.34 36.8329C210.994 37.2596 209.609 37.4873 208.215 37.5107C207.375 37.4664 206.54 37.6861 205.795 38.1474C205.05 38.6087 204.421 39.2954 203.972 40.1377C203.485 41.1333 203.307 42.2986 203.468 43.4328C203.629 44.5671 204.119 45.5993 204.854 46.3518C208.168 46.606 211.768 47.0297 215.392 47.1145C224.023 47.3122 232.678 47.4251 241.309 47.4251C251.489 47.4251 261.67 47.1709 271.851 47.0862C274.497 47.0862 277.144 47.0861 279.79 47.3121C291.092 47.7358 302.393 48.1031 313.67 48.6115C321.061 48.9504 328.429 49.5436 335.82 49.9391C342.639 50.278 349.482 50.5039 356.3 50.7017C357.408 50.6964 358.505 50.9658 359.519 51.4926C360.694 51.9692 361.926 52.2172 363.167 52.227C368.46 52.7354 373.729 53.2155 379.022 53.6675C383.028 53.967 386.965 55.0355 390.681 56.8311C391.192 57.0966 391.729 57.2863 392.279 57.396C394.211 57.4379 396.061 58.323 397.476 59.8816C398.001 60.503 399.098 60.4183 399.861 60.8703C400.624 61.3222 401.649 62.3108 402.722 63.2146C402.018 64.5565 401.618 66.0902 401.56 67.6682C401.501 69.2462 401.786 70.8154 402.388 72.2251C401.673 73.3319 401.02 74.4924 400.433 75.6994C400.071 76.4116 399.88 77.2269 399.88 78.0579C399.88 78.889 400.071 79.7043 400.433 80.4165C400.846 81.0827 401.116 81.8584 401.22 82.6762C401.286 83.4175 401.518 84.1245 401.89 84.725C402.263 85.3255 402.764 85.7979 403.341 86.0939C403.687 86.4714 403.991 86.8984 404.248 87.3651C403.771 88.4949 403.222 89.6247 402.817 90.8111C402.536 91.4873 402.48 92.2642 402.662 92.9868C402.843 93.7093 403.247 94.3243 403.795 94.709C404.844 95.514 405.944 96.2223 407.085 96.8274C407.659 97.1241 408.169 97.572 408.575 98.1369C408.981 98.7018 409.274 99.3688 409.43 100.088C409.586 100.806 409.602 101.558 409.477 102.285C409.352 103.012 409.088 103.696 408.706 104.284C407.984 105.285 407.33 106.352 406.751 107.476C406.232 108.96 405.786 110.479 405.416 112.024C407.275 114.425 409.636 113.549 411.686 113.662C412.259 114.848 411.686 115.357 411.09 115.724C410.494 116.091 409.421 116.939 409.636 118.351C409.803 118.577 409.922 118.916 410.137 119.057C410.828 119.453 411.925 119.057 411.901 120.639C411.913 121.053 411.807 121.46 411.599 121.793C411.391 122.126 411.094 122.367 410.757 122.475C409.946 122.786 409.064 123.096 409.111 124.339C409.131 124.842 409.288 125.323 409.559 125.71C409.83 126.098 410.2 126.37 410.613 126.486C414.619 127.898 415.382 131.881 416.05 136.061C416.116 137.001 416.116 137.946 416.05 138.886C416.05 140.694 416.05 142.473 416.05 143.349C417.647 145.382 418.768 146.851 419.936 148.264C420.946 149.648 422.285 150.639 423.778 151.108C425.271 151.576 426.848 151.501 428.304 150.89C429.234 150.523 430.188 150.297 431.118 150.043C431.424 150.087 431.723 150.192 432 150.354C430.569 151.286 429.234 152.048 427.995 153.009C427.081 153.773 426.235 154.644 425.467 155.607C425.3 155.805 425.467 156.455 425.467 156.879L425.491 157.048ZM90.1003 211.563V211.139L85.6894 211.365V211.817L90.1003 211.563ZM82.3993 211.167L82.7092 210.998L82.3993 210.857V211.167ZM93.6051 211.167H93.2952C93.2952 211.167 93.2952 211.337 93.2952 211.422H93.5813C93.5813 211.422 93.5813 211.309 93.6051 211.224V211.167ZM81.6839 0C81.4265 0.0193541 81.1711 0.0666804 80.921 0.141282C80.921 0.310758 81.1356 0.649662 81.2309 0.621416C81.4779 0.562916 81.7128 0.447785 81.9224 0.282478C81.9224 0.282478 81.6839 0.0283012 81.6124 0.0565472L81.6839 0ZM155.595 261.671C155.595 261.671 155.262 262.067 155.262 262.293C155.262 262.519 155.524 263.027 155.572 262.999C155.962 262.837 156.337 262.629 156.692 262.377C156.329 262.17 155.955 261.99 155.572 261.841L155.595 261.671ZM425.491 157.048L427.255 157.189V156.822L425.515 157.02L425.491 157.048ZM0.667584 162.161C0.667584 162.161 0.834475 161.85 0.810632 161.822C0.78679 161.793 0.524468 161.426 0.381414 161.426C0.23836 161.426 0.119212 161.737 0 161.906C0.215069 162.016 0.438642 162.102 0.667584 162.161Z" fill="url(#paint0_linear_9_603)"/>
<defs>
<linearGradient id="paint0_linear_9_603" x1="31.8461" y1="129.634" x2="413.37" y2="129.634" gradientUnits="userSpaceOnUse">
<stop stop-color="#DEB457"/>
<stop offset="0.23" stop-color="#E2BF63"/>
<stop offset="0.41" stop-color="#D6AB47"/>
<stop offset="0.59" stop-color="#AE8225"/>
<stop offset="0.77" stop-color="#CF9E25"/>
<stop offset="1" stop-color="#B48A2D"/>
</linearGradient>
</defs>
</svg>
