<svg width="24" height="24" viewBox="0 0 24 24" fill="none" xmlns="http://www.w3.org/2000/svg">
<path d="M15.22 6.5498H5.78C5.5 6.5498 5.24 6.5598 5 6.5698C2.63 6.7098 2 7.5798 2 10.2798V10.8598C2 11.4098 2.45 11.8598 3 11.8598H18C18.55 11.8598 19 11.4098 19 10.8598V10.2798C19 7.2998 18.24 6.5498 15.22 6.5498Z" fill="url(#paint0_linear_5_6279)"/>
<path d="M3 13.3599C2.45 13.3599 2 13.8099 2 14.3599V17.2699C2 20.2499 2.76 20.9999 5.78 20.9999H15.22C18.19 20.9999 18.97 20.2799 19 17.4299V14.3599C19 13.8099 18.55 13.3599 18 13.3599H3ZM6.96 18.5599H5.25C4.84 18.5599 4.5 18.2199 4.5 17.8099C4.5 17.3999 4.84 17.0599 5.25 17.0599H6.97C7.38 17.0599 7.72 17.3999 7.72 17.8099C7.72 18.2199 7.38 18.5599 6.96 18.5599ZM12.55 18.5599H9.11C8.7 18.5599 8.36 18.2199 8.36 17.8099C8.36 17.3999 8.7 17.0599 9.11 17.0599H12.55C12.96 17.0599 13.3 17.3999 13.3 17.8099C13.3 18.2199 12.97 18.5599 12.55 18.5599Z" fill="url(#paint1_linear_5_6279)"/>
<path d="M22 13.3301V8.0901C22 4.9601 20.21 3.6001 17.51 3.6001H8.57999C7.81999 3.6001 7.13999 3.7101 6.53999 3.9401C6.06999 4.1101 5.64999 4.3601 5.30999 4.6901C5.12999 4.8601 5.26999 5.1401 5.52999 5.1401H16.4C18.65 5.1401 20.47 6.9601 20.47 9.2101V16.3801C20.47 16.6301 20.74 16.7701 20.92 16.5901C21.61 15.8601 22 14.7901 22 13.3301Z" fill="url(#paint2_linear_5_6279)"/>
<defs>
<linearGradient id="paint0_linear_5_6279" x1="-0.109489" y1="7.80101" x2="14.7879" y2="17.3396" gradientUnits="userSpaceOnUse">
<stop stop-color="#00BCD4"/>
<stop offset="1" stop-color="#49C990"/>
</linearGradient>
<linearGradient id="paint1_linear_5_6279" x1="-0.109489" y1="15.1601" x2="17.4232" y2="22.9624" gradientUnits="userSpaceOnUse">
<stop stop-color="#00BCD4"/>
<stop offset="1" stop-color="#49C990"/>
</linearGradient>
<linearGradient id="paint2_linear_5_6279" x1="3.1478" y1="6.68014" x2="22.5897" y2="11.669" gradientUnits="userSpaceOnUse">
<stop stop-color="#00BCD4"/>
<stop offset="1" stop-color="#49C990"/>
</linearGradient>
</defs>
</svg>
